<?xml version="1.0" encoding="UTF-8"?>
<svg width="107px" height="120px" viewBox="0 0 107 120" version="1.1" xmlns="http://www.w3.org/2000/svg" xmlns:xlink="http://www.w3.org/1999/xlink">
    <!-- Generator: Sketch 64 (93537) - https://sketch.com -->
    <title>prevention</title>
    <desc>Created with Sketch.</desc>
    <g id="Landing2020" stroke="none" stroke-width="1" fill="none" fill-rule="evenodd">
        <g id="7.2020_rhexium" transform="translate(-261.000000, -1928.000000)" fill-rule="nonzero">
            <g id="prevention" transform="translate(135.000000, 1836.000000)">
                <g transform="translate(126.500000, 92.000000)">
                    <path d="M1.7578125,15.6025781 L1.7578125,38.8975781 C1.7578125,74.195625 22.7704687,104.584453 52.96875,118.242188 C83.1670313,104.584453 104.179688,74.195625 104.179688,38.8975781 L104.179688,15.6025781 C72.534375,-2.85703125 33.403125,-2.85703125 1.7578125,15.6025781 Z" id="Path" fill="#EBEDF2"></path>
                    <path d="M86.6015625,18.7450781 L52.96875,106.499063 C64.3160156,100.478438 73.9722656,91.6985156 81.0888281,80.8863281 C89.2952344,68.4178125 93.6328125,53.8982812 93.6328125,38.8973437 L93.6328125,21.8859375 C91.3314844,20.7384375 88.9851563,19.6914844 86.6015625,18.7450781 Z" id="Path" fill="#9B9B9B"></path>
                    <path d="M76.2264844,80.8865625 C83.01375,68.4180469 86.6015625,53.8985156 86.6015625,38.8975781 L86.6015625,18.7450781 C75.9342188,14.5092187 64.5128906,12.3046875 52.96875,12.3046875 C38.8448438,12.3046875 24.9044531,15.6028125 12.3046875,21.8859375 L12.3046875,38.8975781 C12.3046875,53.8985156 16.6422656,68.4180469 24.8489062,80.8865625 C31.9652344,91.69875 41.6214844,100.478437 52.96875,106.499297 C62.3540625,100.478437 70.340625,91.69875 76.2264844,80.8865625 Z" id="Path" fill="#D8D8D8"></path>
                    <path d="M55.3289062,20.0390625 L50.6085938,20.0390625 C48.5142188,20.0390625 46.8164063,21.736875 46.8164063,23.83125 C46.8164063,24.42 46.9535156,25.0007812 47.2167188,25.5271875 L49.453125,30 L56.484375,30 L58.7207812,25.5274219 C58.9839844,25.0007812 59.1210938,24.4202344 59.1210938,23.8314844 C59.1210938,21.736875 57.4232812,20.0390625 55.3289062,20.0390625 Z" id="Path" fill="#A9A9A9"></path>
                    <path d="M49.453125,30 L49.453125,39.1860937 L56.484375,39.1860937 L56.484375,30 C56.484375,28.0584375 54.9103125,26.484375 52.96875,26.484375 C51.0271875,26.484375 49.453125,28.0584375 49.453125,30 Z" id="Path" fill="#4A4A4A"></path>
                    <circle id="Oval" fill="#6D7278" cx="52.96875" cy="51.09375" r="15.8203125"></circle>
                    <path d="M52.96875,42.3046875 L52.96875,59.8828125 C57.8228906,59.8828125 61.7578125,55.9478906 61.7578125,51.09375 C61.7578125,46.2396094 57.8228906,42.3046875 52.96875,42.3046875 Z" id="Path" fill="#9B9B9B"></path>
                    <path d="M54.7265625,51.09375 C54.7265625,46.2396094 53.9395313,42.3046875 52.96875,42.3046875 C48.1146094,42.3046875 44.1796875,46.2396094 44.1796875,51.09375 C44.1796875,55.9478906 48.1146094,59.8828125 52.96875,59.8828125 C53.9395313,59.8828125 54.7265625,55.9478906 54.7265625,51.09375 Z" id="Path" fill="#DADEE1"></path>
                    <path d="M27.2545313,33.5224219 L24.894375,37.6101563 C23.8471875,39.4239844 24.4685156,41.7433594 26.2823438,42.7905469 C26.7923438,43.0849219 27.3635156,43.2564844 27.9513281,43.291875 L32.9430469,43.5914063 L36.4586719,37.5021094 L33.7033594,33.3290625 C33.3789844,32.8378125 32.9446875,32.4288281 32.4346875,32.1344531 C30.6210938,31.0872656 28.3017188,31.7088281 27.2545313,33.5224219 Z" id="Path" fill="#A9A9A9"></path>
                    <path d="M32.9432813,43.5914063 L40.8986719,48.1844531 L44.4142969,42.0951563 L36.4589063,37.5021094 C34.7775,36.5313281 32.6273438,37.1074219 31.6565625,38.7890625 C30.6855469,40.4707031 31.2616406,42.620625 32.9432813,43.5914063 Z" id="Path" fill="#4A4A4A"></path>
                    <path d="M24.8946094,64.5771094 L27.2547656,68.6648437 C28.3019531,70.4786719 30.6213281,71.1 32.4351562,70.0528125 C32.9451562,69.7584375 33.3794531,69.3494531 33.7038281,68.8579687 L36.4591406,64.6849219 L32.9435156,58.595625 L27.9520313,58.8951562 C27.3644531,58.9305469 26.7930469,59.1021094 26.2830469,59.3964844 C24.46875,60.4441406 23.8474219,62.7635156 24.8946094,64.5771094 Z" id="Path" fill="#A9A9A9"></path>
                    <path d="M36.4589062,64.6851563 L44.4142969,60.0921094 L40.8986719,54.0028125 L32.9432812,58.5958594 C31.261875,59.5666406 30.6855469,61.7167969 31.6565625,63.3984375 C32.6273437,65.0798438 34.7772656,65.6559375 36.4589062,64.6851563 L36.4589062,64.6851563 Z" id="Path" fill="#4A4A4A"></path>
                    <path d="M50.6085938,82.1484375 L55.3286719,82.1484375 C57.4230469,82.1484375 59.1208594,80.450625 59.1208594,78.35625 C59.1208594,77.7675 58.98375,77.1867187 58.7205469,76.6603125 L56.484375,72.1875 L49.453125,72.1875 L47.2167188,76.6600781 C46.9535156,77.1867187 46.8164063,77.7672656 46.8164063,78.3560156 C46.8164063,80.450625 48.5142188,82.1484375 50.6085938,82.1484375 L50.6085938,82.1484375 Z" id="Path" fill="#A9A9A9"></path>
                    <path d="M56.484375,72.1875 L56.484375,63.0014063 L49.453125,63.0014063 L49.453125,72.1875 C49.453125,74.1290625 51.0271875,75.703125 52.96875,75.703125 C54.9103125,75.703125 56.484375,74.1290625 56.484375,72.1875 Z" id="Path" fill="#4A4A4A"></path>
                    <path d="M78.6829688,68.6648438 L81.043125,64.5771094 C82.0903125,62.7632813 81.4689844,60.4439063 79.6551562,59.3967188 C79.1451562,59.1023438 78.5739844,58.9307813 77.9861719,58.8953906 L72.9944531,58.5958594 L69.4788281,64.6851563 L72.2341406,68.8582031 C72.5585156,69.3494531 72.9928125,69.7584375 73.5028125,70.0528125 C75.3164062,71.1002344 77.6357812,70.4786719 78.6829687,68.6648438 L78.6829688,68.6648438 Z" id="Path" fill="#A9A9A9"></path>
                    <path d="M72.9942188,58.5960938 L65.0390625,54.0030469 L61.5234375,60.0923438 L69.4788281,64.6853906 C71.1602344,65.6561719 73.3103906,65.0800781 74.2811719,63.3984375 C75.2519531,61.7167969 74.6758594,59.566875 72.9942188,58.5960938 Z" id="Path" fill="#4A4A4A"></path>
                    <path d="M81.0428906,37.6101563 L78.6827344,33.5224219 C77.6355469,31.7085937 75.3161719,31.0872656 73.5023438,32.1344531 C72.9923438,32.4288281 72.5580469,32.8378125 72.2336719,33.3292969 L69.4783594,37.5023438 L72.9939844,43.5916406 L77.9854688,43.2921094 C78.5730469,43.2567188 79.1444531,43.0851563 79.6544531,42.7907813 C81.46875,41.7433594 82.0900781,39.4239844 81.0428906,37.6101563 L81.0428906,37.6101563 Z" id="Path" fill="#A9A9A9"></path>
                    <path d="M69.4785938,37.5023438 L61.5234375,42.0951563 L65.0390625,48.1844531 L72.9944531,43.5914062 C74.6758594,42.620625 75.2521875,40.4704687 74.2811719,38.7888281 C73.3101563,37.1076562 71.1602344,36.5315625 69.4785938,37.5023437 L69.4785938,37.5023438 Z" id="Path" fill="#4A4A4A"></path>
                    <path d="M52.96875,61.640625 C58.7842969,61.640625 63.515625,56.9092969 63.515625,51.09375 C63.515625,45.2782031 58.7842969,40.546875 52.96875,40.546875 C47.1532031,40.546875 42.421875,45.2782031 42.421875,51.09375 C42.421875,56.9092969 47.1532031,61.640625 52.96875,61.640625 Z M52.96875,44.0625 C56.8457813,44.0625 60,47.2167187 60,51.09375 C60,54.9707813 56.8457812,58.125 52.96875,58.125 C49.0917188,58.125 45.9375,54.9707813 45.9375,51.09375 C45.9375,47.2167187 49.0917187,44.0625 52.96875,44.0625 Z" id="Shape" fill="#000000"></path>
                    <path d="M27.8465625,57.1410938 C26.9910938,57.1924219 26.1464063,57.4460156 25.4039063,57.8746875 C22.7535938,59.4049219 21.8423438,62.8059375 23.3725781,65.45625 L25.7327344,69.5439844 C27.2629687,72.1942969 30.6639844,73.1055469 33.3140625,71.5755469 C34.0565625,71.146875 34.69875,70.5424219 35.1707813,69.8271094 L37.6975781,66.0002344 L41.0861719,64.0439063 C42.9892969,65.79375 45.2364844,67.0919531 47.6957812,67.8623438 L47.6957812,71.7726563 L45.645,75.8742188 C45.2615625,76.6408594 45.0590625,77.4991406 45.0590625,78.35625 C45.0590625,81.4167188 47.5488281,83.9064844 50.6090625,83.9064844 L55.329375,83.9064844 C58.3896094,83.9064844 60.879375,81.4167188 60.879375,78.3564844 C60.879375,77.499375 60.676875,76.6410938 60.2934375,75.8744531 L58.2426563,71.7728906 L58.2426563,67.8628125 C60.7019531,67.0924219 62.949375,65.7942188 64.8522656,64.044375 L68.2408594,66.0007031 L70.7676563,69.8275781 C71.2399219,70.5428906 71.881875,71.1473438 72.6241406,71.5760156 C73.9080469,72.3173438 75.4035938,72.5139844 76.835625,72.1305469 C78.2674219,71.746875 79.464375,70.8283594 80.2054688,69.5446875 L82.565625,65.4569531 C83.3069531,64.1730469 83.5038281,62.6775 83.1201563,61.2454688 C82.7364844,59.8134375 81.8179688,58.6167188 80.5342969,57.875625 C79.7920313,57.4469531 78.9475781,57.1933594 78.0916406,57.1420313 L73.5142969,56.8673438 L70.1303906,54.9135938 C70.4069531,53.6629688 70.546875,52.3839844 70.546875,51.09375 C70.546875,49.80375 70.4069531,48.5245313 70.1299219,47.2750781 L73.5138281,45.3213281 L78.0909375,45.0466406 C78.9464062,44.9953125 79.7910937,44.7417188 80.5335937,44.3130469 C83.1839062,42.7828125 84.0951563,39.3817969 82.5649219,36.7314844 L80.2047656,32.64375 C79.4636719,31.3598437 78.2667187,30.4415625 76.8349219,30.0578906 C75.4026562,29.6739844 73.9071094,29.8708594 72.6236719,30.6121875 C71.8811719,31.0408594 71.2389844,31.6455469 70.7669531,32.3608594 L68.2403906,36.1875 L64.8517969,38.1438281 C62.9486719,36.3939844 60.7014844,35.0957813 58.2421875,34.3253906 L58.2421875,30.4150781 L60.2929687,26.3135156 C60.6764062,25.546875 60.8789062,24.6885938 60.8789062,23.8314844 C60.8789062,20.7710156 58.3891406,18.28125 55.3289062,18.28125 L50.6085937,18.28125 C47.5483594,18.28125 45.0585937,20.7710156 45.0585937,23.83125 C45.0585937,24.6883594 45.2610937,25.5466406 45.6445312,26.3132813 L47.6953125,30.4148438 L47.6953125,34.3249219 C45.2360156,35.0953125 42.9885937,36.3935156 41.0854687,38.1433594 L37.696875,36.1870313 L35.1700781,32.3601563 C34.6975781,31.6446094 34.055625,31.0401563 33.3135937,30.6119531 C32.0296875,29.8703906 30.5341406,29.67375 29.1021094,30.0574219 C27.6700781,30.4410938 26.473125,31.3596094 25.7320312,32.6432813 L23.371875,36.7310156 C22.6305469,38.0149219 22.4336719,39.5104688 22.8173437,40.9425 C23.2010156,42.3745312 24.1195312,43.57125 25.4032031,44.3123437 C26.1454687,44.7407812 26.9899219,44.9946094 27.8458594,45.0459375 L32.4232031,45.320625 L35.8071094,47.274375 C35.5305469,48.5245313 35.390625,49.80375 35.390625,51.09375 C35.390625,52.3839844 35.5305469,53.6629688 35.8075781,54.9124219 L32.4236719,56.8661719 L27.8465625,57.1410938 Z M33.8221875,60.1183594 L38.7288281,57.2854688 C39.4389844,56.8753125 39.7713281,56.02875 39.5296875,55.245 C39.1160156,53.9046094 38.90625,52.5079688 38.90625,51.09375 C38.90625,49.6795313 39.1160156,48.2828906 39.5294531,46.9425 C39.7713281,46.15875 39.4389844,45.3119531 38.7285938,44.9020313 L33.8221875,42.069375 C33.5859375,41.9329688 33.3210938,41.8532813 33.0485156,41.8371094 L28.0570313,41.5375781 C27.7432031,41.5185938 27.4335938,41.4255469 27.1614844,41.2685156 C26.6908594,40.996875 26.3542969,40.558125 26.2136719,40.033125 C26.0730469,39.508125 26.1452344,38.9599219 26.416875,38.4892969 L28.7770313,34.4015625 C29.0486719,33.9309375 29.4874219,33.594375 30.0124219,33.45375 C30.5374219,33.3126563 31.085625,33.3853125 31.5564844,33.6571875 C31.8283594,33.8142188 32.0636719,34.0357031 32.236875,34.2979688 L34.9921875,38.4710156 C35.1426562,38.6988281 35.34375,38.8884375 35.5802344,39.0248438 L40.4922656,41.8607813 C41.2026562,42.2707031 42.1019531,42.1352344 42.6597656,41.5340625 C44.5964062,39.4467188 47.0800781,38.0121094 49.8424219,37.3849219 C50.6430469,37.2032813 51.2109375,36.4914844 51.2109375,35.6707031 L51.2109375,30 C51.2109375,29.7269531 51.1474219,29.4578906 51.0253125,29.2139063 L48.7889062,24.7413281 C48.6482812,24.4603125 48.5739844,24.1455469 48.5739844,23.83125 C48.5739844,22.7095313 49.4866406,21.796875 50.6083594,21.796875 L55.3286719,21.796875 C56.4503906,21.796875 57.3630469,22.7095313 57.3630469,23.8314844 C57.3630469,24.1455469 57.28875,24.4603125 57.148125,24.7413281 L54.9117188,29.2139063 C54.7896094,29.458125 54.7260938,29.7269531 54.7260938,30 L54.7260938,35.6704688 C54.7260938,36.49125 55.2942187,37.2030469 56.0946094,37.3846875 C58.8569531,38.011875 61.340625,39.4464844 63.2772656,41.5338281 C63.8353125,42.135 64.734375,42.2707031 65.4447656,41.8605469 L70.3567969,39.0246094 C70.5930469,38.8882031 70.794375,38.6985938 70.9448438,38.4707813 L73.7003906,34.2975 C73.8733594,34.0354688 74.1084375,33.8139844 74.3807813,33.6567188 C74.8514063,33.3848438 75.3996094,33.313125 75.9246094,33.4535156 C76.449375,33.5941406 76.888125,33.9309375 77.16,34.4013281 L79.5201563,38.4890625 C80.0810156,39.4605469 79.7470313,40.7071875 78.7757813,41.2680469 C78.5034375,41.4250781 78.1938281,41.518125 77.8802344,41.5371094 L72.88875,41.8366406 C72.6161719,41.8528125 72.3515625,41.9325 72.1150781,42.0689063 L67.2084375,44.9017969 C66.4982813,45.3119531 66.1659375,46.1585156 66.4075781,46.9422656 C66.8214844,48.2828906 67.03125,49.6795313 67.03125,51.09375 C67.03125,52.5079688 66.8214844,53.9046094 66.4080469,55.245 C66.1661719,56.02875 66.4985156,56.8755469 67.2089063,57.2854688 L72.1153125,60.118125 C72.3515625,60.2545313 72.6164063,60.3342188 72.8889844,60.3503906 L77.8804688,60.6499219 C78.1942969,60.6689063 78.5039063,60.7619531 78.7760156,60.9189844 C79.2466406,61.190625 79.5834375,61.629375 79.7240625,62.154375 C79.8646875,62.679375 79.7925,63.2275781 79.5208594,63.6982031 L77.1607031,67.7859375 C76.5996094,68.7574219 75.3529688,69.0914063 74.3817188,68.5305469 C74.1096094,68.3735156 73.8740625,68.1517969 73.7010938,67.8895313 L70.9457813,63.7164844 C70.7953125,63.4886719 70.5942188,63.2990625 70.3577344,63.1626563 L65.4457031,60.3264844 C64.7357813,59.9165625 63.8360156,60.0520313 63.2782031,60.6532031 C61.3415625,62.7405469 58.8578906,64.1751563 56.0955469,64.8025781 C55.2949219,64.9844531 54.7270313,65.6960156 54.7270313,66.5167969 L54.7270313,72.1875 C54.7270313,72.4605469 54.7905469,72.7296094 54.9126563,72.9735938 L57.1490625,77.4461719 C57.2896875,77.7271875 57.3639844,78.0419531 57.3639844,78.35625 C57.3639844,79.4779688 56.4513281,80.390625 55.3296094,80.390625 L50.6092969,80.390625 C49.4875781,80.390625 48.5749219,79.4779688 48.5749219,78.3560156 C48.5749219,78.0419531 48.6492188,77.7271875 48.7898438,77.4461719 L51.02625,72.9735938 C51.1483594,72.729375 51.211875,72.4605469 51.211875,72.1875 L51.211875,66.5172656 C51.211875,65.6964844 50.64375,64.9849219 49.8433594,64.8030469 C47.0810156,64.1758594 44.5971094,62.7410156 42.6607031,60.6536719 C42.31875,60.285 41.848125,60.0914063 41.3714063,60.0914063 C41.0709375,60.0914063 40.7678906,60.1685156 40.4932031,60.3269531 L35.5811719,63.1628906 C35.3449219,63.2992969 35.1435938,63.4889063 34.993125,63.7167188 L32.2375781,67.89 C32.0646094,68.1520313 31.8292969,68.3735156 31.5571875,68.5307813 C30.5852344,69.0916406 29.3390625,68.7574219 28.7782031,67.7861719 L26.4180469,63.6984375 C25.8571875,62.7269531 26.1911719,61.4803125 27.1624219,60.9194531 C27.4347656,60.7624219 27.744375,60.669375 28.0579688,60.6503906 L33.0494531,60.3508594 C33.3208594,60.3344531 33.5857031,60.2547656 33.8221875,60.1183594 L33.8221875,60.1183594 Z" id="Shape" fill="#000000"></path>
                    <path d="M105.065391,14.0842969 C89.2699219,4.8703125 71.2551562,0 52.96875,0 C34.6823438,0 16.6675781,4.8703125 0.872109375,14.0842969 C0.332109375,14.3992969 0,14.9775 0,15.6025781 L0,38.8975781 C0,56.3097656 5.03859375,73.1685938 14.570625,87.6513281 C23.8610156,101.766797 36.8885156,112.898672 52.2442969,119.843672 C52.4744531,119.947734 52.7217188,120 52.96875,120 C53.2157812,120 53.4628125,119.947969 53.6932031,119.843672 C69.0492188,112.898672 82.0764844,101.766563 91.366875,87.6513281 C100.898906,73.1685937 105.9375,56.3097656 105.9375,38.8975781 L105.9375,15.6025781 C105.9375,14.9775 105.605391,14.3992969 105.065391,14.0842969 Z M102.421875,38.8975781 C102.421875,72.0733594 83.038125,102.369609 52.96875,116.308828 C22.899375,102.369609 3.515625,72.0733594 3.515625,38.8975781 L3.515625,16.618125 C34.1144531,-0.819609375 71.8235156,-0.819375 102.421875,16.618125 L102.421875,38.8975781 Z" id="Shape" fill="#000000"></path>
                    <path d="M11.5202344,20.3128125 C10.92375,20.6104688 10.546875,21.2196094 10.546875,21.8859375 L10.546875,38.8975781 C10.546875,52.970625 14.3257031,66.7692188 21.4746094,78.8013281 C21.9705469,79.6359375 23.0491406,79.910625 23.88375,79.4146875 C24.7183594,78.91875 24.9928125,77.8401563 24.4971094,77.0055469 C17.6707031,65.5164844 14.0625,52.3389844 14.0625,38.8975781 L14.0625,22.9811719 C26.1398437,17.1435938 39.5676562,14.0625 52.96875,14.0625 C66.3698437,14.0625 79.7976562,17.1435938 91.875,22.9811719 L91.875,38.8975781 C91.875,53.55375 87.6372656,67.7392969 79.6204687,79.92 C72.8796094,90.1617188 63.6785156,98.6446875 52.96875,104.502422 C43.2921094,99.208125 34.7667187,91.7013281 28.2717187,82.7463281 C27.7019531,81.9607031 26.6027344,81.7858594 25.8166406,82.3553906 C25.0307812,82.9253906 24.8557031,84.0246094 25.4257031,84.8104688 C32.4178125,94.4503125 41.656875,102.487031 52.1446875,108.051797 C52.4022656,108.188438 52.6853906,108.256875 52.9685156,108.256875 C53.2516406,108.256875 53.5347656,108.188438 53.7923437,108.051797 C65.37375,101.906953 75.3203906,92.8474219 82.5567188,81.8528906 C90.9527344,69.0965625 95.390625,54.2428125 95.390625,38.8975781 L95.390625,21.8859375 C95.390625,21.219375 95.01375,20.6102344 94.4172656,20.3128125 C81.6053906,13.9239844 67.2728906,10.546875 52.96875,10.546875 C38.6648437,10.546875 24.3321094,13.9239844 11.5202344,20.3128125 Z" id="Path" fill="#000000"></path>
                </g>
            </g>
        </g>
    </g>
</svg>