<svg width="1920" height="3445" viewBox="0 0 1920 3445" fill="none" xmlns="http://www.w3.org/2000/svg">
<g clip-path="url(#clip0_13_73)">
<path d="M1938.8 1663.61C1910 1630.73 1865.1 1605.41 1807.83 1587.24C1750.6 1569.08 1681.35 1558.16 1604.26 1553.83C1450.08 1545.18 1265.07 1562.92 1083.23 1601.31C901.389 1639.7 722.972 1698.7 581.949 1772.4C440.678 1846.23 337.939 1934.3 305.8 2030.33C273.623 2126.47 297.593 2254.51 358.996 2392.02C420.312 2529.34 518.579 2675.25 633.645 2806.61C748.711 2937.96 880.41 3054.58 1008.46 3133.44C1136.69 3212.42 1260.47 3253.03 1360.01 3233.79C1459.43 3214.57 1560.27 3124.34 1652.09 2994.05C1743.74 2863.99 1825.74 2694.93 1887.78 2519.77C1949.81 2344.61 1991.79 2163.58 2003.54 2009.64C2009.41 1932.66 2007.72 1862.6 1997.26 1803.48C1986.79 1744.32 1967.61 1696.49 1938.8 1663.61Z" stroke="#F4ECCE" stroke-width="9"/>
<path d="M619.592 270.422C596.022 256.814 564.472 250.615 526.918 251.008C489.408 251.4 446.25 258.365 399.759 270.748C306.781 295.512 200.985 341.805 101.326 399.672C1.665 457.541 -91.6381 526.855 -159.722 597.535C-228.002 668.418 -270.115 739.841 -269.191 801.975C-268.264 864.262 -227.788 934.737 -162.866 1003.85C-98.0953 1072.79 -9.64598 1139.68 85.7629 1194.77C181.172 1249.85 283.325 1293.01 375.42 1314.63C467.732 1336.3 549.002 1336.11 603.407 1305.77C657.679 1275.5 698.491 1203.33 725.76 1108.77C752.95 1014.48 766.357 899.034 766.671 783.808C766.986 668.585 754.209 553.834 729.189 460.943C716.678 414.497 701.14 373.644 682.732 340.967C664.302 308.251 643.162 284.03 619.592 270.422Z" stroke="#F4ECCE" stroke-width="9"/>
<path d="M1725.23 1280.6C1708.46 1290.28 1693.27 1307.5 1679.93 1330.88C1666.61 1354.22 1655.29 1383.42 1646.11 1416.64C1627.75 1483.08 1618.09 1565.14 1617.84 1647.52C1617.6 1729.9 1626.77 1812.34 1645.93 1879.57C1665.16 1947.07 1694.13 1998.11 1732.6 2019.29C1771.23 2040.55 1829.36 2040.46 1895.85 2024.61C1962.11 2008.81 2035.73 1977.58 2104.57 1937.84C2173.42 1898.09 2237.27 1849.95 2284.08 1800.46C2331.05 1750.81 2360.19 1700.51 2361.09 1656.43C2361.99 1612.51 2332.29 1561.9 2283.46 1511.49C2234.84 1461.28 2168.05 1412.1 2096.6 1371.11C2025.16 1330.12 1949.29 1297.44 1882.58 1280.11C1849.22 1271.45 1818.29 1266.65 1791.42 1266.51C1764.5 1266.37 1742 1270.92 1725.23 1280.6Z" stroke="#F4ECCE" stroke-width="9"/>
</g>
<defs>
<clipPath id="clip0_13_73">
<rect width="1920" height="3445" fill="white"/>
</clipPath>
</defs>
</svg>
