<?xml version="1.0" encoding="UTF-8"?>
<svg width="322px" height="117px" viewBox="0 0 322 117" version="1.1" xmlns="http://www.w3.org/2000/svg" xmlns:xlink="http://www.w3.org/1999/xlink">
    <!-- Generator: Sketch 64 (93537) - https://sketch.com -->
    <title>알펜루트</title>
    <desc>Created with Sketch.</desc>
    <g id="Landing2020" stroke="none" stroke-width="1" fill="none" fill-rule="evenodd">
        <g id="5.2020_investors" transform="translate(-883.000000, -672.000000)" fill="#000000" fill-rule="nonzero">
            <g id="body" transform="translate(-56.000000, 160.000000)">
                <g id="investors" transform="translate(183.000000, 286.000000)">
                    <g id="알펜루트" transform="translate(646.000000, 170.000000)">
                        <g id="알펜루트" transform="translate(110.000000, 56.000000)">
                            <path d="M167.03122,41 L145.822611,41 L141.927152,49.957958 C141.143827,51.5015742 140.654748,53.1746249 140.48439,54.8933934 C140.504541,55.806681 140.965841,56.6551951 141.725166,57.1756757 C143.381762,58.0564352 145.24058,58.4986796 147.121097,58.4594595 L147.121097,60 L129,60 L129,58.4309309 C130.664106,58.2922826 132.264053,57.7322555 133.645695,56.8048048 C135.74165,54.4032413 137.366091,51.6361944 138.435667,48.6456456 L156.960738,3 L159.442289,3 L180.131504,49.0165165 C181.078313,51.745001 182.569812,54.2576606 184.517502,56.4054054 C186.079862,57.6263332 188.008609,58.2987695 190,58.3168168 L190,59.8573574 L167.348628,59.8573574 L159.153737,58.3453453 C161.433302,58.3453453 169.166509,58.1741742 171.013245,57.1756757 C171.830793,56.6839652 172.299311,55.7795967 172.225166,54.8363363 C171.99482,52.8515818 171.418836,50.9212026 170.522706,49.1306306 L167.03122,41 Z M165.848155,37.9189189 L155.460265,16.2942943 L147.121097,37.9189189 L165.848155,37.9189189 Z" id="Shape"></path>
                            <path d="M203.093863,0 L203.093863,51.2763916 C202.984723,52.8970334 203.160657,54.5242186 203.613718,56.084453 C203.942948,56.839483 204.510955,57.4663875 205.231047,57.8694818 C207.794433,58.3253632 210.396701,58.5278807 213,58.4740883 L213,60 L189.693141,60 L189.693141,58.4740883 C190.93208,58.5698894 192.176621,58.3828059 193.33213,57.9270633 C194.030241,57.5086675 194.568779,56.8705146 194.862816,56.1132438 C195.323104,54.5344999 195.5087,52.8888194 195.411552,51.2476008 L195.411552,16.1516315 C195.505095,13.4713064 195.418257,10.7877447 195.151625,8.11900192 C195.008653,7.36945225 194.681159,6.66704112 194.198556,6.07485605 C192.870036,4.37619962 189,6.07485605 189,6.07485605 L189,4.72168906 L200.552347,0 L203.093863,0 Z" id="Path"></path>
                            <path d="M201,27.1200743 L217.836914,21.3747891 L219.43229,21.3747891 L219.43229,30.3948869 C220.887028,27.6168568 222.917742,25.1871124 225.386461,23.2707332 C227.192814,21.8792618 229.382427,21.0864353 231.65401,21.0013455 C235.376044,20.9456851 238.916594,22.6194888 241.254755,25.5401209 C244.504111,29.5924096 246.184524,34.696102 245.983905,39.903334 C246.202561,45.9343578 244.169333,51.8286351 240.286133,56.421029 C237.35945,59.8940453 233.039123,61.8559873 228.520236,61.7641443 C226.695731,61.8031284 224.879833,61.5012015 223.164331,60.8736251 C221.768973,60.2682539 220.49466,59.4116274 219.403801,58.3456996 L219.403801,70.0948079 C219.293834,71.7859106 219.457407,73.4837902 219.888112,75.1219325 C220.23934,75.8643313 220.832695,76.4626348 221.568955,76.8167916 C222.950052,77.3408503 224.427481,77.556472 225.899261,77.448773 L225.899261,79 L205.957061,79 L205.957061,77.448773 L207.011149,77.448773 C208.377199,77.5136937 209.735342,77.2060596 210.942611,76.5582538 C211.510251,76.2184768 211.943256,75.6904764 212.167632,75.0644796 C212.475412,73.4076512 212.552124,71.7155885 212.395543,70.037355 L212.395543,33.5835202 C212.472261,31.9859116 212.357475,30.3848054 212.053676,28.8149335 C211.879148,28.2037663 211.50841,27.6682802 210.999589,27.2924329 C210.401904,26.920923 209.706645,26.7406514 209.005369,26.7753572 C206.305097,27.2977935 203.633139,27.9593682 201,28.7574806 L201,27.1200743 Z M219.403801,32.8653595 L219.403801,47.2285726 C219.3236,49.285051 219.447669,51.344461 219.774157,53.3760278 C220.212499,55.0961946 221.216921,56.6153909 222.623042,57.6849918 C224.248521,58.9578076 226.263809,59.618238 228.320814,59.5522095 C231.027649,59.6204471 233.59472,58.3423189 235.186628,56.1337648 C237.647807,52.5880114 238.83386,48.3008555 238.548313,43.9824865 C238.859052,39.1415462 237.500294,34.3411626 234.702318,30.3948869 C233.210847,28.3594357 230.859,27.1471203 228.349302,27.1200743 C226.968141,27.1276505 225.609375,27.4726388 224.389351,28.1254992 C222.523757,29.405885 220.853756,30.954324 219.43229,32.7217274 L219.403801,32.8653595 Z" id="Shape"></path>
                            <path d="M254.877319,35.7868426 C254.596944,40.6636583 256.121252,45.4727536 259.158336,49.2931818 C261.565224,52.3294417 265.202231,54.1257388 269.070756,54.1888698 C271.835976,54.1264095 274.494933,53.1091908 276.598449,51.3090534 C278.348048,49.8113208 279.667199,47.8727495 280.419759,45.6934113 L282,45.6934113 C281.575499,49.5771861 279.970741,53.2364613 277.402935,56.1759432 C274.297087,59.3632864 270.006724,61.109442 265.563136,60.9946796 C261.119549,60.8799172 256.924597,58.9146154 253.986638,55.5711818 C250.533409,51.5189237 248.764384,46.2923413 249.044794,40.9705122 C248.689696,35.4021362 250.455854,29.9061387 253.986638,25.5922923 C257.206104,21.9485048 261.859762,19.905842 266.71476,20.0054483 C270.712934,19.8952545 274.575935,21.4607303 277.374204,24.325173 C280.259784,27.4423321 281.762739,31.5980124 281.540294,35.8444389 L254.877319,35.7868426 Z M254.877319,33.3389986 L272.748408,33.3389986 C272.735613,31.5551842 272.434829,29.7852061 271.857726,28.0977326 C271.20315,26.576338 270.113329,25.2835631 268.725976,24.3827694 C267.451395,23.4590395 265.93076,22.937618 264.358765,22.8852648 C261.96226,22.9305471 259.692793,23.9739969 258.095265,25.7650813 C256.153024,27.8224688 255.01127,30.5097583 254.877319,33.3389986 Z" id="Shape"></path>
                            <path d="M293.316794,28.2910385 C297.801527,22.7655546 302.09542,20.0028127 306.198473,20.0028127 C308.121299,19.9553223 310.011452,20.5102257 311.608779,21.5911486 C313.312481,22.9205463 314.571314,24.7448447 315.215649,26.8182179 C315.939187,29.3497815 316.248592,31.9834509 316.131679,34.6155035 L316.131679,51.1630763 C316.018955,52.849709 316.212987,54.5429181 316.704198,56.1591149 C317.007233,56.8581629 317.530474,57.4367822 318.192748,57.8052085 C319.399889,58.2957751 320.701761,58.5031496 322,58.411664 L322,59.9422423 L302.992366,59.9422423 L302.992366,58.411664 L303.793893,58.411664 C305.13102,58.5370994 306.473303,58.2339334 307.629771,57.545299 C308.38497,56.9309971 308.910029,56.0753311 309.118321,55.1194768 C309.283797,53.7980489 309.341243,52.4651278 309.290076,51.1341975 L309.290076,35.2508379 C309.463019,32.6153403 308.991161,29.9773595 307.916031,27.5690676 C306.964748,25.9421902 305.172659,25.0101564 303.307252,25.1721242 C299.331988,25.4985344 295.690088,27.5408552 293.316794,30.7746184 L293.316794,51.220834 C293.199208,52.8620525 293.354007,54.5115606 293.774809,56.1013572 C294.118858,56.8562197 294.689734,57.4826585 295.406489,57.891845 C296.742126,58.3857863 298.167774,58.5828057 299.585878,58.4694217 L299.585878,60 L280.549618,60 L281.265267,59.0181196 L282.353053,57.6030566 C284.252945,54.9329232 285.52554,51.8615895 286.074427,48.6217388 C286.432392,45.9715246 286.537835,43.2928064 286.389313,40.6223013 L286.389313,36.8391738 C286.478404,33.9954962 286.373194,31.1490047 286.074427,28.3199173 C285.987297,27.5429579 285.65631,26.8144256 285.129771,26.2406412 C284.612096,25.8771951 283.982323,25.7132371 283.354962,25.7785798 C281.411382,26.0497315 279.495477,26.4942826 277.629771,27.1070062 L277,25.5764279 L291.484733,20.0028127 L293.316794,20.0028127 L293.316794,28.2910385 Z" id="Path"></path>
                            <path d="M199,114.885559 L171.346022,114.885559 L151.773311,88.2780952 C150.311805,88.2780952 151.773311,88.2780952 150.913601,88.2780952 L149.710009,88.2780952 L148.391788,88.2780952 L148.391788,104.814777 C148.080157,107.154122 148.500548,109.532448 149.595381,111.623999 C150.85753,112.921683 152.631878,113.592528 154.438409,113.45505 L156.70231,113.45505 L156.70231,115 L132,115 L132,113.45505 L134.17793,113.45505 C136.22078,113.667665 138.221413,112.77267 139.422156,111.109016 C140.213592,109.160897 140.518479,107.04981 140.310522,104.957828 L140.310522,68.0793106 C140.592286,65.7869081 140.172706,63.4630343 139.106929,61.4131395 C137.807428,60.1183766 136.0091,59.4503237 134.17793,59.5820882 L132,59.5820882 L132,58.0371387 L153.034217,58.0371387 C157.591274,57.8623548 162.151033,58.3050745 166.588965,59.3532068 C169.484316,60.2189508 172.063761,61.9092581 174.011121,64.2169368 C176.063072,66.5980753 177.146865,69.660405 177.04876,72.7999897 C177.097187,76.163142 175.856792,79.4177011 173.581266,81.8980258 C170.651128,84.8007426 166.882338,86.7120813 162.806245,87.3625695 L174.727545,103.67037 C176.609126,106.55283 178.98597,109.080763 181.748503,111.137626 C183.697177,112.367864 194.472198,113.168949 197.624465,113.483661 L199,114.885559 Z M148.391788,85.645959 L150.770317,85.645959 C155.210445,85.9695761 159.623145,84.7238847 163.236099,82.1269073 C165.951765,79.9430092 167.49759,76.6238558 167.420017,73.1433118 C167.527614,69.9389851 166.303832,66.8327557 164.038494,64.5602589 C161.628213,62.2743287 158.390061,61.0658779 155.068862,61.2128683 C152.82401,61.2847253 150.589778,61.5527782 148.391788,62.0139532 L148.391788,85.645959 Z" id="Shape"></path>
                            <path d="M203.457232,75.01242 C208.921804,74.8016052 214.153623,77.2846682 217.524661,81.6889334 C220.477875,85.3667538 222.062659,89.9953123 221.998103,94.7541794 C221.952407,98.4009997 221.106283,101.990726 219.522235,105.258177 C218.084903,108.568271 215.714105,111.364034 212.7136,113.28726 C209.808257,115.096199 206.464376,116.033548 203.063344,115.992399 C197.629537,116.159953 192.470967,113.548677 189.305399,109.028105 C186.475857,105.247422 184.960937,100.608888 185.000766,95.8477463 C185.034229,92.1637993 185.931535,88.5418624 187.617307,85.2861928 C189.104287,82.0589261 191.493233,79.3549847 194.482213,77.5161125 C197.204715,75.8842318 200.301716,75.0202852 203.457232,75.01242 L203.457232,75.01242 Z M202.163029,77.8902275 C200.592141,77.916635 199.056972,78.3738011 197.717721,79.2140189 C196.041894,80.3200782 194.766945,81.9577815 194.088325,83.8760671 C193.070783,86.5530901 192.573823,89.4075143 192.625312,92.279265 C192.492155,97.3441287 193.635453,102.358826 195.945225,106.840971 C197.46071,110.453215 200.882396,112.842578 204.723301,112.970701 C207.393292,113.024254 209.922132,111.747027 211.503801,109.54611 C213.560379,106.094622 214.486853,102.062049 214.148478,98.03488 C214.466144,92.2875657 212.923606,86.5933108 209.75944,81.8328238 C208.02358,79.3109361 205.177822,77.8339657 202.163029,77.8902275 Z" id="Shape"></path>
                            <path d="M260.883303,75 L260.883303,100.430928 C260.838781,103.219131 260.992373,106.006972 261.342908,108.773196 C261.448223,109.570586 261.811597,110.311036 262.37702,110.880412 C262.850528,111.237864 263.422408,111.439506 264.014363,111.457732 C266.520803,111.110298 268.955276,110.35981 271.224417,109.235052 L272,110.187629 L255.885099,117 L253.960503,117 L253.960503,108.773196 C251.73519,111.405633 249.142136,113.70025 246.262118,115.585567 C244.536431,116.50239 242.612691,116.978244 240.660682,116.971134 C238.587975,117.027872 236.559104,116.36526 234.915619,115.094845 C233.322,113.867688 232.147501,112.17297 231.554758,110.245361 C230.833067,107.516588 230.513688,104.696175 230.606822,101.874227 L230.606822,84.5546392 C230.690151,83.2620013 230.473825,81.967566 229.974865,80.7731959 C229.563173,80.0611696 228.940557,79.4960529 228.193896,79.156701 C226.846968,78.691859 225.420457,78.5053081 224,78.6082474 L224,77.0494845 L237.701975,77.0494845 L237.701975,103.028866 C237.372563,105.554816 238.054457,108.108867 239.597846,110.129897 C240.860657,111.260823 242.502759,111.869313 244.193896,111.83299 C245.648721,111.776298 247.072232,111.391547 248.359066,110.707216 C250.412813,109.552779 252.273815,108.082012 253.874327,106.348454 L253.874327,84.3237113 C254.0848,82.7389042 253.672659,81.1340366 252.725314,79.8494845 C251.226195,78.8779566 249.445691,78.4408169 247.669659,78.6082474 L247.669659,77.5113402 C252.139761,77.0707634 256.561837,76.2303186 260.883303,75 Z" id="Path"></path>
                            <path d="M288.124306,104 C287.002427,106.242192 285.596155,108.331256 283.940067,110.215827 C283.091937,110.796548 282.083005,111.09839 281.054384,111.079137 C279.940299,111.131865 278.867991,110.650661 278.168701,109.784173 C277.273573,108.25471 276.889536,106.480936 277.072142,104.719424 L277.072142,76.2302158 L286.248613,76.2302158 L286.248613,73.352518 L277.302997,73.352518 L277.302997,64 L276.17758,64 C273.246682,68.4268854 268.982943,71.8123172 264,73.6690647 L264,76.2302158 L270.204218,76.2302158 L270.204218,105.640288 C270.090828,107.741266 270.394837,109.843882 271.098779,111.827338 C271.694945,113.142251 272.709187,114.224487 273.984462,114.906475 C275.153125,115.607012 276.487821,115.984461 277.851276,116 C279.959537,115.979522 281.996858,115.237957 283.622642,113.899281 C286.334491,111.024671 288.495884,107.679394 290,104.028777 L288.124306,104 Z" id="Path"></path>
                            <path d="M291.987608,91.8278931 C291.67745,96.6843503 293.160307,101.485647 296.154413,105.319461 C298.561715,108.3524 302.199346,110.146733 306.068536,110.209795 C308.835153,110.152127 311.4961,109.135435 313.597522,107.333128 C315.347421,105.837033 316.666798,103.900582 317.419488,101.723627 L319,101.723627 C318.577241,105.603641 316.971978,109.259438 314.402146,112.194695 C311.291559,115.370555 307.002244,117.109241 302.560661,116.994676 C298.119077,116.88011 293.924902,114.922602 290.981827,111.590595 C287.528005,107.542768 285.758676,102.321902 286.039134,97.0058935 C285.704636,91.3957544 287.524172,85.8696867 291.12551,81.5581922 C294.350861,77.9290557 299.004569,75.8994714 303.855818,76.0062251 C307.850387,75.8886219 311.71342,77.4417067 314.517092,80.2924588 C317.403168,83.4062088 318.906381,87.5573441 318.683898,91.7991264 L291.987608,91.8278931 Z M291.987608,89.3827262 L309.746819,89.3827262 C309.734528,87.6008181 309.433679,85.8326948 308.855985,84.1471924 C308.199821,82.6283764 307.11014,81.337404 305.723697,80.4362921 C304.432591,79.5646292 302.912996,79.0942624 301.355735,79.0842587 C298.980639,79.0924505 296.714137,80.0811806 295.091159,81.8170923 C293.188322,83.8876905 292.087578,86.5710124 291.987608,89.3827262 L291.987608,89.3827262 Z" id="Shape"></path>
                            <path d="M86.2375986,3 L26.7624014,3 C11.9819352,3 0,14.9849841 0,29.7692112 L0,89.2307888 C0,104.015016 11.9819352,116 26.7624014,116 L86.2375986,116 C93.3354287,116 100.14255,113.17968 105.161474,108.15948 C110.180398,103.139279 113,96.330425 113,89.2307888 L113,29.7692112 C113,14.9849841 101.018065,3 86.2375986,3 Z M100.610532,77.1832061 L97.7359451,75.2854962 C101.59789,71.1841401 104.106596,65.9948163 104.922412,60.4201018 C105.886094,55.856515 105.547417,51.1138388 103.945052,46.7335878 C105.000158,45.9308739 105.964111,45.0148855 106.819639,44.0020356 L106.819639,67.9821883 C105.531945,71.5102356 103.400168,74.6692278 100.610532,77.1832061 L100.610532,77.1832061 Z M87.3586874,10.1307888 C87.3690859,10.0064088 87.3690859,9.8813775 87.3586874,9.75699746 C89.3456962,10.1226375 91.2777724,10.7410591 93.1078606,11.597201 C93.4979696,12.4539237 93.5045063,13.4363534 93.125832,14.2981938 C92.7471577,15.1600342 92.0191771,15.8195684 91.1243958,16.1114504 C89.5158837,16.9080064 87.7687334,17.3863983 85.9788858,17.5203562 C83.9359783,17.7379575 81.88123,17.8243942 79.8272704,17.7791349 L61.1712033,17.7791349 L61.1712033,13.8399491 L73.5319257,13.8399491 C76.693971,13.8399491 83.6217248,13.8399491 86.0363775,12.3160305 C86.8308873,11.8711234 87.33308,11.0412027 87.3586874,10.1307888 L87.3586874,10.1307888 Z M77.2401425,18.9580153 C81.6530266,19.2012198 86.0778685,18.8041417 90.3770033,17.7791349 C91.5726056,17.4009967 92.6646318,16.7515186 93.5677945,15.8814249 C94.4297136,14.9667604 94.803496,13.6955766 94.5738998,12.4597964 C96.0322309,13.2713641 97.4005039,14.2351819 98.6558128,15.3351145 C98.9145256,15.6226463 100.89799,18.2104326 96.7298397,21.2582697 C95.1210706,22.0541496 93.3740542,22.5325048 91.5843297,22.6671756 C89.5812731,22.9078998 87.5651306,23.0231373 85.5476978,23.0122137 L61.1712033,23.0122137 L61.1712033,18.9580153 L77.2401425,18.9580153 Z M82.9893157,24.0760814 C87.3968636,24.2907194 91.812228,23.8645671 96.0974307,22.8109415 C97.289108,22.4383839 98.3803009,21.7992344 99.2882218,20.9419847 C100.113469,19.9977889 100.686954,18.8604162 100.955482,17.635369 C101.723752,18.5416363 102.425087,19.5026123 103.05393,20.510687 C103.547048,22.90836 102.367797,25.3382339 100.179344,26.4338422 C98.5678043,27.2177546 96.8212749,27.6862169 95.0338336,27.8139949 C93.0315352,28.0659958 91.0152854,28.190843 88.9972017,28.1878411 L61.1712033,28.1878411 L61.1712033,24.0473282 L82.9893157,24.0760814 Z M61.228695,39.4015267 L89.9745612,39.4015267 C94.3819829,39.6109223 98.7965952,39.1848425 103.082676,38.1363868 C104.128341,37.8004387 105.102911,37.2740372 105.957263,36.583715 L105.957263,36.9287532 L105.957263,36.9287532 C105.187959,38.9318717 103.784718,40.6283071 101.961587,41.7592875 C100.352308,42.5538236 98.6055568,43.0321061 96.8160773,43.1681934 C94.8129161,43.4077332 92.7968473,43.5229665 90.7794454,43.5132316 L61.1712033,43.5132316 L61.228695,39.4015267 Z M106.359705,30.4017812 C106.359705,31.6669211 106.53218,35.3473282 103.801323,36.5549618 C102.189536,37.3382098 100.443136,37.8066371 98.6558128,37.9351145 C96.6536381,38.1884334 94.6373042,38.3132859 92.6191809,38.3089059 L61.1712033,38.3089059 L61.1712033,34.2834606 L89.5146273,34.2834606 C93.9221752,34.4980986 98.3375396,34.0719462 102.622742,33.0183206 C103.818345,32.6401825 104.910371,31.9907044 105.813533,31.1206107 C106.010588,30.8927815 106.193011,30.6526906 106.359705,30.4017812 L106.359705,30.4017812 Z M61.1712033,44.5195929 L88.0198423,44.5195929 C92.2434088,44.6978839 96.4727508,44.3501783 100.610532,43.4844784 C92.8778937,49.2351145 81.0345968,48.4012723 81.0345968,48.4012723 L61.1712033,48.4012723 L61.1712033,44.5195929 Z M81.7244976,55.3882952 C81.2381277,58.1724819 79.960779,60.7577749 78.0450267,62.835369 L74.969219,60.9089059 C76.7257575,59.0749359 77.9052208,56.7653991 78.3612312,54.2669211 C78.4551445,53.7443931 78.512774,53.2159878 78.5337064,52.6854962 L81.9544645,52.6854962 C81.9676648,53.5918301 81.8906294,54.4972274 81.7244976,55.3882952 L81.7244976,55.3882952 Z M71.2322564,58.5223919 C72.594748,57.0773562 73.5128066,55.2707162 73.8768761,53.3180662 C73.8768761,53.1167939 73.8768761,52.8867684 73.8768761,52.6854962 L77.3551259,52.6854962 C77.3274174,53.1868725 77.2698233,53.6861483 77.1826507,54.1806616 C76.7668249,56.5065708 75.6888557,58.6630578 74.0780972,60.3913486 L71.2322564,58.5223919 Z M68.3576698,52.7717557 C68.0665669,53.8187812 67.5680113,54.7965899 66.8916306,55.6470738 L62.1773086,52.7717557 L68.3576698,52.7717557 Z M69.4500127,52.7717557 L73.0145001,52.7717557 C73.0145001,52.9442748 73.0145001,53.1455471 73.0145001,53.3468193 C72.600654,55.117798 71.7052853,56.7398228 70.4273722,58.0335878 L67.5527856,56.1933842 C68.3988092,55.1742723 68.9988155,53.9739545 69.3062834,52.6854962 L69.4500127,52.7717557 Z M82.9605698,55.6470738 C83.1309561,54.6984513 83.20798,53.7354084 83.1905368,52.7717557 C84.3691173,52.7717557 85.4902061,52.7717557 86.582549,52.5992366 C86.621797,53.8736855 86.5059634,55.1481795 86.2375986,56.3946565 C85.6511715,59.6703481 84.0644732,62.683833 81.6957517,65.0206107 L78.8211651,63.2379135 C80.8667481,61.0847793 82.2532721,58.3908461 82.8168405,55.4745547 L82.9605698,55.6470738 Z M87.444925,56.6246819 C87.6544955,55.1862336 87.6738255,53.7264474 87.5024167,52.2829517 C88.6809972,52.2829517 89.7733401,52.024173 90.8369372,51.8516539 C91.0686772,53.6501181 91.0201913,55.4736512 90.6932078,57.2572519 C90.0714386,61.1207743 88.2039099,64.6750302 85.3752226,67.3783715 L82.500636,65.5669211 C84.9915795,63.0886459 86.6664641,59.9085651 87.3011956,56.4521628 L87.444925,56.6246819 Z M91.9292801,57.6310433 C92.2854801,55.7348088 92.3436718,53.7945897 92.1017553,51.8804071 C93.2707538,51.6503817 94.3726787,51.3916031 95.4075299,51.1040712 C95.8457462,53.4994513 95.8457462,55.9544928 95.4075299,58.3498728 C94.7072403,62.7661169 92.5401999,66.8176904 89.2559145,69.851145 L86.3813279,68.0684478 C89.2658297,65.1973186 91.1590745,61.4803765 91.7855508,57.4585242 L91.9292801,57.6310433 Z M96.4423811,58.4648855 C96.9042367,55.9363648 96.9042367,53.3450602 96.4423811,50.8165394 C97.4210101,50.486379 98.3806664,50.1024188 99.3169677,49.6664122 C100.20184,52.9109622 100.319936,56.3169385 99.6619181,59.6150127 C98.9305869,64.5118491 96.5710655,69.0193777 92.9641313,72.4101781 L90.0895446,70.5124682 C93.4380666,67.2267852 95.6188774,62.9347463 96.2986517,58.2923664 L96.4423811,58.4648855 Z M100.89799,59.6725191 C101.579262,56.1807024 101.441505,52.5784121 100.495548,49.148855 C101.373261,48.700517 102.218537,48.1913007 103.025184,47.6249364 C104.524763,51.7600046 104.83352,56.2331429 103.916306,60.5351145 C103.182588,65.9742767 100.688843,71.0236268 96.8160773,74.9117048 L93.9414907,73.186514 C97.5936094,69.4713457 99.9349704,64.6662965 100.610532,59.5 L100.89799,59.6725191 Z M106.215976,28.0440204 C105.849016,29.6285768 104.795268,30.9671777 103.341389,31.6956743 C101.733395,32.4935911 99.9859738,32.9720571 98.1958789,33.1045802 C96.1928823,33.3459806 94.1766973,33.4612205 92.159247,33.4496183 L61.1712033,33.4496183 L61.1712033,29.2804071 L86.4388196,29.2804071 C90.8464254,29.4974944 95.2621433,29.0713079 99.5469346,28.0152672 C100.739023,27.6436407 101.830415,27.0043746 102.737726,26.1463104 C103.515104,25.2618038 104.076066,24.2085028 104.37624,23.0697201 C105.094418,24.5792916 105.653196,26.1596855 106.0435,27.7852417 L106.215976,28.0440204 Z M82.8743322,9.32569975 C83.8932742,9.32764003 84.9110455,9.39486844 85.921394,9.52697201 C86.0253836,9.95866345 85.9529602,10.4140123 85.720173,10.792112 C85.720173,10.792112 85.4327143,12.0572519 82.1269397,12.4022901 C80.1238765,12.6429396 78.1077387,12.7581768 76.0903078,12.7473282 L61.1424574,12.7473282 L61.1424574,9.32569975 L82.8743322,9.32569975 Z M49.2129229,9.32569975 L47.1432206,13.1211196 L41.1353345,9.32569975 L49.2129229,9.32569975 Z M39.5830577,9.32569975 L46.7407784,13.8399491 L44.3836174,18.124173 L30.4131264,9.32569975 L39.5830577,9.32569975 Z M28.9183414,9.32569975 L44.0099211,18.8142494 L41.6527601,23.0984733 L21.9618418,10.7633588 C24.1965307,9.94606312 26.5418158,9.47107051 28.9183414,9.35445293 L28.9183414,9.32569975 Z M21.0132282,11.1083969 L41.1353345,23.846056 L38.7781735,28.1302799 L16.0114475,13.7536896 C17.5687659,12.6856835 19.2478877,11.8072987 21.0132282,11.1371501 L21.0132282,11.1083969 Z M15.465276,14.3862595 L38.461969,28.7628499 L36.1048079,33.075827 L11.8432969,17.7791349 C12.9304873,16.5263324 14.1442675,15.3893283 15.465276,14.3862595 Z M11.3258713,18.5267176 L35.7886034,33.9096692 L33.4314424,38.1938931 L8.62375986,22.6671756 C9.37871016,21.1971632 10.2842731,19.8095649 11.3258713,18.5267176 Z M8.39379293,23.529771 L33.0290003,39.0277354 L30.6718392,43.3119593 L6.84151615,28.2165394 C7.19674438,26.6051312 7.7169131,25.0345927 8.39379293,23.529771 Z M6.32409056,33.1045802 C6.32820832,31.7650924 6.44358871,30.4282629 6.66904096,29.107888 L30.2693971,43.9732824 L27.9122361,48.2575064 L6.32409056,34.6284987 C6.32409056,33.6508906 6.32409056,33.1045802 6.32409056,33.1045802 Z M6.32409056,35.6348601 L27.5385398,48.9763359 L25.1813788,53.2605598 L6.32409056,41.3854962 C6.32409056,39.0277354 6.32409056,37.0437659 6.32409056,35.6061069 L6.32409056,35.6348601 Z M6.32409056,42.3918575 L24.7789367,53.8931298 L22.4217756,58.1773537 L6.32409056,48.1424936 C6.32409056,46.0722646 6.32409056,44.1170483 6.32409056,42.3631043 L6.32409056,42.3918575 Z M6.32409056,49.148855 L22.0480794,59.0399491 L19.6909183,63.324173 L6.35283643,54.8707379 C6.35283643,52.8867684 6.35283643,50.9603053 6.32409056,49.0913486 L6.32409056,49.148855 Z M6.32409056,55.9058524 L19.2884762,64.0717557 L16.9600611,68.2984733 L6.35283643,61.6277354 C6.35283643,59.7012723 6.35283643,57.746056 6.35283643,55.8483461 L6.32409056,55.9058524 Z M6.32409056,69.3910941 L13.7117782,74.0491094 L14.1429662,73.3590331 L6.35283643,68.3559796 C6.35283643,66.4870229 6.35283643,64.5318066 6.35283643,62.6053435 L16.5576189,69.046056 L11.4983465,78.3333333 L6.35283643,75.1129771 C6.35283643,73.3015267 6.35283643,71.3463104 6.35283643,69.3335878 L6.32409056,69.3910941 Z M6.32409056,87.6493639 C6.32409056,87.4768448 6.32409056,82.7613232 6.32409056,76.1480916 L11.0384126,79.0234097 L6.32409056,87.6493639 Z M32.9140168,109.789313 L30.0394302,109.789313 C28.6392796,109.758034 27.244562,109.604095 25.8712796,109.329262 L32.7990333,96.6778626 L32.9140168,109.789313 Z M37.1971509,109.789313 L34.150089,109.789313 L34.150089,91.8185751 L24.7214449,109.070483 C23.7455725,108.833732 22.7854949,108.536032 21.8468583,108.179135 L37.3121343,79.7997455 L37.1971509,109.789313 Z M41.5090308,109.789313 L38.4332231,109.789313 L38.4332231,77.5569975 L38.4332231,77.5569975 L38.4332231,74.9979644 L20.6107861,107.690331 C19.6202441,107.278752 18.6597035,106.79836 17.7361994,106.252672 L41.5090308,62.9216285 L41.5090308,109.789313 Z M45.7921648,109.789313 L42.745103,109.789313 L42.745103,60.9089059 L42.745103,60.9089059 L42.745103,58.4073791 L16.8738235,105.821374 C15.9937122,105.168678 15.1582184,104.457847 14.3729331,103.693639 L45.8209107,46.0147583 L45.7921648,109.789313 Z M50.5639786,109.789313 L47.0282371,109.789313 L47.0282371,41.2129771 L13.4243195,102.831043 C12.6954945,102.108764 12.013774,101.340433 11.383363,100.530789 L50.5927245,28.6478372 L50.5639786,109.789313 Z M55.5945052,109.789313 L51.7425591,109.789313 L51.7425591,23.8173028 L10.5784788,99.4381679 C9.73013747,98.2156831 8.99868467,96.9160613 8.39379293,95.5564885 L55.5657593,9.29694656 L55.5657593,9.29694656 L55.5945052,109.789313 Z M61.1424574,109.789313 L61.1424574,105.131298 L68.2714322,109.789313 L61.1424574,109.789313 Z M69.7662172,109.789313 L61.1424574,104.268702 L61.1424574,98.2880407 L78.9361486,109.789313 L69.7662172,109.789313 Z M82.8455864,109.789313 L80.4884253,109.789313 L61.1712033,97.3966921 L61.1712033,91.646056 L88.5947596,109.214249 C86.7181852,109.636432 84.7973669,109.829528 82.8743322,109.789313 L82.8455864,109.789313 Z M89.6296108,108.811705 L61.1424574,90.5534351 L61.1424574,84.802799 L95.0625795,106.568957 C93.3639619,107.494295 91.5587922,108.208822 89.6871025,108.696692 L89.6296108,108.811705 Z M95.8387179,105.936387 L61.1712033,83.5664122 L61.1712033,77.8157761 L99.891885,102.658524 C98.6656423,103.843389 97.3165359,104.894032 95.8674637,105.792621 L95.8387179,105.936387 Z M100.409311,102.025954 L61.1712033,76.694402 L61.1712033,70.9437659 L103.485118,97.8854962 C102.623742,99.3211468 101.611929,100.660936 100.466802,101.882188 L100.409311,102.025954 Z M103.743831,97.3104326 L61.1712033,69.8223919 L61.1712033,64.0717557 L105.69855,92.5374046 C105.235004,94.1444518 104.598889,95.6965816 103.801323,97.1666667 L103.743831,97.3104326 Z M105.871025,91.8185751 L61.1137115,63.0653944 L61.1137115,58.7524173 L106.53218,87.505598 C106.453773,88.9103724 106.251771,90.3055044 105.928517,91.6748092 L105.871025,91.8185751 Z M101.674129,78.0170483 C103.732102,75.9366391 105.397363,73.5014274 106.589672,70.8287532 L106.589672,81.0361323 L101.674129,78.0170483 Z" id="Shape"></path>
                        </g>
                    </g>
                </g>
            </g>
        </g>
    </g>
</svg>