<?xml version="1.0" encoding="UTF-8"?>
<svg width="573px" height="142px" viewBox="0 0 573 142" version="1.1" xmlns="http://www.w3.org/2000/svg" xmlns:xlink="http://www.w3.org/1999/xlink">
    <!-- Generator: Sketch 64 (93537) - https://sketch.com -->
    <title>코리아오메가금융투자</title>
    <desc>Created with Sketch.</desc>
    <g id="Landing2020" stroke="none" stroke-width="1" fill="none" fill-rule="evenodd">
        <g id="5.2020_investors" transform="translate(-186.000000, -490.000000)" fill-rule="nonzero">
            <g id="body" transform="translate(-56.000000, 160.000000)">
                <g id="investors" transform="translate(183.000000, 286.000000)">
                    <g id="코리아오메가" transform="translate(8.000000, 0.000000)">
                        <g id="코리아오메가금융투자" transform="translate(51.000000, 44.000000)">
                            <path d="M39.08,23.9 C38.9012151,25.1434631 38.4280958,26.3262612 37.7,27.35 C36.1116317,29.6947936 34.771106,32.1982253 33.7,34.82 C33.59,35.62 31.63,43.21 31.63,44.36 C31.63,45.51 30.94,45.51 29.91,44.82 C28.88,44.13 28.41,43.1 28.41,41.37 C28.2648934,39.8993825 27.8762601,38.4631289 27.26,37.12 C26.7176008,35.7932965 26.7176008,34.3067035 27.26,32.98 C28.18,30.8 29.1,30.45 30.48,30.11 C31.86,29.77 35.4,27.58 36.09,24 C36.627641,24.0467583 37.1622858,23.8817001 37.58,23.54 C38.27,23 39.08,23.9 39.08,23.9 Z" id="Path" fill="#000000"></path>
                            <path d="M20.57,59 C20.57,59 30,55.18 31.72,49.31 C33.44,43.44 36.43,33 37.35,31.72 C38.4896385,29.6411886 39.4917869,27.4899102 40.35,25.28 C40.35,25.28 41.84,20.22 44.95,18.5 C48.06,16.78 48.95,15.63 50.12,15.63 C51.29,15.63 55.06,14.94 57.12,15.97 C59.7402086,17.4947021 62.9106154,17.7484818 65.74,16.66 C65.74,16.66 68.27,15.66 72.52,17.24 C76.77,18.82 78.04,15.63 81.52,20 C81.52,20 82.32,24.94 84.28,26.44 C86.24,27.94 90,30.34 90,30.34 C90,30.34 92,33.21 90,35.05 C88,36.89 80,45.17 80,45.17 C79.5707628,45.9030996 78.8104529,46.3802679 77.963641,46.4480128 C77.1168292,46.5157578 76.2903279,46.1655344 75.75,45.51 C73.34,43.1 72.65,40.11 71.04,38.61 C70.4053071,37.9908292 70.0474061,37.1416835 70.0474061,36.255 C70.0474061,35.3683165 70.4053071,34.5191708 71.04,33.9 C72.04,32.75 75.52,29.76 75.52,29.76 C75.52,29.76 76.1,28.15 74.03,28.76 L68.74,33.36 C68.74,33.36 66.56,35.77 68.74,39.36 C70.92,42.95 73.57,46.95 73.57,46.95 C73.57,46.95 77.57,49.59 80.57,47.75 C83.57,45.91 92.31,36.09 92.31,36.09 C93.0806932,35.0598117 93.4085266,33.7647154 93.2207984,32.4919176 C93.0330701,31.2191199 92.345296,30.0738182 91.31,29.31 L85.45,24.14 L87,23.44 L98.27,23.78 C101.378611,26.4472171 104.928423,28.5520625 108.76,30 C110.791324,30.260186 112.235624,32.1056802 112,34.14 C112,34.14 114.19,36.55 114.53,38.14 C114.87,39.73 122.12,45.5 122.23,52.63 C122.34,59.76 122.92,65.28 121.77,68.15 C121.77,68.15 122.77,73.67 121.08,76.31 C119.39,78.95 118.66,79.99 120.16,83.44 C121.055285,85.4647302 121.25911,87.7278864 120.74,89.88 C120.74,89.88 119.93,90 119.13,86.78 C119.13,86.78 118.86,85.13 117.87,86.97 C116.88,88.81 115.57,91.26 115.57,91.26 L115.26,97.26 C115.26,97.26 113.73,106.46 114.26,108.26 L116.41,112.86 C116.41,112.86 117.64,115.08 116.03,116.31 L108.9,121.75 C107.014926,122.822771 104.779993,123.099889 102.69,122.52 C100.584801,121.909353 98.5121102,121.191754 96.48,120.37 C96.1743229,119.859266 96.0509336,119.259946 96.13,118.67 C96.0359759,117.732189 96.4100355,116.808261 97.13,116.2 L97.19,109.53 C97.19,109.53 97.71,106.77 97.3,105.68 C97.1245869,104.415785 96.7885386,103.179127 96.3,102 C95.55,100.28 92.62,94.13 92.62,94.13 C92.62,94.13 96.47,91.2 96.47,89.42 C96.2456391,88.9855817 96.3683033,88.4526273 96.76,88.16 C96.76,88.16 97.14,87 96.34,87 C95.54,87 95.65,87.69 95.65,87.69 L88.58,95.85 L86.22,95.97 L83.69,92.46 L83.69,88 C83.69,88 83.46,87 82.54,86.85 C81.62,86.7 81.39,88.23 81.39,88.23 L81.45,93.17 C81.2449558,93.6931772 81.0941653,94.2360231 81,94.79 C81,95.19 80.83,95.59 80.48,95.42 C80.48,95.42 80.42,102.78 80.42,103.64 C80.42,104.5 80.48,110.54 80.48,110.54 C80.9312002,111.898896 81.2034904,113.310771 81.29,114.74 C81.4668171,115.077132 81.5659075,115.449575 81.58,115.83 C81.5948574,116.211097 81.760291,116.570735 82.04,116.83 L82.1,120.22 L75.95,125.57 C75.95,125.57 74.69,127.24 71.7,125.57 L64.23,120.51 C62.9246842,120.056258 62.1615568,118.701492 62.45,117.35 C62.91,114.94 64.86,106.71 64.86,106.71 C64.86,106.71 64.72,96.4 64,92.77 C63.28,89.14 61.7,83.86 59.75,82.6 C59.4263646,82.8880986 59.2750081,83.3232484 59.35,83.75 C59.47,84.5 59.64,88.18 59.64,88.18 C59.64,88.18 59.35,88.98 58.83,88.52 C58.31,88.06 56.99,86.52 56.99,86.52 L56.24,87.78 L57.5,89.22 L61,92.83 L60.83,94.55 C60.83,94.55 60.6,95.3 60.03,94.78 L59.11,96.04 L59.11,100.87 L58.65,101.39 L58.77,113.12 C59.0906872,113.757978 59.3421212,114.428469 59.52,115.12 C59.5765638,115.6447 59.7326867,116.153796 59.98,116.62 C59.9565405,117.426405 59.828813,118.226383 59.6,119 C59.6,119 59.66,119.23 58.6,119.29 C56.3845298,119.747065 54.2528057,120.543088 52.28,121.65 C51.48,122.34 50.67,122.57 50.28,122.34 C49.89,122.11 48.21,122.51 47.58,122.05 C46.95,121.59 43.58,118.48 43.58,118.48 C43.58,118.48 43.18,117.56 42.89,117.48 L42.89,115.7 L44.73,114.26 C44.73,114.26 47,114 47.24,114 C48.7100862,113.832035 50.1561452,113.496522 51.55,113 C52.07,112.6 56.95,109.72 56.61,103.92 C56.27,98.12 54,93.87 51.27,92.66 L46.79,92.26 C46.79,92.26 44.38,83.18 44.2,78.35 C44.2,78.35 44.2,76.91 43.2,76.91 C42.2,76.91 41.2,80.65 41.13,81.45 C41.06,82.25 39.58,93.24 41.25,98.18 C42.92,103.12 45.91,106.18 46.94,105.08 C46.94,105.08 47.94,104.68 46.42,103.41 C44.9,102.14 42.42,97.41 46.25,94.41 C50.08,91.41 53.84,97 54.36,99.81 C54.88,102.62 56.03,110.39 47.63,111.94 C39.23,113.49 34.69,107.4 32.63,102.74 C29.4131741,96.1140801 28.0056003,88.7553667 28.55,81.41 L28.66,71.18 C28.66,71.18 22.39,71.98 19.23,69.92 C19.23,69.92 18.83,69.52 20.09,69.23 C21.35,68.94 29.17,66.53 29.4,62.91 C29.4,62.91 29.67,58.46 28.83,59.08 C27.99,59.7 25.28,62.17 21.93,61.08 C18.92,60.12 20.45,59.24 20.57,59 Z" id="Path" fill="#000000"></path>
                            <path d="M82.89,97 C82.89,97 81.51,104.82 83.47,118.16 L87.26,118.28 L89.67,115.86 C89.67,115.86 88.52,111.61 88.86,108.96 C89.2,106.31 90,99.9 90.47,99.1 L89.47,97.49 C89.47,97.49 85.76,98.52 82.89,97 Z" id="Path" fill="#000000"></path>
                            <path d="M29.27,54.29 C29.27,54.29 24.78,58.05 22,59.16 C22,59.16 20.58,60.04 22.65,60.5 C24.72,60.96 29,59 29.88,56.21 C30.76,53.42 29.61,54.18 29.27,54.29 Z" id="Path" fill="#FFFFFF"></path>
                            <path d="M46.51,54.14 C46.51,54.14 42.18,59.2 41.76,59.62 C41.34,60.04 39.76,62.84 29.53,66.62 C29.53,66.62 23.09,68.5 23.32,69.62 C23.55,70.74 31.21,69.89 32.25,69.77 C33.29,69.65 42.34,69.13 47,66.06 C51.66,62.99 53.94,60.73 51.83,58.2 C49.72,55.67 48.27,53.95 48.27,53.95 C48.0336682,53.6928578 47.6892682,53.5632233 47.3420367,53.6007085 C46.9948053,53.6381937 46.6860069,53.8383439 46.51,54.14 L46.51,54.14 Z" id="Path" fill="#FFFFFF"></path>
                            <path d="M64.95,118.18 C64.95,118.18 65.52,119.04 66.16,118.58 C66.8,118.12 66.79,117.89 66.79,117.66 C66.8015238,117.412648 66.7083016,117.171887 66.5332074,116.996793 C66.3581133,116.821698 66.1173522,116.728476 65.87,116.74 C65.06,116.75 64.95,118.18 64.95,118.18 Z" id="Path" fill="#FFFFFF"></path>
                            <path d="M69.55,120.37 C69.55,120.37 69.61,119.11 70.55,119.11 C71.49,119.11 71.93,119.45 71.93,119.91 C71.93,120.37 71.93,120.91 71.13,120.83 L70.5,121.12 C70.0508119,121.111783 69.6622407,120.805017 69.55,120.37 Z" id="Path" fill="#FFFFFF"></path>
                            <path d="M44.37,116.75 C44.37,116.75 44.71,115.66 45.37,115.66 C46.03,115.66 46.52,115.95 46.46,116.98 C46.4045696,117.590697 45.9206969,118.07457 45.31,118.13 C44.9968747,118.08233 44.7176965,117.906539 44.5393868,117.644766 C44.3610771,117.382992 44.2997116,117.058836 44.37,116.75 L44.37,116.75 Z" id="Path" fill="#FFFFFF"></path>
                            <path d="M47.47,119.1 C47.47,119.1 48.05,118.3 48.47,118.87 C48.89,119.44 49.33,118.99 49.28,119.67 C49.2479645,120.113763 48.8639964,120.448619 48.42,120.42 C48.22,120.43 47.13,120.71 47.47,119.1 Z" id="Path" fill="#FFFFFF"></path>
                            <path d="M53.3,31 C53.3,31 54.53,29.31 55.14,29.77 C55.8024207,30.3048959 56.3270612,30.9907004 56.67,31.77 C56.67,32.08 56.9,34.61 55.37,34.45 C53.84,34.29 53.14,33.94 53.3,31 Z" id="Path" fill="#FFFFFF"></path>
                            <path d="M0,70.83 C0,109.948329 31.7116712,141.66 70.83,141.66 C109.948329,141.66 141.66,109.948329 141.66,70.83 C141.66,31.7116712 109.948329,0 70.83,0 C31.7299474,0.0440874869 0.0440874869,31.7299474 0,70.83 Z M2.47,70.83 C2.47,33.0813373 33.0713373,2.48 70.82,2.48 C108.568663,2.48 139.17,33.0813373 139.17,70.83 C139.17,108.578663 108.568663,139.18 70.82,139.18 C33.0896126,139.135916 2.51408404,108.560387 2.47,70.83 Z" id="Shape" fill="#000000"></path>
                            <path d="M155.34,60.59 L155.34,56.92 L167.26,56.92 L167.26,49.08 L171.69,49.08 L171.69,56.92 L186.8,56.92 L186.8,60.59 L155.34,60.59 Z M158.34,47.3 L157.22,43.52 L178.22,42.52 L178.22,38 L159.08,38 L159.08,34.38 L182.62,34.38 L182.62,41.11 C182.681771,45.4792939 182.394189,49.846535 181.76,54.17 L177.56,53.75 C177.866667,50.9366667 178.053333,48.4066667 178.12,46.16 L158.34,47.3 Z" id="Shape" fill="#000000"></path>
                            <path d="M212.61,57 C210.695082,57.3255589 208.760984,57.5259836 206.82,57.6 C205.02,57.66 200.523333,57.69 193.33,57.69 L193.33,43.38 L205.39,43.38 L205.39,37.68 L193.39,37.68 L193.39,34 L209.74,34 L209.74,47.05 L197.66,47.05 L197.66,54.05 C205.406667,54.1233333 210.2,53.93 212.04,53.47 L212.61,57 Z M215.35,65.24 L215.35,31.36 L219.71,31.36 L219.71,65.26 L215.35,65.24 Z" id="Shape" fill="#000000"></path>
                            <path d="M237.23,57 C234.656197,57.0788513 232.205101,55.8999371 230.66,53.84 C229.013333,51.7333333 228.19,48.8666667 228.19,45.24 C228.19,41.6133333 229.01,38.7333333 230.65,36.6 C232.254629,34.6274649 234.66222,33.4823986 237.205,33.4823986 C239.74778,33.4823986 242.155371,34.6274649 243.76,36.6 C245.4,38.6933333 246.22,41.56 246.22,45.2 C246.22,48.84 245.4,51.71 243.76,53.81 C242.231781,55.8721812 239.795967,57.0621119 237.23,57 L237.23,57 Z M237.23,37.24 C235.810212,37.2843993 234.530221,38.106976 233.9,39.38 C232.934317,41.19072 232.481363,43.2307445 232.59,45.28 C232.494744,47.3081368 232.954586,49.3238341 233.92,51.11 C234.475632,52.4445674 235.779387,53.3140004 237.225,53.3140004 C238.670613,53.3140004 239.974368,52.4445674 240.53,51.11 C241.500123,49.3325226 241.963635,47.3228192 241.87,45.3 C241.974017,43.2586999 241.524874,41.2271915 240.57,39.42 C239.947125,38.133005 238.659237,37.3001195 237.23,37.26 L237.23,37.24 Z M254.65,48.07 L254.65,65.26 L250.27,65.26 L250.27,31.36 L254.65,31.36 L254.65,44.36 L260,44.36 L260,48.07 L254.65,48.07 Z" id="Shape" fill="#000000"></path>
                            <path d="M263.34,60.59 L263.34,57 L276.84,57 L276.84,51 C274.271272,50.7909042 271.82829,49.7997515 269.84,48.16 C268.096932,46.5538204 267.177595,44.2429724 267.34094,41.8783544 C267.504286,39.5137365 268.732636,37.3512484 270.68,36 C275.825169,32.8846449 282.274831,32.8846449 287.42,36 C289.356318,37.3653163 290.570299,39.5339608 290.721839,41.8983743 C290.873379,44.2627879 289.946179,46.568665 288.2,48.17 C286.236023,49.7990083 283.814366,50.7774557 281.27,50.97 L281.27,56.97 L294.8,56.97 L294.8,60.61 L263.34,60.59 Z M279.07,37.3 C277.217374,37.2036424 275.380234,37.6821372 273.81,38.67 C272.595766,39.5194865 271.872537,40.908112 271.872537,42.39 C271.872537,43.871888 272.595766,45.2605135 273.81,46.11 C275.381373,47.0943569 277.218432,47.569338 279.07,47.47 C280.916578,47.5688 282.748077,47.089954 284.31,46.1 C285.520115,45.2477331 286.240057,43.8601142 286.240057,42.38 C286.240057,40.8998858 285.520115,39.5122669 284.31,38.66 C282.747194,37.6729371 280.915578,37.1975558 279.07,37.3 Z" id="Shape" fill="#000000"></path>
                            <path d="M300.64,55.81 L300.64,34.27 L314.39,34.27 L314.39,43.06 L317.89,43.06 L317.89,32 L322.25,32 L322.25,64.26 L317.89,64.26 L317.89,46.81 L314.39,46.81 L314.39,55.81 L300.64,55.81 Z M310.06,37.95 L305,37.95 L305,52.1 L310.06,52.1 L310.06,37.95 Z M324.58,65.27 L324.58,31.36 L329,31.36 L329,65.26 L324.58,65.27 Z" id="Shape" fill="#000000"></path>
                            <path d="M338.57,57.85 L335.27,54.76 C342.85,50.5933333 347.426667,45.0066667 349,38 L337.22,38 L337.22,34.27 L354,34.27 C353.086667,44.21 347.943333,52.07 338.57,57.85 Z M362.7,48.43 L362.7,65.26 L358.27,65.26 L358.27,31.36 L362.7,31.36 L362.7,44.72 L368,44.72 L368,48.43 L362.7,48.43 Z" id="Shape" fill="#000000"></path>
                            <path d="M389.27,54 L389.27,65.26 L384.84,65.26 L384.84,54 L371.34,54 L371.34,50.29 L402.8,50.29 L402.8,54 L389.27,54 Z M376.09,47.67 L376.09,32.43 L398.09,32.43 L398.09,36.14 L380.51,36.14 L380.51,38.3 L397.23,38.3 L397.23,41.87 L380.51,41.87 L380.51,44 L398.51,44 L398.51,47.67 L376.09,47.67 Z" id="Shape" fill="#000000"></path>
                            <path d="M425.27,56.88 C422.143203,54.7960536 419.533543,52.0256409 417.64,48.78 C416.637139,50.5856722 415.443658,52.2786719 414.08,53.83 C412.932487,55.2501638 411.58514,56.4964596 410.08,57.53 L406.83,54.72 C409.271762,53.4586777 411.340445,51.5796236 412.83,49.27 C414.47979,47.0536035 415.405249,44.3819982 415.48,41.62 L415.48,37.91 L408.13,37.91 L408.13,34.2 L427,34.2 L427,37.91 L419.8,37.91 L419.8,41.51 C419.868056,44.1008078 420.761423,46.6022356 422.35,48.65 C423.806805,50.8157984 425.825626,52.5442411 428.19,53.65 L425.27,56.88 Z M434.66,48.09 L434.66,65.26 L430.28,65.26 L430.28,31.36 L434.66,31.36 L434.66,44.36 L440,44.36 L440,48.07 L434.66,48.09 Z" id="Shape" fill="#000000"></path>
                            <path d="M443.34,47.6 L443.34,43.89 L465.34,43.89 C465.54,40.77 465.64,38.08 465.64,35.82 L447.91,35.82 L447.91,32.11 L470.09,32.11 C470.09,35.1833333 469.933333,39.11 469.62,43.89 L474.81,43.89 L474.81,47.6 L443.34,47.6 Z M448,64.54 L448,51.76 L470.18,51.76 L470.18,64.54 L448,64.54 Z M465.79,55.47 L452.37,55.47 L452.37,60.87 L465.76,60.87 L465.79,55.47 Z" id="Shape" fill="#000000"></path>
                            <path d="M487.14,53.82 L487.14,50 L479.34,50 L479.34,46.33 L510.8,46.33 L510.8,50 L503,50 L503,53.78 C505.393333,54.92 506.59,56.5866667 506.59,58.78 C506.587671,60.808797 505.420943,62.6561167 503.59,63.53 C501.59,64.6766667 498.763333,65.25 495.11,65.25 C491.456667,65.25 488.63,64.6766667 486.63,63.53 C484.799057,62.6561167 483.632329,60.808797 483.63,58.78 C483.583333,56.6133333 484.753333,54.96 487.14,53.82 Z M495.07,44.82 C491.416667,44.82 488.596667,44.2433333 486.609999,43.09 C484.784054,42.2105025 483.619546,40.3666974 483.609999,38.34 C483.608873,36.3126965 484.777268,34.4666334 486.609999,33.6 C488.609999,32.4666667 491.433333,31.9 495.08,31.9 C498.726667,31.9 501.55,32.4666667 503.55,33.6 C505.382732,34.4666334 506.551127,36.3126965 506.550001,38.34 C506.540454,40.3666974 505.375946,42.2105025 503.55,43.09 C501.55,44.2433333 498.723333,44.82 495.07,44.82 Z M495.07,56.02 C490.403333,56.02 488.07,56.9566667 488.07,58.83 C488.07,59.71 488.65,60.4066667 489.81,60.92 C493.250935,61.9521297 496.919065,61.9521297 500.36,60.92 C501.52,60.4066667 502.1,59.71 502.1,58.83 C502.086667,56.9433333 499.743333,56 495.07,56 L495.07,56.02 Z M495.07,35.28 C493.305229,35.1925912 491.541489,35.4717933 489.89,36.1 C488.891467,36.4057561 488.186571,37.2978278 488.12,38.34 C488.12,39.3 488.723333,40.05 489.93,40.59 C491.568111,41.2023046 493.312925,41.4778015 495.06,41.4 C499.686667,41.4 502,40.38 502,38.34 C501.939203,37.3020801 501.242367,36.4101306 500.25,36.1 C498.598661,35.4712301 496.834803,35.1920092 495.07,35.28 L495.07,35.28 Z M491.57,52.59 C493.894839,52.3084336 496.245161,52.3084336 498.57,52.59 L498.57,50 L491.57,50 L491.57,52.59 Z" id="Shape" fill="#000000"></path>
                            <path d="M521.58,65 C517.71372,60.6808043 515.648908,55.0446203 515.81,49.25 C515.720257,43.3918907 517.771999,37.7024853 521.58,33.25 L525.58,33.25 C521.966342,37.7962022 520.0183,43.4426991 520.06,49.25 C520.032343,54.9856531 521.997654,60.5528561 525.62,65 L521.58,65 Z" id="Path" fill="#000000"></path>
                            <path d="M546.15,52.17 L546.15,65.27 L541.72,65.27 L541.72,52.17 L528.22,52.17 L528.22,48.46 L559.68,48.46 L559.68,52.17 L546.15,52.17 Z M556.22,46.23 C550.886667,45.19 546.773333,43.0633333 543.88,39.85 C542.506225,41.4898091 540.802615,42.8220323 538.88,43.76 C536.660017,44.9869636 534.255311,45.8448221 531.76,46.3 L529,42.91 C531.724939,42.7508275 534.384366,42.0109614 536.8,40.74 C538.779231,39.8427161 540.386896,38.2880511 541.35,36.34 L531.63,36.34 L531.63,32.62 L556.2,32.62 L556.2,36.33 L546.37,36.33 C546.99,37.91 548.426667,39.2966667 550.68,40.49 C553.150356,41.7444827 555.83277,42.5278426 558.59,42.8 L556.22,46.23 Z" id="Shape" fill="#000000"></path>
                            <path d="M562.29,65 C565.944653,60.5639075 567.910803,54.9772071 567.84,49.23 C567.873992,43.4189412 565.915139,37.7717975 562.29,33.23 L566.37,33.23 C570.17838,37.6829225 572.233276,43.3712166 572.15,49.23 C572.299866,55.0341942 570.224866,60.6760496 566.35,65 L562.29,65 Z" id="Path" fill="#000000"></path>
                            <path d="M175.25,90.88 L174.48,89.88 C176.401054,88.4318851 178.404412,87.0963129 180.48,85.88 C181.395083,85.2701285 182.410678,84.8266518 183.48,84.57 C184.303931,84.6231168 185.031087,85.127124 185.37,85.88 C185.889248,86.7935847 186.155075,87.8292723 186.14,88.88 C186.14,91.2666667 185.01,94.3666667 182.75,98.18 C183.81767,97.7529058 184.797396,97.1325257 185.64,96.35 C186.876496,95.2476652 188.011088,94.0360942 189.03,92.73 C190.23,91.2366667 191.563333,89.3766667 193.03,87.15 C193.887004,86.7123195 194.721397,86.2317094 195.53,85.71 L197.4,84.62 C197.632136,84.4712595 197.895808,84.378803 198.17,84.35 C197.510637,85.8675769 196.734995,87.3319356 195.85,88.73 C194.975066,90.196442 193.971088,91.5819304 192.85,92.87 C191.636815,94.1672365 190.296799,95.3397505 188.85,96.37 C186.670837,97.9279993 184.411033,99.3700014 182.08,100.69 C185.27984,102.801255 188.675503,104.59955 192.22,106.06 C192.06397,104.99332 191.853697,103.935282 191.59,102.89 C192.29,102.223333 193.013333,101.6 193.76,101.02 C194.506667,100.44 195.253333,99.8633333 196,99.29 C196.531381,101.015013 196.820808,102.805422 196.86,104.61 C193.526667,108.056667 190.713333,109.78 188.42,109.78 C185.753333,109.78 182.646667,108.07 179.1,104.65 C177.417718,106.315187 175.471414,107.69044 173.34,108.72 C171.781734,109.41629 170.09668,109.783938 168.39,109.8 C166.977197,109.826039 165.587352,109.440357 164.39,108.69 C163.537901,108.249781 162.824752,107.581636 162.33,106.76 C162.076667,106.206667 161.793333,105.623333 161.48,105.01 C160.9,103.836667 160.566667,103.126667 160.48,102.88 C161.206667,102.06 162.173333,101.06 163.38,99.88 C164.447057,101.830891 166.027416,103.452747 167.95,104.57 C169.551713,105.383358 171.323612,105.804912 173.12,105.8 C174.346195,105.80825 175.562228,105.577272 176.7,105.12 C176.806667,104.946667 177.14,104.28 177.7,103.12 L173.93,99.5 C174.256667,99.0066667 174.923333,98.1133333 175.93,96.82 C177.024035,97.851165 178.432668,98.48505 179.93,98.62 C180.11,97.8533333 180.26,97.11 180.38,96.39 C180.5,95.67 180.59,95.0033333 180.65,94.39 C180.71,93.7233333 180.74,93.0766667 180.74,92.45 C180.730361,91.2009093 180.493152,89.9640333 180.04,88.8 C178.400515,89.390234 176.800565,90.0849929 175.25,90.88 L175.25,90.88 Z" id="Path" fill="#000000"></path>
                            <path d="M208.42,91.32 L207.68,92.58 C208.380917,92.8035639 208.975247,93.2768923 209.35,93.91 C209.810092,94.6717385 210.039355,95.5505795 210.01,96.44 C210.017769,97.3663881 209.82681,98.2836729 209.45,99.13 C209.168413,99.8029465 208.753398,100.411863 208.23,100.92 C207.545887,101.469448 206.796962,101.932909 206,102.3 C205.716849,102.448158 205.445987,102.6187 205.19,102.81 C204.97551,102.977635 204.748139,103.128101 204.51,103.260028 C202.778469,103.264454 201.086683,102.741221 199.66,101.76 C198.330811,101.016536 197.496824,99.622749 197.47,98.1 C197.47,95.6933333 199.136667,93.3866667 202.47,91.18 C203.99,91.32 205.28,91.39 206.34,91.39 C207.1,91.3833333 207.793333,91.36 208.42,91.32 Z M202.55,93.52 C202.083288,94.2780087 201.834192,95.1498427 201.83,96.04 C201.83,98.4 203.036667,99.84 205.45,100.36 C205.673016,99.4840294 205.78721,98.5839097 205.79,97.68 C205.890201,96.5842347 205.52762,95.4964919 204.79,94.68 C204.170183,94.0863011 203.392548,93.683597 202.55,93.52 L202.55,93.52 Z" id="Shape" fill="#000000"></path>
                            <path d="M212.14,95 L212.24,91.06 L216.38,91.44 L216.61,94.6 C216.83,93.98 217.026667,93.38 217.2,92.8 C217.299023,92.4081524 217.450384,92.031431 217.65,91.68 C217.839762,91.3859577 218.110696,91.1532319 218.43,91.01 C218.829032,90.8071141 219.272529,90.7074133 219.72,90.72 C220.362619,90.7372736 220.996547,90.8728732 221.59,91.12 L221.14,92.86 C220.913333,93.8 220.626667,94.84 220.28,95.98 C219.594197,95.4819176 218.852492,95.065757 218.07,94.74 C217.518792,95.3858524 217.079406,96.1192896 216.77,96.91 C216.823333,97.73 216.883333,98.3633333 216.95,98.81 C217.643395,99.0778173 218.37705,99.2265769 219.12,99.25 C218.74,100.323333 218.27,101.5 217.71,102.78 C216.535741,102.871022 215.354611,102.755954 214.22,102.44 C213.691745,102.155305 213.22053,101.775621 212.83,101.32 C212.235823,100.416729 211.974219,99.3349597 212.09,98.26 C212.083333,97.2866667 212.1,96.2 212.14,95 Z" id="Path" fill="#000000"></path>
                            <path d="M222.26,93.58 L225.33,91 L229.01,91.27 C229.927195,91.2689761 230.816881,91.5831907 231.53,92.16 C232.005751,92.5868329 232.284334,93.1910321 232.3,93.83 C232.290482,94.1657627 232.253695,94.5001967 232.19,94.83 C232.09,95.3233333 231.986667,96.0566667 231.88,97.03 C230.978027,97.54046 230.00844,97.9208883 229,98.16 C228.375492,98.2653764 227.743335,98.3188923 227.11,98.32 C226.825435,98.3153869 226.541485,98.2920028 226.26,98.25 C226.833671,99.1717502 227.792689,99.7853748 228.87,99.92 C229.887357,99.9171958 230.862023,99.5107853 231.58,98.79 L231.69,98.79 C230.776667,101.636667 229.09,103.06 226.63,103.06 C225.672885,103.130262 224.714129,102.947478 223.85,102.53 C223.266435,102.162349 222.809313,101.624969 222.54,100.99 C222.152307,99.786913 221.996217,98.5212315 222.08,97.26 L222.15,94.92 L222.26,93.58 Z M226.39,93.72 L226,97.05 C226.793333,97.05 227.646667,97.0233333 228.56,96.97 C228.56,96.37 228.56,96.0833333 228.56,96.11 C228.60716,95.4656303 228.382305,94.8309594 227.94,94.36 C227.516513,93.9605791 226.961807,93.7294516 226.38,93.71 L226.39,93.72 Z" id="Shape" fill="#000000"></path>
                            <path d="M237.79,91 C237.93,91.0333333 238.753333,91.1933333 240.26,91.48 C241.626667,91.7266667 242.53,91.9166667 242.97,92.05 C243.419745,92.217418 243.833708,92.4685104 244.19,92.79 C244.60204,93.1750428 244.89966,93.6664626 245.05,94.21 C245.267446,95.0078021 245.365179,95.833479 245.34,96.66 L245.27,100.66 C245.277854,101.219241 245.324634,101.777257 245.41,102.33 C244.563333,102.47 243.01,102.863333 240.75,103.51 C240.939206,101.800111 241.022698,100.080175 241,98.36 C240.588005,98.9274213 240.136909,99.4653952 239.65,99.97 C238.903333,100.79 237.836667,101.91 236.45,103.33 C235.609262,103.123337 234.786588,102.849112 233.99,102.51 C233.956667,102.163333 233.883333,101.626667 233.77,100.9 C233.624172,99.8763183 233.547332,98.8439905 233.54,97.81 C233.50022,96.6347533 233.787561,95.4715438 234.37,94.45 C235.317004,93.1235253 236.471847,91.9585523 237.79,91 Z M237.74,94.29 L238.04,99.66 C238.573435,99.0633732 239.070977,98.4356021 239.53,97.78 C240.023333,97.1133333 240.443333,96.4466667 240.79,95.78 C239.991536,94.9205941 238.899439,94.3923902 237.73,94.3 L237.74,94.29 Z" id="Shape" fill="#000000"></path>
                            <path d="M275.23,86.06 L274.34,87.52 C271.743818,87.7802001 269.19811,88.4098923 266.78,89.39 C265.104283,89.9713185 263.625015,91.0106168 262.51,92.39 C261.7649,93.5508819 261.391624,94.9114208 261.44,96.29 C261.353467,99.0790481 262.57854,101.747562 264.75,103.5 C266.997599,105.351739 269.838903,106.328437 272.75,106.25 C275.475637,106.394449 278.096297,105.181458 279.75,103.01 C281.192856,101.326857 282.052335,99.2220124 282.2,97.01 C282.164387,96.3550051 282.063896,95.7051574 281.9,95.07 C279.56,94.01 278.123333,91.6766667 277.59,88.07 C280.496667,85.8766667 282.676667,84.6966667 284.13,84.53 C285.313208,85.5220714 286.219295,86.8036854 286.76,88.25 C287.352763,89.6497722 287.671849,91.1501519 287.7,92.67 C287.618213,95.8866982 286.403508,98.9712696 284.27,101.38 C282.077218,104.105744 279.316416,106.320528 276.18,107.87 C273.543638,109.291454 270.613554,110.082166 267.62,110.18 C264.750765,110.221447 261.954499,109.275236 259.7,107.5 C257.397692,105.70181 256.111383,102.89803 256.25,99.98 C256.202167,98.0876099 256.610318,96.2114864 257.44,94.51 C258.341801,92.8396823 259.626989,91.4071266 261.19,90.33 C262.085045,89.6812411 263.035366,89.1123867 264.03,88.63 C265.110291,88.1078094 266.226457,87.663348 267.37,87.3 C269.913217,86.4957967 272.562721,86.0778087 275.23,86.06 Z" id="Path" fill="#000000"></path>
                            <path d="M289.18,93.8 L289.18,92.11 C290.66567,91.8198855 292.134498,91.4493404 293.58,91 L293.63,93.17 C294.576667,92.2033333 295.28,91.48 295.74,91 C298.153333,91.4466667 299.516667,92.1933333 299.83,93.24 C300.481529,92.4555771 301.175921,91.7077696 301.91,91 C302.939647,91.0015717 303.958952,91.2054329 304.91,91.6 C305.586481,91.8761711 306.152569,92.3684213 306.52,93 C306.85543,93.7220098 307.009885,94.5148769 306.97,95.31 C306.97,96.07 306.916667,97.0166667 306.81,98.15 C306.736667,98.95 306.7,99.5066667 306.7,99.82 C306.7,100.133333 306.723333,100.603333 306.77,101.23 C305.38568,102.430333 303.865282,103.464069 302.24,104.31 C302.346667,103.61 302.436667,102.43 302.51,100.77 L302.51,100.46 C302.556667,99.62 302.58,98.9533333 302.58,98.46 C302.628534,97.5111578 302.499664,96.5615868 302.2,95.66 C301.897243,94.9899084 301.457861,94.3904414 300.91,93.9 C300.53,94.8666667 300.29,95.4466667 300.19,95.64 C300.223333,96.3666667 300.24,97.3266667 300.24,98.52 C300.24,99.9933333 300.203333,101.293333 300.13,102.42 C298.707368,102.616106 297.307355,102.951038 295.95,103.42 C295.95,102.806667 295.95,102.27 295.95,101.81 C295.95,97.71 295.476667,95.1433333 294.53,94.11 L293.66,95.67 L293.84,102.62 C291.306667,102.866667 289.62,103.066667 288.78,103.22 C289.046667,100.293333 289.18,97.1533333 289.18,93.8 Z" id="Path" fill="#000000"></path>
                            <path d="M309.32,93.58 L312.39,91 L316.07,91.27 C316.987195,91.2689761 317.876881,91.5831907 318.59,92.16 C319.065751,92.5868329 319.344334,93.1910321 319.36,93.83 C319.350482,94.1657627 319.313695,94.5001967 319.25,94.83 C319.15,95.3233333 319.046667,96.0566667 318.94,97.03 C318.050533,97.5369964 317.094641,97.9173339 316.1,98.16 C315.475492,98.2653764 314.843335,98.3188923 314.21,98.32 C313.925435,98.3153869 313.641485,98.2920028 313.36,98.25 C313.940058,99.179363 314.911739,99.7940246 316,99.92 C317.017357,99.9171958 317.992023,99.5107853 318.71,98.79 L318.82,98.79 C317.906667,101.636667 316.22,103.06 313.76,103.06 C312.802885,103.130262 311.844129,102.947478 310.98,102.53 C310.396435,102.162349 309.939313,101.624969 309.67,100.99 C309.282307,99.786913 309.126217,98.5212315 309.21,97.26 L309.28,94.92 L309.32,93.58 Z M313.45,93.72 L313.09,97.06 C313.883333,97.06 314.736667,97.0333333 315.65,96.98 C315.65,96.38 315.65,96.0933333 315.65,96.12 C315.69716,95.4756303 315.472305,94.8409594 315.03,94.37 C314.602923,93.9624111 314.040105,93.7273099 313.45,93.71 L313.45,93.72 Z" id="Shape" fill="#000000"></path>
                            <path d="M324.45,91 C327.156667,91 329.116667,91.3766667 330.33,92.13 C331.520604,92.8778986 332.207263,94.2166914 332.12,95.62 C332.12,96.34 332.066667,97.27 331.96,98.41 L331.63,102.27 C331.607842,103.107452 331.531012,103.942563 331.4,104.77 C331.235021,105.42751 330.961245,106.052801 330.59,106.62 C330.114487,107.409728 329.536086,108.132729 328.87,108.77 C328.406416,109.256123 327.889866,109.688818 327.33,110.06 C326.854677,110.239239 326.347246,110.317567 325.84,110.29 C324.117065,110.412957 322.412813,109.868742 321.08,108.77 L320.85,105.94 L323,103.9 C323.726667,105.146667 325.24,105.893333 327.54,106.14 L327.47,102.61 C327.423333,100.523333 327.386667,99.3433333 327.36,99.07 C326.57174,100.102267 325.661834,101.035677 324.65,101.85 C324.292175,102.135424 323.978752,102.472438 323.72,102.85 C322.800072,102.707663 321.906761,102.427872 321.07,102.02 C321.07,102.02 321,101.71 320.85,101.08 C320.609919,100.155394 320.48233,99.2051874 320.47,98.25 C320.433763,97.374679 320.608687,96.5034902 320.98,95.71 C321.445029,94.8820733 321.994633,94.1045845 322.62,93.39 C323.289025,92.6403138 323.900749,91.8413962 324.45,91 L324.45,91 Z M324.78,93.8 L324.78,99.87 C325.462736,99.2660516 326.031727,98.5446517 326.46,97.74 C326.959569,97.0127062 327.394561,96.2431063 327.76,95.44 C326.897338,94.6882142 325.880016,94.1351733 324.78,93.82 L324.78,93.8 Z" id="Shape" fill="#000000"></path>
                            <path d="M337.89,91 C338.03,91.0333333 338.853333,91.1933333 340.36,91.48 C341.726667,91.7266667 342.63,91.9166667 343.07,92.05 C343.519745,92.217418 343.933708,92.4685104 344.29,92.79 C344.70204,93.1750428 344.99966,93.6664626 345.15,94.21 C345.367446,95.0078021 345.465179,95.833479 345.44,96.66 L345.37,100.66 C345.377854,101.219241 345.424634,101.777257 345.51,102.33 C344.663333,102.47 343.11,102.863333 340.85,103.51 C341.039206,101.800111 341.122698,100.080175 341.1,98.36 C340.688005,98.9274213 340.236909,99.4653952 339.75,99.97 C339.003333,100.79 337.936667,101.91 336.55,103.33 C335.709262,103.123337 334.886588,102.849112 334.09,102.51 C334.056667,102.163333 333.983333,101.626667 333.87,100.9 C333.724172,99.8763183 333.647332,98.8439905 333.64,97.81 C333.60022,96.6347533 333.887561,95.4715438 334.47,94.45 C335.417004,93.1235253 336.571847,91.9585523 337.89,91 L337.89,91 Z M337.84,94.29 L338.14,99.66 C338.673435,99.0633732 339.170977,98.4356021 339.63,97.78 C340.123333,97.1133333 340.543333,96.4466667 340.89,95.78 C340.094021,94.9228344 339.0059,94.3948283 337.84,94.3 L337.84,94.29 Z" id="Shape" fill="#000000"></path>
                            <path d="M368.56,102 L368.56,102.51 L358.87,102.51 L358.87,102 L359.49,102 C359.941331,102.019732 360.389845,101.919678 360.79,101.71 C361.046124,101.562569 361.241172,101.328511 361.34,101.05 C361.478295,100.487815 361.528891,99.9076371 361.49,99.33 L361.49,87.17 C361.527763,86.5725191 361.477219,85.9727352 361.34,85.39 C361.209409,85.1225612 360.99528,84.904922 360.73,84.77 C360.347394,84.5730997 359.919834,84.4800018 359.49,84.5 L358.87,84.5 L358.87,84 L368.56,84 L368.56,84.51 L367.94,84.51 C367.488669,84.4902682 367.040155,84.5903215 366.64,84.8 C366.383945,84.9501954 366.186495,85.1829047 366.08,85.46 C365.941705,86.0221848 365.891109,86.6023629 365.93,87.18 L365.93,99.38 C365.891852,99.9780261 365.945815,100.578363 366.09,101.16 C366.225524,101.427306 366.442694,101.644476 366.71,101.78 C367.092606,101.9769 367.520166,102.069998 367.95,102.05 L368.56,102 Z" id="Path" fill="#000000"></path>
                            <path d="M375.37,89.75 L375.37,91.4 C375.911379,90.7838475 376.549788,90.2602845 377.26,89.85 C377.854712,89.524951 378.522264,89.3563424 379.2,89.36 C379.947417,89.3339845 380.679044,89.5790439 381.26,90.05 C381.795044,90.4945524 382.176431,91.0963735 382.35,91.77 C382.536975,92.7584067 382.610784,93.764891 382.57,94.77 L382.57,99.77 C382.506213,100.396229 382.598991,101.028496 382.84,101.61 C383.157406,101.892573 383.576353,102.033426 384,102 L384,102.49 L377.53,102.49 L377.53,102 C377.936982,101.961714 378.304698,101.741085 378.53,101.4 C378.727529,100.856425 378.802649,100.275951 378.75,99.7 L378.75,94.06 C378.78214,93.3909572 378.741906,92.7204 378.63,92.06 C378.56295,91.8068358 378.415572,91.5822593 378.21,91.42 C378.027451,91.2687007 377.797082,91.1871854 377.56,91.19 C376.773333,91.19 376.043333,91.75 375.37,92.87 L375.37,99.72 C375.309964,100.339614 375.402667,100.964501 375.64,101.54 C375.889972,101.834842 376.2536,102.009383 376.64,102.02 L376.64,102.51 L370.17,102.51 L370.17,102 C370.608657,101.992745 371.024823,101.804566 371.32,101.48 C371.536569,100.913259 371.6154,100.303175 371.55,99.7 L371.55,92.52 C371.612573,91.9068469 371.519718,91.2878094 371.28,90.72 C370.982075,90.4309143 370.585077,90.2663925 370.17,90.26 L370.17,89.75 L375.37,89.75 Z" id="Path" fill="#000000"></path>
                            <path d="M391.49,102.92 L387.18,93 C386.887866,92.1948824 386.491132,91.4316739 386,90.73 C385.751189,90.4721241 385.424334,90.3034248 385.07,90.25 L385.07,89.74 L391.86,89.74 L391.86,90.25 C391.551503,90.2160011 391.24139,90.2979849 390.99,90.48 C390.781982,90.6574147 390.661514,90.9166046 390.66,91.19 C390.754514,91.8519373 390.957218,92.4938316 391.26,93.09 L393.37,97.89 L395,93.76 C395.376898,92.9652913 395.620161,92.1138684 395.72,91.24 C395.727294,90.9747611 395.613147,90.7206928 395.41,90.55 C395.08771,90.3377303 394.705164,90.2359519 394.32,90.26 L394.32,89.75 L398.5,89.75 L398.5,90.26 C398.126111,90.2954222 397.774475,90.4536581 397.5,90.71 C397.01218,91.3729325 396.624686,92.104116 396.35,92.88 L392.08,102.88 L391.49,102.92 Z" id="Path" fill="#000000"></path>
                            <path d="M410.55,95.68 L403.55,95.68 C403.550669,97.1250546 404.024865,98.5300776 404.9,99.68 C405.439215,100.389848 406.278579,100.807681 407.17,100.81 C407.702225,100.814027 408.222671,100.653352 408.66,100.35 C409.240762,99.8967906 409.729533,99.3367397 410.1,98.7 L410.56,99 C410.053433,100.17494 409.263135,101.205762 408.26,102 C407.404852,102.588266 406.387827,102.89582 405.35,102.88 C403.62596,102.96909 401.984517,102.135039 401.04,100.69 C400.218293,99.3842062 399.807241,97.8619196 399.86,96.32 C399.764094,94.4644678 400.383252,92.6427835 401.59,91.23 C402.597919,90.0370918 404.078305,89.3462449 405.64,89.34 C406.951784,89.3634494 408.184323,89.9723826 409,91 C410.045232,92.332257 410.593347,93.9872093 410.55,95.68 L410.55,95.68 Z M407.19,94.76 C407.229952,93.7540067 407.149379,92.7468468 406.95,91.76 C406.829034,91.2812134 406.567882,90.8494424 406.2,90.52 C405.982563,90.3452683 405.708609,90.256322 405.43,90.27 C404.945165,90.2762766 404.501542,90.5439801 404.27,90.97 C403.680095,91.9805329 403.398542,93.1415018 403.46,94.31 L403.46,94.79 L407.19,94.76 Z" id="Shape" fill="#000000"></path>
                            <path d="M420.23,89.39 L420.44,93.75 L420,93.75 C419.637753,92.7439054 419.045323,91.836426 418.27,91.1 C417.77554,90.6663803 417.147156,90.415733 416.49,90.39 C416.118367,90.3723488 415.756125,90.5100008 415.49,90.77 C415.237609,90.9888712 415.091835,91.3059308 415.09,91.64 C415.094546,91.9008926 415.190042,92.1520107 415.36,92.35 C416.097396,93.0851661 416.919876,93.729722 417.81,94.27 C418.821456,94.8793354 419.718345,95.6611524 420.46,96.58 C420.88439,97.2086736 421.107595,97.9515278 421.1,98.71 C421.095713,99.4393739 420.913801,100.156723 420.57,100.8 C420.236265,101.460157 419.71426,102.006522 419.07,102.37 C418.413803,102.738297 417.672446,102.927947 416.92,102.92 C416.076901,102.870434 415.248395,102.677679 414.47,102.35 C414.291337,102.273852 414.102804,102.223352 413.91,102.2 C413.61,102.2 413.36,102.426667 413.16,102.88 L412.71,102.88 L412.49,98.29 L413,98.29 C413.305367,99.3306782 413.889828,100.267891 414.69,101 C415.231773,101.523374 415.938981,101.841617 416.69,101.9 C417.085824,101.91523 417.471234,101.771152 417.76,101.5 C418.037898,101.243 418.191048,100.878358 418.18,100.5 C418.186439,100.085815 418.040535,99.6836901 417.77,99.37 C417.214559,98.8215407 416.600927,98.3353296 415.94,97.92 C414.949834,97.2967271 414.039726,96.5545358 413.23,95.71 C412.649491,95.0177635 412.330907,94.1434274 412.329927,93.24 C412.324063,92.2573824 412.680027,91.3069587 413.33,90.57 C414.078644,89.7407207 415.165055,89.2987907 416.28,89.37 C416.978185,89.3751059 417.664625,89.5501482 418.28,89.88 C418.460085,89.9974697 418.665966,90.0695278 418.88,90.09 C419.020409,90.0982136 419.159975,90.0633221 419.28,89.99 C419.467499,89.8211768 419.62922,89.6257634 419.76,89.41 L420.23,89.39 Z" id="Path" fill="#000000"></path>
                            <path d="M428.11,85.07 L428.11,89.75 L431.11,89.75 L431.11,91.1 L428.11,91.1 L428.11,99 C428.086067,99.4789501 428.11964,99.9590423 428.21,100.43 C428.270584,100.637715 428.396904,100.820178 428.57,100.95 C428.703671,101.067609 428.872368,101.137899 429.05,101.15 C429.643333,101.15 430.203333,100.7 430.73,99.8 L431.14,100.1 C430.650777,101.674269 429.188485,102.742554 427.54,102.73 C426.794856,102.751795 426.065737,102.511115 425.48,102.05 C424.973115,101.672005 424.598624,101.143517 424.41,100.54 C424.281203,99.7065821 424.234312,98.862556 424.27,98.02 L424.27,91.1 L422.6,91.1 L422.6,90.62 C423.668278,89.8775766 424.650948,89.0189982 425.53,88.06 C426.349363,87.146855 427.057635,86.1398339 427.64,85.06 L428.11,85.07 Z" id="Path" fill="#000000"></path>
                            <path d="M437.67,89.75 L437.67,91.43 C438.222106,90.7847081 438.881868,90.2399811 439.62,89.82 C440.239081,89.5055939 440.925766,89.3476563 441.62,89.36 C442.348918,89.3338636 443.068195,89.5328869 443.68,89.93 C444.279148,90.3673815 444.729462,90.9782721 444.97,91.68 C445.564004,90.9718816 446.274132,90.3699634 447.07,89.9 C447.711942,89.541323 448.434654,89.3520412 449.17,89.35 C449.921719,89.311997 450.664523,89.5267412 451.28,89.96 C451.791678,90.3503592 452.171965,90.8876467 452.37,91.5 C452.617854,92.4797491 452.722274,93.4902709 452.68,94.5 L452.68,99.74 C452.615776,100.362976 452.7086,100.992116 452.95,101.57 C453.23672,101.835223 453.609608,101.98793 454,102 L454,102.49 L447.4,102.49 L447.4,102 C447.855617,101.989082 448.280402,101.767455 448.55,101.4 C448.768183,100.861507 448.853918,100.278508 448.8,99.7 L448.8,94.2 C448.830561,93.473747 448.783629,92.7463052 448.66,92.03 C448.594124,91.7599423 448.443418,91.5181117 448.23,91.34 C448.032733,91.1873131 447.789426,91.1062108 447.54,91.11 C447.107251,91.1207736 446.689679,91.271661 446.35,91.54 C445.876152,91.9010882 445.464118,92.3367639 445.13,92.83 L445.13,99.69 C445.073466,100.279942 445.152124,100.875009 445.36,101.43 C445.642012,101.804574 446.091771,102.014462 446.56,101.99 L446.56,102.48 L440,102.48 L440,102 C440.301249,101.999444 440.594846,101.905073 440.84,101.73 C441.033232,101.587867 441.176706,101.388404 441.25,101.16 C441.339936,100.67887 441.373495,100.188899 441.35,99.7 L441.35,94.2 C441.382351,93.4737281 441.335407,92.746094 441.21,92.03 C441.131589,91.760788 440.970703,91.5229558 440.75,91.35 C440.554998,91.1908438 440.311693,91.1026897 440.06,91.1 C439.705538,91.0972214 439.35798,91.1980134 439.06,91.39 C438.520089,91.7872819 438.056034,92.2784342 437.69,92.84 L437.69,99.7 C437.63957,100.306283 437.732047,100.915943 437.96,101.48 C438.230516,101.81342 438.640809,102.001933 439.07,101.99 L439.07,102.48 L432.48,102.48 L432.48,102 C432.918657,101.992745 433.334823,101.804566 433.63,101.48 C433.846569,100.913259 433.9254,100.303175 433.86,99.7 L433.86,92.52 C433.922573,91.9068469 433.829718,91.2878094 433.59,90.72 C433.292075,90.4309143 432.895077,90.2663925 432.48,90.26 L432.48,89.75 L437.67,89.75 Z" id="Path" fill="#000000"></path>
                            <path d="M466.52,95.68 L459.52,95.68 C459.520669,97.1250546 459.994865,98.5300776 460.87,99.68 C461.409215,100.389848 462.248579,100.807681 463.14,100.81 C463.672225,100.814027 464.192671,100.653352 464.63,100.35 C465.210762,99.8967906 465.699533,99.3367397 466.07,98.7 L466.53,99 C466.023433,100.17494 465.233135,101.205762 464.23,102 C463.374852,102.588266 462.357827,102.89582 461.32,102.88 C459.59596,102.96909 457.954517,102.135039 457.01,100.69 C456.188293,99.3842062 455.777241,97.8619196 455.83,96.32 C455.734094,94.4644678 456.353252,92.6427835 457.56,91.23 C458.567919,90.0370918 460.048305,89.3462449 461.61,89.34 C462.932347,89.3544942 464.177705,89.9643152 465,91 C466.034502,92.3362934 466.571884,93.9908634 466.52,95.68 L466.52,95.68 Z M463.16,94.76 C463.199952,93.7540067 463.119379,92.7468468 462.92,91.76 C462.799034,91.2812134 462.537882,90.8494424 462.17,90.52 C461.952563,90.3452683 461.678609,90.256322 461.4,90.27 C460.915165,90.2762766 460.471542,90.5439801 460.24,90.97 C459.650095,91.9805329 459.368542,93.1415018 459.43,94.31 L459.43,94.79 L463.16,94.76 Z" id="Shape" fill="#000000"></path>
                            <path d="M473.34,89.75 L473.34,91.4 C473.881379,90.7838475 474.519788,90.2602845 475.23,89.85 C475.824712,89.524951 476.492264,89.3563424 477.17,89.36 C477.917417,89.3339845 478.649044,89.5790439 479.23,90.05 C479.765044,90.4945524 480.146431,91.0963735 480.32,91.77 C480.506975,92.7584067 480.580784,93.764891 480.54,94.77 L480.54,99.77 C480.476213,100.396229 480.568991,101.028496 480.81,101.61 C481.10374,101.905389 481.503423,102.071023 481.92,102.07 L481.92,102.56 L475.45,102.56 L475.45,102 C475.856982,101.961714 476.224698,101.741085 476.45,101.4 C476.647529,100.856425 476.722649,100.275951 476.67,99.7 L476.67,94.06 C476.70214,93.3909572 476.661906,92.7204 476.55,92.06 C476.48295,91.8068358 476.335572,91.5822593 476.13,91.42 C475.947451,91.2687007 475.717082,91.1871854 475.48,91.19 C474.693333,91.19 473.963333,91.75 473.29,92.87 L473.29,99.72 C473.229964,100.339614 473.322667,100.964501 473.56,101.54 C473.809972,101.834842 474.1736,102.009383 474.56,102.02 L474.56,102.51 L468.09,102.51 L468.09,102 C468.528657,101.992745 468.944823,101.804566 469.24,101.48 C469.456569,100.913259 469.5354,100.303175 469.47,99.7 L469.47,92.52 C469.532573,91.9068469 469.439718,91.2878094 469.2,90.72 C468.902075,90.4309143 468.505077,90.2663925 468.09,90.26 L468.09,89.75 L473.34,89.75 Z" id="Path" fill="#000000"></path>
                            <path d="M488.76,85.07 L488.76,89.75 L491.76,89.75 L491.76,91.1 L488.76,91.1 L488.76,99 C488.736067,99.4789501 488.76964,99.9590423 488.86,100.43 C488.920584,100.637715 489.046904,100.820178 489.22,100.95 C489.353671,101.067609 489.522368,101.137899 489.7,101.15 C490.293333,101.15 490.853333,100.7 491.38,99.8 L491.79,100.1 C491.300777,101.674269 489.838485,102.742554 488.19,102.73 C487.444856,102.751795 486.715737,102.511115 486.13,102.05 C485.623115,101.672005 485.248624,101.143517 485.06,100.54 C484.931203,99.7065821 484.884312,98.862556 484.92,98.02 L484.92,91.1 L483.25,91.1 L483.25,90.62 C484.318278,89.8775766 485.300948,89.0189982 486.18,88.06 C486.999363,87.146855 487.707635,86.1398339 488.29,85.06 L488.76,85.07 Z" id="Path" fill="#000000"></path>
                            <path d="M517.76,83.57 L517.76,90 L517.23,90 C516.937839,88.5006835 516.152922,87.1420373 515,86.14 C513.958713,85.2653296 512.639864,84.7902604 511.28,84.8 C510.138665,84.7942676 509.023817,85.1437498 508.09,85.8 C507.15344,86.4472736 506.426886,87.3545965 506,88.41 C505.397506,89.8648528 505.091526,91.4253496 505.1,93 C505.082905,94.532969 505.295255,96.0598696 505.73,97.53 C506.056466,98.7440997 506.756062,99.8249758 507.73,100.62 C508.740459,101.335817 509.963571,101.688298 511.2,101.62 C512.317097,101.631713 513.419778,101.367207 514.41,100.85 C515.587069,100.166412 516.62784,99.2714171 517.48,98.21 L517.48,99.81 C516.565404,100.806108 515.460266,101.608608 514.23,102.17 C512.980477,102.680448 511.639455,102.928911 510.29,102.9 C508.463076,102.934096 506.655008,102.525822 505.02,101.71 C503.521274,100.950676 502.284683,99.7593691 501.47,98.29 C500.647582,96.8458488 500.21669,95.2119067 500.219981,93.55 C500.25015,89.9358027 502.205532,86.6120355 505.35,84.83 C506.875695,83.9691748 508.598212,83.5178751 510.35,83.5199925 C511.767596,83.5435888 513.168302,83.8318697 514.48,84.37 C514.989425,84.6030881 515.527414,84.7678471 516.08,84.86 C516.367568,84.8676126 516.644486,84.7510156 516.84,84.54 C517.082969,84.259929 517.23012,83.9095682 517.26,83.54 L517.76,83.57 Z" id="Path" fill="#000000"></path>
                            <path d="M526.27,89.37 C527.362907,89.3650182 528.435861,89.6626765 529.37,90.23 C530.32849,90.8064748 531.088843,91.6609997 531.55,92.68 C532.054793,93.7665487 532.311007,94.9519671 532.3,96.15 C532.357578,97.777772 531.872095,99.3784583 530.92,100.7 C529.845599,102.156411 528.118293,102.984469 526.31,102.91 C524.592575,103.006369 522.935862,102.260102 521.87,100.91 C520.832879,99.568975 520.282749,97.915059 520.31,96.22 C520.276468,94.4884614 520.837676,92.7977787 521.9,91.43 C522.934335,90.0727251 524.564801,89.3041301 526.27,89.37 Z M526.32,90.37 C525.862365,90.3657337 525.425083,90.5588664 525.12,90.9 C524.694191,91.5103761 524.464013,92.2357849 524.46,92.98 C524.353333,94.0133333 524.3,95.45 524.3,97.29 C524.295295,98.2034607 524.358805,99.1159976 524.49,100.02 C524.543768,100.568005 524.767542,101.085483 525.13,101.5 C525.414743,101.820289 525.821464,102.005492 526.25,102.01 C526.612991,102.018094 526.96717,101.897673 527.25,101.67 C527.624149,101.327288 527.873886,100.870023 527.96,100.37 C528.196031,98.6305712 528.286345,96.8744652 528.23,95.12 C528.275059,94.0500164 528.187731,92.9785649 527.97,91.93 C527.849633,91.4405515 527.580645,91.0003893 527.2,90.67 C526.952225,90.4639947 526.642136,90.3477113 526.32,90.34 L526.32,90.37 Z" id="Shape" fill="#000000"></path>
                            <path d="M539.54,89.75 L539.54,92.65 C540.112203,91.6357683 540.868453,90.7370859 541.77,90 C542.306564,89.6008937 542.951719,89.3742177 543.62,89.35 C544.074434,89.3295673 544.516732,89.4999608 544.84,89.82 C545.164484,90.1842957 545.330076,90.6630744 545.3,91.15 C545.333266,91.6613741 545.176583,92.1670299 544.86,92.57 C544.598224,92.8923195 544.20523,93.0796345 543.79,93.08 C543.327244,93.0896873 542.877667,92.9255561 542.53,92.62 C542.328992,92.4360512 542.118718,92.2624916 541.9,92.1 C541.80582,92.0457477 541.698672,92.0180966 541.59,92.02 C541.311949,92.0260199 541.045499,92.1325997 540.84,92.32 C540.436686,92.6741098 540.141968,93.1352556 539.99,93.65 C539.687531,94.5968388 539.538976,95.5860837 539.55,96.58 L539.55,100.29 C539.529775,100.626534 539.563535,100.964135 539.65,101.29 C539.746497,101.520915 539.919517,101.71159 540.14,101.83 C540.485755,101.971782 540.856317,102.043175 541.23,102.04 L541.23,102.53 L534.33,102.53 L534.33,102 C534.754602,102.012434 535.164803,101.84545 535.46,101.54 C535.725826,100.88796 535.825477,100.180088 535.75,99.48 L535.75,92.46 C535.774824,91.9938427 535.737837,91.5264503 535.64,91.07 C535.569993,90.8453561 535.429796,90.6490804 535.24,90.51 C534.956291,90.3578993 534.64167,90.2724044 534.32,90.26 L534.32,89.75 L539.54,89.75 Z" id="Path" fill="#000000"></path>
                            <path d="M551.61,101.23 L551.61,106 C551.583173,106.452629 551.637356,106.906413 551.77,107.34 C551.863725,107.56776 552.038204,107.752922 552.26,107.86 C552.675198,107.998073 553.113651,108.052454 553.55,108.02 L553.55,108.53 L546.26,108.53 L546.26,108 C546.728208,108.020519 547.184118,107.846839 547.52,107.52 C547.763959,107.013646 547.857659,106.447972 547.79,105.89 L547.79,92.42 C547.861692,91.8253169 547.753725,91.2227876 547.48,90.69 C547.146452,90.3905443 546.7076,90.2358669 546.26,90.26 L546.26,89.75 L551.62,89.75 L551.62,91.43 C551.977272,90.8639012 552.44697,90.3771853 553,90 C553.645212,89.5791136 554.399654,89.3566055 555.17,89.3599617 C556.099418,89.3586791 557.001843,89.6724129 557.73,90.25 C558.53354,90.8866741 559.143139,91.7352625 559.49,92.7 C559.896563,93.7765958 560.100001,94.9192384 560.09,96.07 C560.105951,97.2815972 559.895686,98.4855337 559.47,99.62 C559.126913,100.597455 558.500227,101.450444 557.67,102.07 C556.904877,102.622376 555.983658,102.916606 555.04,102.91 C554.345936,102.920731 553.659633,102.762881 553.04,102.45 C552.492526,102.134503 552.007787,101.720949 551.61,101.23 L551.61,101.23 Z M551.61,99.85 C552.118886,100.792131 553.06404,101.418483 554.13,101.52 C554.649312,101.504622 555.118093,101.204909 555.35,100.74 C555.939641,99.3630719 556.183396,97.8627763 556.06,96.37 C556.06,94.1633333 555.8,92.6533333 555.28,91.84 C554.997522,91.3382219 554.465823,91.0283833 553.89,91.0299937 C552.97,91.0299937 552.213333,91.6966667 551.62,93.0299937 L551.61,99.85 Z" id="Shape" fill="#000000"></path>
                            <path d="M564.79,98.32 C565.877848,98.3178967 566.815657,99.0846172 567.029798,100.151183 C567.243939,101.217749 566.674757,102.287037 565.670403,102.704998 C564.666049,103.122959 563.506314,102.773158 562.900572,101.869556 C562.29483,100.965955 562.411827,99.7602784 563.18,98.99 C563.600774,98.5534158 564.183723,98.3108223 564.79,98.32 Z" id="Path" fill="#000000"></path>
                        </g>
                    </g>
                </g>
            </g>
        </g>
    </g>
</svg>