<?xml version="1.0" encoding="UTF-8"?>
<svg width="379px" height="122px" viewBox="0 0 379 122" version="1.1" xmlns="http://www.w3.org/2000/svg" xmlns:xlink="http://www.w3.org/1999/xlink">
    <!-- Generator: Sketch 64 (93537) - https://sketch.com -->
    <title>캡스톤</title>
    <desc>Created with Sketch.</desc>
    <g id="Landing2020" stroke="none" stroke-width="1" fill="none" fill-rule="evenodd">
        <g id="5.2020_investors" transform="translate(-208.000000, -1051.000000)" fill-rule="nonzero">
            <g id="body" transform="translate(-56.000000, 160.000000)">
                <g id="investors" transform="translate(183.000000, 286.000000)">
                    <g id="캡스톤" transform="translate(0.000000, 551.000000)">
                        <g id="캡스톤" transform="translate(81.000000, 54.000000)">
                            <polygon id="Path" fill="#055A8D" points="228.37 23.31 189.1 40.47 149.88 23.31 148.66 0 229.59 0"></polygon>
                            <path d="M39.94,89.06 L36.72,91.38 C35.0012812,89.2524342 32.8052232,87.5599964 30.31,86.44 C27.728281,85.2999724 24.9320299,84.7270819 22.11,84.76 C18.9546661,84.7480687 15.8454753,85.5176364 13.06,87 C10.4125486,88.3414296 8.17958743,90.3773648 6.6,92.89 C5.05752872,95.3991305 4.259879,98.2949458 4.3,101.24 C4.20828685,105.707107 6.08407559,109.988878 9.43,112.95 C12.9675083,116.126316 17.5986943,117.80745 22.35,117.64 C27.8309162,117.746889 33.0818507,115.43955 36.71,111.33 L39.93,113.63 C37.863489,116.08163 35.249953,118.013523 32.3,119.27 C29.0747259,120.63432 25.6016723,121.315311 22.1,121.27 C14.9533333,121.27 9.31666667,119.036667 5.19,114.57 C1.75150051,110.859553 -0.1096159,105.957537 -2.16406754e-15,100.9 C-0.088548748,95.4816283 2.21204965,90.2988812 6.29,86.73 C10.49,82.91 15.7433333,81 22.05,81 C25.6050365,80.940891 29.1302214,81.6575308 32.38,83.1 C35.3509742,84.4500174 37.9439302,86.5106446 39.93,89.1" id="Path" fill="#666465"></path>
                            <path d="M77.49,81 L97,120.3 L92.64,120.3 L86.21,107.68 L68.62,107.68 L62.25,120.3 L57.69,120.3 L77.49,81 Z M77.49,90.11 L70.49,103.99 L84.49,103.99 L77.49,90.11 Z" id="Shape" fill="#666465"></path>
                            <path d="M114.8,81.95 L122.94,81.95 C126.097599,81.8420379 129.258333,82.0328873 132.38,82.52 C134.593734,82.9896931 136.598537,84.156825 138.1,85.85 C141.042835,89.5417108 141.067655,94.7705179 138.16,98.49 C136.577616,100.229559 134.471139,101.405675 132.16,101.84 C128.726675,102.368194 125.252003,102.579084 121.78,102.47 L118.86,102.47 L118.86,120.3 L114.8,120.3 L114.8,81.95 Z M118.88,85.71 L118.88,98.71 L125.8,98.78 C127.871483,98.8736804 129.944564,98.6339593 131.94,98.07 C133.177465,97.6408077 134.248184,96.8325195 135,95.76 C135.734091,94.7115276 136.122179,93.4598578 136.11,92.18 C136.11904,90.9191834 135.730658,89.6875596 135,88.66 C134.283461,87.6144908 133.259512,86.8176974 132.07,86.38 C130.118492,85.838311 128.092926,85.6121228 126.07,85.71 L118.88,85.71 Z" id="Shape" fill="#666465"></path>
                            <path d="M158.1,113.16 L161.58,111.16 C164.02,115.386667 166.84,117.5 170.04,117.5 C171.379527,117.507614 172.701975,117.199271 173.9,116.6 C175.026556,116.073545 175.980277,115.237738 176.65,114.19 C177.265379,113.232602 177.59174,112.118112 177.59,110.98 C177.557064,109.602741 177.07216,108.274526 176.21,107.2 C174.18358,104.825004 171.826113,102.753801 169.21,101.05 C165.8,98.64 163.68,96.89 162.84,95.81 C161.47395,94.1796953 160.714283,92.1268278 160.69,90 C160.676699,88.3790624 161.131573,86.7887405 162,85.42 C162.871885,84.0208433 164.119264,82.8947369 165.6,82.17 C167.147033,81.3778704 168.861991,80.9697106 170.6,80.9798102 C172.484254,80.9739689 174.340261,81.4379709 176,82.33 C178.08786,83.5979859 179.894777,85.2789977 181.31,87.27 L178,89.64 C176.923769,88.1540982 175.589217,86.8737414 174.06,85.86 C172.985325,85.2467358 171.767297,84.9292895 170.53,84.94 C169.067234,84.8931058 167.640021,85.3961987 166.53,86.35 C165.516576,87.2155582 164.941139,88.4873848 164.96,89.82 C164.961782,90.6585754 165.153226,91.4858856 165.52,92.24 C166.024537,93.2084386 166.702419,94.0761269 167.52,94.8 C168.06,95.28 169.81,96.57 172.8,98.63 C176.333333,101.076667 178.76,103.26 180.08,105.18 C181.322392,106.849039 182.0207,108.860166 182.08,110.94 C182.077546,113.731826 180.84461,116.380627 178.71,118.18 C176.474965,120.230323 173.532108,121.334343 170.5,121.26 C168.118698,121.285502 165.778706,120.637238 163.75,119.39 C161.410724,117.79416 159.495493,115.652396 158.17,113.15" id="Path" fill="#666465"></path>
                            <polygon id="Path" fill="#666465" points="199.82 85.7 199.82 81.94 222.2 81.94 222.2 85.7 213.09 85.7 213.09 120.3 208.93 120.3 208.93 85.7"></polygon>
                            <path d="M261.25,81 C266.98772,80.8285062 272.563769,82.9145874 276.78,86.81 C280.763086,90.4985986 283.027262,95.6813048 283.027262,101.11 C283.027262,106.538695 280.763086,111.721401 276.78,115.41 C272.684324,119.298815 267.216307,121.409088 261.57,121.28 C255.887783,121.425528 250.376832,119.327487 246.23,115.44 C242.200734,111.849148 239.927782,106.686664 240,101.29 C239.971666,97.6626801 240.955148,94.099288 242.84,91 C244.711849,87.8810973 247.39344,85.3273653 250.6,83.61 C253.871555,81.8517933 257.536212,80.9536942 261.25,81 M261.43,84.7299957 C258.421354,84.727911 255.461717,85.4919104 252.83,86.95 C250.215781,88.3437827 248.025616,90.4164941 246.49,92.95 C244.96544,95.4732635 244.175786,98.3721244 244.21,101.32 C244.128269,105.711846 245.95173,109.924041 249.21,112.87 C252.494123,115.978287 256.869071,117.670078 261.39,117.58 C264.457627,117.605669 267.48289,116.863105 270.19,115.42 C275.514414,112.664324 278.833014,107.144928 278.77,101.15 C278.804293,98.2380931 278.017579,95.3754238 276.5,92.89 C274.943934,90.3817508 272.739765,88.3399579 270.12,86.98 C267.441991,85.5201811 264.440048,84.7568005 261.39,84.76" id="Shape" fill="#666465"></path>
                            <polygon id="Path" fill="#666465" points="302.03 120.3 302.01 80.98 330.09 111.34 330.09 81.94 334.12 81.94 334.11 121.28 306.24 91.26 306.24 120.3"></polygon>
                            <polygon id="Path" fill="#666465" points="354.63 81.94 378.04 81.94 378.04 85.7 358.72 85.7 358.72 97.72 377.88 97.72 377.88 101.47 358.72 101.47 358.72 116.54 377.88 116.54 377.88 120.3 354.63 120.3"></polygon>
                        </g>
                    </g>
                </g>
            </g>
        </g>
    </g>
</svg>