<?xml version="1.0" encoding="utf-8"?>
<!-- Svg Vector Icons : http://www.onlinewebfonts.com/icon -->
<!DOCTYPE svg PUBLIC "-//W3C//DTD SVG 1.1//EN" "http://www.w3.org/Graphics/SVG/1.1/DTD/svg11.dtd">
<svg version="1.1" xmlns="http://www.w3.org/2000/svg" xmlns:xlink="http://www.w3.org/1999/xlink" x="0px" y="0px" viewBox="0 0 1000 1000" enable-background="new 0 0 1000 1000" xml:space="preserve">
<metadata> Svg Vector Icons : http://www.onlinewebfonts.com/icon </metadata>
<g ><path d="M500,10C229.4,10,10,229.4,10,500c0,270.6,219.4,490,490,490c270.6,0,490-219.4,490-490C990,229.4,770.6,10,500,10z M500,941C256.4,941,59,743.6,59,500C59,256.4,256.4,59,500,59c243.6,0,441,197.4,441,441C941,743.6,743.6,941,500,941z"/><path d="M708.5,291.4c-8.7-8.7-22.9-8.7-31.6,0l-177,177l-177-177c-8.7-8.7-22.9-8.7-31.6,0c-8.7,8.7-8.7,22.9,0,31.6l177,177l-177,177c-8.7,8.7-8.7,22.9,0,31.6c8.7,8.7,22.9,8.7,31.6,0l177-177l177,177c8.7,8.7,22.9,8.7,31.6,0c8.7-8.7,8.7-22.9,0-31.6l-177-177l177-177C717.2,314.3,717.2,300.1,708.5,291.4z"/></g>
</svg>