<svg id="HERINGSLogo" data-name="HERINGSLogo" xmlns="http://www.w3.org/2000/svg" viewBox="0 0 862.39 193.95"><path stroke="currentColor" fill-rule="evenodd" d="M421.1,192.18H419a1.14,1.14,0,0,1-1.19-1.11v-3.35l.29-.28s14.46.28,20.28.28c5.36,0,20.41-.28,20.41-.28l.3.28v3.35a1.06,1.06,0,0,1-1.19,1.11h-2.09c-6.11,0-8.19,2.23-8.19,6.14v68.75c0,3.9,2.08,6.13,8.19,6.13h2.09a1.1,1.1,0,0,1,1.19,1.26v3.2l-.3.28s-15.05-.28-20.41-.28c-5.82,0-20.28.28-20.28.28l-.29-.28v-3.2A1.17,1.17,0,0,1,419,273.2h2.09c6,0,8.19-1.67,8.19-6.13V232.9H387.56v34.17c0,3.9,2.09,6.13,8.2,6.13h2.08a1.11,1.11,0,0,1,1.2,1.26v3.2l-.3.28s-15.06-.28-20.42-.28c-5.81,0-20.27.28-20.27.28l-.3-.28v-3.2a1.18,1.18,0,0,1,1.19-1.26H361c6,0,8.2-1.67,8.2-6.13V198.32c0-4.47-2.24-6.14-8.2-6.14h-2.09a1.14,1.14,0,0,1-1.19-1.11v-3.35l.3-.28s14.46.28,20.27.28c5.36,0,20.42-.28,20.42-.28l.3.28v3.35a1.07,1.07,0,0,1-1.2,1.11h-2.08c-6.11,0-8.2,2.23-8.2,6.14v28.17h41.73V198.32C429.29,193.85,427.06,192.18,421.1,192.18Z" transform="translate(-108.96 -138.12)"/><path  stroke="currentColor" fill-rule="evenodd" d="M469.38,277.39v-3.07a1.18,1.18,0,0,1,1.19-1.26h2.09c6,0,8.2-1.67,8.2-6.13V198.32c0-4.47-2.24-6.14-8.2-6.14h-2.09a1.14,1.14,0,0,1-1.19-1.11v-3.21l.45-.28h69.45a170.68,170.68,0,0,0,3.13,22.59l-6,1.26c-2.09-7.12-5.81-17.44-15.8-17.44H501.28c-1.35,0-2.09,1.12-2.09,4v28.72H516c3.73,0,4.32-4.32,5.22-9.9,0-.55.89-1.53,2.38-1.53h3.13l.9,1.39a102.75,102.75,0,0,0-1,13,107.65,107.65,0,0,0,1,13l-.9,1.26h-3.13c-1.49,0-2.38-.84-2.38-1.4-.9-5.71-1.49-9.9-5.22-9.9H499.19V267.2c0,3.21.74,4.05,2.09,4.05h22.8c8.2,0,13.56-8.23,16.1-18.55l6.41,1.4c-1.49,7.39-3,16-4,23.56H469.83Z" transform="translate(-108.96 -138.12)"/><path  stroke="currentColor" fill-rule="evenodd" d="M611.86,236.67,627.22,264c3.28,6.13,7.9,8.78,13.86,8.09l.59,4.88a50.74,50.74,0,0,1-12.22,1.53c-8.79,0-15.5-5.3-19.37-11.85l-13.42-23.43c-2.08-3.49-6.41-4-14.16-4v27.75c0,4.32,2.24,6.13,8.2,6.13h2.09a1.18,1.18,0,0,1,1.19,1.26v3.2l-.3.28s-11-.28-16.84-.28c-5.37,0-23.7.28-23.7.28l-.3-.28v-3.2a1.11,1.11,0,0,1,1.19-1.26h2.09c6.11,0,8.2-2.23,8.2-6.13V199.71c0-3.9-.6-6.27-4.47-6.27H558.8l-4.47.41c-.74,0-1.19-.41-1.19-1v-4.74c3.13-.7,23.25-1.68,40.69-1.68,17.89,0,35,7,35,24C628.86,224.53,622.45,231.37,611.86,236.67Zm-17.28-44.49a56.42,56.42,0,0,0-12.08,1.12v39.46h7.31c14.45,0,21.16-6.41,21.16-20.36S603.52,192.18,594.58,192.18Z" transform="translate(-108.96 -138.12)"/><path  stroke="currentColor" fill-rule="evenodd" d="M681.47,273.2h2.08a1.1,1.1,0,0,1,1.19,1.26v3.2l-.29.28s-14.91-.28-20.27-.28c-5.82,0-20.27.28-20.27.28l-.3-.28v-3.2a1.17,1.17,0,0,1,1.19-1.26h2.09c6,0,8.19-1.67,8.19-6.13V198.32c0-4.47-2.23-6.14-8.19-6.14H644.8a1.14,1.14,0,0,1-1.19-1.11v-3.35l.3-.28s14.45.28,20.27.28c5.36,0,20.27-.28,20.27-.28l.29.28v3.35a1.06,1.06,0,0,1-1.19,1.11h-2.08c-6.11,0-8.2,2.23-8.2,6.14v68.75C673.27,271,675.36,273.2,681.47,273.2Z" transform="translate(-108.96 -138.12)"/><path  stroke="currentColor" fill-rule="evenodd" d="M764.78,192.18h-2.09c-.75,0-1.34-.42-1.34-1.11v-3.35l.3-.14s10.13.14,15.94.14c5.22,0,15.95-.14,15.95-.14l.3.14v3.35a1.06,1.06,0,0,1-1.19,1.11h-2.09c-6.11,0-8.2,2.23-8.2,6.14v75.86c0,3.07-1.34,5.16-5.66,5.16-3.73,0-5.51-1.95-7-3.77l-52.16-63.45v54.95c0,3.9,2.08,6.13,8.2,6.13h2.08a1.1,1.1,0,0,1,1.19,1.26v3.2l-.29.28s-10.88-.28-16.1-.28c-5.81,0-16.84.28-16.84.28l-.3-.28v-3.2a1.18,1.18,0,0,1,1.19-1.26h2.09c6,0,9.39-1.67,9.39-6.13v-67.5c-2.68-3.48-5.67-7.39-10.44-7.39-2.53,0-3-.56-3-1.53V188l.45-.42h21.61l56,66.66V198.32C772.82,193.85,770.59,192.18,764.78,192.18Z" transform="translate(-108.96 -138.12)"/><path  stroke="currentColor" fill-rule="evenodd" d="M894,261.77a4.49,4.49,0,0,0,1.78,4c-10.43,8.23-22.2,13.25-41,13.25-31.75,0-53.21-20.08-53.21-44.35,0-30.68,26.23-48.8,52.76-48.8,20.12,0,25,6.13,32.64,6.13a173.7,173.7,0,0,0,3.28,23.57l-5.81,1.11c-4.18-13.1-11.33-25.1-30.26-25.1-18,0-33.24,16.6-33.24,40.44,0,21.06,12.52,40.86,36.52,40.86,6.41,0,14-1.67,19.08-5.58V245.73c0-4.32-4.77-6-10.74-6h-2.08a1.16,1.16,0,0,1-1.19-1.25v-3.21l.29-.28s14.46.28,20.27.28c5.37,0,19.38-.28,19.38-.28l.3.28v3.21a1.1,1.1,0,0,1-1.19,1.25h-.9c-6.11,0-6.7,2.23-6.7,6Z" transform="translate(-108.96 -138.12)"/><path  stroke="currentColor" fill-rule="evenodd" d="M965.68,210.87l-6,.69c-2.68-9.2-7.6-20.22-20.27-20.22-9.84,0-13.42,6.42-13.42,14.23,0,8.92,11.78,15.9,18,18,12.52,4.18,27.28,11.57,27.28,28.45,0,18.54-12.82,27.05-29.81,27.05-14.61,0-17.59-2.09-21.17-2.09-3,0-4.32.69-6.86.69-.29-7.11-1.34-13.8-2.83-24.4l6-.42c3,12.69,11.78,20.5,21.76,20.5,11.33,0,17-5.58,17-15.9,0-8.08-4.47-15.2-13.57-18.54-10.73-3.91-30-12.55-30-28.87,0-16.73,14.91-24.12,27.73-24.12,13.86,0,14.75,2.65,22.95,3.76A188.54,188.54,0,0,0,965.68,210.87Z" transform="translate(-108.96 -138.12)"/><path fill="none" d="M109.19,263.28c0-.18-.1-.36-.16-.54,0,.25,0,.48-.07.72Z" transform="translate(-108.96 -138.12)"/><path fill="#f68c29" d="M299,235.12a97,97,0,0,0-161.66-72.29c1.59-1,12.76-7.52,26.61-6.23a27.31,27.31,0,0,1,21.12,12.71s32.25,1.24,43.92,26.63c9,19.53-7,37.09-7,37.09a29.1,29.1,0,0,0,.18-11.22c-1.23-6.53-4.11-3.45-10.66-4.56-1.32-.22-16-.45-23.1-4.55-.71-.41-16.32-2.09-27.1-.78-13.06,1.6-49,13.63-52.3,50.82.06.18.11.36.16.54,3.58-2.66,48.46-35,83.1-8.58,14.82,11.31,23.61,32.82,22,53.69a42.85,42.85,0,0,1-9.62,23.68A97,97,0,0,0,299,235.12Z" transform="translate(-108.96 -138.12)"/></svg>