<svg width="40" height="40" viewBox="0 0 40 40" fill="none" xmlns="http://www.w3.org/2000/svg">
<path d="M39.2308 20.0034C39.2302 16.142 38.112 12.3633 36.0113 9.12331C33.9106 5.88332 30.9171 3.32053 27.3921 1.74423C23.867 0.167935 19.9612 -0.354502 16.1458 0.239973C12.3304 0.834449 8.76859 2.52043 5.89023 5.09444C6.21815 4.8882 8.52183 3.54353 11.3782 3.80957C12.2589 3.87445 13.112 4.1455 13.8687 4.60084C14.6253 5.05619 15.2643 5.68306 15.734 6.43087C15.734 6.43087 22.3852 6.6866 24.792 11.923C26.6482 15.9508 23.3483 19.5724 23.3483 19.5724C23.5107 18.8108 23.5233 18.0248 23.3855 17.2584C23.1318 15.9117 22.5378 16.5469 21.187 16.318C20.9147 16.2726 17.8871 16.2251 16.4228 15.3796C16.2764 15.295 13.057 14.9485 10.8338 15.2187C8.14029 15.5487 0.728073 18.0297 0.0474854 25.6997C0.0598597 25.7369 0.0701708 25.774 0.0804827 25.8111C0.818817 25.2625 10.0748 18.5928 17.2189 24.0416C20.2754 26.3741 22.0882 30.8103 21.7562 35.1145C21.6071 36.9064 20.9149 38.6101 19.7722 39.9983C24.9808 39.8559 29.9283 37.687 33.5623 33.9528C37.1963 30.2187 39.23 25.214 39.2308 20.0034Z" fill="#F68C29"/>
</svg>
