<svg width="20" height="20" viewBox="0 0 20 20" fill="none" xmlns="http://www.w3.org/2000/svg">
<rect width="20" height="20" rx="10" fill="white"/>
<path fill-rule="evenodd" clip-rule="evenodd" d="M10.0002 3.3335C10.2212 3.3335 10.4331 3.42129 10.5894 3.57757C10.7457 3.73385 10.8335 3.94582 10.8335 4.16683V5.00016C10.8335 5.22118 10.7457 5.43314 10.5894 5.58942C10.4331 5.7457 10.2212 5.8335 10.0002 5.8335C9.77915 5.8335 9.56719 5.7457 9.41091 5.58942C9.25463 5.43314 9.16683 5.22118 9.16683 5.00016V4.16683C9.16683 3.94582 9.25463 3.73385 9.41091 3.57757C9.56719 3.42129 9.77915 3.3335 10.0002 3.3335ZM13.3335 10.0002C13.3335 10.8842 12.9823 11.7321 12.3572 12.3572C11.7321 12.9823 10.8842 13.3335 10.0002 13.3335C9.11611 13.3335 8.26826 12.9823 7.64314 12.3572C7.01802 11.7321 6.66683 10.8842 6.66683 10.0002C6.66683 9.11611 7.01802 8.26826 7.64314 7.64314C8.26826 7.01802 9.11611 6.66683 10.0002 6.66683C10.8842 6.66683 11.7321 7.01802 12.3572 7.64314C12.9823 8.26826 13.3335 9.11611 13.3335 10.0002ZM12.9468 14.1252L13.536 14.7143C13.6932 14.8661 13.9037 14.9501 14.1222 14.9482C14.3407 14.9463 14.5497 14.8587 14.7042 14.7042C14.8587 14.5497 14.9463 14.3407 14.9482 14.1222C14.9501 13.9037 14.8661 13.6932 14.7143 13.536L14.1252 12.9468C13.968 12.795 13.7575 12.711 13.539 12.7129C13.3205 12.7148 13.1115 12.8025 12.957 12.957C12.8025 13.1115 12.7148 13.3205 12.7129 13.539C12.711 13.7575 12.795 13.968 12.9468 14.1252ZM14.7135 5.286C14.8697 5.44227 14.9575 5.65419 14.9575 5.87516C14.9575 6.09613 14.8697 6.30806 14.7135 6.46433L14.1252 7.0535C14.0483 7.13309 13.9563 7.19657 13.8547 7.24025C13.753 7.28392 13.6436 7.30691 13.533 7.30787C13.4223 7.30883 13.3126 7.28775 13.2102 7.24585C13.1078 7.20395 13.0147 7.14207 12.9365 7.06383C12.8583 6.98558 12.7964 6.89254 12.7545 6.79012C12.7126 6.68771 12.6915 6.57798 12.6925 6.46733C12.6934 6.35668 12.7164 6.24733 12.7601 6.14566C12.8038 6.04399 12.8672 5.95204 12.9468 5.87516L13.536 5.286C13.6923 5.12977 13.9042 5.04201 14.1252 5.04201C14.3461 5.04201 14.5581 5.12977 14.7143 5.286H14.7135ZM15.8335 10.8335C16.0545 10.8335 16.2665 10.7457 16.4228 10.5894C16.579 10.4331 16.6668 10.2212 16.6668 10.0002C16.6668 9.77915 16.579 9.56719 16.4228 9.41091C16.2665 9.25463 16.0545 9.16683 15.8335 9.16683H15.0002C14.7791 9.16683 14.5672 9.25463 14.4109 9.41091C14.2546 9.56719 14.1668 9.77915 14.1668 10.0002C14.1668 10.2212 14.2546 10.4331 14.4109 10.5894C14.5672 10.7457 14.7791 10.8335 15.0002 10.8335H15.8335ZM10.0002 14.1668C10.2212 14.1668 10.4331 14.2546 10.5894 14.4109C10.7457 14.5672 10.8335 14.7792 10.8335 15.0002V15.8335C10.8335 16.0545 10.7457 16.2665 10.5894 16.4228C10.4331 16.579 10.2212 16.6668 10.0002 16.6668C9.77915 16.6668 9.56719 16.579 9.41091 16.4228C9.25463 16.2665 9.16683 16.0545 9.16683 15.8335V15.0002C9.16683 14.7792 9.25463 14.5672 9.41091 14.4109C9.56719 14.2546 9.77915 14.1668 10.0002 14.1668ZM5.87516 7.0535C5.95253 7.13092 6.0444 7.19235 6.14551 7.23427C6.24662 7.2762 6.35499 7.29779 6.46445 7.29783C6.57391 7.29787 6.6823 7.27635 6.78344 7.2345C6.88458 7.19265 6.97649 7.13128 7.05391 7.05391C7.13134 6.97654 7.19277 6.88468 7.23469 6.78357C7.27661 6.68246 7.29821 6.57408 7.29825 6.46462C7.29829 6.35517 7.27677 6.24677 7.23491 6.14563C7.19306 6.04449 7.1317 5.95259 7.05433 5.87516L6.46433 5.286C6.30716 5.1342 6.09666 5.0502 5.87816 5.0521C5.65966 5.054 5.45065 5.14164 5.29615 5.29615C5.14164 5.45065 5.054 5.65966 5.0521 5.87816C5.0502 6.09666 5.1342 6.30716 5.286 6.46433L5.87516 7.0535ZM7.0535 14.1252L6.46433 14.7143C6.30716 14.8661 6.09666 14.9501 5.87816 14.9482C5.65966 14.9463 5.45065 14.8587 5.29615 14.7042C5.14164 14.5497 5.054 14.3407 5.0521 14.1222C5.0502 13.9037 5.1342 13.6932 5.286 13.536L5.87516 12.9468C6.03233 12.795 6.24283 12.711 6.46133 12.7129C6.67983 12.7148 6.88884 12.8025 7.04334 12.957C7.19785 13.1115 7.28549 13.3205 7.28739 13.539C7.28929 13.7575 7.20529 13.968 7.0535 14.1252ZM5.00016 10.8335C5.22118 10.8335 5.43314 10.7457 5.58942 10.5894C5.7457 10.4331 5.8335 10.2212 5.8335 10.0002C5.8335 9.77915 5.7457 9.56719 5.58942 9.41091C5.43314 9.25463 5.22118 9.16683 5.00016 9.16683H4.16683C3.94582 9.16683 3.73385 9.25463 3.57757 9.41091C3.42129 9.56719 3.3335 9.77915 3.3335 10.0002C3.3335 10.2212 3.42129 10.4331 3.57757 10.5894C3.73385 10.7457 3.94582 10.8335 4.16683 10.8335H5.00016Z" fill="#3C3C3C"/>
</svg>
