<svg id="_迹_1" data-name="卵迹_1" xmlns="http://www.w3.org/2000/svg" xmlns:xlink="http://www.w3.org/1999/xlink" viewBox="0 0 2986.69 1281.83"><defs><style>.cls-1,.cls-10,.cls-19,.cls-2,.cls-3,.cls-4,.cls-5,.cls-6,.cls-7,.cls-8{fill:none;}.cls-2{clip-path:url(#clip-path);}.cls-3{clip-path:url(#clip-path-2);}.cls-4{clip-path:url(#clip-path-3);}.cls-5{clip-path:url(#clip-path-4);}.cls-6{clip-path:url(#clip-path-5);}.cls-7{clip-path:url(#clip-path-6);}.cls-8{clip-path:url(#clip-path-7);}.cls-11,.cls-9{fill:#fff;}.cls-10,.cls-11{stroke:#3cc;}.cls-10,.cls-11,.cls-19{stroke-miterlimit:10;stroke-width:3px;}.cls-12{fill:#3cc;}.cls-13{fill:#f5f5f5;}.cls-14{fill:url(#쥔晤牆渾_藎雪猥粧_4);}.cls-15{fill:#0fb7b7;}.cls-16{fill:#595959;}.cls-17{fill:#4d9fbc;}.cls-18{fill:#1f78aa;}.cls-19{stroke:#ccc;}.cls-20{fill:#6b6b6b;}.cls-21{fill:#ccc;}.cls-22{clip-path:url(#clip-path-8);}.cls-23{clip-path:url(#clip-path-9);}.cls-24{fill:#c1c1c1;}.cls-25{clip-path:url(#clip-path-10);}.cls-26{clip-path:url(#clip-path-11);}.cls-27{clip-path:url(#clip-path-12);}.cls-28{clip-path:url(#clip-path-13);}.cls-29{clip-path:url(#clip-path-14);}.cls-30{clip-path:url(#clip-path-15);}.cls-31{clip-path:url(#clip-path-16);}.cls-32{clip-path:url(#clip-path-17);}.cls-33{clip-path:url(#clip-path-18);}.cls-34{clip-path:url(#clip-path-19);}.cls-35{fill:url(#무제_그라디언트_23);}.cls-36{fill:#c2c1c1;}.cls-37{clip-path:url(#clip-path-20);}.cls-38{clip-path:url(#clip-path-21);}</style><clipPath id="clip-path"><path class="cls-1" d="M619.16,654.18a7.08,7.08,0,1,0,7.08,7.08,7.09,7.09,0,0,0-7.08-7.08Zm0,11.33a4.25,4.25,0,1,1,4.25-4.25,4.25,4.25,0,0,1-4.25,4.25ZM617.74,606h11.33v2.83H617.74Zm0,5.66h11.33v2.83H617.74Zm-8.49,5.66h19.82v2.84H609.25Zm0,5.67h19.82v2.83H609.25Zm0,5.66h19.82v2.84H609.25Zm34,17h8.5v14.16h-17v-2.44l-3.48-1.16L632.9,653l-5.45-5.45-3.28,1.64L623,645.69h-2.43v-8.5h14.16v-17h17v7.91l-3.25-3.25-2,2,6.67,6.67,6.66-6.67-2-2-3.25,3.25V617.36H634.74v-17H612.91l-9.33,9.33v7.66H583.76v10.75l-3.25-3.25-2,2,6.66,6.67,6.67-6.67-2-2-3.25,3.25V620.2h17v17h14.16v8.5h-2.43l-1.16,3.47-3.28-1.64L605.42,653l1.64,3.28-3.48,1.16v2.44h-17V645.69h8.5V634.36H575.26v11.33h8.5v22.86a5.67,5.67,0,1,0,2.83,0v-5.87h8.5v17.25a4.25,4.25,0,1,0,2.83,0V662.68h5.66v2.44l3.48,1.16-1.64,3.27,5.45,5.45,3.28-1.64,1.16,3.48H623l1.16-3.48,3.28,1.64,5.45-5.45-1.64-3.27,3.48-1.16v-2.44h5.66v17.25a4.26,4.26,0,1,0,2.83,0V662.68h8.5v5.87a5.67,5.67,0,1,0,2.83,0V645.69h8.5V634.36H643.23Zm-31.15-40.48v3.66h-3.66Zm-5.66,6.49h8.49v-8.5h17v31.16H606.42Zm-28.33,25.49h14.16v5.66H578.09ZM588,674a2.84,2.84,0,1,1-2.84-2.83A2.84,2.84,0,0,1,588,674Zm8.49,11.33a1.42,1.42,0,1,1,1.42-1.42,1.42,1.42,0,0,1-1.42,1.42Zm35.41-22.27-3.25,1.09-.24.62c-.07.18-.14.36-.22.54l-.28.61,1.53,3.06-2.56,2.57L623.83,670l-.61.27-.53.22-.63.24L621,674h-3.62l-1.09-3.25-.63-.24-.53-.22-.61-.27-3.06,1.53L608.87,669l1.53-3.06-.28-.61c-.08-.18-.15-.36-.22-.54l-.24-.62-3.24-1.09v-3.62l3.24-1.08.24-.63c.07-.18.15-.36.22-.53l.28-.62-1.53-3.06,2.56-2.56,3.06,1.53.61-.27.53-.22.64-.24,1.08-3.25H621l1.09,3.25.63.24.53.22.61.27,3.06-1.53,2.57,2.56-1.53,3.07.27.61c.08.18.15.35.22.54l.24.62,3.25,1.08Zm9.91,22.27a1.42,1.42,0,1,1,0-2.83,1.42,1.42,0,0,1,0,2.83ZM656,674a2.83,2.83,0,1,1-2.83-2.83A2.83,2.83,0,0,1,656,674Zm-9.91-36.82h14.16v5.66H646.07Zm0,0"/></clipPath><clipPath id="clip-path-2"><path class="cls-1" d="M654.75,1122.36v-7.47a3.12,3.12,0,0,0,3.12-3.12v-3.12a3.12,3.12,0,0,0-3.12-3.11H636a3.12,3.12,0,0,0-3.12,3.11v3.12a3.12,3.12,0,0,0,3.12,3.12v7.47l-2.19,5a10.91,10.91,0,0,0-6.84-6.74l-1.89-.63v-37.85a23.39,23.39,0,1,0-46.77,0V1120l-1.9.64A10.89,10.89,0,0,0,569,1131v21.32h57.2a6.69,6.69,0,0,0,5.65,3.12H659a6.72,6.72,0,0,0,6.15-9.41ZM636,1108.65h18.71v3.12H636Zm-24.95,6.68v-3.23a17.23,17.23,0,0,0,7.15-9.78,7.62,7.62,0,0,0,3.76-1.5V1119Zm-9.36-3.56a14,14,0,0,1-14-14v-14a22.69,22.69,0,0,0,14-5.64,22.68,22.68,0,0,0,14,5.64v14a14,14,0,0,1-14,14Zm0,3.12a17,17,0,0,0,6.24-1.19v2.11l-6.24,6.23-6.23-6.23v-2.11a17,17,0,0,0,6.23,1.19Zm-8.21,3.35,5.77,5.77-5.68,3.78-1.15-9.2Zm6.51,18.48h3.41l1.25,12.47h-5.91Zm3.54-3.12h-3.68l-1.1-5.52,2.94-2,2.95,2Zm.61-9.59,5.77-5.77,1,.35-1.15,9.2Zm14.7-26.27v-7.51a4.65,4.65,0,0,1-.06,8.8c0-.43.06-.85.06-1.29Zm-17.15-35.86A20.29,20.29,0,0,1,622,1082.15v6.28a7.63,7.63,0,0,0-3.12-1.44v-6.4h-2.09a19.57,19.57,0,0,1-13.95-5.78l-1.11-1.1-1.1,1.1a19.59,19.59,0,0,1-14,5.78h-2.1V1087a7.9,7.9,0,0,0-3.12,1.44v-6.27a20.3,20.3,0,0,1,20.27-20.27ZM584.65,1099a4.65,4.65,0,0,1-.07-8.8v7.51c0,.44,0,.86.07,1.29Zm-3.19,1.79a7.7,7.7,0,0,0,3.76,1.5,17.2,17.2,0,0,0,7.16,9.78v3.23L581.46,1119ZM572.11,1131a7.8,7.8,0,0,1,5.33-7.4l12-4,1.69,13.59L596,1130l1.06,5.29-1.39,14H584.58v-5.32l-.82-.82a7.85,7.85,0,0,1,0-11.1l.82-.82v-3.76h-3.12v2.47a11,11,0,0,0,0,15.32v4h-9.35Zm49.89,18.2v-4a11,11,0,0,0,0-15.32v-2.47h-3.12v3.76l.82.82a7.85,7.85,0,0,1,0,11.1l-.82.82v5.32H607.82l-1.39-14,1.05-5.29,4.84,3.23,1.7-13.59,12,4a7.8,7.8,0,0,1,5.33,7.4v2.07l-5.68,13a6.75,6.75,0,0,0-.56,2.69c0,.17,0,.32,0,.48Zm36.94,3.12h-27.1a3.6,3.6,0,0,1-3.3-5L639.15,1123v-8.12h12.48V1123l10.61,24.26a3.6,3.6,0,0,1-3.3,5Zm-12-17.15h7.8v3.12H647v7.8h-3.12v-7.8H636v-3.12h7.79v-7.79H647Zm3.12-32.74a4.68,4.68,0,1,0-4.68-4.68,4.69,4.69,0,0,0,4.68,4.68Zm0-6.24a1.56,1.56,0,1,1-1.56,1.56,1.56,1.56,0,0,1,1.56-1.56Zm-9.36-4.68a4.68,4.68,0,1,0-4.67-4.67,4.68,4.68,0,0,0,4.67,4.67Zm0-6.23a1.56,1.56,0,1,1-1.56,1.56,1.56,1.56,0,0,1,1.56-1.56Zm12.48-1.56a4.68,4.68,0,1,0-4.68-4.68,4.69,4.69,0,0,0,4.68,4.68Zm0-6.24a1.56,1.56,0,1,1-1.56,1.56,1.56,1.56,0,0,1,1.56-1.56Zm-48.34,23.39H608a6.24,6.24,0,1,1-12.47,0h3.12a3.12,3.12,0,1,0,6.23,0Zm6.24-9.36a1.56,1.56,0,1,1-1.56-1.56,1.56,1.56,0,0,1,1.56,1.56Zm-15.59,0a1.56,1.56,0,1,1-1.56-1.56,1.56,1.56,0,0,1,1.56,1.56Zm0,0"/></clipPath><clipPath id="clip-path-3"><path class="cls-1" d="M2825,905.06v6.54h48.5V863.1h-10.22v45.95h-2.55V875.86h-10.21v33.19h-2.55V870.76h-10.21v38.29h-2.55V881H2825V894.3a26.75,26.75,0,0,1-16.58-22.38l-.11-1.16h-10.21l.1,1.36a36.88,36.88,0,0,0,26.8,32.94Zm40.84-39.41h5.1v43.4h-5.1ZM2853,878.41h5.11v30.64H2853Zm-12.76-5.1h5.11v35.74h-5.11Zm-12.76,10.21h5.1v25.53h-5.1ZM2806,873.31A29.29,29.29,0,0,0,2825,897v5.38a34.35,34.35,0,0,1-24.14-29.09Zm2.42-6.27a27.37,27.37,0,0,1,.74-4.2l1.59-.9c.28.13.58.25.87.36l.91,3.35h7.06l.91-3.35c.3-.11.59-.23.88-.36l3,1.72,5-5-1.73-3c.14-.29.26-.58.37-.87l3.35-.92v-7.05l-3.35-.92c-.11-.29-.24-.58-.37-.87l.87-1.52a26.54,26.54,0,0,1,4.14-.71l1.16-.1V832.47l-1.37.1a36.65,36.65,0,0,0-12.66,3.22l-.21-.77h-7.06l-.91,3.35c-.29.11-.59.23-.87.36l-3-1.72-5,5,1.72,3q-.19.43-.36.87l-3.35.92v7.05l.72.2a36.37,36.37,0,0,0-3.27,12.78l-.1,1.36h10.21Zm22.86-31.8v5.14a29.68,29.68,0,0,0-3,.56l-3.92-3.93-3,1.72c-.29-.13-.58-.25-.88-.36v-.06a34.39,34.39,0,0,1,10.79-3.07Zm-28,13.52,2.8-.77.2-.67a10.48,10.48,0,0,1,.73-1.75l.33-.62-1.44-2.52,2.23-2.24,2.53,1.44.62-.32a10.14,10.14,0,0,1,1.75-.73l.67-.21.76-2.8h3.16l.77,2.8.67.21a10,10,0,0,1,1.75.73l.62.32,2.52-1.44,2.23,2.24-1.09,1.91-.35.61.33.62a10.48,10.48,0,0,1,.73,1.75l.21.67,2.79.77v3.15l-2.79.77-.21.67a10.14,10.14,0,0,1-.73,1.75l-.33.62,1.44,2.53-2.23,2.23-2.53-1.44-.61.33a11.5,11.5,0,0,1-1.76.73l-.67.2-.76,2.8h-3.16l-.76-2.8-.67-.21a9.41,9.41,0,0,1-1.75-.73l-.62-.32-2.53,1.44-2.23-2.24,1.44-2.52-.33-.62a10.48,10.48,0,0,1-.73-1.75l-.2-.67-2.8-.77Zm-2.44,16.89a34,34,0,0,1,3.13-10.9l.11,0q.16.44.36.87l-1.72,3,3.86,3.87a29.43,29.43,0,0,0-.6,3.11ZM2816,858a7.66,7.66,0,1,0-7.66-7.65A7.66,7.66,0,0,0,2816,858Zm0-12.76a5.11,5.11,0,1,1-5.1,5.11,5.11,5.11,0,0,1,5.1-5.11Zm52.33,2.55a3.83,3.83,0,1,0,3.83,3.83,3.84,3.84,0,0,0-3.83-3.83Zm0,5.11a1.28,1.28,0,1,1,1.28-1.28,1.29,1.29,0,0,1-1.28,1.28Zm0-10.21a8.93,8.93,0,0,0-6.17,15.38l-5.54,7.76a3.72,3.72,0,0,0-1.05-.17,3.78,3.78,0,0,0-2.86,1.31l-6.09-2.43c0-.06,0-.1,0-.16a3.83,3.83,0,1,0-7.5,1l-6.87,4.81a3.8,3.8,0,0,0-2.22-.72,3.83,3.83,0,1,0,3.83,3.83,3.51,3.51,0,0,0-.16-1l6.87-4.81a3.82,3.82,0,0,0,2.22.72,3.78,3.78,0,0,0,2.86-1.31l6.09,2.44s0,.1,0,.15a3.83,3.83,0,0,0,7.66,0,3.76,3.76,0,0,0-.7-2.19l5.53-7.75a8.85,8.85,0,0,0,4.1,1,8.94,8.94,0,0,0,0-17.87Zm-38.29,31.91a1.28,1.28,0,1,1,1.28-1.28,1.29,1.29,0,0,1-1.28,1.28Zm12.76-8.94a1.28,1.28,0,1,1,1.28-1.28,1.27,1.27,0,0,1-1.28,1.28Zm12.77,5.11a1.28,1.28,0,1,1,1.27-1.28,1.28,1.28,0,0,1-1.27,1.28ZM2868.36,858a6.38,6.38,0,1,1,6.38-6.38,6.38,6.38,0,0,1-6.38,6.38Zm-16.59-2.55v-2.55h2.55v2.55Zm-12.77,0h-2.55v-2.55H2839Zm7.66,0v-2.55h2.56v2.55Zm-5.1,0v-2.55h2.55v2.55Zm12.76-5.1h-17.87v-2.56h17.87Zm0-5.11h-17.87v-2.55h17.87Zm0,0"/></clipPath><clipPath id="clip-path-4"><path class="cls-1" d="M2812.05,624.55a6.57,6.57,0,0,0-6.56-6.56h-6.56v2.62h6.56a3.94,3.94,0,0,1,3.93,3.94v45.92h-2.62V625.86a2.62,2.62,0,0,0-2.63-2.62h-5.24v-7.11L2785,602.24h-36V618h-6.56a6.57,6.57,0,0,0-6.56,6.56v45.92h-2.62V677a6.57,6.57,0,0,0,6.56,6.57h68.23a6.57,6.57,0,0,0,6.56-6.57v-6.56h-2.62Zm-7.88,1.31v44.61h-60.35V625.86h5.24v42h49.87v-42Zm-21,47.24v1.31a1.31,1.31,0,0,1-1.31,1.31h-15.75a1.31,1.31,0,0,1-1.31-1.31V673.1Zm-10.5-40.68a1.32,1.32,0,1,1,1.31,1.31,1.31,1.31,0,0,1-1.31-1.31Zm1.31,9.19a14.45,14.45,0,0,1,13.88,10.49h-27.75A14.45,14.45,0,0,1,2774,641.61Zm9.19,23.62V662.6h5.25v2.63Zm-15.75,0V662.6h13.13v2.63Zm-7.87-9.19c0-.44,0-.88.07-1.31h28.73c0,.43.07.87.07,1.31V660h-5.25v-2.63h-2.62V660h-13.13v-2.63h-2.62V660h-5.25Zm0,6.56h5.25v2.63h-5.25Zm26.24-55.88,8.65,8.64h-8.65Zm-34.11-1.85h31.49V618h13.12v47.24h-5.25V656a17.06,17.06,0,0,0-15.74-17v-2.93a3.94,3.94,0,1,0-2.63,0v2.93a17.06,17.06,0,0,0-15.74,17v9.19h-5.25Zm-13.12,19.68a3.94,3.94,0,0,1,3.93-3.94h6.56v2.63h-5.24a2.62,2.62,0,0,0-2.63,2.62v44.61h-2.62ZM2812.05,677a4,4,0,0,1-3.94,3.94h-68.23a4,4,0,0,1-3.94-3.94V673.1h26.25v1.31a3.94,3.94,0,0,0,3.93,3.94h15.75a3.94,3.94,0,0,0,3.93-3.94V673.1h26.25Zm-39.37-69.54h-18.37v18.37h18.37Zm-2.62,15.75h-13.12V610.12h13.12Zm-3.94-7.88h-5.25v-2.62h5.25Zm0,5.25h-5.25V618h5.25Zm-9.18,7.88h10.49v2.62h-10.49Zm0,5.24h10.49v2.63h-10.49Zm36.74-7.87h-10.5v-2.62h10.5Zm0,10.5h-10.5v-2.63h10.5Zm0-5.25h-10.5v-2.62h10.5Zm-23.62,18.37h-2.63v-2.62h2.63Zm10.5,0h-2.63v-2.62h2.63Zm0,0"/></clipPath><clipPath id="clip-path-5"><path class="cls-1" d="M2825.93,1109.74a10.9,10.9,0,0,0-5.16,1.28l3.15-6.3h8v-2.51h-9.55l-1.73,3.47-1.74-3.47h-6.21l-4.67-10.9-4.55,12.15h-9.6A12.31,12.31,0,0,0,2795,1101h.57a5,5,0,0,0,5-5v-8.78a17.55,17.55,0,1,0-35.1,0v8.78a5,5,0,0,0,5,5h.58a12.6,12.6,0,0,0,5.69,7.09v2.08l-11.78,4.3a8.82,8.82,0,0,0-5.77,8.26v18.44h47.64v-2.49l8.77,9.34,18.32-19.49a11,11,0,0,0,3-7.55v-.17a11,11,0,0,0-11-11Zm-20.72-3.77,3-7.93,2.85,6.68h6.33l3.2,6.42a11.12,11.12,0,0,0-2.41,1.83l-2.53,2.52-2.52-2.52a11,11,0,0,0-15.67.12l-8.13-3V1108A12.19,12.19,0,0,0,2792,1106Zm-8.39,21.94v10.7H2788l-1.13-14.76,1.64-2.75,3,2,2.43-8.61,2,.73a10.91,10.91,0,0,0-1.53,5.58v.17a10.92,10.92,0,0,0,2.51,7Zm-15.91-12-4.75,3.15-1.62-5.48,2.38-.87Zm8.23-3.2,2.34.86-1.54,5.48-4.77-3.16Zm-6.17,4.85.06,0,.08-.06,3.26,2.15-1.55,2.58h-3.58l-1.52-2.56Zm-1.29,7.22h2.69l1.06,13.81h-4.81Zm13.88-26.36h-.06c0-.41.06-.83.06-1.25v-3.77a2.51,2.51,0,1,1,0,5Zm-25.07,0a2.51,2.51,0,1,1,0-5v3.77a10.36,10.36,0,0,0,.07,1.25Zm0-8.77v1.24a5,5,0,0,0-2.51.7v-4.46a15,15,0,1,1,30.09,0v4.46a5,5,0,0,0-2.51-.7v-1.24a4.74,4.74,0,0,0-6.87-4.25l-1.47.74a9.56,9.56,0,0,1-8.38,0l-1.48-.74a4.7,4.7,0,0,0-3.62-.26,4.75,4.75,0,0,0-3.25,4.51Zm2.51,7.52v-7.52a2.23,2.23,0,0,1,1.53-2.13,2.16,2.16,0,0,1,.71-.12,2.23,2.23,0,0,1,1,.24l1.48.74a12.08,12.08,0,0,0,10.62,0l1.48-.74a2.21,2.21,0,0,1,1.71-.12,2.25,2.25,0,0,1,1.53,2.13v7.52a10,10,0,1,1-20.06,0Zm10,12.55a12.64,12.64,0,0,0,3.76-.58v2.23l-3.76,3-3.76-3v-2.23a12.64,12.64,0,0,0,3.76.58Zm-17.2,7,6.35-2.32,2.53,8.59,2.91-1.93,1.62,2.72-1.13,14.77h-8.87v-12.55h-2.51v5h-5v-8.4a6.29,6.29,0,0,1,4.11-5.9Zm-4.11,16.81h5v5h-5Zm42.62,5h-5v-8l5,5.34Zm30.09-17.68a8.46,8.46,0,0,1-2.31,5.83l-16.5,17.55-16.49-17.55a8.46,8.46,0,0,1-2.31-5.83v-.17a8.49,8.49,0,0,1,14.5-6l4.3,4.3,4.3-4.3a8.43,8.43,0,0,1,6-2.49,8.52,8.52,0,0,1,8.5,8.51Zm-15,.11h-7.52v5h-5v7.53h5v5h7.52v-5h5v-7.53h-5Zm2.51,7.53v2.51h-5v5h-2.51v-5h-5v-2.51h5v-5h2.51v5ZM2778,1093.42a1.26,1.26,0,1,1,1.26-1.25,1.25,1.25,0,0,1-1.26,1.25Zm8.78-1.25a1.26,1.26,0,1,1,1.25,1.25,1.25,1.25,0,0,1-1.25-1.25Zm-3.76,11.29a5,5,0,0,1-5-5h2.51a2.51,2.51,0,1,0,5,0h2.5a5,5,0,0,1-5,5Zm53.9-1.25v2.51h-2.5v-2.51Zm0,0"/></clipPath><clipPath id="clip-path-6"><path class="cls-1" d="M545.36,763.32v2.6a9.09,9.09,0,0,0-9.08,9.08h-2.59a11.69,11.69,0,0,1,11.67-11.68ZM583,785.38h2.6a6.5,6.5,0,0,0-6.49-6.49v2.59a3.9,3.9,0,0,1,3.89,3.9Zm-16.86,48H542.77v-7.78h23.35ZM548,828.19h-2.6v2.59H548Zm5.19,0h-2.6v2.59h2.6Zm5.19,0h-2.6v2.59h2.6Zm5.18,0h-2.59v2.59h2.59Zm-5.18-10.38h-7.79V810h7.79Zm-2.6-5.19h-2.59v2.59h2.59Zm13,5.19h-7.78V810h7.78Zm-2.59-5.19h-2.6v2.59h2.6Zm-15.57-18.16h7.79v7.78h-7.79Zm2.6,5.19h2.59v-2.6h-2.59ZM542.77,810h-2.6v7.79h2.6Zm5.19,0h-2.6v7.79H548Zm13-7.78h2.59v-7.78h-2.59Zm5.19,0h2.59v-7.78h-2.59Zm-46.7,10.38H522v-7.79h-2.59Zm5.19,0h2.59v-7.79h-2.59Zm5.19,0h2.59v-7.79H529.8Zm-10.38,7.78h13v13h-13ZM522,830.78h7.79V823H522Zm72.65-27.24v31.13a3.89,3.89,0,0,1-3.89,3.89H518.12a3.89,3.89,0,0,1-3.89-3.89V803.54a3.89,3.89,0,0,1,3.89-3.89H535v-2.6H529.8a11.67,11.67,0,0,1-1.26-23.28A16.87,16.87,0,0,1,559,765.09a13,13,0,0,1,22.67,8.61c0,.1,0,.2,0,.3a11.67,11.67,0,0,1-2.58,23H573.9v2.6h16.87a3.89,3.89,0,0,1,3.89,3.89Zm-77.84,11.67H535v-13H518.12a1.3,1.3,0,0,0-1.3,1.3ZM535.22,836a4,4,0,0,1-.24-1.3V817.81H516.82v16.86a1.3,1.3,0,0,0,1.3,1.3Zm36.09-13H537.58v11.67a1.3,1.3,0,0,0,1.3,1.3H570a1.3,1.3,0,0,0,1.3-1.3Zm0-15.57H537.58v13h33.73Zm0-14.27a1.3,1.3,0,0,0-1.3-1.3H538.88a1.3,1.3,0,0,0-1.3,1.3v11.67h33.73Zm2.59,0v1.3h5.19a9.09,9.09,0,1,0-3.4-17.51l-1-2.4a11.73,11.73,0,0,1,4.38-.85,10.36,10.36,0,0,0-18.64-6.24,16.94,16.94,0,0,1,1.54,4.73l-2.56.43A14.27,14.27,0,0,0,531.09,775v1.29H529.8a9.09,9.09,0,1,0,0,18.17H535v-1.3a3.9,3.9,0,0,1,3.9-3.89H570a3.89,3.89,0,0,1,3.89,3.89Zm18.16,24.65H573.9v16.86a3.75,3.75,0,0,1-.24,1.3h17.11a1.3,1.3,0,0,0,1.29-1.3Zm0-14.27a1.3,1.3,0,0,0-1.29-1.3H573.9v13h18.16Zm-5.19,9.08h2.6v-7.79h-2.6Zm-5.18,0h2.59v-7.79h-2.59Zm-5.19,0h2.59v-7.79H576.5Zm13,20.75h-13v-13h13ZM586.87,823h-7.78v7.78h7.78Zm0,0"/></clipPath><clipPath id="clip-path-7"><path class="cls-1" d="M553.3,952.15a5.44,5.44,0,1,0,5.43,5.44,5.45,5.45,0,0,0-5.43-5.44Zm0,8.16a2.72,2.72,0,1,1,2.71-2.72,2.72,2.72,0,0,1-2.71,2.72Zm-25.84,16.31a1.36,1.36,0,1,1-1.36-1.36,1.36,1.36,0,0,1,1.36,1.36ZM528.82,963a1.36,1.36,0,1,1-1.36-1.36,1.36,1.36,0,0,1,1.36,1.36Zm2.72-13.6a1.36,1.36,0,1,1,1.36,1.36,1.36,1.36,0,0,1-1.36-1.36Zm4.08-16.32a1.36,1.36,0,1,1,1.36,1.36,1.35,1.35,0,0,1-1.36-1.36Zm-10.88,5.44a1.36,1.36,0,1,1,1.36,1.36,1.36,1.36,0,0,1-1.36-1.36Zm15,46.23a1.36,1.36,0,1,1-1.36-1.36,1.36,1.36,0,0,1,1.36,1.36Zm5.44,1.36h2.72a6.81,6.81,0,0,1-6.8,6.8v-2.72a4.08,4.08,0,0,0,4.08-4.08ZM537,922.24h2.72a5.45,5.45,0,0,0,5.44,5.44v2.72a8.17,8.17,0,0,1-8.16-8.16Zm0,54.38a6.8,6.8,0,0,1-6.8-6.79h2.72A4.08,4.08,0,0,0,537,973.9ZM522,959v-2.72a2.72,2.72,0,0,0,2.72-2.72h2.72A5.45,5.45,0,0,1,522,959Zm43.51-43.51a13.59,13.59,0,0,0-12.23,7.71,13.58,13.58,0,0,0-25.6,3.43A12.21,12.21,0,0,0,519.76,945a13.58,13.58,0,0,0,0,25.28,12.21,12.21,0,0,0,7.94,18.37A13.58,13.58,0,0,0,553.3,992a13.6,13.6,0,0,0,12.23,7.71c16.5,0,29.91-18.91,29.91-42.15S582,915.44,565.53,915.44ZM541.06,997a10.89,10.89,0,0,1-10.88-10.88,10.74,10.74,0,0,1,1.21-5L529,979.91a13.68,13.68,0,0,0-1.48,5.84,9.54,9.54,0,0,1-6.83-9.13,9.41,9.41,0,0,1,1.88-5.63,13.33,13.33,0,0,0,2.2.19v-2.71a10.88,10.88,0,0,1,0-21.76V944a13.33,13.33,0,0,0-2.2.2,9.37,9.37,0,0,1-1.88-5.64,9.53,9.53,0,0,1,6.82-9.12,13.61,13.61,0,0,0,4.51,9.74l1.82-2a10.88,10.88,0,1,1,18.13-8.1v9.51h-2.43l-.85,3.41a16.24,16.24,0,0,0-3.14,1.3l-3-1.81-5.35,5.35,1.81,3a16.24,16.24,0,0,0-1.3,3.14l-3.41.86v7.56l3.4.85a16.28,16.28,0,0,0,1.31,3.14l-1.81,3,5.35,5.35,3-1.81a15.67,15.67,0,0,0,3.14,1.31l.85,3.4h2.43v9.52A10.89,10.89,0,0,1,541.06,997Zm23.83-46.51a13.8,13.8,0,0,1,1.61,3.89l.19.8,2.92.73v3.32l-2.92.73-.19.8a13.51,13.51,0,0,1-1.61,3.89l-.43.7L566,968l-2.35,2.35-2.58-1.55-.7.43a13.51,13.51,0,0,1-3.89,1.61l-.81.2L555,973.9h-3.31l-.73-2.91-.8-.2a13.28,13.28,0,0,1-3.89-1.61l-.71-.43-2.58,1.55L540.59,968l1.55-2.58-.43-.7a13.53,13.53,0,0,1-1.62-3.89l-.19-.8-2.92-.73v-3.32l2.92-.73.19-.8a13.8,13.8,0,0,1,1.61-3.89l.44-.7-1.55-2.59,2.34-2.34,2.58,1.55.7-.43a13.76,13.76,0,0,1,3.9-1.62l.8-.19.73-2.92H555l.73,2.92.8.19a13.48,13.48,0,0,1,3.9,1.62l.7.43,2.58-1.55,2.34,2.34-1.55,2.58Zm.64,46.51a10.88,10.88,0,0,1-10.87-10.88v-9.52h2.42l.85-3.4a16.24,16.24,0,0,0,3.14-1.3l3,1.8,5.35-5.34-1.81-3a15.72,15.72,0,0,0,1.3-3.15l3.41-.85v-7.56l-3.4-.85a16.37,16.37,0,0,0-1.31-3.15l1.81-3-5.35-5.34-3,1.8a16.24,16.24,0,0,0-3.14-1.3l-.85-3.41h-2.42V929a10.88,10.88,0,0,1,10.87-10.88c15,0,27.2,17.69,27.2,39.43S580.53,997,565.53,997Zm23.12-40.79a1.36,1.36,0,1,1-1.36,1.36,1.36,1.36,0,0,1,1.36-1.36Zm-13.78,33.31A1.36,1.36,0,1,1,573,989a1.37,1.37,0,0,1,1.86.5Zm10.22-10.88a1.36,1.36,0,1,1-.5-1.85,1.36,1.36,0,0,1,.5,1.85Zm1-12.27a1.36,1.36,0,1,1,1,1.66,1.35,1.35,0,0,1-1-1.66Zm-22,22.47h5.44v2.72h-5.44a4.08,4.08,0,0,1-4.08-4.08V978h2.72v9.52a1.36,1.36,0,0,0,1.36,1.36Zm6.8-12.24h8.16v2.72H571a1.36,1.36,0,0,0-1.36,1.36v5.44h-2.72V980.7a4.08,4.08,0,0,1,4.08-4.08Zm5.44-10.87h5.44v2.72h-5.44a1.36,1.36,0,0,0-1.36,1.36v4.07h-2.72v-4.07a4.08,4.08,0,0,1,4.08-4.08Zm-3.9-42.83a1.36,1.36,0,1,1,.5,1.85,1.36,1.36,0,0,1-.5-1.85Zm10.22,13.59a1.36,1.36,0,1,1,1.86.5,1.36,1.36,0,0,1-1.86-.5Zm3.4,10.92a1.36,1.36,0,0,1,2.63-.7,1.36,1.36,0,0,1-1,1.66,1.35,1.35,0,0,1-1.66-1ZM569.61,925h-5.44a1.36,1.36,0,0,0-1.36,1.36v9.51h-2.72v-9.51a4.08,4.08,0,0,1,4.08-4.08h5.44Zm9.52,12.23H571a4.08,4.08,0,0,1-4.08-4.08v-5.43h2.72v5.43a1.36,1.36,0,0,0,1.36,1.36h8.16Zm-2.72,8.16h5.44v2.72h-5.44a4.08,4.08,0,0,1-4.08-4.08v-4.08h2.72V944a1.36,1.36,0,0,0,1.36,1.36Zm8.16,13.6h-9.52v-2.72h9.52Zm-20.4-1.36a10.85,10.85,0,0,1-1.31,5.17l-2.39-1.29a8.16,8.16,0,0,0-11.05-11.06l-1.3-2.39a10.88,10.88,0,0,1,16,9.57Zm-7,7.18,1.29,2.39a10.88,10.88,0,0,1-14.74-14.75l2.39,1.3a8.16,8.16,0,0,0,11.06,11.06Zm0,0"/></clipPath><linearGradient id="쥔晤牆渾_藎雪猥粧_4" x1="714.06" y1="1085.39" x2="2516.22" y2="829.03" gradientUnits="userSpaceOnUse"><stop offset="0" stop-color="#13e7bb"/><stop offset="1" stop-color="#7c75ba"/></linearGradient><clipPath id="clip-path-8" transform="translate(-202.19 -259.08)"><rect class="cls-2" x="575.26" y="600.37" width="87.8" height="87.8"/></clipPath><clipPath id="clip-path-9" transform="translate(-202.19 -259.08)"><rect class="cls-1" x="575.26" y="600.36" width="87.81" height="87.81"/></clipPath><clipPath id="clip-path-10" transform="translate(-202.19 -259.08)"><rect class="cls-7" x="514.23" y="758.13" width="80.43" height="80.43"/></clipPath><clipPath id="clip-path-11" transform="translate(-202.19 -259.08)"><rect class="cls-1" x="514.23" y="758.12" width="80.44" height="80.44"/></clipPath><clipPath id="clip-path-12" transform="translate(-202.19 -259.08)"><rect class="cls-8" x="511.15" y="915.44" width="84.3" height="84.3"/></clipPath><clipPath id="clip-path-13" transform="translate(-202.19 -259.08)"><rect class="cls-1" x="511.15" y="915.43" width="84.31" height="84.31"/></clipPath><clipPath id="clip-path-14" transform="translate(-202.19 -259.08)"><rect class="cls-3" x="568.89" y="1058.57" width="96.96" height="97.21"/></clipPath><clipPath id="clip-path-15" transform="translate(-202.19 -259.08)"><rect class="cls-1" x="568.95" y="1058.7" width="96.71" height="96.77"/></clipPath><clipPath id="clip-path-16" transform="translate(-202.19 -259.08)"><rect class="cls-4" x="2797.95" y="832.47" width="79.34" height="79.13"/></clipPath><clipPath id="clip-path-17" transform="translate(-202.19 -259.08)"><rect class="cls-1" x="2798.06" y="832.47" width="79.23" height="79.13"/></clipPath><clipPath id="clip-path-18" transform="translate(-202.19 -259.08)"><rect class="cls-5" x="2733.32" y="602.24" width="81.35" height="81.35"/></clipPath><clipPath id="clip-path-19" transform="translate(-202.19 -259.08)"><rect class="cls-1" x="2733.32" y="602.23" width="81.37" height="81.37"/></clipPath><linearGradient id="무제_그라디언트_23" x1="1339.05" y1="1889.06" x2="1438.63" y2="1889.06" gradientTransform="translate(878.91 2486.03) rotate(-90)" gradientUnits="userSpaceOnUse"><stop offset="0" stop-color="#1052c9"/><stop offset="1" stop-color="#06bc8e"/></linearGradient><clipPath id="clip-path-20" transform="translate(-202.19 -259.08)"><rect class="cls-6" x="2759.13" y="1069.42" width="77.96" height="78.84"/></clipPath><clipPath id="clip-path-21" transform="translate(-202.19 -259.08)"><rect class="cls-1" x="2759.18" y="1069.53" width="77.76" height="78.46"/></clipPath></defs><g id="background"><rect id="backgroundGray" class="cls-9" width="2986.69" height="1281.83"/><rect id="backgroundWhite" class="cls-9" x="93.33" y="71.21" width="2800.03" height="1139.41"/></g><circle class="cls-10" cx="853.24" cy="639.49" r="384.61"/><circle class="cls-9" cx="1179.72" cy="652.8" r="285.79"/><circle class="cls-11" cx="746.48" cy="675.52" r="15.88" transform="translate(-284.67 987.74) rotate(-76.72)"/><circle class="cls-12" cx="1325.21" cy="624.76" r="8.99" transform="translate(211.54 1512.72) rotate(-76.77)"/><circle class="cls-12" cx="1111.97" cy="924.7" r="8.99"/><circle class="cls-11" cx="678.47" cy="827.92" r="15.88" transform="translate(-588.9 463.16) rotate(-45)"/><circle class="cls-11" cx="678.47" cy="980.31" r="15.88" transform="translate(-696.66 507.79) rotate(-45)"/><circle class="cls-11" cx="746.48" cy="1132.71" r="15.88" transform="translate(-729.62 1339.89) rotate(-76.72)"/><line class="cls-10" x1="528.41" y1="413.17" x2="482.12" y2="413.17"/><line class="cls-10" x1="459.82" y1="570.4" x2="413.53" y2="570.4"/><line class="cls-10" x1="462.14" y1="722.3" x2="415.85" y2="722.3"/><line class="cls-10" x1="528.41" y1="877.64" x2="482.12" y2="877.64"/><circle class="cls-10" cx="2133" cy="639.49" r="384.61"/><circle class="cls-9" cx="1806.53" cy="643.27" r="285.79"/><circle class="cls-11" cx="2644.14" cy="1121.63" r="15.88" transform="translate(-220.85 1939.13) rotate(-45)"/><circle class="cls-11" cx="2719.8" cy="898.58" r="15.88" transform="translate(1018.19 3080.08) rotate(-76.72)"/><circle class="cls-11" cx="2644.14" cy="664.44" r="15.88" transform="translate(1187.79 2826.11) rotate(-76.72)"/><g id="line"><path class="cls-13" d="M1696.86,1241.82A341.83,341.83,0,0,1,1355,900c0-164.92-134.17-299.09-299.09-299.09S756.85,735.08,756.85,900l-21.37,14.24L714.12,900a341.82,341.82,0,0,1,683.64,0c0,164.92,134.17,299.09,299.1,299.09S1996,1064.92,1996,900a341.82,341.82,0,1,1,683.64,0l-21.36-14.24L2636.87,900c0-164.92-134.18-299.09-299.1-299.09S2038.68,735.08,2038.68,900a341.83,341.83,0,0,1-341.82,341.82Z" transform="translate(-202.19 -259.08)"/></g><path id="line-2" data-name="line" class="cls-14" d="M2337.77,1241.82A341.83,341.83,0,0,1,1996,900c0-164.92-134.17-299.09-299.09-299.09S1397.76,735.08,1397.76,900a341.82,341.82,0,1,1-683.64,0l21.36,14.24L756.85,900c0,164.92,134.17,299.09,299.09,299.09S1355,1064.92,1355,900a341.83,341.83,0,0,1,683.65,0c0,164.92,134.17,299.09,299.09,299.09s299.1-134.17,299.1-299.09l21.36-14.24L2679.59,900a341.81,341.81,0,0,1-341.82,341.82Z" transform="translate(-202.19 -259.08)"/><path d="M1544.16,887.13h-10.9V840.44h10.9Z" transform="translate(-202.19 -259.08)"/><path d="M1559.63,840.5a3.69,3.69,0,0,1,.87.24,3.33,3.33,0,0,1,.74.5,9.23,9.23,0,0,1,.8.87l22.17,28c-.08-.9-.15-1.77-.19-2.61s-.06-1.64-.06-2.39V840.44h9.55v46.69h-5.64a5.32,5.32,0,0,1-2.12-.38,4.63,4.63,0,0,1-1.67-1.41l-22-27.82c.06.81.12,1.61.16,2.39s.06,1.51.06,2.19v25h-9.55V840.44h5.71A9.71,9.71,0,0,1,1559.63,840.5Z" transform="translate(-202.19 -259.08)"/><path d="M1635,840.44V849H1621.9v38.1h-10.83V849h-13.14v-8.59Z" transform="translate(-202.19 -259.08)"/><path d="M1669.52,840.44v8.33h-19.17v10.9H1665v8h-14.68V878.8h19.17v8.33h-30.06V840.44Z" transform="translate(-202.19 -259.08)"/><path d="M1697.59,879.31a18.84,18.84,0,0,0,4-.38,19.22,19.22,0,0,0,3.27-1v-7.08h-4.61a2.19,2.19,0,0,1-1.6-.55,1.78,1.78,0,0,1-.58-1.37v-6h16.6v19.7a24,24,0,0,1-3.74,2.26,24.48,24.48,0,0,1-4.13,1.56,32.35,32.35,0,0,1-4.68.9,46.8,46.8,0,0,1-5.33.28,24.46,24.46,0,0,1-9.49-1.81,22.72,22.72,0,0,1-12.55-12.56,24.73,24.73,0,0,1-1.81-9.5,26,26,0,0,1,1.73-9.6,21.8,21.8,0,0,1,5-7.55,22.54,22.54,0,0,1,7.78-4.93,28.3,28.3,0,0,1,10.21-1.76,29.81,29.81,0,0,1,5.48.48,27.62,27.62,0,0,1,4.73,1.31,21.78,21.78,0,0,1,4,2,21.07,21.07,0,0,1,3.21,2.5l-3.14,4.77a3.51,3.51,0,0,1-1.08,1.06,2.5,2.5,0,0,1-1.36.38,3.7,3.7,0,0,1-2-.64c-.86-.51-1.67-.95-2.42-1.33a15.82,15.82,0,0,0-2.33-.91,16,16,0,0,0-2.5-.51,23.79,23.79,0,0,0-2.94-.16,13.58,13.58,0,0,0-5.49,1.07,11.81,11.81,0,0,0-4.14,3,13.61,13.61,0,0,0-2.65,4.69,19,19,0,0,0-.93,6.11,19.46,19.46,0,0,0,1,6.6,14.21,14.21,0,0,0,2.83,4.87,11.94,11.94,0,0,0,4.3,3A13.94,13.94,0,0,0,1697.59,879.31Z" transform="translate(-202.19 -259.08)"/><path d="M1732,869.86v17.27h-10.84V840.44h15.19a31.34,31.34,0,0,1,8.64,1,16.25,16.25,0,0,1,5.83,2.9,11.07,11.07,0,0,1,3.29,4.39,15.42,15.42,0,0,1,.41,9.81,12.9,12.9,0,0,1-1.81,3.73,14.17,14.17,0,0,1-2.94,3.06,15.46,15.46,0,0,1-4,2.21,10.61,10.61,0,0,1,2,1.35,7.89,7.89,0,0,1,1.65,2l9.93,16.25h-9.8a4.15,4.15,0,0,1-3.91-2l-7.76-13.56a3.32,3.32,0,0,0-1.2-1.28,4.12,4.12,0,0,0-1.94-.38Zm0-7.47h4.35a11,11,0,0,0,3.77-.56,6.82,6.82,0,0,0,2.55-1.55,6,6,0,0,0,1.44-2.33,8.84,8.84,0,0,0,.45-2.86,6,6,0,0,0-2-4.81c-1.33-1.16-3.4-1.73-6.2-1.73H1732Z" transform="translate(-202.19 -259.08)"/><path d="M1775.59,887.13h-10.9V840.44h10.9Z" transform="translate(-202.19 -259.08)"/><path d="M1818.08,840.44V849h-13.14v38.1h-10.83V849H1781v-8.59Z" transform="translate(-202.19 -259.08)"/><path d="M1845.77,869.38v17.75h-10.83V869.38L1818,840.44h9.55a3.51,3.51,0,0,1,2.24.66,5,5,0,0,1,1.34,1.68l6.61,13.59,1.47,3c.45.92.84,1.83,1.19,2.72a24.71,24.71,0,0,1,1.15-2.75c.45-.92.93-1.91,1.44-3l6.54-13.59a3.62,3.62,0,0,1,.53-.83,4.62,4.62,0,0,1,.77-.76,3.76,3.76,0,0,1,1-.54,3.45,3.45,0,0,1,1.23-.21h9.62Z" transform="translate(-202.19 -259.08)"/><path d="M1630.94,935.4a26.49,26.49,0,0,1-1.64,9.47,21.9,21.9,0,0,1-4.61,7.42,20.65,20.65,0,0,1-7.17,4.82,25.79,25.79,0,0,1-18.47,0,20.66,20.66,0,0,1-7.15-4.82,21.9,21.9,0,0,1-4.61-7.42,28.16,28.16,0,0,1,0-18.94,21.94,21.94,0,0,1,4.61-7.43,20.62,20.62,0,0,1,7.15-4.86,25.51,25.51,0,0,1,18.47,0,20.61,20.61,0,0,1,7.17,4.86,21.94,21.94,0,0,1,4.61,7.43A26.49,26.49,0,0,1,1630.94,935.4Zm-6.38,0a23.37,23.37,0,0,0-1.16-7.6,15.91,15.91,0,0,0-3.26-5.68,14.26,14.26,0,0,0-5.13-3.58,18.66,18.66,0,0,0-13.43,0,14.39,14.39,0,0,0-5.14,3.58,16,16,0,0,0-3.29,5.68,25.62,25.62,0,0,0,0,15.18,16,16,0,0,0,3.29,5.67,14.22,14.22,0,0,0,5.14,3.56,18.94,18.94,0,0,0,13.43,0,14.09,14.09,0,0,0,5.13-3.56,16,16,0,0,0,3.26-5.67A23.16,23.16,0,0,0,1624.56,935.4Z" transform="translate(-202.19 -259.08)"/><path d="M1667.66,912.42v5.07h-22.05v16h18.85v5.06h-18.85v19.74h-6.25V912.42Z" transform="translate(-202.19 -259.08)"/><path d="M1697,949.69h17.31v8.65h-28.14V911.65H1697Z" transform="translate(-202.19 -259.08)"/><path d="M1731.21,958.34h-10.9V911.65h10.9Z" transform="translate(-202.19 -259.08)"/><path d="M1769.85,911.65V920h-19.16v11.82h16v8.36h-16v18.17h-10.9V911.65Z" transform="translate(-202.19 -259.08)"/><path d="M1805.49,911.65V920h-19.17v10.89H1801v8h-14.68V950h19.17v8.33h-30.06V911.65Z" transform="translate(-202.19 -259.08)"/><path class="cls-15" d="M920.73,914.31a2.56,2.56,0,0,1,.85.16,2.32,2.32,0,0,1,.82.55l4.77,5a19.72,19.72,0,0,1-7.85,6.18,27.41,27.41,0,0,1-11.16,2.08,26.59,26.59,0,0,1-10.59-2,22.92,22.92,0,0,1-7.94-5.55,24.59,24.59,0,0,1-5-8.4,31.11,31.11,0,0,1-1.74-10.56,27.85,27.85,0,0,1,2-10.67A24.62,24.62,0,0,1,899,877.25a29.74,29.74,0,0,1,11-2,28.31,28.31,0,0,1,5.5.51,27.18,27.18,0,0,1,4.83,1.43,22.77,22.77,0,0,1,4.13,2.17,20,20,0,0,1,3.35,2.79l-4.06,5.45a5,5,0,0,1-.93.91,2.42,2.42,0,0,1-1.49.41,2.58,2.58,0,0,1-1.22-.29,12.09,12.09,0,0,1-1.21-.69l-1.4-.89a10.65,10.65,0,0,0-1.82-.89,15.31,15.31,0,0,0-2.46-.69,16.62,16.62,0,0,0-3.29-.29,15.08,15.08,0,0,0-6,1.16,13.06,13.06,0,0,0-4.65,3.31,15.41,15.41,0,0,0-3,5.22,20.29,20.29,0,0,0-1.09,6.87,21.14,21.14,0,0,0,1.09,7.08,15.37,15.37,0,0,0,3,5.22,12.53,12.53,0,0,0,4.36,3.22,13,13,0,0,0,5.34,1.11,27,27,0,0,0,3-.16,11.84,11.84,0,0,0,2.51-.56,11.63,11.63,0,0,0,2.21-1,14.79,14.79,0,0,0,2.12-1.55,4.3,4.3,0,0,1,.93-.59A2.46,2.46,0,0,1,920.73,914.31Z" transform="translate(-202.19 -259.08)"/><path class="cls-15" d="M944.69,908.54v19.2h-12V875.86h16.87a34.71,34.71,0,0,1,9.6,1.15,18.05,18.05,0,0,1,6.48,3.23,12.2,12.2,0,0,1,3.65,4.87,16.19,16.19,0,0,1,1.14,6.13,16.52,16.52,0,0,1-.68,4.77,14.38,14.38,0,0,1-2,4.15,15.69,15.69,0,0,1-3.27,3.4A17.8,17.8,0,0,1,960,906a11.47,11.47,0,0,1,2.26,1.49,8.85,8.85,0,0,1,1.83,2.17l11,18.06H964.2a4.63,4.63,0,0,1-4.34-2.28l-8.62-15.07a3.68,3.68,0,0,0-1.33-1.42,4.54,4.54,0,0,0-2.16-.43Zm0-8.29h4.84a12.28,12.28,0,0,0,4.19-.63,7.59,7.59,0,0,0,2.83-1.72,6.67,6.67,0,0,0,1.6-2.58,10,10,0,0,0,.5-3.19,6.66,6.66,0,0,0-2.23-5.34q-2.22-1.92-6.89-1.92h-4.84Z" transform="translate(-202.19 -259.08)"/><path class="cls-15" d="M1028.3,927.74H1019a4.33,4.33,0,0,1-2.58-.73,3.76,3.76,0,0,1-1.41-1.87l-3.06-9H992.19l-3.06,9a4.16,4.16,0,0,1-3.92,2.6h-9.4l20.08-51.88h12.32ZM995,907.9h14.17l-4.77-14.2-1.09-3.19c-.41-1.22-.82-2.55-1.23-4q-.57,2.18-1.17,4c-.41,1.24-.78,2.31-1.14,3.21Z" transform="translate(-202.19 -259.08)"/><path class="cls-15" d="M1045.67,927.74h-12.1V875.86h12.1Z" transform="translate(-202.19 -259.08)"/><path class="cls-15" d="M1083.18,906.83c.44,1,.86,2,1.27,3,.4-1.05.83-2.07,1.28-3.05s.91-1.95,1.39-2.87l13.31-26.24a4.44,4.44,0,0,1,.73-1,2.4,2.4,0,0,1,.84-.55,2.89,2.89,0,0,1,1-.18h10.56v51.85H1103V897.9c0-1.45.07-3,.21-4.7l-13.74,26.67a4.52,4.52,0,0,1-1.73,1.88,4.74,4.74,0,0,1-2.47.64h-1.64a4.77,4.77,0,0,1-2.48-.64,4.43,4.43,0,0,1-1.72-1.88l-13.82-26.71c.1.83.17,1.66.21,2.48s.08,1.57.08,2.26v29.84h-10.61V875.89h10.55a2.89,2.89,0,0,1,1.05.18,2.4,2.4,0,0,1,.84.55,4.44,4.44,0,0,1,.73,1L1081.81,904C1082.29,904.92,1082.74,905.86,1083.18,906.83Z" transform="translate(-202.19 -259.08)"/><path class="cls-15" d="M1173.36,901.78a27.78,27.78,0,0,1-1.95,10.47,24.73,24.73,0,0,1-14,14,31.12,31.12,0,0,1-22.06,0,24.75,24.75,0,0,1-14-14,29.22,29.22,0,0,1,0-20.94,24.8,24.8,0,0,1,5.48-8.4,25.24,25.24,0,0,1,8.53-5.59,30.91,30.91,0,0,1,22.06,0,25.56,25.56,0,0,1,8.49,5.61,25,25,0,0,1,5.46,8.41A27.61,27.61,0,0,1,1173.36,901.78Zm-12.32,0a22.6,22.6,0,0,0-1-6.93,14.66,14.66,0,0,0-2.87-5.21,12.27,12.27,0,0,0-4.57-3.28,15.77,15.77,0,0,0-6.16-1.14,16,16,0,0,0-6.22,1.14,12.35,12.35,0,0,0-4.59,3.28,14.66,14.66,0,0,0-2.87,5.21,24.86,24.86,0,0,0,0,13.89,14.79,14.79,0,0,0,2.87,5.22,12.16,12.16,0,0,0,4.59,3.25,16.2,16.2,0,0,0,6.22,1.12,16,16,0,0,0,6.16-1.12,12.09,12.09,0,0,0,4.57-3.25,14.79,14.79,0,0,0,2.87-5.22A22.66,22.66,0,0,0,1161,901.78Z" transform="translate(-202.19 -259.08)"/><path class="cls-15" d="M1186.78,875.93a3.15,3.15,0,0,1,1.78.82,8,8,0,0,1,.89,1l24.64,31.15c-.1-1-.17-2-.21-2.9s-.08-1.82-.08-2.65V875.86h10.61v51.88h-6.26a5.84,5.84,0,0,1-2.35-.43,5.06,5.06,0,0,1-1.85-1.57l-24.47-30.9c.08.9.13,1.78.18,2.65s.07,1.68.07,2.44v27.81h-10.61V875.86h6.34A9.9,9.9,0,0,1,1186.78,875.93Z" transform="translate(-202.19 -259.08)"/><path class="cls-16" d="M399.16,686.4H397a.94.94,0,0,1-.62-.19,1.22,1.22,0,0,1-.35-.48l-1.95-5.05h-9.39l-2,5.05a1.14,1.14,0,0,1-.36.47,1,1,0,0,1-.61.2h-2.19l8.37-20.92h2.87Zm-13.71-7.77h7.81L390,670.12a14,14,0,0,1-.63-2c-.11.4-.21.77-.32,1.1s-.2.64-.3.89Z" transform="translate(-202.19 -259.08)"/><path class="cls-16" d="M404.63,684h9.05v2.38H401.8V665.48h2.83Z" transform="translate(-202.19 -259.08)"/><path class="cls-16" d="M425,684.34a12.43,12.43,0,0,0,1.55-.08,9.11,9.11,0,0,0,1.34-.24,8.16,8.16,0,0,0,1.18-.39q.56-.23,1.11-.51V678.5h-3.24a.62.62,0,0,1-.45-.16.51.51,0,0,1-.16-.39v-1.61h6.42v8a12.61,12.61,0,0,1-1.64,1,11.38,11.38,0,0,1-1.83.7,13.88,13.88,0,0,1-2.08.43,20,20,0,0,1-2.41.13,10.68,10.68,0,0,1-4.17-.78,9.5,9.5,0,0,1-3.27-2.19,9.8,9.8,0,0,1-2.14-3.38,11.83,11.83,0,0,1-.77-4.33,12.22,12.22,0,0,1,.75-4.37,9.77,9.77,0,0,1,2.15-3.38,9.62,9.62,0,0,1,3.37-2.18,12.22,12.22,0,0,1,4.43-.77,13.88,13.88,0,0,1,2.31.18,10.62,10.62,0,0,1,2,.53,8.56,8.56,0,0,1,1.69.83,10.16,10.16,0,0,1,1.44,1.1l-.8,1.28a.74.74,0,0,1-.64.4,1,1,0,0,1-.52-.16c-.24-.14-.51-.3-.81-.5a7.61,7.61,0,0,0-1.11-.56,9,9,0,0,0-1.53-.46,9.87,9.87,0,0,0-2.09-.19,8.37,8.37,0,0,0-3.2.58,6.68,6.68,0,0,0-2.44,1.65,7.26,7.26,0,0,0-1.55,2.6,10.14,10.14,0,0,0-.54,3.42,10.27,10.27,0,0,0,.57,3.54,7.36,7.36,0,0,0,1.58,2.63,6.86,6.86,0,0,0,2.42,1.65A8.19,8.19,0,0,0,425,684.34Z" transform="translate(-202.19 -259.08)"/><path class="cls-16" d="M456.5,676a12.19,12.19,0,0,1-.74,4.31,9.83,9.83,0,0,1-2.11,3.38,9.26,9.26,0,0,1-3.26,2.2,11.72,11.72,0,0,1-8.41,0,9.26,9.26,0,0,1-3.26-2.2,9.66,9.66,0,0,1-2.1-3.38,12.79,12.79,0,0,1,0-8.63,9.85,9.85,0,0,1,2.1-3.38A9.28,9.28,0,0,1,442,666a11.59,11.59,0,0,1,8.41,0,9.28,9.28,0,0,1,3.26,2.21,10,10,0,0,1,2.11,3.38A12.24,12.24,0,0,1,456.5,676Zm-2.9,0a10.61,10.61,0,0,0-.53-3.46,7.31,7.31,0,0,0-1.49-2.59,6.42,6.42,0,0,0-2.33-1.63,8,8,0,0,0-3.07-.57,7.86,7.86,0,0,0-3.05.57,6.37,6.37,0,0,0-2.34,1.63,7.18,7.18,0,0,0-1.5,2.59,11.53,11.53,0,0,0,0,6.91,7.27,7.27,0,0,0,1.5,2.59,6.47,6.47,0,0,0,2.34,1.62,8,8,0,0,0,3.05.56,8.15,8.15,0,0,0,3.07-.56,6.52,6.52,0,0,0,2.33-1.62,7.4,7.4,0,0,0,1.49-2.59A10.59,10.59,0,0,0,453.6,676Z" transform="translate(-202.19 -259.08)"/><path class="cls-16" d="M463.48,677.67v8.73h-2.82V665.48h5.91a13.19,13.19,0,0,1,3.43.4,6.66,6.66,0,0,1,2.39,1.16,4.74,4.74,0,0,1,1.4,1.84,6.47,6.47,0,0,1,.1,4.47,5.49,5.49,0,0,1-1,1.73,6,6,0,0,1-1.62,1.31,7.88,7.88,0,0,1-2.17.81,3.16,3.16,0,0,1,.94.89l6.1,8.31h-2.51a1.23,1.23,0,0,1-1.14-.6L467,678.33a1.53,1.53,0,0,0-.54-.51,2,2,0,0,0-.88-.15Zm0-2.06h3a7.13,7.13,0,0,0,2.18-.3,4.49,4.49,0,0,0,1.58-.84,3.65,3.65,0,0,0,1-1.31,4.37,4.37,0,0,0,.32-1.68,3.36,3.36,0,0,0-1.23-2.82,6,6,0,0,0-3.68-.95h-3.09Z" transform="translate(-202.19 -259.08)"/><path class="cls-16" d="M482.53,686.4H479.7V665.48h2.83Z" transform="translate(-202.19 -259.08)"/><path class="cls-16" d="M502.38,665.48v2.38h-6.76V686.4h-2.83V667.86H486v-2.38Z" transform="translate(-202.19 -259.08)"/><path class="cls-16" d="M522.33,686.4h-2.85v-9.52H508.21v9.52h-2.85V665.48h2.85v9.33h11.27v-9.33h2.85Z" transform="translate(-202.19 -259.08)"/><path class="cls-16" d="M538.08,679.58c.11.26.21.51.3.78.1-.27.2-.54.31-.78s.23-.5.37-.76L546.14,666a.82.82,0,0,1,.39-.41,2.12,2.12,0,0,1,.58-.07h2.09V686.4h-2.48V671c0-.21,0-.42,0-.66s0-.47,0-.71l-7.17,13.08a1.12,1.12,0,0,1-1,.65h-.41a1.12,1.12,0,0,1-1-.65l-7.33-13.13c0,.26,0,.5.06.75s0,.46,0,.67V686.4h-2.49V665.48h2.09a2.15,2.15,0,0,1,.59.07.91.91,0,0,1,.39.41l7.23,12.88A5.6,5.6,0,0,1,538.08,679.58Z" transform="translate(-202.19 -259.08)"/><path class="cls-16" d="M357.42,838.82V817.9h6.67a12.51,12.51,0,0,1,3.33.38,6.33,6.33,0,0,1,2.29,1.08,4.26,4.26,0,0,1,1.33,1.71,6,6,0,0,1,.43,2.29,4.7,4.7,0,0,1-.24,1.49,4.39,4.39,0,0,1-.73,1.32,5.25,5.25,0,0,1-1.23,1.1,7.08,7.08,0,0,1-1.73.79,6.42,6.42,0,0,1,3.46,1.65,4.32,4.32,0,0,1,1.17,3.15,5.94,5.94,0,0,1-.49,2.42,5.27,5.27,0,0,1-1.43,1.89,6.86,6.86,0,0,1-2.31,1.22,10.58,10.58,0,0,1-3.11.43Zm2.84-11.55H364a7.52,7.52,0,0,0,2.08-.26,4.38,4.38,0,0,0,1.45-.73,2.84,2.84,0,0,0,.85-1.13,3.69,3.69,0,0,0,.28-1.46,3.22,3.22,0,0,0-1.11-2.7,5.65,5.65,0,0,0-3.45-.86h-3.83Zm0,2v7.29h4.52a6.71,6.71,0,0,0,2.08-.28,3.71,3.71,0,0,0,1.43-.78,3,3,0,0,0,.83-1.2,4.37,4.37,0,0,0,.26-1.52,3.11,3.11,0,0,0-1.15-2.56,5.35,5.35,0,0,0-3.46-1Z" transform="translate(-202.19 -259.08)"/><path class="cls-16" d="M379.67,838.82h-2.83V817.9h2.83Z" transform="translate(-202.19 -259.08)"/><path class="cls-16" d="M394.61,836.76a14.7,14.7,0,0,0,1.55-.08,12.82,12.82,0,0,0,1.34-.24,10.2,10.2,0,0,0,1.18-.39,11.07,11.07,0,0,0,1.11-.52v-4.61h-3.24a.61.61,0,0,1-.45-.16.54.54,0,0,1-.17-.39v-1.61h6.43v8a11.63,11.63,0,0,1-1.65,1,10.93,10.93,0,0,1-1.82.71,13,13,0,0,1-2.08.42,19.94,19.94,0,0,1-2.41.14,10.83,10.83,0,0,1-4.17-.78,9.5,9.5,0,0,1-3.27-2.19,9.9,9.9,0,0,1-2.14-3.38,11.87,11.87,0,0,1-.77-4.33,12.18,12.18,0,0,1,.75-4.37,9.63,9.63,0,0,1,2.15-3.38,9.48,9.48,0,0,1,3.37-2.18,12,12,0,0,1,4.43-.78,12.86,12.86,0,0,1,2.31.19,10.62,10.62,0,0,1,2,.52,9.73,9.73,0,0,1,1.68.83,10.5,10.5,0,0,1,1.45,1.11l-.81,1.28a.73.73,0,0,1-.64.4,1.06,1.06,0,0,1-.51-.17c-.24-.13-.51-.3-.82-.49a6.6,6.6,0,0,0-1.1-.56,8.2,8.2,0,0,0-1.53-.46,9.9,9.9,0,0,0-2.1-.19,8.55,8.55,0,0,0-3.19.57,6.84,6.84,0,0,0-2.44,1.65,7.35,7.35,0,0,0-1.55,2.6,10.24,10.24,0,0,0-.54,3.43,10.52,10.52,0,0,0,.56,3.54,7.62,7.62,0,0,0,1.59,2.63,6.86,6.86,0,0,0,2.42,1.65A8.15,8.15,0,0,0,394.61,836.76Z" transform="translate(-202.19 -259.08)"/><path class="cls-16" d="M430.47,828.37a11.67,11.67,0,0,1-.74,4.27,9.25,9.25,0,0,1-5.36,5.43,11.3,11.3,0,0,1-4.2.75h-7.83V817.9h7.83a11.3,11.3,0,0,1,4.2.75,9.32,9.32,0,0,1,3.26,2.13,9.65,9.65,0,0,1,2.1,3.31A11.69,11.69,0,0,1,430.47,828.37Zm-2.9,0a10.5,10.5,0,0,0-.53-3.45,7.16,7.16,0,0,0-1.49-2.57,6.37,6.37,0,0,0-2.33-1.61,8.08,8.08,0,0,0-3.05-.55h-5v16.34h5a8.08,8.08,0,0,0,3.05-.56,6.35,6.35,0,0,0,2.33-1.6,7,7,0,0,0,1.49-2.56A10.48,10.48,0,0,0,427.57,828.37Z" transform="translate(-202.19 -259.08)"/><path class="cls-16" d="M450.93,838.82h-2.19a1,1,0,0,1-.62-.19,1.3,1.3,0,0,1-.35-.48l-1.95-5.06h-9.39l-2,5.06a1,1,0,0,1-.35.46.9.9,0,0,1-.61.21h-2.19l8.37-20.92h2.87Zm-13.71-7.77H445l-3.29-8.51a16.12,16.12,0,0,1-.62-2c-.11.4-.22.77-.32,1.1s-.2.63-.3.88Z" transform="translate(-202.19 -259.08)"/><path class="cls-16" d="M465.89,817.9v2.38h-6.76v18.54H456.3V820.28h-6.79V817.9Z" transform="translate(-202.19 -259.08)"/><path class="cls-16" d="M484.15,838.82H482a1,1,0,0,1-.61-.19,1.2,1.2,0,0,1-.35-.48l-2-5.06h-9.38l-2,5.06a1.09,1.09,0,0,1-.35.46.92.92,0,0,1-.61.21h-2.19l8.36-20.92h2.88Zm-13.7-7.77h7.8L475,822.54a17.87,17.87,0,0,1-.63-2c-.1.4-.21.77-.31,1.1s-.2.63-.3.88Z" transform="translate(-202.19 -259.08)"/><path class="cls-16" d="M477.55,988.86h-2.19a.91.91,0,0,1-.61-.19,1.11,1.11,0,0,1-.35-.48l-2-5.05h-9.39l-1.95,5.05a1.29,1.29,0,0,1-.35.47,1,1,0,0,1-.62.2h-2.19l8.37-20.92h2.87Zm-13.71-7.77h7.81l-3.28-8.51a14,14,0,0,1-.63-2c-.11.4-.21.77-.31,1.1s-.21.63-.3.89Z" transform="translate(-202.19 -259.08)"/><path class="cls-16" d="M483.55,988.86h-2.83V967.94h2.83Z" transform="translate(-202.19 -259.08)"/><path class="cls-16" d="M2840.1,665.16V673h-2.82V652.07h6.18a11.48,11.48,0,0,1,3.45.46,6.64,6.64,0,0,1,2.43,1.3,5.38,5.38,0,0,1,1.44,2,7.34,7.34,0,0,1,.47,2.67,6.83,6.83,0,0,1-.51,2.67,5.75,5.75,0,0,1-1.5,2.09,6.85,6.85,0,0,1-2.44,1.36,10.43,10.43,0,0,1-3.34.49Zm0-2.25h3.36a6.36,6.36,0,0,0,2.13-.32,4.4,4.4,0,0,0,1.56-.89,3.88,3.88,0,0,0,.95-1.38,4.84,4.84,0,0,0,.32-1.77,4,4,0,0,0-1.24-3.13,5.41,5.41,0,0,0-3.72-1.12h-3.36Z" transform="translate(-202.19 -259.08)"/><path class="cls-16" d="M2857.94,664.26V673h-2.82V652.07H2861a12.82,12.82,0,0,1,3.43.4,6.5,6.5,0,0,1,2.39,1.16,4.66,4.66,0,0,1,1.39,1.83,6.43,6.43,0,0,1,.11,4.48,5.69,5.69,0,0,1-1,1.73,6,6,0,0,1-1.62,1.3,7.89,7.89,0,0,1-2.17.82,3,3,0,0,1,.94.89l6.1,8.31h-2.51a1.23,1.23,0,0,1-1.14-.6l-5.43-7.48a1.67,1.67,0,0,0-.54-.5,2,2,0,0,0-.88-.15Zm0-2.06h3a7.13,7.13,0,0,0,2.18-.3,4.34,4.34,0,0,0,1.58-.85,3.61,3.61,0,0,0,1-1.3,4.37,4.37,0,0,0,.32-1.68,3.31,3.31,0,0,0-1.24-2.82,6,6,0,0,0-3.67-1h-3.09Z" transform="translate(-202.19 -259.08)"/><path class="cls-16" d="M2886.52,652.07v2.3h-10v7h8.13v2.22h-8.13v7.14h10V673h-12.89V652.07Z" transform="translate(-202.19 -259.08)"/><path class="cls-16" d="M2888.17,652.07h2.26a.94.94,0,0,1,.62.19,1.15,1.15,0,0,1,.35.48l5.91,14.76a9.08,9.08,0,0,1,.37,1.08c.11.39.22.79.33,1.21.09-.42.18-.82.28-1.21a11.38,11.38,0,0,1,.36-1.08l5.89-14.76a1.13,1.13,0,0,1,.34-.46,1,1,0,0,1,.62-.21h2.28L2899.25,673h-2.55Z" transform="translate(-202.19 -259.08)"/><path class="cls-16" d="M2923.34,652.07v2.3h-10.05v7h8.14v2.22h-8.14v7.14h10.05V673h-12.89V652.07Z" transform="translate(-202.19 -259.08)"/><path class="cls-16" d="M2929.43,652.16a1.58,1.58,0,0,1,.42.39L2942,668.32c0-.26,0-.5-.06-.74s0-.47,0-.7V652.07h2.49V673h-1.44a1.19,1.19,0,0,1-.56-.12,1.42,1.42,0,0,1-.44-.39l-12.11-15.76c0,.25,0,.49.05.72s0,.45,0,.64V673h-2.48V652.07h1.46A1.33,1.33,0,0,1,2929.43,652.16Z" transform="translate(-202.19 -259.08)"/><path class="cls-16" d="M2963.73,652.07v2.38H2957V673h-2.83V654.45h-6.79v-2.38Z" transform="translate(-202.19 -259.08)"/><path class="cls-16" d="M2970.07,673h-2.83V652.07h2.83Z" transform="translate(-202.19 -259.08)"/><path class="cls-16" d="M2995.1,662.54a12,12,0,0,1-.74,4.31,10.06,10.06,0,0,1-2.1,3.38,9.5,9.5,0,0,1-3.27,2.19,11.59,11.59,0,0,1-8.41,0,9.46,9.46,0,0,1-3.26-2.19,10.06,10.06,0,0,1-2.1-3.38,13,13,0,0,1,0-8.63,10.1,10.1,0,0,1,2.1-3.39,9.51,9.51,0,0,1,3.26-2.21,11.59,11.59,0,0,1,8.41,0,9.55,9.55,0,0,1,3.27,2.21,10.1,10.1,0,0,1,2.1,3.39A12,12,0,0,1,2995.1,662.54Zm-2.9,0a10.61,10.61,0,0,0-.53-3.46,7.21,7.21,0,0,0-1.49-2.6,6.52,6.52,0,0,0-2.33-1.62,8.5,8.5,0,0,0-6.12,0,6.64,6.64,0,0,0-2.34,1.62,7.23,7.23,0,0,0-1.5,2.6,11.74,11.74,0,0,0,0,6.91,7.22,7.22,0,0,0,1.5,2.58,6.4,6.4,0,0,0,2.34,1.62,8.64,8.64,0,0,0,6.12,0,6.28,6.28,0,0,0,2.33-1.62,7.2,7.2,0,0,0,1.49-2.58A10.59,10.59,0,0,0,2992.2,662.54Z" transform="translate(-202.19 -259.08)"/><path class="cls-16" d="M3001,652.16a1.45,1.45,0,0,1,.42.39l12.12,15.77c0-.26-.05-.5-.06-.74s0-.47,0-.7V652.07h2.49V673h-1.43a1.2,1.2,0,0,1-.57-.12,1.42,1.42,0,0,1-.44-.39l-12.1-15.76c0,.25,0,.49,0,.72s0,.45,0,.64V673H2999V652.07h1.46A1.29,1.29,0,0,1,3001,652.16Z" transform="translate(-202.19 -259.08)"/><path class="cls-16" d="M2908.11,904.06v7.83h-2.81V891h6.17a11.44,11.44,0,0,1,3.45.46,6.56,6.56,0,0,1,2.43,1.3,5.17,5.17,0,0,1,1.44,2,7.13,7.13,0,0,1,.48,2.67,6.83,6.83,0,0,1-.51,2.67,5.75,5.75,0,0,1-1.5,2.09,6.9,6.9,0,0,1-2.45,1.36,10.35,10.35,0,0,1-3.34.49Zm0-2.25h3.36a6.38,6.38,0,0,0,2.14-.32,4.27,4.27,0,0,0,1.55-.89,3.75,3.75,0,0,0,1-1.38,4.64,4.64,0,0,0,.32-1.77,4,4,0,0,0-1.23-3.12,5.38,5.38,0,0,0-3.73-1.13h-3.36Z" transform="translate(-202.19 -259.08)"/><path class="cls-16" d="M2926,903.16v8.73h-2.82V891h5.92a12.82,12.82,0,0,1,3.43.4,6.58,6.58,0,0,1,2.39,1.16,4.75,4.75,0,0,1,1.39,1.83,6.18,6.18,0,0,1,.45,2.4,5.94,5.94,0,0,1-.35,2.08,5.46,5.46,0,0,1-1,1.73,6.3,6.3,0,0,1-1.62,1.3,7.89,7.89,0,0,1-2.17.82,2.9,2.9,0,0,1,.93.89l6.11,8.31h-2.52a1.23,1.23,0,0,1-1.13-.6l-5.43-7.48a1.6,1.6,0,0,0-.55-.5,1.94,1.94,0,0,0-.87-.15Zm0-2.06h3a7.23,7.23,0,0,0,2.18-.3,4.43,4.43,0,0,0,1.58-.85,3.47,3.47,0,0,0,1-1.3A4.19,4.19,0,0,0,2934,897a3.33,3.33,0,0,0-1.23-2.82,6,6,0,0,0-3.67-.95H2926Z" transform="translate(-202.19 -259.08)"/><path class="cls-16" d="M2954.54,891v2.3h-10.05v7h8.13v2.22h-8.13v7.14h10.05v2.31h-12.89V891Z" transform="translate(-202.19 -259.08)"/><path class="cls-16" d="M2976.74,901.44a11.88,11.88,0,0,1-.74,4.27,9.32,9.32,0,0,1-5.36,5.43,11.37,11.37,0,0,1-4.2.75h-7.83V891h7.83a11.37,11.37,0,0,1,4.2.75,9.28,9.28,0,0,1,3.25,2.13,9.53,9.53,0,0,1,2.11,3.31A11.9,11.9,0,0,1,2976.74,901.44Zm-2.9,0a10.5,10.5,0,0,0-.53-3.45,7.31,7.31,0,0,0-1.49-2.57,6.37,6.37,0,0,0-2.33-1.61,8.12,8.12,0,0,0-3-.55h-5V909.6h5a8.12,8.12,0,0,0,3-.56,6.35,6.35,0,0,0,2.33-1.6,7.17,7.17,0,0,0,1.49-2.56A10.48,10.48,0,0,0,2973.84,901.44Z" transform="translate(-202.19 -259.08)"/><path class="cls-16" d="M2984,911.89h-2.83V891H2984Z" transform="translate(-202.19 -259.08)"/><path class="cls-16" d="M3004.3,907.57a.59.59,0,0,1,.43.19l1.11,1.21a9.1,9.1,0,0,1-3.12,2.32,10.7,10.7,0,0,1-4.42.83,10.41,10.41,0,0,1-4.1-.78,9,9,0,0,1-3.14-2.19,9.92,9.92,0,0,1-2-3.38,12.53,12.53,0,0,1-.72-4.33,11.88,11.88,0,0,1,.77-4.34,10.06,10.06,0,0,1,2.15-3.39,9.71,9.71,0,0,1,3.32-2.19,11.35,11.35,0,0,1,4.27-.79,9.56,9.56,0,0,1,6.95,2.66l-.92,1.3a.88.88,0,0,1-.23.24.61.61,0,0,1-.38.1.75.75,0,0,1-.4-.14l-.51-.35c-.19-.13-.42-.28-.68-.43a5.16,5.16,0,0,0-.94-.44,7,7,0,0,0-1.25-.34,8.19,8.19,0,0,0-1.65-.14,8,8,0,0,0-3.07.57,7.09,7.09,0,0,0-2.41,1.65,7.38,7.38,0,0,0-1.56,2.59,10.79,10.79,0,0,0,0,6.92,7.58,7.58,0,0,0,1.53,2.6,6.43,6.43,0,0,0,2.3,1.61,7.32,7.32,0,0,0,2.86.55,10.77,10.77,0,0,0,1.68-.11,6.63,6.63,0,0,0,1.38-.34,5.66,5.66,0,0,0,1.18-.59,9.9,9.9,0,0,0,1.1-.85A.74.74,0,0,1,3004.3,907.57Z" transform="translate(-202.19 -259.08)"/><path class="cls-16" d="M3023.81,891v2.38h-6.76v18.54h-2.84V893.35h-6.78V891Z" transform="translate(-202.19 -259.08)"/><path class="cls-16" d="M3030.14,911.89h-2.83V891h2.83Z" transform="translate(-202.19 -259.08)"/><path class="cls-16" d="M3055.18,901.44a12,12,0,0,1-.75,4.31,9.75,9.75,0,0,1-2.1,3.38,9.53,9.53,0,0,1-3.26,2.2,11.75,11.75,0,0,1-8.42,0,9.58,9.58,0,0,1-3.25-2.2,9.93,9.93,0,0,1-2.11-3.38,13,13,0,0,1,0-8.63,10,10,0,0,1,2.11-3.39,9.61,9.61,0,0,1,3.25-2.21,11.61,11.61,0,0,1,8.42,0,9.55,9.55,0,0,1,3.26,2.21,9.8,9.8,0,0,1,2.1,3.39A12,12,0,0,1,3055.18,901.44Zm-2.91,0a10.62,10.62,0,0,0-.52-3.46,7.36,7.36,0,0,0-1.49-2.6,6.47,6.47,0,0,0-2.34-1.62,8.47,8.47,0,0,0-6.11,0,6.59,6.59,0,0,0-2.35,1.62A7.36,7.36,0,0,0,3038,898a11.53,11.53,0,0,0,0,6.91,7.35,7.35,0,0,0,1.49,2.58,6.35,6.35,0,0,0,2.35,1.62,8.61,8.61,0,0,0,6.11,0,6.23,6.23,0,0,0,2.34-1.62,7.35,7.35,0,0,0,1.49-2.58A10.6,10.6,0,0,0,3052.27,901.44Z" transform="translate(-202.19 -259.08)"/><path class="cls-16" d="M3061.07,891.06a1.43,1.43,0,0,1,.41.39l12.12,15.77c0-.26,0-.5-.06-.74s0-.47,0-.69V891H3076v20.92h-1.43a1.19,1.19,0,0,1-.56-.12,1.57,1.57,0,0,1-.45-.39l-12.1-15.76c0,.25,0,.49,0,.72s0,.45,0,.64v14.91h-2.48V891h1.46A1.33,1.33,0,0,1,3061.07,891.06Z" transform="translate(-202.19 -259.08)"/><path class="cls-16" d="M2882.05,1127.84c.11.26.2.52.3.78.1-.27.2-.53.31-.78s.23-.5.36-.75l7.08-12.86a.83.83,0,0,1,.4-.41,1.71,1.71,0,0,1,.58-.08h2.09v20.92h-2.48v-15.37c0-.2,0-.42,0-.66s0-.47.05-.71l-7.17,13.08a1.13,1.13,0,0,1-1,.66h-.41a1.12,1.12,0,0,1-1-.66l-7.33-13.12c0,.25,0,.5.06.74s0,.47,0,.67v15.37h-2.48v-20.92h2.09a1.82,1.82,0,0,1,.59.08.86.86,0,0,1,.39.41l7.23,12.87A6.27,6.27,0,0,1,2882.05,1127.84Z" transform="translate(-202.19 -259.08)"/><path class="cls-16" d="M2915.48,1134.66h-2.19a.94.94,0,0,1-.62-.19,1.15,1.15,0,0,1-.35-.48l-2-5H2901l-2,5a1,1,0,0,1-.35.47.9.9,0,0,1-.61.2h-2.19l8.37-20.92h2.87Zm-13.71-7.76h7.81l-3.29-8.51a16.7,16.7,0,0,1-.62-2c-.11.39-.21.76-.32,1.1s-.2.63-.3.88Z" transform="translate(-202.19 -259.08)"/><path class="cls-16" d="M2920.14,1113.84a1.43,1.43,0,0,1,.42.39l12.11,15.76a6.27,6.27,0,0,1-.05-.74c0-.23,0-.46,0-.69v-14.82h2.48v20.92h-1.43a1.33,1.33,0,0,1-.56-.11,1.47,1.47,0,0,1-.45-.4l-12.1-15.75c0,.24,0,.48.05.72s0,.44,0,.64v14.9h-2.48v-20.92h1.46A1.3,1.3,0,0,1,2920.14,1113.84Z" transform="translate(-202.19 -259.08)"/><path class="cls-16" d="M2957.4,1134.66h-2.19a.93.93,0,0,1-.61-.19,1.15,1.15,0,0,1-.35-.48l-2-5h-9.38l-2,5a1.12,1.12,0,0,1-.35.47.9.9,0,0,1-.61.2h-2.19l8.36-20.92H2949Zm-13.7-7.76h7.81l-3.29-8.51a18.6,18.6,0,0,1-.63-2c-.1.39-.21.76-.31,1.1s-.2.63-.3.88Z" transform="translate(-202.19 -259.08)"/><path class="cls-16" d="M2968.76,1132.61a14.9,14.9,0,0,0,1.56-.08,10.46,10.46,0,0,0,1.33-.25,8.15,8.15,0,0,0,1.18-.38c.37-.15.74-.33,1.11-.52v-4.61h-3.24a.64.64,0,0,1-.44-.16.54.54,0,0,1-.17-.4v-1.6h6.42v8a11.06,11.06,0,0,1-1.64,1,11.66,11.66,0,0,1-1.82.71,13,13,0,0,1-2.08.42,20.06,20.06,0,0,1-2.41.14,10.92,10.92,0,0,1-4.18-.78,9.69,9.69,0,0,1-3.27-2.19,10.05,10.05,0,0,1-2.14-3.38,11.92,11.92,0,0,1-.76-4.34,12.17,12.17,0,0,1,.75-4.36,9.52,9.52,0,0,1,2.14-3.38,9.68,9.68,0,0,1,3.38-2.19,12.14,12.14,0,0,1,4.43-.77,13.85,13.85,0,0,1,2.3.18,10.62,10.62,0,0,1,2,.53,9.15,9.15,0,0,1,1.69.83,10.34,10.34,0,0,1,1.44,1.1l-.8,1.29a.73.73,0,0,1-.64.39,1,1,0,0,1-.51-.16,9.09,9.09,0,0,1-.82-.5,7.46,7.46,0,0,0-1.1-.56,9.46,9.46,0,0,0-1.54-.46,10.42,10.42,0,0,0-2.09-.19,8.6,8.6,0,0,0-3.2.58,6.76,6.76,0,0,0-2.44,1.65,7.33,7.33,0,0,0-1.54,2.6,11.28,11.28,0,0,0,0,7,7.41,7.41,0,0,0,1.58,2.64,6.81,6.81,0,0,0,2.43,1.65A8.1,8.1,0,0,0,2968.76,1132.61Z" transform="translate(-202.19 -259.08)"/><path class="cls-16" d="M2993.75,1113.74v2.31h-10v7h8.13v2.22h-8.13v7.14h10v2.3h-12.89v-20.92Z" transform="translate(-202.19 -259.08)"/><path class="cls-16" d="M3008.48,1127.84l.3.78q.13-.4.3-.78c.11-.25.23-.5.37-.75l7.08-12.86a.82.82,0,0,1,.39-.41,1.78,1.78,0,0,1,.59-.08h2.08v20.92h-2.48v-15.37c0-.2,0-.42,0-.66s0-.47,0-.71L3010,1131a1.12,1.12,0,0,1-1,.66h-.41a1.12,1.12,0,0,1-1-.66l-7.33-13.12c0,.25.05.5.07.74s0,.47,0,.67v15.37h-2.48v-20.92h2.08a1.78,1.78,0,0,1,.59.08.82.82,0,0,1,.39.41l7.23,12.87A6.32,6.32,0,0,1,3008.48,1127.84Z" transform="translate(-202.19 -259.08)"/><path class="cls-16" d="M3037.58,1113.74v2.31h-10v7h8.13v2.22h-8.13v7.14h10v2.3h-12.89v-20.92Z" transform="translate(-202.19 -259.08)"/><path class="cls-16" d="M3043.67,1113.84a1.43,1.43,0,0,1,.42.39l12.12,15.76c0-.25-.05-.5-.06-.74s0-.46,0-.69v-14.82h2.49v20.92h-1.43a1.09,1.09,0,0,1-1-.51l-12.1-15.75c0,.24,0,.48,0,.72s0,.44,0,.64v14.9h-2.48v-20.92h1.46A1.27,1.27,0,0,1,3043.67,1113.84Z" transform="translate(-202.19 -259.08)"/><path class="cls-16" d="M3078,1113.74v2.38h-6.76v18.54h-2.83v-18.54h-6.79v-2.38Z" transform="translate(-202.19 -259.08)"/><path class="cls-16" d="M420.07,1104.18a.58.58,0,0,1,.42.19l1.11,1.21a8.89,8.89,0,0,1-3.12,2.32,10.52,10.52,0,0,1-4.41.83,10.37,10.37,0,0,1-4.1-.78,8.89,8.89,0,0,1-3.14-2.19,9.85,9.85,0,0,1-2-3.38,12.77,12.77,0,0,1-.71-4.33,11.92,11.92,0,0,1,.76-4.34,9.8,9.8,0,0,1,2.16-3.38,9.5,9.5,0,0,1,3.32-2.2,11.31,11.31,0,0,1,4.27-.78,10.22,10.22,0,0,1,4,.71,10.37,10.37,0,0,1,3,1.94l-.92,1.3a.91.91,0,0,1-.24.24.58.58,0,0,1-.38.1.77.77,0,0,1-.4-.14l-.5-.34c-.2-.14-.42-.28-.69-.44a5.79,5.79,0,0,0-.93-.44,8.11,8.11,0,0,0-1.26-.34,8.83,8.83,0,0,0-1.65-.14,7.85,7.85,0,0,0-3.07.58,6.8,6.8,0,0,0-2.4,1.64,7.45,7.45,0,0,0-1.57,2.6,9.76,9.76,0,0,0-.56,3.43,10,10,0,0,0,.56,3.49,7.63,7.63,0,0,0,1.53,2.59,6.61,6.61,0,0,0,2.3,1.61,7.37,7.37,0,0,0,2.86.56,11.93,11.93,0,0,0,1.68-.11,7,7,0,0,0,1.38-.35,5.43,5.43,0,0,0,1.18-.59,9.12,9.12,0,0,0,1.11-.85A.7.7,0,0,1,420.07,1104.18Z" transform="translate(-202.19 -259.08)"/><path class="cls-16" d="M428.16,1106.12h9v2.38H425.32v-20.92h2.84Z" transform="translate(-202.19 -259.08)"/><path class="cls-16" d="M443.69,1108.5h-2.83v-20.92h2.83Z" transform="translate(-202.19 -259.08)"/><path class="cls-16" d="M451.32,1087.68a1.37,1.37,0,0,1,.41.38l12.12,15.77c0-.25-.05-.5-.06-.74s0-.47,0-.69v-14.82h2.48v20.92h-1.43a1.2,1.2,0,0,1-.57-.12,1.4,1.4,0,0,1-.44-.39l-12.1-15.75c0,.24,0,.48,0,.71s0,.45,0,.65v14.9h-2.49v-20.92h1.46A1.21,1.21,0,0,1,451.32,1087.68Z" transform="translate(-202.19 -259.08)"/><path class="cls-16" d="M474.72,1108.5h-2.83v-20.92h2.83Z" transform="translate(-202.19 -259.08)"/><path class="cls-16" d="M495.07,1104.18a.59.59,0,0,1,.43.19l1.11,1.21a9,9,0,0,1-3.12,2.32,11.67,11.67,0,0,1-8.52,0,9.07,9.07,0,0,1-3.14-2.19,10,10,0,0,1-2-3.38,12.53,12.53,0,0,1-.72-4.33,11.92,11.92,0,0,1,.77-4.34,9.92,9.92,0,0,1,2.15-3.38,9.59,9.59,0,0,1,3.32-2.2,11.35,11.35,0,0,1,4.27-.78,9.5,9.5,0,0,1,6.95,2.65l-.92,1.3a.76.76,0,0,1-.23.24.59.59,0,0,1-.38.1.75.75,0,0,1-.4-.14l-.5-.34c-.2-.14-.43-.28-.69-.44a5.53,5.53,0,0,0-.94-.44,7.67,7.67,0,0,0-1.25-.34,9,9,0,0,0-1.65-.14,7.85,7.85,0,0,0-3.07.58,6.8,6.8,0,0,0-2.4,1.64,7.3,7.3,0,0,0-1.57,2.6,9.75,9.75,0,0,0-.57,3.43,10,10,0,0,0,.57,3.49,7.63,7.63,0,0,0,1.53,2.59,6.52,6.52,0,0,0,2.3,1.61,7.33,7.33,0,0,0,2.86.56,12.14,12.14,0,0,0,1.68-.11,7.33,7.33,0,0,0,1.38-.35,5.43,5.43,0,0,0,1.18-.59,9.05,9.05,0,0,0,1.1-.85A.74.74,0,0,1,495.07,1104.18Z" transform="translate(-202.19 -259.08)"/><path class="cls-16" d="M517.54,1108.5h-2.19a.91.91,0,0,1-.61-.19,1.2,1.2,0,0,1-.35-.48l-2-5h-9.38l-2,5a1.29,1.29,0,0,1-.35.47,1,1,0,0,1-.61.2h-2.19l8.36-20.92h2.88Zm-13.71-7.77h7.81l-3.28-8.51a17.2,17.2,0,0,1-.63-2c-.11.4-.21.77-.31,1.1s-.2.64-.3.89Z" transform="translate(-202.19 -259.08)"/><path class="cls-16" d="M523,1106.12h9.05v2.38H520.18v-20.92H523Z" transform="translate(-202.19 -259.08)"/><path class="cls-16" d="M399.24,1134.81v8.73h-2.82v-20.92h5.91a12.82,12.82,0,0,1,3.43.4,6.58,6.58,0,0,1,2.39,1.16,4.66,4.66,0,0,1,1.39,1.83,6.18,6.18,0,0,1,.45,2.4,5.94,5.94,0,0,1-.35,2.08,5.46,5.46,0,0,1-1,1.73,6,6,0,0,1-1.62,1.3,7.89,7.89,0,0,1-2.17.82,3,3,0,0,1,.94.89l6.1,8.31h-2.51a1.23,1.23,0,0,1-1.14-.6l-5.43-7.48a1.67,1.67,0,0,0-.54-.5,2,2,0,0,0-.88-.15Zm0-2.06h3a7.18,7.18,0,0,0,2.18-.3,4.43,4.43,0,0,0,1.58-.85,3.47,3.47,0,0,0,1-1.3,4.2,4.2,0,0,0,.33-1.68,3.34,3.34,0,0,0-1.24-2.82,6,6,0,0,0-3.67-1h-3.09Z" transform="translate(-202.19 -259.08)"/><path class="cls-16" d="M427.82,1122.62v2.3h-10v6.95h8.13v2.22h-8.13v7.14h10v2.31H414.93v-20.92Z" transform="translate(-202.19 -259.08)"/><path class="cls-16" d="M442.61,1125.89a1.35,1.35,0,0,1-.28.33.63.63,0,0,1-.38.11,1.08,1.08,0,0,1-.58-.25,8,8,0,0,0-.83-.55,6.9,6.9,0,0,0-1.21-.55,5.36,5.36,0,0,0-1.72-.24,5,5,0,0,0-1.67.25,3.51,3.51,0,0,0-1.22.69,3,3,0,0,0-.74,1,3.21,3.21,0,0,0-.25,1.28,2.4,2.4,0,0,0,.43,1.45,3.68,3.68,0,0,0,1.14,1,8.87,8.87,0,0,0,1.61.71l1.84.62c.62.21,1.24.45,1.84.72a6.89,6.89,0,0,1,1.6,1,4.67,4.67,0,0,1,1.14,1.51,4.94,4.94,0,0,1,.43,2.19,7.07,7.07,0,0,1-.47,2.57,5.82,5.82,0,0,1-1.36,2.1,6.48,6.48,0,0,1-2.21,1.4,8.11,8.11,0,0,1-3,.51,9,9,0,0,1-3.7-.74,8.65,8.65,0,0,1-2.85-2l.82-1.34a.9.9,0,0,1,.28-.27.7.7,0,0,1,.37-.11,1.14,1.14,0,0,1,.7.33,11.26,11.26,0,0,0,1,.72,7.61,7.61,0,0,0,1.43.72,5.61,5.61,0,0,0,2,.33,5.31,5.31,0,0,0,1.8-.28,3.66,3.66,0,0,0,1.33-.78,3.18,3.18,0,0,0,.84-1.2,3.94,3.94,0,0,0,.29-1.56,2.61,2.61,0,0,0-.43-1.56,3.46,3.46,0,0,0-1.13-1,7.57,7.57,0,0,0-1.6-.7l-1.84-.58c-.62-.2-1.24-.43-1.84-.69a6.12,6.12,0,0,1-1.59-1,4.61,4.61,0,0,1-1.14-1.57,6,6,0,0,1,0-4.47,5.72,5.72,0,0,1,1.25-1.84,6.18,6.18,0,0,1,2-1.28,7.28,7.28,0,0,1,2.77-.49,8.88,8.88,0,0,1,3.2.56,7.37,7.37,0,0,1,2.52,1.6Z" transform="translate(-202.19 -259.08)"/><path class="cls-16" d="M460.26,1122.62v2.3H450.21v6.95h8.13v2.22h-8.13v7.14h10.05v2.31H447.37v-20.92Z" transform="translate(-202.19 -259.08)"/><path class="cls-16" d="M481.54,1143.54h-2.19a1,1,0,0,1-.61-.19,1.2,1.2,0,0,1-.35-.48l-2-5h-9.38l-2,5a1.18,1.18,0,0,1-.35.46.92.92,0,0,1-.61.21h-2.19l8.36-20.92h2.88Zm-13.71-7.77h7.81l-3.28-8.51a17.2,17.2,0,0,1-.63-2c-.11.4-.21.77-.31,1.1s-.2.63-.3.89Z" transform="translate(-202.19 -259.08)"/><path class="cls-16" d="M487.29,1134.81v8.73h-2.81v-20.92h5.91a12.82,12.82,0,0,1,3.43.4,6.58,6.58,0,0,1,2.39,1.16,4.75,4.75,0,0,1,1.39,1.83,6.18,6.18,0,0,1,.45,2.4,5.94,5.94,0,0,1-.35,2.08,5.46,5.46,0,0,1-1,1.73,6.3,6.3,0,0,1-1.62,1.3,7.89,7.89,0,0,1-2.17.82,2.9,2.9,0,0,1,.93.89l6.11,8.31h-2.52a1.23,1.23,0,0,1-1.13-.6l-5.43-7.48a1.67,1.67,0,0,0-.54-.5,2,2,0,0,0-.88-.15Zm0-2.06h3a7.23,7.23,0,0,0,2.18-.3,4.43,4.43,0,0,0,1.58-.85,3.47,3.47,0,0,0,1-1.3,4.19,4.19,0,0,0,.32-1.68,3.33,3.33,0,0,0-1.23-2.82,6,6,0,0,0-3.67-1h-3.1Z" transform="translate(-202.19 -259.08)"/><path class="cls-16" d="M517.06,1139.22a.55.55,0,0,1,.42.19l1.11,1.21a9,9,0,0,1-3.11,2.32,10.76,10.76,0,0,1-4.42.83,10.37,10.37,0,0,1-4.1-.78,9,9,0,0,1-3.14-2.19,9.85,9.85,0,0,1-2-3.38,12.77,12.77,0,0,1-.71-4.33,11.68,11.68,0,0,1,.77-4.34,9.91,9.91,0,0,1,2.15-3.39,9.61,9.61,0,0,1,3.32-2.19,11.31,11.31,0,0,1,4.27-.79,10,10,0,0,1,4,.72,10.16,10.16,0,0,1,3,1.94l-.92,1.3a1.06,1.06,0,0,1-.23.24.61.61,0,0,1-.38.1.75.75,0,0,1-.4-.14l-.51-.34a6.43,6.43,0,0,0-.69-.44,5.79,5.79,0,0,0-.93-.44,7.25,7.25,0,0,0-1.25-.34,8.19,8.19,0,0,0-1.65-.14,8.08,8.08,0,0,0-3.08.57,7,7,0,0,0-2.4,1.65,7.55,7.55,0,0,0-1.57,2.59,11,11,0,0,0,0,6.92,7.91,7.91,0,0,0,1.53,2.6,6.61,6.61,0,0,0,2.3,1.61,7.37,7.37,0,0,0,2.87.55,10.55,10.55,0,0,0,1.67-.11,6.34,6.34,0,0,0,1.38-.34,5.5,5.5,0,0,0,1.19-.59,9.9,9.9,0,0,0,1.1-.85A.7.7,0,0,1,517.06,1139.22Z" transform="translate(-202.19 -259.08)"/><path class="cls-16" d="M539.28,1143.54h-2.85V1134H525.16v9.52h-2.84v-20.92h2.84V1132h11.27v-9.33h2.85Z" transform="translate(-202.19 -259.08)"/><path class="cls-17" d="M1595.25,462.71h-5.45V439.37h5.45Z" transform="translate(-202.19 -259.08)"/><path class="cls-17" d="M1603,439.4a1.39,1.39,0,0,1,.8.37,4.44,4.44,0,0,1,.4.43l11.09,14c0-.45-.08-.88-.1-1.3s0-.82,0-1.2V439.37H1620v23.34h-2.82a2.58,2.58,0,0,1-1.06-.19,2.21,2.21,0,0,1-.83-.7l-11-13.91c0,.41.06.8.08,1.19s0,.76,0,1.1v12.51h-4.78V439.37h2.86A4.91,4.91,0,0,1,1603,439.4Z" transform="translate(-202.19 -259.08)"/><path class="cls-17" d="M1640.75,439.37v4.29h-6.57v19h-5.41v-19h-6.57v-4.29Z" transform="translate(-202.19 -259.08)"/><path class="cls-17" d="M1658,439.37v4.17h-9.59V449h7.34v4h-7.34v5.56H1658v4.16h-15V439.37Z" transform="translate(-202.19 -259.08)"/><path class="cls-17" d="M1672.09,458.81a9.15,9.15,0,0,0,3.62-.71v-3.54h-2.3a1.12,1.12,0,0,1-.8-.27.88.88,0,0,1-.29-.69v-3h8.3v9.85a11.63,11.63,0,0,1-1.87,1.13,11.35,11.35,0,0,1-2.07.78,16.18,16.18,0,0,1-2.34.45,24.44,24.44,0,0,1-2.66.14,12.36,12.36,0,0,1-4.75-.9,11.37,11.37,0,0,1-6.27-6.28,12.41,12.41,0,0,1-.9-4.76,12.8,12.8,0,0,1,.86-4.79,10.81,10.81,0,0,1,2.48-3.78A11.21,11.21,0,0,1,1667,440a14.21,14.21,0,0,1,5.1-.88,14.79,14.79,0,0,1,2.74.24,13.19,13.19,0,0,1,2.37.66,11.44,11.44,0,0,1,2,1,12.15,12.15,0,0,1,1.6,1.25l-1.57,2.39a1.7,1.7,0,0,1-.54.53,1.25,1.25,0,0,1-.68.19,1.81,1.81,0,0,1-1-.32c-.43-.25-.83-.48-1.21-.66a7.28,7.28,0,0,0-1.17-.46,8,8,0,0,0-1.24-.26,13.08,13.08,0,0,0-1.48-.08,6.7,6.7,0,0,0-2.74.54,5.89,5.89,0,0,0-2.07,1.51,6.85,6.85,0,0,0-1.33,2.35,9.76,9.76,0,0,0-.46,3,10,10,0,0,0,.51,3.31,7.09,7.09,0,0,0,1.42,2.43,6.06,6.06,0,0,0,2.15,1.52A7.07,7.07,0,0,0,1672.09,458.81Z" transform="translate(-202.19 -259.08)"/><path class="cls-17" d="M1689.33,454.08v8.63h-5.41V439.37h7.59a15.48,15.48,0,0,1,4.32.52,8.23,8.23,0,0,1,2.92,1.45,5.47,5.47,0,0,1,1.64,2.2,7.27,7.27,0,0,1,.51,2.75,7.5,7.5,0,0,1-.3,2.15,6.62,6.62,0,0,1-.91,1.87,7.09,7.09,0,0,1-1.47,1.53,8.06,8.06,0,0,1-2,1.1,5.61,5.61,0,0,1,1,.67,4.15,4.15,0,0,1,.82,1l5,8.12h-4.9a2.08,2.08,0,0,1-2-1l-3.88-6.78a1.63,1.63,0,0,0-.6-.64,2,2,0,0,0-1-.19Zm0-3.73h2.18a5.79,5.79,0,0,0,1.89-.28,3.5,3.5,0,0,0,1.27-.78,3,3,0,0,0,.72-1.16,4.48,4.48,0,0,0,.23-1.44,3,3,0,0,0-1-2.4,4.63,4.63,0,0,0-3.1-.87h-2.18Z" transform="translate(-202.19 -259.08)"/><path class="cls-17" d="M1727,462.71h-4.2a1.92,1.92,0,0,1-1.16-.32,1.7,1.7,0,0,1-.64-.84l-1.38-4.07h-8.87l-1.38,4.07a1.84,1.84,0,0,1-.62.8,1.81,1.81,0,0,1-1.14.36h-4.23l9-23.34h5.54Zm-15-8.92h6.38l-2.15-6.39-.49-1.44c-.19-.55-.37-1.14-.55-1.78-.17.65-.35,1.25-.53,1.81s-.35,1-.51,1.44Z" transform="translate(-202.19 -259.08)"/><path class="cls-17" d="M1743.24,439.37v4.29h-6.57v19h-5.42v-19h-6.57v-4.29Z" transform="translate(-202.19 -259.08)"/><path class="cls-17" d="M1751.41,462.71H1746V439.37h5.45Z" transform="translate(-202.19 -259.08)"/><path class="cls-17" d="M1778.77,451a12.66,12.66,0,0,1-.87,4.72,11.2,11.2,0,0,1-6.28,6.31,14,14,0,0,1-9.93,0,11.28,11.28,0,0,1-3.83-2.53,11.11,11.11,0,0,1-2.47-3.78,13.21,13.21,0,0,1,0-9.43,11.11,11.11,0,0,1,2.47-3.78,11.38,11.38,0,0,1,3.83-2.51,13.86,13.86,0,0,1,9.93,0,11.53,11.53,0,0,1,3.82,2.53,11.24,11.24,0,0,1,2.46,3.78A12.54,12.54,0,0,1,1778.77,451Zm-5.54,0a10,10,0,0,0-.45-3.11,6.58,6.58,0,0,0-1.29-2.35,5.55,5.55,0,0,0-2.06-1.47,6.91,6.91,0,0,0-2.77-.52,7.06,7.06,0,0,0-2.8.52,5.55,5.55,0,0,0-2.06,1.47,6.58,6.58,0,0,0-1.29,2.35,10,10,0,0,0-.45,3.11,10.17,10.17,0,0,0,.45,3.14,6.62,6.62,0,0,0,1.29,2.34,5.44,5.44,0,0,0,2.06,1.47,7.24,7.24,0,0,0,2.8.51,7.09,7.09,0,0,0,2.77-.51,5.44,5.44,0,0,0,2.06-1.47,6.62,6.62,0,0,0,1.29-2.34A10.17,10.17,0,0,0,1773.23,451Z" transform="translate(-202.19 -259.08)"/><path class="cls-17" d="M1784.81,439.4a1.5,1.5,0,0,1,.44.12,1.42,1.42,0,0,1,.37.25c.11.11.25.25.4.43l11.08,14c0-.45-.07-.88-.09-1.3s0-.82,0-1.2V439.37h4.77v23.34h-2.82a2.58,2.58,0,0,1-1.06-.19,2.28,2.28,0,0,1-.83-.7l-11-13.91c0,.41.06.8.08,1.19s0,.76,0,1.1v12.51h-4.77V439.37h2.85A4.8,4.8,0,0,1,1784.81,439.4Z" transform="translate(-202.19 -259.08)"/><path class="cls-17" d="M1636.88,482.57a1.93,1.93,0,0,1-.51.57,1.1,1.1,0,0,1-.68.2,1.59,1.59,0,0,1-.79-.24c-.29-.15-.61-.32-1-.52a8.92,8.92,0,0,0-1.23-.52,5,5,0,0,0-1.57-.23,3.4,3.4,0,0,0-2.27.65,2.22,2.22,0,0,0-.74,1.75,1.61,1.61,0,0,0,.45,1.17,4,4,0,0,0,1.17.81,13.8,13.8,0,0,0,1.67.61c.62.19,1.26.4,1.91.63a17,17,0,0,1,1.92.81,6.39,6.39,0,0,1,1.67,1.18,5.64,5.64,0,0,1,1.17,1.76,6.19,6.19,0,0,1,.45,2.49,8,8,0,0,1-.56,3,7,7,0,0,1-1.62,2.46,7.8,7.8,0,0,1-2.63,1.65,9.86,9.86,0,0,1-3.55.6,11.31,11.31,0,0,1-2.22-.23,13.72,13.72,0,0,1-2.19-.63,12.55,12.55,0,0,1-2-1,8.28,8.28,0,0,1-1.62-1.25l1.6-2.53a1.34,1.34,0,0,1,.5-.47,1.47,1.47,0,0,1,.69-.17,1.8,1.8,0,0,1,1,.3l1.11.68a9.94,9.94,0,0,0,1.42.67,5.35,5.35,0,0,0,1.89.3,3.55,3.55,0,0,0,2.29-.65,2.48,2.48,0,0,0,.82-2.06,2,2,0,0,0-.45-1.33,3.4,3.4,0,0,0-1.18-.84,10.32,10.32,0,0,0-1.66-.6c-.62-.17-1.25-.36-1.9-.57a12.11,12.11,0,0,1-1.91-.77,5.91,5.91,0,0,1-1.66-1.2,5.6,5.6,0,0,1-1.18-1.86,7.31,7.31,0,0,1-.45-2.74,6.57,6.57,0,0,1,2.09-4.79,7.5,7.5,0,0,1,2.51-1.57,9.32,9.32,0,0,1,3.42-.58,12,12,0,0,1,2.09.17,10.69,10.69,0,0,1,1.93.49,9.82,9.82,0,0,1,1.7.79,7.61,7.61,0,0,1,1.42,1Z" transform="translate(-202.19 -259.08)"/><path class="cls-17" d="M1656.26,477.83V482h-9.58v5.45H1654v4h-7.34V497h9.58v4.17h-15V477.83Z" transform="translate(-202.19 -259.08)"/><path class="cls-17" d="M1664.76,492.53v8.64h-5.42V477.83h7.59a15.48,15.48,0,0,1,4.32.52,8,8,0,0,1,2.92,1.45,5.44,5.44,0,0,1,1.64,2.19,7.33,7.33,0,0,1,.51,2.76,7.48,7.48,0,0,1-.3,2.14,6.37,6.37,0,0,1-.91,1.87,7.09,7.09,0,0,1-1.47,1.53,7.78,7.78,0,0,1-2,1.11,5.13,5.13,0,0,1,1,.67,4,4,0,0,1,.82,1l5,8.12h-4.9a2.08,2.08,0,0,1-2-1l-3.88-6.77a1.56,1.56,0,0,0-.6-.64,2,2,0,0,0-1-.2Zm0-3.73h2.17a5.54,5.54,0,0,0,1.89-.28,3.5,3.5,0,0,0,1.27-.78,3,3,0,0,0,.72-1.16,4.42,4.42,0,0,0,.23-1.43,3,3,0,0,0-1-2.41,4.73,4.73,0,0,0-3.11-.86h-2.17Z" transform="translate(-202.19 -259.08)"/><path class="cls-17" d="M1678.73,477.83h4.35a1.92,1.92,0,0,1,1.16.32,1.73,1.73,0,0,1,.64.84l4.52,12.5c.2.55.41,1.14.62,1.78s.4,1.31.58,2c.15-.71.32-1.38.52-2s.39-1.23.59-1.78l4.48-12.5a1.87,1.87,0,0,1,.63-.8,1.81,1.81,0,0,1,1.14-.36h4.38L1693,501.17h-4.91Z" transform="translate(-202.19 -259.08)"/><path class="cls-17" d="M1710.2,501.17h-5.45V477.83h5.45Z" transform="translate(-202.19 -259.08)"/><path class="cls-17" d="M1730.21,495.13a1,1,0,0,1,.38.07,1.05,1.05,0,0,1,.37.25l2.15,2.26a9,9,0,0,1-3.53,2.78,12.47,12.47,0,0,1-5,.94,12,12,0,0,1-4.76-.91,10.31,10.31,0,0,1-3.58-2.5,11,11,0,0,1-2.25-3.78,14,14,0,0,1-.78-4.75,12.51,12.51,0,0,1,.89-4.8,11.17,11.17,0,0,1,2.51-3.77,11.32,11.32,0,0,1,3.85-2.47,13.43,13.43,0,0,1,5-.88,13,13,0,0,1,2.47.23,12.51,12.51,0,0,1,2.17.64,9.94,9.94,0,0,1,1.86,1,8.93,8.93,0,0,1,1.51,1.26l-1.83,2.45a2.72,2.72,0,0,1-.42.41,1.09,1.09,0,0,1-.67.18,1.13,1.13,0,0,1-.54-.13,5.3,5.3,0,0,1-.55-.31l-.63-.4a4.82,4.82,0,0,0-.82-.4,6.36,6.36,0,0,0-1.1-.31,7.31,7.31,0,0,0-1.49-.13,6.72,6.72,0,0,0-2.69.52,5.88,5.88,0,0,0-2.09,1.49,6.88,6.88,0,0,0-1.36,2.35,9.11,9.11,0,0,0-.49,3.09,9.5,9.5,0,0,0,.49,3.19,7,7,0,0,0,1.33,2.35,5.79,5.79,0,0,0,2,1.45,5.9,5.9,0,0,0,2.41.49,11.08,11.08,0,0,0,1.34-.07,5.38,5.38,0,0,0,2.12-.7,6.48,6.48,0,0,0,1-.7,1.82,1.82,0,0,1,.41-.27A1.1,1.1,0,0,1,1730.21,495.13Z" transform="translate(-202.19 -259.08)"/><path class="cls-17" d="M1750.61,477.83V482H1741v5.45h7.34v4H1741V497h9.59v4.17h-15V477.83Z" transform="translate(-202.19 -259.08)"/><path class="cls-17" d="M1766.69,482.57a2.06,2.06,0,0,1-.5.57,1.14,1.14,0,0,1-.68.2,1.66,1.66,0,0,1-.8-.24l-1-.52a8.77,8.77,0,0,0-1.22-.52,5.08,5.08,0,0,0-1.57-.23,3.4,3.4,0,0,0-2.27.65,2.2,2.2,0,0,0-.75,1.75,1.61,1.61,0,0,0,.45,1.17,4,4,0,0,0,1.18.81,13.8,13.8,0,0,0,1.67.61c.62.19,1.26.4,1.91.63a17.78,17.78,0,0,1,1.92.81,6.34,6.34,0,0,1,1.66,1.18,5.5,5.5,0,0,1,1.18,1.76,6.19,6.19,0,0,1,.45,2.49,8.2,8.2,0,0,1-.56,3,7.2,7.2,0,0,1-1.63,2.46,7.7,7.7,0,0,1-2.63,1.65,9.82,9.82,0,0,1-3.55.6,11.29,11.29,0,0,1-2.21-.23,13.15,13.15,0,0,1-2.19-.63,12.65,12.65,0,0,1-2-1,8.28,8.28,0,0,1-1.62-1.25l1.61-2.53a1.3,1.3,0,0,1,.49-.47,1.53,1.53,0,0,1,.69-.17,1.86,1.86,0,0,1,1,.3l1.11.68a10.33,10.33,0,0,0,1.41.67,5.43,5.43,0,0,0,1.89.3,3.58,3.58,0,0,0,2.3-.65,2.48,2.48,0,0,0,.81-2.06,2,2,0,0,0-.45-1.33,3.35,3.35,0,0,0-1.17-.84,10.32,10.32,0,0,0-1.66-.6c-.62-.17-1.26-.36-1.91-.57a12,12,0,0,1-1.9-.77,5.64,5.64,0,0,1-1.66-1.2,5.44,5.44,0,0,1-1.18-1.86,7.31,7.31,0,0,1-.45-2.74,6.61,6.61,0,0,1,2.08-4.79,7.64,7.64,0,0,1,2.52-1.57,9.27,9.27,0,0,1,3.41-.58,12,12,0,0,1,2.09.17,10.69,10.69,0,0,1,1.93.49,10.28,10.28,0,0,1,1.71.79,8,8,0,0,1,1.42,1Z" transform="translate(-202.19 -259.08)"/><path class="cls-17" d="M598.23,462.71H594a1.92,1.92,0,0,1-1.16-.32,1.68,1.68,0,0,1-.64-.85l-1.38-4.06H582l-1.38,4.06a1.81,1.81,0,0,1-.62.81,1.83,1.83,0,0,1-1.14.36h-4.23l9-23.34h5.55Zm-15-8.92h6.37l-2.14-6.39L587,446c-.19-.55-.37-1.14-.55-1.78-.17.65-.35,1.25-.53,1.81s-.35,1-.51,1.44Z" transform="translate(-202.19 -259.08)"/><path class="cls-17" d="M605.53,458.39h8.65v4.32H600.12V439.37h5.41Z" transform="translate(-202.19 -259.08)"/><path class="cls-17" d="M626.46,458.8a9,9,0,0,0,2-.19,10.13,10.13,0,0,0,1.64-.51v-3.54h-2.31a1.12,1.12,0,0,1-.8-.27.91.91,0,0,1-.29-.69v-3H635v9.85a12,12,0,0,1-1.86,1.13,11.63,11.63,0,0,1-2.07.78,16.18,16.18,0,0,1-2.34.45A24.77,24.77,0,0,1,626,463a12.28,12.28,0,0,1-4.74-.9,11.81,11.81,0,0,1-3.78-2.5,11.62,11.62,0,0,1-2.49-3.78,12.23,12.23,0,0,1-.91-4.76,12.8,12.8,0,0,1,.87-4.79,10.78,10.78,0,0,1,2.47-3.78,11.21,11.21,0,0,1,3.89-2.47,14.3,14.3,0,0,1,5.11-.88,14.94,14.94,0,0,1,2.74.24,13.31,13.31,0,0,1,2.36.66,11.44,11.44,0,0,1,2,1,10.81,10.81,0,0,1,1.6,1.25l-1.57,2.39a1.78,1.78,0,0,1-.53.53,1.28,1.28,0,0,1-.69.19,1.89,1.89,0,0,1-1-.32c-.43-.25-.83-.48-1.21-.66a7.56,7.56,0,0,0-1.16-.46,8.13,8.13,0,0,0-1.25-.26,13,13,0,0,0-1.47-.08,6.67,6.67,0,0,0-2.74.54,5.84,5.84,0,0,0-2.08,1.51,7,7,0,0,0-1.32,2.35,9.43,9.43,0,0,0-.47,3,10,10,0,0,0,.52,3.31,7.07,7.07,0,0,0,1.41,2.43,6,6,0,0,0,2.15,1.51A6.9,6.9,0,0,0,626.46,458.8Z" transform="translate(-202.19 -259.08)"/><path class="cls-17" d="M661.32,451a12.66,12.66,0,0,1-.87,4.72,11.2,11.2,0,0,1-6.28,6.31,14,14,0,0,1-9.93,0,11.28,11.28,0,0,1-3.83-2.53,11.11,11.11,0,0,1-2.47-3.78,13.07,13.07,0,0,1,0-9.43,11.11,11.11,0,0,1,2.47-3.78,11.23,11.23,0,0,1,3.83-2.51,13.86,13.86,0,0,1,9.93,0,11.53,11.53,0,0,1,3.82,2.53,11.24,11.24,0,0,1,2.46,3.78A12.54,12.54,0,0,1,661.32,451Zm-5.54,0a10,10,0,0,0-.45-3.11,6.58,6.58,0,0,0-1.29-2.35A5.55,5.55,0,0,0,652,444.1a6.91,6.91,0,0,0-2.77-.52,7.06,7.06,0,0,0-2.8.52,5.55,5.55,0,0,0-2.06,1.47,6.58,6.58,0,0,0-1.29,2.35,10,10,0,0,0-.45,3.11,10.17,10.17,0,0,0,.45,3.14,6.62,6.62,0,0,0,1.29,2.34,5.55,5.55,0,0,0,2.06,1.47,7.25,7.25,0,0,0,2.8.5A7.09,7.09,0,0,0,652,458a5.55,5.55,0,0,0,2.06-1.47,6.62,6.62,0,0,0,1.29-2.34A10.17,10.17,0,0,0,655.78,451Z" transform="translate(-202.19 -259.08)"/><path class="cls-17" d="M669.33,454.08v8.63h-5.41V439.37h7.59a15.48,15.48,0,0,1,4.32.52,8.23,8.23,0,0,1,2.92,1.45,5.47,5.47,0,0,1,1.64,2.2,7.27,7.27,0,0,1,.51,2.75,7.5,7.5,0,0,1-.3,2.15,6.43,6.43,0,0,1-.91,1.86,6.91,6.91,0,0,1-1.47,1.54,8.06,8.06,0,0,1-2,1.1,5.61,5.61,0,0,1,1,.67,4.15,4.15,0,0,1,.82,1l5,8.12h-4.9a2.09,2.09,0,0,1-2-1l-3.88-6.78a1.63,1.63,0,0,0-.6-.64,2,2,0,0,0-1-.19Zm0-3.74h2.18a5.54,5.54,0,0,0,1.89-.28,3.35,3.35,0,0,0,1.27-.77,3,3,0,0,0,.72-1.16,4.53,4.53,0,0,0,.23-1.44,3,3,0,0,0-1-2.4,4.63,4.63,0,0,0-3.1-.87h-2.18Z" transform="translate(-202.19 -259.08)"/><path class="cls-17" d="M691.16,462.71h-5.45V439.37h5.45Z" transform="translate(-202.19 -259.08)"/><path class="cls-17" d="M712.44,439.37v4.29h-6.57v19h-5.42v-19h-6.57v-4.29Z" transform="translate(-202.19 -259.08)"/><path class="cls-17" d="M735.06,462.71h-5.45v-9.87h-9.48v9.87h-5.45V439.37h5.45v9.76h9.48v-9.76h5.45Z" transform="translate(-202.19 -259.08)"/><path class="cls-17" d="M751.46,453.31q.3.66.57,1.35c.18-.48.37-.93.57-1.38s.42-.87.63-1.29l6-11.8a2.21,2.21,0,0,1,.33-.48,1,1,0,0,1,.38-.24,1.16,1.16,0,0,1,.47-.09h4.75v23.33h-4.77V449.29c0-.65,0-1.36.09-2.12l-6.18,12a2,2,0,0,1-.78.85,2.19,2.19,0,0,1-1.11.29h-.74a2.14,2.14,0,0,1-1.11-.29,2,2,0,0,1-.78-.85l-6.22-12c0,.37.08.74.1,1.11s0,.71,0,1v13.42h-4.77V439.38h4.75a1.19,1.19,0,0,1,.47.09,1,1,0,0,1,.37.24,1.68,1.68,0,0,1,.33.48l6,11.85C751.06,452.45,751.26,452.87,751.46,453.31Z" transform="translate(-202.19 -259.08)"/><path class="cls-17" d="M575.6,489.49a12.28,12.28,0,0,1-.87,4.67,10.8,10.8,0,0,1-2.46,3.7,11.32,11.32,0,0,1-3.82,2.44,13.59,13.59,0,0,1-5,.87h-9.07V477.82h9.07a13.39,13.39,0,0,1,5,.89,11.3,11.3,0,0,1,3.82,2.43,10.86,10.86,0,0,1,2.46,3.69A12.27,12.27,0,0,1,575.6,489.49Zm-5.54,0a10.2,10.2,0,0,0-.45-3.13,6.8,6.8,0,0,0-1.29-2.36,5.6,5.6,0,0,0-2.06-1.49,7,7,0,0,0-2.77-.52h-3.62v15h3.62a7,7,0,0,0,2.77-.52,5.49,5.49,0,0,0,2.06-1.49,6.63,6.63,0,0,0,1.29-2.36A10.22,10.22,0,0,0,570.06,489.49Z" transform="translate(-202.19 -259.08)"/><path class="cls-17" d="M593.23,477.82V482h-9.59v5.45H591v4h-7.34V497h9.59v4.17h-15V477.82Z" transform="translate(-202.19 -259.08)"/><path class="cls-17" d="M594.38,477.82h4.36a2,2,0,0,1,1.15.32,1.8,1.8,0,0,1,.64.85l4.52,12.5c.2.55.41,1.14.62,1.78s.4,1.31.58,2c.15-.71.33-1.38.52-2s.4-1.23.59-1.78l4.48-12.5a1.89,1.89,0,0,1,.63-.81,1.81,1.81,0,0,1,1.14-.36H618l-9.36,23.35h-4.9Z" transform="translate(-202.19 -259.08)"/><path class="cls-17" d="M635,477.82V482h-9.58v5.45h7.34v4h-7.34V497H635v4.17h-15V477.82Z" transform="translate(-202.19 -259.08)"/><path class="cls-17" d="M643.44,496.84h8.65v4.33H638V477.82h5.41Z" transform="translate(-202.19 -259.08)"/><path class="cls-17" d="M676.42,489.49a12.38,12.38,0,0,1-.88,4.71,11.12,11.12,0,0,1-6.28,6.31,13.83,13.83,0,0,1-9.92,0A11.13,11.13,0,0,1,653,494.2a13.18,13.18,0,0,1,0-9.42,11.15,11.15,0,0,1,6.31-6.3,13.9,13.9,0,0,1,9.92,0,11.41,11.41,0,0,1,3.82,2.52,11.24,11.24,0,0,1,2.46,3.78A12.4,12.4,0,0,1,676.42,489.49Zm-5.55,0a10.13,10.13,0,0,0-.45-3.12,6.47,6.47,0,0,0-1.29-2.34,5.43,5.43,0,0,0-2-1.48,7.86,7.86,0,0,0-5.57,0,5.43,5.43,0,0,0-2.07,1.48,6.62,6.62,0,0,0-1.29,2.34,11.08,11.08,0,0,0,0,6.25,6.58,6.58,0,0,0,1.29,2.35,5.38,5.38,0,0,0,2.07,1.46,7.86,7.86,0,0,0,5.57,0,5.39,5.39,0,0,0,2-1.46,6.43,6.43,0,0,0,1.29-2.35A10.11,10.11,0,0,0,670.87,489.49Z" transform="translate(-202.19 -259.08)"/><path class="cls-17" d="M684.43,493.37v7.8H679V477.82h8.24a13.6,13.6,0,0,1,4.24.59A8.13,8.13,0,0,1,694.4,480a6.15,6.15,0,0,1,1.69,2.42,8.05,8.05,0,0,1,.55,3,9,9,0,0,1-.56,3.21,6.56,6.56,0,0,1-1.72,2.5,8.13,8.13,0,0,1-2.92,1.62,13.4,13.4,0,0,1-4.19.59Zm0-4.09h2.82a3.44,3.44,0,0,0,4-3.83A4.26,4.26,0,0,0,691,484a3,3,0,0,0-.73-1.13,3.38,3.38,0,0,0-1.23-.73,5.52,5.52,0,0,0-1.77-.25h-2.82Z" transform="translate(-202.19 -259.08)"/><path class="cls-17" d="M712,491.76q.3.66.57,1.35c.18-.47.37-.93.58-1.37s.41-.88.62-1.29l6-11.81a2.12,2.12,0,0,1,.33-.47,1,1,0,0,1,.38-.25,1.4,1.4,0,0,1,.47-.08h4.75v23.33h-4.77V487.74c0-.65,0-1.35.09-2.11l-6.18,12a2,2,0,0,1-.78.85,2.16,2.16,0,0,1-1.11.29h-.74a2.14,2.14,0,0,1-1.11-.29,2,2,0,0,1-.78-.85l-6.22-12c0,.38.08.75.1,1.11s0,.71,0,1v13.43h-4.77V477.84h4.75a1.4,1.4,0,0,1,.47.08,1.14,1.14,0,0,1,.38.25,2.12,2.12,0,0,1,.33.47l6,11.86C711.61,490.9,711.81,491.32,712,491.76Z" transform="translate(-202.19 -259.08)"/><path class="cls-17" d="M744.58,477.82V482H735v5.45h7.33v4H735V497h9.58v4.17h-15V477.82Z" transform="translate(-202.19 -259.08)"/><path class="cls-17" d="M751.1,477.86a1.43,1.43,0,0,1,.43.12,1.67,1.67,0,0,1,.37.24,4.7,4.7,0,0,1,.4.44l11.09,14c0-.45-.08-.89-.1-1.31s0-.82,0-1.19V477.82H768v23.35h-2.82a2.56,2.56,0,0,1-1.05-.19,2.34,2.34,0,0,1-.84-.71l-11-13.91c0,.41,0,.81.08,1.2s0,.75,0,1.1v12.51h-4.78V477.82h2.85A4.73,4.73,0,0,1,751.1,477.86Z" transform="translate(-202.19 -259.08)"/><path class="cls-17" d="M788.83,477.82v4.3h-6.57v19.05h-5.41V482.12h-6.57v-4.3Z" transform="translate(-202.19 -259.08)"/><path class="cls-17" d="M2629.62,444.11a2,2,0,0,1-.51.58,1.1,1.1,0,0,1-.68.19,1.71,1.71,0,0,1-.79-.23l-1-.52a7.84,7.84,0,0,0-1.23-.52,4.76,4.76,0,0,0-1.57-.23,3.37,3.37,0,0,0-2.26.64,2.22,2.22,0,0,0-.75,1.76,1.61,1.61,0,0,0,.45,1.17,3.94,3.94,0,0,0,1.18.8,13.56,13.56,0,0,0,1.66.62c.63.18,1.27.39,1.92.62a16.82,16.82,0,0,1,1.91.81,6.19,6.19,0,0,1,1.67,1.19,5.62,5.62,0,0,1,1.18,1.75,6.22,6.22,0,0,1,.45,2.49,8,8,0,0,1-.57,3,7,7,0,0,1-1.62,2.46,7.56,7.56,0,0,1-2.63,1.65,9.82,9.82,0,0,1-3.55.6,11.44,11.44,0,0,1-2.22-.22,12.42,12.42,0,0,1-2.18-.64,11.84,11.84,0,0,1-2-1,8.28,8.28,0,0,1-1.62-1.25l1.6-2.53a1.31,1.31,0,0,1,.5-.46,1.37,1.37,0,0,1,.69-.18,1.79,1.79,0,0,1,1,.31l1.1.67a8.53,8.53,0,0,0,1.42.67,5.16,5.16,0,0,0,1.89.31,3.61,3.61,0,0,0,2.29-.65,2.46,2.46,0,0,0,.82-2.06,1.93,1.93,0,0,0-.45-1.33,3.42,3.42,0,0,0-1.18-.85,10.85,10.85,0,0,0-1.65-.59c-.62-.17-1.26-.36-1.91-.57a15,15,0,0,1-1.91-.77,6.34,6.34,0,0,1-1.66-1.2,5.62,5.62,0,0,1-1.17-1.86,7.36,7.36,0,0,1-.45-2.75,6.35,6.35,0,0,1,.53-2.56,6.55,6.55,0,0,1,1.55-2.23,7.58,7.58,0,0,1,2.52-1.56,9.26,9.26,0,0,1,3.41-.59,13.1,13.1,0,0,1,2.09.17,10.7,10.7,0,0,1,1.93.5,11.13,11.13,0,0,1,1.71.78,7.57,7.57,0,0,1,1.41,1Z" transform="translate(-202.19 -259.08)"/><path class="cls-17" d="M2649,439.37v4.17h-9.59V449h7.34v4h-7.34v5.56H2649v4.16h-15V439.37Z" transform="translate(-202.19 -259.08)"/><path class="cls-17" d="M2657.5,454.08v8.63h-5.42V439.37h7.6a15.53,15.53,0,0,1,4.32.52,8.1,8.1,0,0,1,2.91,1.45,5.47,5.47,0,0,1,1.64,2.2,7.09,7.09,0,0,1,.52,2.75,7.5,7.5,0,0,1-.31,2.15,6.41,6.41,0,0,1-.9,1.86,7,7,0,0,1-1.48,1.54,8.06,8.06,0,0,1-2,1.1,5.61,5.61,0,0,1,1,.67,3.92,3.92,0,0,1,.82,1l5,8.12h-4.9a2.09,2.09,0,0,1-2-1l-3.87-6.78a1.63,1.63,0,0,0-.6-.64,2,2,0,0,0-1-.19Zm0-3.74h2.18a5.52,5.52,0,0,0,1.88-.28,3.28,3.28,0,0,0,1.27-.77,2.87,2.87,0,0,0,.72-1.16,4.53,4.53,0,0,0,.23-1.44,3,3,0,0,0-1-2.4,4.65,4.65,0,0,0-3.1-.87h-2.18Z" transform="translate(-202.19 -259.08)"/><path class="cls-17" d="M2671.47,439.37h4.36a2,2,0,0,1,1.15.32,1.76,1.76,0,0,1,.64.85l4.52,12.5c.2.54.41,1.13.62,1.78s.4,1.31.58,2c.15-.7.33-1.37.52-2s.4-1.24.59-1.78l4.48-12.5a1.83,1.83,0,0,1,.63-.81,1.81,1.81,0,0,1,1.14-.36h4.39l-9.36,23.34h-4.9Z" transform="translate(-202.19 -259.08)"/><path class="cls-17" d="M2702.94,462.71h-5.45V439.37h5.45Z" transform="translate(-202.19 -259.08)"/><path class="cls-17" d="M2723,456.67a1.09,1.09,0,0,1,.39.08,1,1,0,0,1,.36.24l2.15,2.26a8.88,8.88,0,0,1-3.53,2.78,12.3,12.3,0,0,1-5,.94,12,12,0,0,1-4.76-.9,10.31,10.31,0,0,1-3.57-2.5,11.23,11.23,0,0,1-2.26-3.78,14.1,14.1,0,0,1-.78-4.76,12.42,12.42,0,0,1,.9-4.79,11.14,11.14,0,0,1,2.5-3.78,11.36,11.36,0,0,1,3.86-2.47,13.54,13.54,0,0,1,5-.88,13,13,0,0,1,2.47.23,12,12,0,0,1,2.18.65,9.82,9.82,0,0,1,1.85,1,8.93,8.93,0,0,1,1.51,1.26l-1.83,2.45a2,2,0,0,1-.41.41,1.12,1.12,0,0,1-.68.19,1.26,1.26,0,0,1-.54-.13l-.55-.31-.63-.41a5.71,5.71,0,0,0-.82-.4,7.4,7.4,0,0,0-1.1-.31,8,8,0,0,0-1.48-.13,7,7,0,0,0-2.7.52,6.1,6.1,0,0,0-2.09,1.49,7,7,0,0,0-1.36,2.35,9.11,9.11,0,0,0-.49,3.09,9.5,9.5,0,0,0,.49,3.19,7.14,7.14,0,0,0,1.33,2.35,5.63,5.63,0,0,0,2,1.45,5.91,5.91,0,0,0,2.41.5,10.85,10.85,0,0,0,1.34-.08,5.09,5.09,0,0,0,2.13-.7,7,7,0,0,0,1-.7,2.26,2.26,0,0,1,.42-.26A1.07,1.07,0,0,1,2723,456.67Z" transform="translate(-202.19 -259.08)"/><path class="cls-17" d="M2743.35,439.37v4.17h-9.58V449h7.34v4h-7.34v5.56h9.58v4.16h-15V439.37Z" transform="translate(-202.19 -259.08)"/><path class="cls-17" d="M2626.61,482.57a1.93,1.93,0,0,1-.51.57,1.1,1.1,0,0,1-.68.2,1.62,1.62,0,0,1-.79-.24c-.29-.15-.61-.32-1-.52a8.92,8.92,0,0,0-1.23-.52,5,5,0,0,0-1.57-.23,3.42,3.42,0,0,0-2.27.65,2.22,2.22,0,0,0-.74,1.75,1.61,1.61,0,0,0,.45,1.17,3.83,3.83,0,0,0,1.17.8,12.77,12.77,0,0,0,1.67.62c.63.19,1.26.4,1.92.63a18.78,18.78,0,0,1,1.91.8,6.67,6.67,0,0,1,1.67,1.19,5.47,5.47,0,0,1,1.17,1.76,6.16,6.16,0,0,1,.45,2.49,7.91,7.91,0,0,1-.56,3,6.85,6.85,0,0,1-1.62,2.46,7.58,7.58,0,0,1-2.63,1.66,9.86,9.86,0,0,1-3.55.6,11.31,11.31,0,0,1-2.22-.23,13.72,13.72,0,0,1-2.19-.63,12.55,12.55,0,0,1-2-1,8.28,8.28,0,0,1-1.62-1.25l1.6-2.53a1.34,1.34,0,0,1,.5-.47,1.47,1.47,0,0,1,.69-.17,1.86,1.86,0,0,1,1,.3l1.1.67a9,9,0,0,0,1.42.68,5.35,5.35,0,0,0,1.89.3,3.55,3.55,0,0,0,2.29-.65,2.46,2.46,0,0,0,.82-2.06,2,2,0,0,0-.45-1.33,3.4,3.4,0,0,0-1.18-.84,10,10,0,0,0-1.66-.6c-.62-.17-1.25-.36-1.9-.57a12.11,12.11,0,0,1-1.91-.77,5.91,5.91,0,0,1-1.66-1.2,5.6,5.6,0,0,1-1.18-1.86,7.31,7.31,0,0,1-.45-2.74,6.61,6.61,0,0,1,.53-2.57,6.78,6.78,0,0,1,1.56-2.23,7.64,7.64,0,0,1,2.51-1.56,9.32,9.32,0,0,1,3.42-.58,12,12,0,0,1,2.09.17,10.69,10.69,0,0,1,1.93.49,10.28,10.28,0,0,1,1.71.79,7.87,7.87,0,0,1,1.41,1Z" transform="translate(-202.19 -259.08)"/><path class="cls-17" d="M2646,477.82V482h-9.58v5.45h7.34v4h-7.34V497H2646v4.17h-15V477.82Z" transform="translate(-202.19 -259.08)"/><path class="cls-17" d="M2664.76,495.13a1,1,0,0,1,.75.32l2.15,2.26a8.93,8.93,0,0,1-3.54,2.78,12.42,12.42,0,0,1-5,.94,12.07,12.07,0,0,1-4.77-.91,10.36,10.36,0,0,1-3.57-2.5,10.86,10.86,0,0,1-2.25-3.78,14,14,0,0,1-.79-4.75,12.51,12.51,0,0,1,.9-4.8,11.17,11.17,0,0,1,2.51-3.77,11.32,11.32,0,0,1,3.85-2.47,13.41,13.41,0,0,1,4.95-.88,13.06,13.06,0,0,1,2.48.23,12.77,12.77,0,0,1,2.17.64,10.26,10.26,0,0,1,1.86,1,9.35,9.35,0,0,1,1.51,1.26l-1.83,2.45a2.72,2.72,0,0,1-.42.41,1.09,1.09,0,0,1-.67.18,1.17,1.17,0,0,1-.55-.13,5.22,5.22,0,0,1-.54-.31l-.63-.4a5.23,5.23,0,0,0-.82-.4,6.49,6.49,0,0,0-1.11-.31,7.14,7.14,0,0,0-1.48-.13,6.72,6.72,0,0,0-2.69.52,5.88,5.88,0,0,0-2.09,1.49,6.88,6.88,0,0,0-1.36,2.35,9.11,9.11,0,0,0-.49,3.09,9.5,9.5,0,0,0,.49,3.19,6.82,6.82,0,0,0,1.33,2.34,5.54,5.54,0,0,0,2,1.45,5.74,5.74,0,0,0,2.4.5,11.25,11.25,0,0,0,1.35-.07,5.5,5.5,0,0,0,1.13-.25,5,5,0,0,0,1-.46,6.19,6.19,0,0,0,1-.69,1.62,1.62,0,0,1,.41-.27A1.1,1.1,0,0,1,2664.76,495.13Z" transform="translate(-202.19 -259.08)"/><path class="cls-17" d="M2687.08,477.82v4.3h-6.57v19.05h-5.42V482.12h-6.57v-4.3Z" transform="translate(-202.19 -259.08)"/><path class="cls-17" d="M2695.25,501.17h-5.45V477.82h5.45Z" transform="translate(-202.19 -259.08)"/><path class="cls-17" d="M2722.62,489.49a12.57,12.57,0,0,1-.88,4.71,11.12,11.12,0,0,1-6.28,6.31,13.83,13.83,0,0,1-9.92,0,11.35,11.35,0,0,1-3.84-2.52,11.15,11.15,0,0,1-2.47-3.79,13.18,13.18,0,0,1,0-9.42,11.11,11.11,0,0,1,2.47-3.78,11.35,11.35,0,0,1,3.84-2.52,13.9,13.9,0,0,1,9.92,0,11.51,11.51,0,0,1,3.82,2.52,11.24,11.24,0,0,1,2.46,3.78A12.59,12.59,0,0,1,2722.62,489.49Zm-5.55,0a10.13,10.13,0,0,0-.45-3.12,6.62,6.62,0,0,0-1.29-2.34,5.39,5.39,0,0,0-2.06-1.48,7.09,7.09,0,0,0-2.77-.51,7.19,7.19,0,0,0-2.79.51,5.43,5.43,0,0,0-2.07,1.48,6.62,6.62,0,0,0-1.29,2.34,11.08,11.08,0,0,0,0,6.25,6.58,6.58,0,0,0,1.29,2.35,5.38,5.38,0,0,0,2.07,1.46,7.19,7.19,0,0,0,2.79.51,7.09,7.09,0,0,0,2.77-.51,5.34,5.34,0,0,0,2.06-1.46,6.58,6.58,0,0,0,1.29-2.35A10.11,10.11,0,0,0,2717.07,489.49Z" transform="translate(-202.19 -259.08)"/><path class="cls-17" d="M2728.66,477.86a1.43,1.43,0,0,1,.43.12,1.67,1.67,0,0,1,.37.24c.11.11.25.26.4.44l11.09,14c0-.45-.08-.89-.1-1.31s0-.82,0-1.19V477.82h4.77v23.35h-2.82a2.61,2.61,0,0,1-1.06-.19,2.41,2.41,0,0,1-.83-.71l-11-13.91c0,.41.06.81.08,1.2s0,.75,0,1.1v12.51h-4.78V477.82h2.85A4.73,4.73,0,0,1,2728.66,477.86Z" transform="translate(-202.19 -259.08)"/><path class="cls-18" d="M2185.84,908.54v19.2h-12V875.86h16.88a34.76,34.76,0,0,1,9.6,1.15,18.22,18.22,0,0,1,6.48,3.23,12.2,12.2,0,0,1,3.65,4.87,16.19,16.19,0,0,1,1.14,6.13,16.52,16.52,0,0,1-.68,4.77,14.38,14.38,0,0,1-2,4.15,15.5,15.5,0,0,1-3.28,3.4,17.45,17.45,0,0,1-4.47,2.46,11.54,11.54,0,0,1,2.27,1.49,9.08,9.08,0,0,1,1.83,2.17l11,18.06h-10.9a4.6,4.6,0,0,1-4.34-2.28l-8.62-15.07a3.69,3.69,0,0,0-1.34-1.42,4.49,4.49,0,0,0-2.15-.43Zm0-8.29h4.84a12.32,12.32,0,0,0,4.19-.63,7.59,7.59,0,0,0,2.83-1.72,6.79,6.79,0,0,0,1.6-2.58,10,10,0,0,0,.5-3.19,6.69,6.69,0,0,0-2.23-5.34q-2.22-1.92-6.89-1.92h-4.84Z" transform="translate(-202.19 -259.08)"/><path class="cls-18" d="M2266.45,927.74h-12.11V905.8h-21.07v21.94h-12.11V875.86h12.11v21.68h21.07V875.86h12.11Z" transform="translate(-202.19 -259.08)"/><path class="cls-18" d="M2308.4,875.86v9.25h-21.3v12.11h16.31v8.9H2287.1v12.36h21.3v9.26H2275V875.86Z" transform="translate(-202.19 -259.08)"/><path class="cls-18" d="M2328,901.07,2312,875.86h12a3.8,3.8,0,0,1,1.73.3,2.8,2.8,0,0,1,1,1L2337,894.66a8,8,0,0,1,.41-.89c.16-.29.33-.58.52-.89l9-15.53a2.72,2.72,0,0,1,2.42-1.49H2361l-16.27,24.67,16.63,27.21h-12a3,3,0,0,1-1.9-.57,4.3,4.3,0,0,1-1.16-1.36l-10.4-18.16a6.9,6.9,0,0,1-.64,1.36l-9.68,16.8a5,5,0,0,1-1.14,1.34,2.73,2.73,0,0,1-1.78.59h-11.26Z" transform="translate(-202.19 -259.08)"/><path class="cls-18" d="M2379.11,927.74H2367V875.86h12.11Z" transform="translate(-202.19 -259.08)"/><path class="cls-18" d="M2410.3,918.23a11.13,11.13,0,0,0,4.32-.8,8.83,8.83,0,0,0,3.23-2.3,10.22,10.22,0,0,0,2-3.65,16.07,16.07,0,0,0,.69-4.9V875.86h12v30.72a24,24,0,0,1-1.55,8.76,19.73,19.73,0,0,1-4.43,6.88,20.09,20.09,0,0,1-7,4.48,27.89,27.89,0,0,1-18.62,0,20,20,0,0,1-7-4.48,19.43,19.43,0,0,1-4.42-6.88,24.2,24.2,0,0,1-1.53-8.76V875.86h12v30.69a16.05,16.05,0,0,0,.7,4.9,10.29,10.29,0,0,0,2,3.66,8.73,8.73,0,0,0,3.22,2.32A11.14,11.14,0,0,0,2410.3,918.23Z" transform="translate(-202.19 -259.08)"/><path class="cls-18" d="M2468.32,906.83c.44,1,.86,2,1.26,3,.41-1.05.83-2.07,1.29-3.05s.91-1.95,1.38-2.87l13.32-26.24a4.44,4.44,0,0,1,.73-1,2.4,2.4,0,0,1,.84-.55,2.89,2.89,0,0,1,1.05-.18h10.56v51.85h-10.62V897.9c0-1.45.08-3,.22-4.7l-13.75,26.67a4.43,4.43,0,0,1-1.72,1.88,4.77,4.77,0,0,1-2.48.64h-1.64a4.74,4.74,0,0,1-2.47-.64,4.52,4.52,0,0,1-1.73-1.88l-13.81-26.71c.09.83.16,1.66.21,2.48s.07,1.57.07,2.26v29.84h-10.61V875.89H2451a2.89,2.89,0,0,1,1.05.18,2.4,2.4,0,0,1,.84.55,4.44,4.44,0,0,1,.73,1L2467,904C2467.42,904.92,2467.88,905.86,2468.32,906.83Z" transform="translate(-202.19 -259.08)"/><circle class="cls-19" cx="852.95" cy="639.49" r="266.92"/><circle class="cls-19" cx="2134.09" cy="639.49" r="266.92"/><path class="cls-9" d="M1098.47,653.26h-86.66a16.62,16.62,0,0,1-16.61-16.62h0A16.61,16.61,0,0,1,1011.81,620h86.66a16.61,16.61,0,0,1,16.62,16.61h0A16.62,16.62,0,0,1,1098.47,653.26Z" transform="translate(-202.19 -259.08)"/><path class="cls-9" d="M1128.7,1176.74H981.58A16.61,16.61,0,0,1,965,1160.12h0a16.61,16.61,0,0,1,16.61-16.61H1128.7a16.62,16.62,0,0,1,16.62,16.61h0A16.62,16.62,0,0,1,1128.7,1176.74Z" transform="translate(-202.19 -259.08)"/><path class="cls-9" d="M2379.6,653.26H2293a16.62,16.62,0,0,1-16.62-16.62h0A16.61,16.61,0,0,1,2293,620h86.65a16.61,16.61,0,0,1,16.62,16.61h0A16.62,16.62,0,0,1,2379.6,653.26Z" transform="translate(-202.19 -259.08)"/><path class="cls-9" d="M2409.83,1176.74H2262.71a16.62,16.62,0,0,1-16.61-16.62h0a16.61,16.61,0,0,1,16.61-16.61h147.12a16.62,16.62,0,0,1,16.62,16.61h0A16.62,16.62,0,0,1,2409.83,1176.74Z" transform="translate(-202.19 -259.08)"/><path class="cls-20" d="M1036.56,637.65a12.65,12.65,0,0,1-.85,4.68,11,11,0,0,1-2.39,3.67,10.71,10.71,0,0,1-3.7,2.38,12.92,12.92,0,0,1-4.79.85H1016V626.06h8.85a12.92,12.92,0,0,1,4.79.86,10.55,10.55,0,0,1,6.09,6.05A12.65,12.65,0,0,1,1036.56,637.65Zm-4.41,0a10.69,10.69,0,0,0-.51-3.42,7.41,7.41,0,0,0-1.46-2.57,6.38,6.38,0,0,0-2.3-1.61,8,8,0,0,0-3.05-.56h-4.51V645.8h4.51a7.79,7.79,0,0,0,3.05-.56,6.26,6.26,0,0,0,2.3-1.61,7.36,7.36,0,0,0,1.46-2.56A10.69,10.69,0,0,0,1032.15,637.65Z" transform="translate(-202.19 -259.08)"/><path class="cls-20" d="M1059.48,649.23h-3.33a1.44,1.44,0,0,1-.92-.28,1.58,1.58,0,0,1-.52-.7l-1.73-4.72h-9.6l-1.73,4.72a1.45,1.45,0,0,1-.5.68,1.43,1.43,0,0,1-.92.3h-3.35l9.1-23.17h4.4Zm-15-8.75h7.38l-2.82-7.7c-.12-.34-.27-.75-.42-1.21s-.31-1-.46-1.52c-.15.55-.29,1.06-.44,1.53s-.28.88-.42,1.23Z" transform="translate(-202.19 -259.08)"/><path class="cls-20" d="M1075.84,626.06v3.54h-7v19.63h-4.31V629.6h-7v-3.54Z" transform="translate(-202.19 -259.08)"/><path class="cls-20" d="M1096.59,649.23h-3.33a1.44,1.44,0,0,1-.92-.28,1.58,1.58,0,0,1-.52-.7l-1.73-4.72h-9.6l-1.73,4.72a1.52,1.52,0,0,1-.5.68,1.46,1.46,0,0,1-.93.3H1074l9.1-23.17h4.4Zm-15-8.75H1089l-2.82-7.7c-.13-.34-.27-.75-.42-1.21s-.31-1-.46-1.52c-.15.55-.29,1.06-.44,1.53s-.28.88-.42,1.23Z" transform="translate(-202.19 -259.08)"/><path class="cls-20" d="M989.74,1166.78h-4.33v-23.17h4.33Z" transform="translate(-202.19 -259.08)"/><path class="cls-20" d="M997.69,1143.64a1,1,0,0,1,.34.09,1.37,1.37,0,0,1,.3.21,4.39,4.39,0,0,1,.32.36l12.16,15.49c0-.37-.07-.73-.09-1.09s0-.69,0-1v-14.09h3.79v23.17h-2.22a1.9,1.9,0,0,1-.85-.16,1.84,1.84,0,0,1-.66-.58l-12.11-15.43c0,.35.05.68.07,1s0,.65,0,.92v14.23H995v-23.17h2.25A3.28,3.28,0,0,1,997.69,1143.64Z" transform="translate(-202.19 -259.08)"/><path class="cls-20" d="M1031.59,1147.83a1.14,1.14,0,0,1-.41.49,1,1,0,0,1-.55.15,1.42,1.42,0,0,1-.72-.25c-.27-.17-.59-.35-1-.55a7.55,7.55,0,0,0-1.27-.56,5.54,5.54,0,0,0-1.72-.24,5.28,5.28,0,0,0-1.57.21,3.62,3.62,0,0,0-1.12.6,2.54,2.54,0,0,0-.68.92,3,3,0,0,0-.22,1.18,2,2,0,0,0,.45,1.36,3.71,3.71,0,0,0,1.21.93,10.62,10.62,0,0,0,1.72.69c.64.2,1.29.42,2,.65a19.63,19.63,0,0,1,2,.8,7,7,0,0,1,1.72,1.16,5.3,5.3,0,0,1,1.21,1.7,6,6,0,0,1,.45,2.45,8.12,8.12,0,0,1-.53,2.94,6.76,6.76,0,0,1-1.57,2.39,7.34,7.34,0,0,1-2.53,1.6,9.26,9.26,0,0,1-3.41.59,10.61,10.61,0,0,1-2.18-.22,10.91,10.91,0,0,1-2.06-.62,9.73,9.73,0,0,1-1.84-1,9,9,0,0,1-1.53-1.25l1.25-2.06a1.69,1.69,0,0,1,.42-.38,1.07,1.07,0,0,1,.56-.15,1.53,1.53,0,0,1,.86.33c.31.22.68.46,1.1.73a9,9,0,0,0,1.49.72,5.74,5.74,0,0,0,2.06.33,4.22,4.22,0,0,0,2.85-.87,3.15,3.15,0,0,0,1-2.51,2.31,2.31,0,0,0-.46-1.49,3.6,3.6,0,0,0-1.21-1,9,9,0,0,0-1.71-.66c-.64-.18-1.29-.38-2-.6a17.86,17.86,0,0,1-1.95-.76,6.54,6.54,0,0,1-1.72-1.17,5.47,5.47,0,0,1-1.21-1.81,7,7,0,0,1-.45-2.67,6.32,6.32,0,0,1,2-4.59,7.14,7.14,0,0,1,2.38-1.49,8.53,8.53,0,0,1,3.22-.56,10.79,10.79,0,0,1,3.78.64,8.43,8.43,0,0,1,3,1.79Z" transform="translate(-202.19 -259.08)"/><path class="cls-20" d="M1041.22,1166.78h-4.33v-23.17h4.33Z" transform="translate(-202.19 -259.08)"/><path class="cls-20" d="M1057.07,1163.61a10.49,10.49,0,0,0,2.53-.27,10.67,10.67,0,0,0,2.06-.72v-4.22h-2.9a.92.92,0,0,1-.65-.23.78.78,0,0,1-.24-.57v-2.43h7.7v9.37a11.9,11.9,0,0,1-1.83,1.11,11.33,11.33,0,0,1-2,.78,17.16,17.16,0,0,1-2.31.46,22.07,22.07,0,0,1-2.66.15,12.2,12.2,0,0,1-4.66-.88,10.94,10.94,0,0,1-6.12-6.2,12.75,12.75,0,0,1-.87-4.76,13,13,0,0,1,.85-4.79,10.56,10.56,0,0,1,6.2-6.19,13.66,13.66,0,0,1,5-.86,13,13,0,0,1,4.91.84,11.47,11.47,0,0,1,3.52,2.18l-1.25,2a1.12,1.12,0,0,1-1,.59,1.41,1.41,0,0,1-.78-.25l-1-.61a6.8,6.8,0,0,0-1.19-.53,10,10,0,0,0-1.46-.37,10.36,10.36,0,0,0-1.86-.14,8.13,8.13,0,0,0-3.11.57,6.71,6.71,0,0,0-2.36,1.65,7.49,7.49,0,0,0-1.5,2.58,10,10,0,0,0-.53,3.37,10.35,10.35,0,0,0,.56,3.56,7.39,7.39,0,0,0,1.57,2.64,6.8,6.8,0,0,0,2.4,1.64A8,8,0,0,0,1057.07,1163.61Z" transform="translate(-202.19 -259.08)"/><path class="cls-20" d="M1089.14,1166.78h-4.34v-10.13h-10.86v10.13h-4.34v-23.17h4.34v10h10.86v-10h4.34Z" transform="translate(-202.19 -259.08)"/><path class="cls-20" d="M1110.15,1143.61v3.54h-7v19.63h-4.31v-19.63h-7v-3.54Z" transform="translate(-202.19 -259.08)"/><path class="cls-20" d="M1125.31,1147.83a1.21,1.21,0,0,1-.41.49,1,1,0,0,1-.56.15,1.48,1.48,0,0,1-.72-.25c-.26-.17-.58-.35-.94-.55a7.33,7.33,0,0,0-1.28-.56,5.49,5.49,0,0,0-1.72-.24,5.17,5.17,0,0,0-1.56.21,3.51,3.51,0,0,0-1.12.6,2.43,2.43,0,0,0-.68.92,3,3,0,0,0-.23,1.18,2.05,2.05,0,0,0,.46,1.36,3.61,3.61,0,0,0,1.21.93,10.49,10.49,0,0,0,1.71.69c.65.2,1.3.42,2,.65a20.66,20.66,0,0,1,2,.8,6.78,6.78,0,0,1,1.71,1.16,5,5,0,0,1,1.21,1.7,5.82,5.82,0,0,1,.46,2.45,7.92,7.92,0,0,1-.54,2.94,6.63,6.63,0,0,1-1.57,2.39,7.39,7.39,0,0,1-2.52,1.6,9.26,9.26,0,0,1-3.41.59,10.54,10.54,0,0,1-2.18-.22,10.91,10.91,0,0,1-2.06-.62,9.73,9.73,0,0,1-1.84-1,8.59,8.59,0,0,1-1.53-1.25l1.25-2.06a1.4,1.4,0,0,1,.42-.38,1.06,1.06,0,0,1,.55-.15,1.53,1.53,0,0,1,.87.33c.31.22.67.46,1.1.73a8.63,8.63,0,0,0,1.49.72,5.7,5.7,0,0,0,2.06.33,4.26,4.26,0,0,0,2.85-.87,3.15,3.15,0,0,0,1-2.51,2.36,2.36,0,0,0-.46-1.49,3.7,3.7,0,0,0-1.21-1,9,9,0,0,0-1.71-.66c-.64-.18-1.3-.38-2-.6a17.86,17.86,0,0,1-2-.76,6.38,6.38,0,0,1-1.72-1.17,5.47,5.47,0,0,1-1.21-1.81,7,7,0,0,1-.45-2.67,6.22,6.22,0,0,1,.5-2.46,6.46,6.46,0,0,1,1.47-2.13,7.25,7.25,0,0,1,2.38-1.49,8.56,8.56,0,0,1,3.22-.56,10.81,10.81,0,0,1,3.79.64,8.39,8.39,0,0,1,2.94,1.79Z" transform="translate(-202.19 -259.08)"/><path class="cls-20" d="M2317.69,632.66a12.65,12.65,0,0,1-.85,4.68,10.53,10.53,0,0,1-6.09,6.06,13.13,13.13,0,0,1-4.79.85h-8.85V621.08H2306a12.72,12.72,0,0,1,4.79.86,10.5,10.5,0,0,1,6.09,6A12.65,12.65,0,0,1,2317.69,632.66Zm-4.41,0a10.69,10.69,0,0,0-.51-3.42,7.21,7.21,0,0,0-1.46-2.56,6.26,6.26,0,0,0-2.3-1.61,7.79,7.79,0,0,0-3.05-.56h-4.5v16.31h4.5a8,8,0,0,0,3.05-.56,6.38,6.38,0,0,0,2.3-1.61,7.25,7.25,0,0,0,1.46-2.57A10.69,10.69,0,0,0,2313.28,632.66Z" transform="translate(-202.19 -259.08)"/><path class="cls-20" d="M2340.62,644.25h-3.34a1.5,1.5,0,0,1-.92-.28,1.63,1.63,0,0,1-.52-.7l-1.73-4.73h-9.6l-1.73,4.73a1.43,1.43,0,0,1-.5.67,1.38,1.38,0,0,1-.92.31H2318l9.1-23.17h4.41Zm-15-8.75H2333l-2.82-7.71c-.13-.34-.27-.74-.43-1.21s-.31-1-.46-1.51c-.15.54-.29,1-.44,1.52s-.28.88-.42,1.23Z" transform="translate(-202.19 -259.08)"/><path class="cls-20" d="M2357,621.08v3.54h-7v19.63h-4.31V624.62h-7v-3.54Z" transform="translate(-202.19 -259.08)"/><path class="cls-20" d="M2377.72,644.25h-3.33a1.5,1.5,0,0,1-.92-.28,1.63,1.63,0,0,1-.52-.7l-1.73-4.73h-9.6l-1.73,4.73a1.43,1.43,0,0,1-.5.67,1.39,1.39,0,0,1-.93.31h-3.34l9.1-23.17h4.4Zm-15-8.75h7.38l-2.82-7.71c-.12-.34-.27-.74-.42-1.21s-.31-1-.46-1.51c-.15.54-.29,1-.44,1.52s-.28.88-.42,1.23Z" transform="translate(-202.19 -259.08)"/><path class="cls-20" d="M2287.91,1167.08h-3.42a1.53,1.53,0,0,1-.95-.29,1.66,1.66,0,0,1-.53-.72l-1.78-4.85h-9.85l-1.78,4.85a1.48,1.48,0,0,1-.52.69,1.45,1.45,0,0,1-.95.32h-3.43l9.34-23.8h4.53Zm-15.4-9h7.59l-2.9-7.91c-.13-.35-.28-.77-.44-1.25s-.31-1-.46-1.55c-.16.56-.31,1.08-.46,1.56s-.29.91-.43,1.27Z" transform="translate(-202.19 -259.08)"/><path class="cls-20" d="M2305.88,1161.46a.85.85,0,0,1,.63.29l1.74,1.89a9.5,9.5,0,0,1-3.56,2.74,12.22,12.22,0,0,1-5.08,1,11.88,11.88,0,0,1-4.76-.91,10.42,10.42,0,0,1-3.61-2.51,11,11,0,0,1-2.3-3.85,14.54,14.54,0,0,1-.8-4.89,13.16,13.16,0,0,1,.89-4.91,11,11,0,0,1,6.36-6.35,13.23,13.23,0,0,1,5-.9,11.59,11.59,0,0,1,4.63.85,10.65,10.65,0,0,1,3.4,2.24l-1.48,2.06a1.22,1.22,0,0,1-.34.34.91.91,0,0,1-.56.15,1.35,1.35,0,0,1-.78-.29,11,11,0,0,0-1-.65,8.52,8.52,0,0,0-1.54-.64,8.2,8.2,0,0,0-2.36-.29,8,8,0,0,0-3.09.58,6.91,6.91,0,0,0-2.41,1.67,7.74,7.74,0,0,0-1.58,2.64,10.12,10.12,0,0,0-.57,3.5,10.37,10.37,0,0,0,.57,3.57,7.81,7.81,0,0,0,1.54,2.63,6.4,6.4,0,0,0,2.28,1.64,7,7,0,0,0,2.83.57,13.37,13.37,0,0,0,1.64-.1,7.43,7.43,0,0,0,1.35-.31,6.29,6.29,0,0,0,1.17-.56,7.16,7.16,0,0,0,1.09-.83,1.92,1.92,0,0,1,.35-.23A.87.87,0,0,1,2305.88,1161.46Z" transform="translate(-202.19 -259.08)"/><path class="cls-20" d="M2328.36,1143.28v3.64h-7.16v20.16h-4.42v-20.16h-7.2v-3.64Z" transform="translate(-202.19 -259.08)"/><path class="cls-20" d="M2336.16,1167.08h-4.45v-23.8h4.45Z" transform="translate(-202.19 -259.08)"/><path class="cls-20" d="M2364.33,1155.18a13.27,13.27,0,0,1-.87,4.85,11.47,11.47,0,0,1-2.45,3.85,11.1,11.1,0,0,1-3.81,2.55,13.76,13.76,0,0,1-9.84,0,11.14,11.14,0,0,1-3.82-2.55,11.34,11.34,0,0,1-2.46-3.85,14,14,0,0,1,0-9.7,11.48,11.48,0,0,1,2.46-3.86,11.26,11.26,0,0,1,3.82-2.54,13.69,13.69,0,0,1,9.84,0,11.22,11.22,0,0,1,3.81,2.54,11.47,11.47,0,0,1,2.45,3.85A13.23,13.23,0,0,1,2364.33,1155.18Zm-4.54,0a10.89,10.89,0,0,0-.52-3.51,7.39,7.39,0,0,0-1.49-2.64,6.42,6.42,0,0,0-2.36-1.67,8.93,8.93,0,0,0-6.28,0,6.58,6.58,0,0,0-2.38,1.67,7.41,7.41,0,0,0-1.5,2.64,11.89,11.89,0,0,0,0,7,7.41,7.41,0,0,0,1.5,2.64,6.78,6.78,0,0,0,2.38,1.65,8.93,8.93,0,0,0,6.28,0,6.62,6.62,0,0,0,2.36-1.65,7.39,7.39,0,0,0,1.49-2.64A10.93,10.93,0,0,0,2359.79,1155.18Z" transform="translate(-202.19 -259.08)"/><path class="cls-20" d="M2370.63,1143.31a1.07,1.07,0,0,1,.36.1,1.37,1.37,0,0,1,.3.21,3.26,3.26,0,0,1,.33.37l12.49,15.91c-.05-.38-.07-.76-.09-1.13s0-.71,0-1v-14.47h3.9v23.8h-2.28a2,2,0,0,1-.88-.17,2,2,0,0,1-.67-.59l-12.44-15.85c0,.35.06.7.07,1s0,.66,0,.94v14.62h-3.9v-23.8h2.32A3.28,3.28,0,0,1,2370.63,1143.31Z" transform="translate(-202.19 -259.08)"/><path class="cls-20" d="M2405.45,1147.61a1.23,1.23,0,0,1-.42.51,1.05,1.05,0,0,1-.57.15,1.47,1.47,0,0,1-.74-.26c-.27-.17-.6-.36-1-.56a7.68,7.68,0,0,0-1.31-.57,6,6,0,0,0-3.37,0,3.51,3.51,0,0,0-1.15.62,2.43,2.43,0,0,0-.7,1,3.18,3.18,0,0,0-.23,1.21,2.08,2.08,0,0,0,.47,1.4,3.81,3.81,0,0,0,1.24,1,12.15,12.15,0,0,0,1.76.71l2,.66a19.34,19.34,0,0,1,2,.83,7,7,0,0,1,1.76,1.18,5.46,5.46,0,0,1,1.25,1.75,6.17,6.17,0,0,1,.46,2.52,8.14,8.14,0,0,1-.55,3,6.88,6.88,0,0,1-1.61,2.45,7.57,7.57,0,0,1-2.59,1.65,9.56,9.56,0,0,1-3.51.6,11.1,11.1,0,0,1-2.23-.22,11.55,11.55,0,0,1-2.12-.64,11.26,11.26,0,0,1-1.89-1,9.56,9.56,0,0,1-1.57-1.29l1.28-2.12a1.84,1.84,0,0,1,.44-.39,1.1,1.1,0,0,1,.57-.15,1.56,1.56,0,0,1,.88.33c.32.23.7.48,1.13.75a7.79,7.79,0,0,0,1.53.75,5.82,5.82,0,0,0,2.12.34,4.31,4.31,0,0,0,2.92-.9,3.18,3.18,0,0,0,1-2.57,2.39,2.39,0,0,0-.47-1.53,3.67,3.67,0,0,0-1.24-1,9.5,9.5,0,0,0-1.76-.68c-.66-.19-1.33-.39-2-.61a17.09,17.09,0,0,1-2-.79,6.86,6.86,0,0,1-1.76-1.2,5.47,5.47,0,0,1-1.24-1.85,7.12,7.12,0,0,1-.47-2.74,6.63,6.63,0,0,1,.52-2.54,6.55,6.55,0,0,1,1.52-2.19,7.57,7.57,0,0,1,2.44-1.53,9,9,0,0,1,3.3-.57,11.11,11.11,0,0,1,3.89.66,8.89,8.89,0,0,1,3,1.84Z" transform="translate(-202.19 -259.08)"/><polyline class="cls-21" points="1109.83 651.24 1119.87 637.72 1129.92 651.24"/><polyline class="cls-21" points="596.08 637.72 586.04 651.24 575.99 637.72"/><polyline class="cls-21" points="2390.65 651.24 2400.69 637.72 2410.74 651.24"/><polyline class="cls-21" points="1876.9 637.72 1866.85 651.24 1856.81 637.72"/><circle class="cls-12" cx="1876.15" cy="924.7" r="8.99"/><circle class="cls-12" cx="1866.85" cy="364.25" r="8.99"/><g class="cls-22"><g class="cls-23"><rect class="cls-24" x="330.3" y="320.63" width="177.02" height="143.12"/></g></g><g class="cls-25"><g class="cls-26"><rect class="cls-24" x="292.95" y="484.69" width="151.06" height="122.13" rx="38.86"/></g></g><g class="cls-27"><g class="cls-28"><rect class="cls-24" x="287.17" y="620.71" width="163.07" height="131.84"/></g></g><g class="cls-29"><g class="cls-30"><rect class="cls-24" x="342.25" y="768.66" width="177.02" height="143.12"/></g></g><g class="cls-31"><g class="cls-32"><rect class="cls-24" x="2565.33" y="564.02" width="148.47" height="120.03"/></g></g><g class="cls-33"><g class="cls-34"><rect class="cls-24" x="2500.96" y="336.91" width="152.2" height="123.05"/></g></g><path class="cls-1" d="M2730.87,1094.37a2.83,2.83,0,1,0,2.83,2.83A2.83,2.83,0,0,0,2730.87,1094.37Z" transform="translate(-202.19 -259.08)"/><path class="cls-1" d="M2766.45,1115.49l10.47-2.76a24.22,24.22,0,0,0,2-1.82v-3c-3.86-.09-5-1.93-5.2-3.67h-11.19l3.24,3.25-2,2-8.07-8.08h18.35l.1-.3-4.64-1.74a4,4,0,0,1-1.27-.79h-.64v-.76a11.55,11.55,0,0,1-1.5-4.91h-10.4l8.07-8.08,2,2c0-8.79,10.89-16.12,10.89-16.12H2779v-.47H2745v9l4.58,4.59-1.65,3.29a20,20,0,0,1,2.08,5l3.47,1.16v7.71l-3.47,1.16a19.53,19.53,0,0,1-2.08,5l1.65,3.29-4.58,4.59v6.19h14.91a9.66,9.66,0,0,0-.08-1.36C2759.65,1119.09,2766.45,1115.49,2766.45,1115.49Zm-4.46-19.71h2.83v2.84H2762Zm-5.66,0h2.83v2.84h-2.83Z" transform="translate(-202.19 -259.08)"/><path class="cls-1" d="M2765.9,1090.12c-.05-1-.08-2.06-.08-3.25l-3.24,3.25Z" transform="translate(-202.19 -259.08)"/><path class="cls-1" d="M2784.63,1060.37a4.25,4.25,0,0,0-4.24-4.25H2743.6a4.25,4.25,0,0,0-4.24,4.25v1.42h45.27Z" transform="translate(-202.19 -259.08)"/><path class="cls-1" d="M2730.87,1085.87a11.33,11.33,0,1,0,11.32,11.33A11.34,11.34,0,0,0,2730.87,1085.87Zm0,17a5.67,5.67,0,1,1,5.66-5.67A5.68,5.68,0,0,1,2730.87,1102.87Z" transform="translate(-202.19 -259.08)"/><path class="cls-1" d="M2739.36,1064.62v14.68c.51.25,1,.51,1.5.79l1.33-.66v-12h39.61v3.3h2.83v-6.13Z" transform="translate(-202.19 -259.08)"/><path class="cls-1" d="M2742.19,1124.11V1115l-1.33-.67c-.49.29-1,.55-1.5.8V1127h20.54c0-.86,0-1.86,0-2.84Z" transform="translate(-202.19 -259.08)"/><path class="cls-1" d="M2739.36,1134a4.25,4.25,0,0,0,4.24,4.25H2761l-.35-2.83h-2.85v-2.84h2.51l-.35-2.83h-20.55Z" transform="translate(-202.19 -259.08)"/><path class="cls-1" d="M2740.71,1111.06l2.89,1.44,2.55-2.56-1.44-2.89.44-.68a16.88,16.88,0,0,0,2.3-5.55l.17-.79,3.05-1v-3.62l-3.05-1-.17-.79a17,17,0,0,0-2.3-5.56l-.44-.67,1.44-2.89-2.55-2.57-2.89,1.45-.68-.44a16.67,16.67,0,0,0-5.55-2.3l-.78-.18-1-3.05h-3.62l-1,3.05-.79.18a16.75,16.75,0,0,0-5.55,2.3l-.67.44-2.89-1.45-2.56,2.57,1.44,2.89-.43.68a16.9,16.9,0,0,0-2.31,5.55l-.17.79-3.05,1V1099l3.05,1,.17.79a16.9,16.9,0,0,0,2.31,5.55l.43.68-1.44,2.89,2.56,2.57,2.89-1.45.67.44a16.75,16.75,0,0,0,5.55,2.3l.79.18,1,3h3.62l1-3.06.78-.17a16.48,16.48,0,0,0,5.55-2.31Zm-9.84.3A14.17,14.17,0,1,1,2745,1097.2,14.17,14.17,0,0,1,2730.87,1111.36Z" transform="translate(-202.19 -259.08)"/><rect class="cls-24" x="2559.81" y="836.7" width="2.83" height="2.83"/><path class="cls-24" d="M2774.1,1101.45h-18.35l8.07,8.08,2-2-3.24-3.25h11.19A7.14,7.14,0,0,1,2774.1,1101.45Z" transform="translate(-202.19 -259.08)"/><path class="cls-35" d="M2767.65,1097.86v.76h.64A4.85,4.85,0,0,1,2767.65,1097.86Z" transform="translate(-202.19 -259.08)"/><path class="cls-24" d="M2762.58,1090.12l3.24-3.25-2-2-8.07,8.08h10.4c-.11-.84-.19-1.78-.25-2.83Z" transform="translate(-202.19 -259.08)"/><polygon class="cls-24" points="2555.56 873.53 2555.56 876.36 2558.42 876.36 2558.07 873.53 2555.56 873.53"/><path class="cls-36" d="M2761,1138.28H2743.6a4.25,4.25,0,0,1-4.24-4.25v-4.25h20.55l-.06-.52s0-1,.05-2.31h-20.54V1115.1c.51-.25,1-.51,1.5-.8l1.33.67v9.14h17.74c0-1,0-2,0-2.83H2745v-6.19l4.58-4.59-1.65-3.29a19.53,19.53,0,0,0,2.08-5l3.47-1.16v-7.71l-3.47-1.16a20,20,0,0,0-2.08-5l1.65-3.29-4.58-4.59v-9H2779v.47h2.83v-3.3h-39.61v12l-1.33.66c-.49-.28-1-.54-1.5-.79v-14.68h45.27v6.13h2.83v-10.38a7.08,7.08,0,0,0-7.07-7.08H2743.6a7.09,7.09,0,0,0-7.08,7.08v17.84c-.21-.06-.43-.14-.64-.19l-1.16-3.49H2727l-1.16,3.49a19.46,19.46,0,0,0-5,2.08l-3.29-1.65-5.44,5.45,1.64,3.29a19.58,19.58,0,0,0-2.07,5l-3.48,1.17v7.7l3.48,1.17a19.94,19.94,0,0,0,2.07,5l-1.64,3.29,5.44,5.45,3.29-1.65a19.11,19.11,0,0,0,5,2.08l1.16,3.48h7.7l1.16-3.48.65-.19V1134a7.08,7.08,0,0,0,7.07,7.08h36.79a7,7,0,0,0,4.12-1.33l-23.45-.64Zm-21.59-77.91a4.25,4.25,0,0,1,4.24-4.25h36.79a4.25,4.25,0,0,1,4.24,4.25v1.42h-45.27Zm-4.88,53.43-.78.17-1,3.06h-3.62l-1-3-.79-.18a16.75,16.75,0,0,1-5.55-2.3l-.67-.44-2.89,1.45-2.56-2.57,1.44-2.89-.43-.68a16.9,16.9,0,0,1-2.31-5.55l-.17-.79-3.05-1v-3.62l3.05-1,.17-.79a16.9,16.9,0,0,1,2.31-5.55l.43-.68-1.44-2.89,2.56-2.57,2.89,1.45.67-.44a16.75,16.75,0,0,1,5.55-2.3l.79-.18,1-3.05h3.62l1,3.05.78.18a16.67,16.67,0,0,1,5.55,2.3l.68.44,2.89-1.45,2.55,2.57-1.44,2.89.44.67a17,17,0,0,1,2.3,5.56l.17.79,3.05,1V1099l-3.05,1-.17.79a16.88,16.88,0,0,1-2.3,5.55l-.44.68,1.44,2.89-2.55,2.56-2.89-1.44-.68.43A16.48,16.48,0,0,1,2734.48,1113.8Z" transform="translate(-202.19 -259.08)"/><rect class="cls-24" x="2554.15" y="836.7" width="2.83" height="2.83"/><path class="cls-24" d="M2730.87,1091.53a5.67,5.67,0,1,0,5.66,5.67A5.67,5.67,0,0,0,2730.87,1091.53Zm0,8.5a2.83,2.83,0,1,1,2.83-2.83A2.83,2.83,0,0,1,2730.87,1100Z" transform="translate(-202.19 -259.08)"/><path class="cls-24" d="M2745,1097.2a14.15,14.15,0,1,0-14.15,14.16A14.18,14.18,0,0,0,2745,1097.2Zm-14.15,11.33a11.33,11.33,0,1,1,11.32-11.33A11.34,11.34,0,0,1,2730.87,1108.53Z" transform="translate(-202.19 -259.08)"/><path class="cls-9" d="M2770.48,1095.78h-2.83v2.08a4.85,4.85,0,0,0,.64.76h2.19Z" transform="translate(-202.19 -259.08)"/><g class="cls-37"><g class="cls-38"><rect class="cls-24" x="2553.56" y="784.99" width="103.96" height="116.53"/></g></g><line class="cls-10" x1="2504.13" y1="403.67" x2="2457.84" y2="403.67"/><line class="cls-10" x1="2579.47" y1="639.49" x2="2533.18" y2="639.49"/><line class="cls-10" x1="2504.13" y1="867.45" x2="2457.84" y2="867.45"/></svg>