<?xml version="1.0" encoding="UTF-8"?>
<svg width="50px" height="44px" viewBox="0 0 50 44" version="1.1" xmlns="http://www.w3.org/2000/svg" xmlns:xlink="http://www.w3.org/1999/xlink">
    <!-- Generator: Sketch 63.1 (92452) - https://sketch.com -->
    <title>window-close</title>
    <desc>Created with Sketch.</desc>
    <g id="Landing2020" stroke="none" stroke-width="1" fill="none" fill-rule="evenodd">
        <g id="3-1.2020_herings_team-popup" transform="translate(-1040.000000, -716.000000)" fill="#6D7278" fill-rule="nonzero">
            <g id="pop-up" transform="translate(319.000000, 690.000000)">
                <path d="M766.3125,26 L725.6875,26 C723.099609,26 721,28.0996094 721,30.6875 L721,65.0625 C721,67.6503906 723.099609,69.75 725.6875,69.75 L766.3125,69.75 C768.900391,69.75 771,67.6503906 771,65.0625 L771,30.6875 C771,28.0996094 768.900391,26 766.3125,26 Z M766.3125,64.4765625 C766.3125,64.7988281 766.048828,65.0625 765.726562,65.0625 L726.273438,65.0625 C725.951172,65.0625 725.6875,64.7988281 725.6875,64.4765625 L725.6875,31.2734375 C725.6875,30.9511719 725.951172,30.6875 726.273438,30.6875 L765.726562,30.6875 C766.048828,30.6875 766.3125,30.9511719 766.3125,31.2734375 L766.3125,64.4765625 Z M755.814453,41.8789062 L749.818359,47.875 L755.814453,53.8710938 C756.263672,54.3203125 756.263672,55.0527344 755.814453,55.5117188 L753.636719,57.6894531 C753.1875,58.1386719 752.455078,58.1386719 751.996094,57.6894531 L746,51.6933594 L740.003906,57.6894531 C739.554688,58.1386719 738.822266,58.1386719 738.363281,57.6894531 L736.185547,55.5117188 C735.736328,55.0625 735.736328,54.3300781 736.185547,53.8710938 L742.181641,47.875 L736.185547,41.8789062 C735.736328,41.4296875 735.736328,40.6972656 736.185547,40.2382812 L738.363281,38.0605469 C738.8125,37.6113281 739.544922,37.6113281 740.003906,38.0605469 L746,44.0566406 L751.996094,38.0605469 C752.445312,37.6113281 753.177734,37.6113281 753.636719,38.0605469 L755.814453,40.2382812 C756.273438,40.6875 756.273438,41.4199219 755.814453,41.8789062 Z" id="window-close"></path>
            </g>
        </g>
    </g>
</svg>