<svg width="71" height="71" viewBox="0 0 71 71" fill="none" xmlns="http://www.w3.org/2000/svg">
<circle cx="35.5" cy="35.5" r="35.5" fill="white"/>
<path d="M42.9101 46.6188C42.7513 45.5077 41.4815 43.2855 37.672 43.2855C32.9101 43.2855 33.3863 41.8571 30.0529 40.9047C27.6217 40.21 24.3139 41.574 23.027 42.542C22.8151 42.7014 22.7127 42.9588 22.7127 43.224L22.7126 49.2386C22.7126 49.7909 22.8954 50.3416 23.434 50.4639C24.5493 50.7172 26.8731 51.2457 31.0053 52.3331C40.0529 54.7141 43.3863 51.8569 50.0529 49.9522C56.7196 48.0474 53.8624 43.7617 50.0529 45.1903C47.0053 46.3331 44.0212 46.6188 42.9101 46.6188ZM42.9101 46.6188C42.1165 47.4125 38.7199 48.6188 31.4818 47.095" stroke="black" stroke-width="1.5" stroke-linecap="round"/>
<rect x="17" y="36.9053" width="5.71429" height="18.0952" rx="1" stroke="black" stroke-width="1.5"/>
<path d="M43.6805 27.9126L43.6811 27.913C44.0118 28.1305 44.2254 28.3631 44.3341 28.6077C44.4477 28.8635 44.5039 29.1205 44.5039 29.3794C44.5039 29.6776 44.423 29.9548 44.2598 30.213C44.098 30.4692 43.8587 30.6788 43.5372 30.84C43.2196 30.9992 42.8197 31.0815 42.333 31.0815C41.9824 31.0815 41.6254 31.0213 41.2617 30.8999C40.9117 30.7813 40.6162 30.5803 40.3738 30.2954C40.2119 30.1009 40.0961 29.8564 40.0289 29.5587C39.9631 29.2669 39.7191 29.018 39.3999 29.018C39.0754 29.018 38.7872 29.2863 38.8439 29.6296C38.9024 29.9841 39.0228 30.3247 39.2042 30.6512L39.2042 30.6512L39.205 30.6524C39.4797 31.1301 39.88 31.5159 40.4023 31.8101L40.4035 31.8108C40.9353 32.1008 41.5799 32.2432 42.333 32.2432C42.8341 32.2432 43.2886 32.1735 43.6955 32.0324C44.1063 31.8918 44.4588 31.6927 44.7509 31.434C45.0483 31.1756 45.276 30.8681 45.4334 30.5123L45.4336 30.5117C45.591 30.1494 45.669 29.7528 45.669 29.3234C45.669 28.7748 45.5582 28.3023 45.3313 27.9104C45.1046 27.5124 44.7551 27.1833 44.2886 26.921C43.8295 26.6537 43.2419 26.4299 42.5285 26.2481C42.0395 26.1182 41.6451 25.986 41.3436 25.852C41.0415 25.7178 40.8146 25.5771 40.6579 25.4318C40.5058 25.2857 40.4022 25.1311 40.3434 24.9682C40.2878 24.793 40.2594 24.5986 40.2594 24.3841C40.2594 24.1151 40.3252 23.8542 40.4585 23.6003C40.5939 23.3523 40.8085 23.1441 41.1083 22.9776C41.4022 22.8142 41.792 22.7287 42.2843 22.7287C42.7574 22.7287 43.1497 22.8255 43.466 23.0135L43.4666 23.0138C43.7935 23.205 44.0368 23.4478 44.2002 23.7417L44.2002 23.7417L44.2008 23.7429C44.2913 23.9008 44.3574 24.063 44.3995 24.2296C44.4722 24.5175 44.7117 24.7829 45.0378 24.7829C45.3549 24.7829 45.6334 24.5217 45.587 24.188C45.532 23.7929 45.4092 23.4277 45.2181 23.093C44.9542 22.6214 44.5698 22.2505 44.0679 21.9807C43.5689 21.7034 42.9731 21.567 42.2843 21.567C41.7985 21.567 41.3566 21.6401 40.9599 21.788L40.9594 21.7882C40.5697 21.9356 40.2338 22.1415 39.953 22.4065C39.6781 22.6649 39.4648 22.9687 39.3135 23.3172L39.3135 23.3172L39.3132 23.3178C39.1671 23.6606 39.0943 24.0257 39.0943 24.4121C39.0943 24.8397 39.1636 25.2152 39.3056 25.5357C39.4471 25.8549 39.6538 26.1286 39.9248 26.3561C40.1937 26.5818 40.522 26.7735 40.9081 26.9322L40.9086 26.9324C41.2974 27.09 41.737 27.2314 42.2271 27.3568L42.2271 27.3568L42.2288 27.3572C42.8781 27.5116 43.3596 27.6981 43.6805 27.9126Z" fill="black" stroke="black" stroke-width="0.2"/>
<path d="M42.7148 19.7627V22.1436" stroke="black" stroke-linecap="round"/>
<path d="M42.7148 32.1436V34.0483" stroke="black" stroke-linecap="round"/>
<circle cx="42.2368" cy="26.9048" r="11.1548" stroke="black" stroke-width="1.5"/>
</svg>
