<svg width="71" height="71" viewBox="0 0 71 71" fill="none" xmlns="http://www.w3.org/2000/svg">
<circle cx="35.5" cy="35.5" r="35.5" fill="white"/>
<mask id="path-2-inside-1_403_6726" fill="white">
<rect x="16" y="42.0703" width="10.2778" height="9.92922" rx="1"/>
</mask>
<rect x="16" y="42.0703" width="10.2778" height="9.92922" rx="1" stroke="black" stroke-width="3" mask="url(#path-2-inside-1_403_6726)"/>
<mask id="path-3-inside-2_403_6726" fill="white">
<rect x="29.3594" y="35.1201" width="10.2778" height="16.8797" rx="1"/>
</mask>
<rect x="29.3594" y="35.1201" width="10.2778" height="16.8797" rx="1" stroke="black" stroke-width="3" mask="url(#path-3-inside-2_403_6726)"/>
<mask id="path-4-inside-3_403_6726" fill="white">
<rect x="42.7227" y="27.1768" width="10.2778" height="24.823" rx="1"/>
</mask>
<rect x="42.7227" y="27.1768" width="10.2778" height="24.823" rx="1" stroke="black" stroke-width="3" mask="url(#path-4-inside-3_403_6726)"/>
<path d="M17.543 38.5959L28.9872 27.5397C29.1918 27.3421 29.5198 27.3547 29.7086 27.5675L32.1083 30.2721C32.2937 30.4811 32.6145 30.4976 32.8204 30.3087L42.7235 21.2197" stroke="black" stroke-width="1.5" stroke-linecap="round"/>
<path d="M40.3336 18.0486L47.3721 16.586L45.8582 23.3859L40.3336 18.0486Z" stroke="black" stroke-width="1.5"/>
</svg>
