<svg width="71" height="71" viewBox="0 0 71 71" fill="none" xmlns="http://www.w3.org/2000/svg">
<circle cx="35.5" cy="35.5" r="35.5" fill="white"/>
<path d="M49.5994 53.3759H19.0801C18.0586 53.3759 17.2305 52.5477 17.2305 51.5262V20.0821C17.2305 19.0605 18.0586 18.2324 19.0801 18.2324H49.5994C50.621 18.2324 51.4491 19.0605 51.4491 20.0821V43.2028" stroke="black" stroke-width="1.5"/>
<path d="M18.1562 24.7061H50.5252" stroke="black" stroke-width="1.5" stroke-linecap="round"/>
<path d="M43.052 45.9955V46.7455H43.802H54.5919C54.7222 46.7455 54.7916 46.8462 54.7844 46.9335C54.629 48.8317 54.0037 50.6632 52.9617 52.2536C51.7489 54.1046 50.0268 55.545 48.0146 56.395C46.0027 57.2449 43.7896 57.467 41.6548 57.0339C39.5198 56.6008 37.5566 55.5314 36.0143 53.9586C34.4719 52.3856 33.4199 50.3797 32.9936 48.1938C32.5672 46.0078 32.7861 43.7421 33.6221 41.6839C34.4581 39.6258 35.8727 37.869 37.6849 36.6341C39.2417 35.5733 41.0323 34.9381 42.8859 34.7802C42.9203 34.7773 42.9529 34.7871 42.9859 34.8198C43.0218 34.8555 43.052 34.9152 43.052 34.9916V45.9955ZM56.2508 43.0657C56.2552 43.1132 56.2406 43.1518 56.2096 43.1844C56.1761 43.2197 56.1247 43.2448 56.0632 43.2448H46.5138V33.9913C46.5138 33.9149 46.544 33.8551 46.5799 33.8195C46.6129 33.7867 46.6455 33.7769 46.68 33.7798C47.7513 33.8709 48.8035 34.1214 49.7996 34.5239C51.0786 35.0407 52.2394 35.7977 53.2165 36.7507C54.1934 37.7038 54.9674 38.8342 55.4951 40.0769C55.9008 41.0324 56.155 42.0401 56.2508 43.0657Z" fill="white" stroke="black" stroke-width="1.5"/>
<path d="M22.7812 31.3311H32.7812" stroke="black" stroke-width="1.5" stroke-linecap="round"/>
<path d="M22.7812 37.3252H28.6146" stroke="black" stroke-width="1.5" stroke-linecap="round"/>
<path d="M22.7812 43.3369H26.9479" stroke="black" stroke-width="1.5" stroke-linecap="round"/>
</svg>
