<svg width="1920" height="3546" viewBox="0 0 1920 3546" fill="none" xmlns="http://www.w3.org/2000/svg">
<path d="M1938.8 1664.34C1909.99 1631.46 1865.1 1606.14 1807.82 1587.97C1750.6 1569.81 1681.35 1558.89 1604.26 1554.56C1450.08 1545.91 1265.06 1563.65 1083.23 1602.04C901.385 1640.44 722.968 1699.43 581.945 1773.13C440.674 1846.96 337.936 1935.03 305.796 2031.06C273.619 2127.2 297.589 2255.24 358.992 2392.76C420.309 2530.07 518.575 2675.98 633.641 2807.34C748.707 2938.7 880.406 3055.31 1008.46 3134.18C1136.69 3213.15 1260.46 3253.76 1360 3234.52C1459.43 3215.31 1560.27 3125.07 1652.08 2994.78C1743.74 2864.72 1825.74 2695.66 1887.77 2520.5C1949.81 2345.34 1991.79 2164.31 2003.54 2010.37C2009.41 1933.39 2007.71 1863.33 1997.25 1804.21C1986.78 1745.05 1967.6 1697.22 1938.8 1664.34Z" stroke="#E1F1FF" stroke-width="9"/>
<path d="M619.596 271.152C596.026 257.544 564.476 251.345 526.922 251.738C489.412 252.131 446.253 259.096 399.763 271.478C306.785 296.242 200.989 342.536 101.33 400.402C1.66894 458.271 -91.6342 527.586 -159.718 598.265C-227.998 669.148 -270.111 740.572 -269.187 802.705C-268.26 864.993 -227.784 935.467 -162.862 1004.58C-98.0914 1073.52 -9.64205 1140.41 85.7668 1195.5C181.176 1250.58 283.329 1293.74 375.424 1315.36C467.736 1337.03 549.006 1336.84 603.411 1306.5C657.683 1276.23 698.495 1204.06 725.764 1109.5C752.954 1015.21 766.361 899.765 766.675 784.539C766.99 669.315 754.213 554.564 729.193 461.674C716.682 415.227 701.144 374.374 682.736 341.697C664.306 308.982 643.166 284.761 619.596 271.152Z" stroke="#E1F1FF" stroke-width="9"/>
<path d="M1725.23 1281.33C1708.46 1291.01 1693.27 1308.23 1679.93 1331.61C1666.61 1354.95 1655.29 1384.15 1646.11 1417.37C1627.75 1483.82 1618.09 1565.87 1617.84 1648.25C1617.6 1730.63 1626.77 1813.08 1645.93 1880.3C1665.16 1947.8 1694.13 1998.84 1732.6 2020.02C1771.23 2041.28 1829.36 2041.19 1895.85 2025.34C1962.11 2009.54 2035.73 1978.31 2104.57 1938.57C2173.42 1898.82 2237.27 1850.68 2284.08 1801.19C2331.05 1751.54 2360.19 1701.24 2361.09 1657.16C2361.99 1613.24 2332.29 1562.63 2283.46 1512.22C2234.84 1462.01 2168.05 1412.83 2096.6 1371.84C2025.16 1330.85 1949.29 1298.17 1882.58 1280.84C1849.22 1272.18 1818.29 1267.38 1791.42 1267.24C1764.5 1267.11 1742 1271.65 1725.23 1281.33Z" stroke="#E1F1FF" stroke-width="9"/>
<path d="M-335.215 3337.59C-439.732 2919.43 226.469 2569.94 1182.78 2745.37C2139.09 2920.81 2633.87 3660.72 1917.61 3660.72C1201.35 3660.72 -230.698 3755.75 -335.215 3337.59Z" fill="#ECF6FF"/>
</svg>
