<svg width="566" height="371" viewBox="0 0 566 371" fill="none" xmlns="http://www.w3.org/2000/svg">
<g clip-path="url(#clip0_7_77)">
<mask id="mask0_7_77" style="mask-type:luminance" maskUnits="userSpaceOnUse" x="0" y="0" width="566" height="371">
<path d="M566 0H0V371H566V0Z" fill="white"/>
</mask>
<g mask="url(#mask0_7_77)">
<path d="M204.734 230.556H131.109V258.053H204.734V230.556Z" fill="white" stroke="#263238" stroke-linecap="round" stroke-linejoin="round"/>
<path d="M204.734 257.326H131.109V369.413H204.734V257.326Z" fill="#78AEFF" stroke="#263238" stroke-linecap="round" stroke-linejoin="round"/>
<path d="M204.734 257.326H131.109V267.634H204.734V257.326Z" fill="#263238" stroke="#263238" stroke-linecap="round" stroke-linejoin="round"/>
<path d="M190.836 280.021H131.109V346.717H190.836V280.021Z" fill="white" stroke="#263238" stroke-linecap="round" stroke-linejoin="round"/>
<path d="M210.773 244.492H125.062V263.192H210.773V244.492Z" fill="white" stroke="#263238" stroke-linecap="round" stroke-linejoin="round"/>
<path d="M308.071 332.732C305.469 332.725 303.352 334.82 303.336 337.433L303.297 347.169C303.274 352.081 299.266 356.062 294.36 356.046C289.453 356.022 285.477 352.01 285.492 347.099L285.649 310.756C285.649 309.215 284.914 307.862 283.781 306.994L283.688 28.6152H278.039L278.125 306.971C276.985 307.823 276.235 309.176 276.227 310.717L276.071 347.06C276.024 357.172 284.211 365.439 294.321 365.486C304.422 365.533 312.68 357.336 312.727 347.216L312.766 337.48C312.774 334.875 310.68 332.756 308.071 332.74V332.732Z" fill="#263238" stroke="#263238" stroke-linecap="round" stroke-linejoin="round"/>
<path d="M282.227 26.8091C282.688 26.8873 283.18 26.9811 283.703 27.075L282.633 1.99388C282.633 1.11013 281.922 0.390625 281.039 0.390625C280.156 0.390625 279.437 1.10231 279.437 1.98605L278.148 27.1766C280.766 26.9107 282.227 26.8091 282.227 26.8091Z" fill="#263238" stroke="#263238" stroke-linecap="round" stroke-linejoin="round"/>
<path d="M386.313 160.301L386.258 160.277C386.258 160.277 386.281 160.285 386.313 160.301Z" stroke="#263238" stroke-linecap="round" stroke-linejoin="round"/>
<path d="M198.031 164.509C197.914 164.485 197.82 164.439 197.734 164.384" stroke="#263238" stroke-linecap="round" stroke-linejoin="round"/>
<path d="M229.541 76.1262C244.017 50.3178 266.267 36.5298 271.213 32.9949C273.627 31.2665 275.533 28.1929 276.978 24.877C275.439 26.1126 273.025 27.7472 269.22 29.7806C259.47 34.9892 211.681 41.496 187.947 52.5624C164.213 63.6287 130.728 92.5889 119.025 106.909C109.548 118.499 92.1891 140.334 86.611 148.226C85.2985 150.079 84.6422 151.166 84.8922 151.166C86.1891 151.166 86.1891 153.121 87.4938 151.495C88.7907 149.868 87.1657 147.592 100.822 144.988C114.478 142.383 138.533 144.339 162.588 147.592C186.642 150.846 197.697 158.658 198.025 159.636C198.33 160.543 196.674 163.687 197.728 164.391C201.799 150.181 217.103 98.2902 229.533 76.1262H229.541Z" fill="#78AEFF"/>
<path opacity="0.24" d="M229.541 76.1262C244.017 50.3178 266.267 36.5298 271.213 32.9949C273.627 31.2665 275.533 28.1929 276.978 24.877C275.439 26.1126 273.025 27.7472 269.22 29.7806C259.47 34.9892 211.681 41.496 187.947 52.5624C164.213 63.6287 130.728 92.5889 119.025 106.909C109.548 118.499 92.1891 140.334 86.611 148.226C85.2985 150.079 84.6422 151.166 84.8922 151.166C86.1891 151.166 86.1891 153.121 87.4938 151.495C88.7907 149.868 87.1657 147.592 100.822 144.988C114.478 142.383 138.533 144.339 162.588 147.592C186.642 150.846 197.697 158.658 198.025 159.636C198.33 160.543 196.674 163.687 197.728 164.391C201.799 150.181 217.103 98.2902 229.533 76.1262H229.541Z" fill="black"/>
<path d="M229.541 76.1262C244.017 50.3178 266.267 36.5298 271.213 32.9949C273.627 31.2665 275.533 28.1929 276.978 24.877C275.439 26.1126 273.025 27.7472 269.22 29.7806C259.47 34.9892 211.681 41.496 187.947 52.5624C164.213 63.6287 130.728 92.5889 119.025 106.909C109.548 118.499 92.1891 140.334 86.611 148.226C85.2985 150.079 84.6422 151.166 84.8922 151.166C86.1891 151.166 86.1891 153.121 87.4938 151.495C88.7907 149.868 87.1657 147.592 100.822 144.988C114.478 142.383 138.533 144.339 162.588 147.592C186.642 150.846 197.697 158.658 198.025 159.636C198.33 160.543 196.674 163.687 197.728 164.391C201.799 150.181 217.103 98.2902 229.533 76.1262H229.541Z" stroke="#263238" stroke-linecap="round" stroke-linejoin="round"/>
<path d="M482.156 135.22C477.281 130.011 440.547 92.2604 440.547 92.2604C440.547 92.2604 404.789 58.0916 379.43 49.3011C354.07 40.5184 289.203 30.5313 286.453 28.7951C286.359 28.7326 286.266 28.6622 286.172 28.5918C288.406 31.5246 291.445 33.863 295.586 35.0986C315.719 41.105 335.141 49.5905 352.094 82.4688C364.93 107.37 381.211 144.026 388.359 160.348C387.82 160.84 386.625 160.402 386.328 160.285C386.75 160.457 389.125 161.333 388.531 158.956C387.883 156.351 387.555 154.396 387.555 154.396C387.555 154.396 410.961 132.263 478.906 134.868C478.906 134.868 481.18 138.77 482.805 139.427C484.43 140.076 487.031 140.405 482.156 135.196V135.22Z" fill="#78AEFF"/>
<path d="M482.156 135.22C477.281 130.011 440.547 92.2604 440.547 92.2604C440.547 92.2604 404.789 58.0916 379.43 49.3011C354.07 40.5184 289.203 30.5313 286.453 28.7951C286.359 28.7326 286.266 28.6622 286.172 28.5918C288.406 31.5246 291.445 33.863 295.586 35.0986C315.719 41.105 335.141 49.5905 352.094 82.4688C364.93 107.37 381.211 144.026 388.359 160.348C387.82 160.84 386.625 160.402 386.328 160.285C386.75 160.457 389.125 161.333 388.531 158.956C387.883 156.351 387.555 154.396 387.555 154.396C387.555 154.396 410.961 132.263 478.906 134.868C478.906 134.868 481.18 138.77 482.805 139.427C484.43 140.076 487.031 140.405 482.156 135.196V135.22Z" stroke="#263238" stroke-linecap="round" stroke-linejoin="round"/>
<path d="M352.086 82.4846C335.133 49.6063 315.711 41.1208 295.578 35.1144C291.445 33.8788 288.398 31.5404 286.164 28.6076C284.352 27.2859 282.984 24.5643 282.328 23.047C282.047 22.3979 281.406 21.9678 280.703 21.9678H280.609C280.047 21.9678 279.539 22.2493 279.203 22.6951C278.844 23.18 278.18 23.9073 276.984 24.8693C275.539 28.1853 273.633 31.2588 271.219 32.9872C266.273 36.5222 244.023 50.3101 229.547 76.1185C217.109 98.2825 201.813 150.165 197.742 164.383C197.828 164.438 197.922 164.485 198.039 164.508C199.664 164.837 201.617 160.277 201.617 160.277C201.617 160.277 230.227 150.189 284.188 149.86C338.148 149.532 374.563 153.763 382.688 155.39L386.266 160.27C386.266 160.27 387.75 160.927 388.367 160.363C381.219 144.042 364.945 107.386 352.102 82.4846H352.086Z" fill="#78AEFF"/>
<path opacity="0.16" d="M352.086 82.4846C335.133 49.6063 315.711 41.1208 295.578 35.1144C291.445 33.8788 288.398 31.5404 286.164 28.6076C284.352 27.2859 282.984 24.5643 282.328 23.047C282.047 22.3979 281.406 21.9678 280.703 21.9678H280.609C280.047 21.9678 279.539 22.2493 279.203 22.6951C278.844 23.18 278.18 23.9073 276.984 24.8693C275.539 28.1853 273.633 31.2588 271.219 32.9872C266.273 36.5222 244.023 50.3101 229.547 76.1185C217.109 98.2825 201.813 150.165 197.742 164.383C197.828 164.438 197.922 164.485 198.039 164.508C199.664 164.837 201.617 160.277 201.617 160.277C201.617 160.277 230.227 150.189 284.188 149.86C338.148 149.532 374.563 153.763 382.688 155.39L386.266 160.27C386.266 160.27 387.75 160.927 388.367 160.363C381.219 144.042 364.945 107.386 352.102 82.4846H352.086Z" fill="black"/>
<path d="M352.086 82.4846C335.133 49.6063 315.711 41.1208 295.578 35.1144C291.445 33.8788 288.398 31.5404 286.164 28.6076C284.352 27.2859 282.984 24.5643 282.328 23.047C282.047 22.3979 281.406 21.9678 280.703 21.9678H280.609C280.047 21.9678 279.539 22.2493 279.203 22.6951C278.844 23.18 278.18 23.9073 276.984 24.8693C275.539 28.1853 273.633 31.2588 271.219 32.9872C266.273 36.5222 244.023 50.3101 229.547 76.1185C217.109 98.2825 201.813 150.165 197.742 164.383C197.828 164.438 197.922 164.485 198.039 164.508C199.664 164.837 201.617 160.277 201.617 160.277C201.617 160.277 230.227 150.189 284.188 149.86C338.148 149.532 374.563 153.763 382.688 155.39L386.266 160.27C386.266 160.27 387.75 160.927 388.367 160.363C381.219 144.042 364.945 107.386 352.102 82.4846H352.086Z" stroke="#263238" stroke-linecap="round" stroke-linejoin="round"/>
<path d="M327.085 78.3245C306.288 72.0835 292.343 61.1032 285.483 54.6433C283.226 52.516 279.718 52.516 277.46 54.6433C270.601 61.1032 256.655 72.0835 235.858 78.3245C233.21 79.1222 231.476 81.6639 231.718 84.4168C232.796 97.0317 239.327 132.061 277.624 165.51C279.827 167.434 283.116 167.434 285.319 165.51C323.616 132.069 330.14 97.0395 331.226 84.4168C331.46 81.6561 329.733 79.1222 327.085 78.3245Z" fill="#78AEFF" stroke="#263238" stroke-linecap="round" stroke-linejoin="round"/>
<path d="M323.376 80.9053C304.274 75.1727 291.461 65.084 285.165 59.148C283.094 57.1928 279.868 57.1928 277.797 59.148C271.5 65.084 258.688 75.1727 239.579 80.9053C237.149 81.6326 235.555 83.971 235.774 86.505C236.766 98.0953 242.758 130.278 277.946 160.997C279.969 162.765 282.993 162.765 285.016 160.997C320.204 130.27 326.196 98.0953 327.188 86.505C327.407 83.971 325.813 81.6405 323.383 80.9053H323.376Z" fill="#263238" stroke="#263238" stroke-linecap="round" stroke-linejoin="round"/>
<path d="M319.694 82.5709C302.976 77.3858 291.538 68.6579 285.562 63.1521C283.257 61.0326 279.694 61.0326 277.39 63.1521C271.413 68.65 259.976 77.378 243.257 82.5709C240.483 83.4312 238.679 86.0981 238.968 88.9918C240.132 100.434 246.21 129.19 277.452 156.829C279.749 158.854 283.202 158.854 285.491 156.829C316.733 129.19 322.812 100.434 323.976 88.9918C324.272 86.0981 322.46 83.4312 319.687 82.5709H319.694Z" fill="#263238" stroke="#263238" stroke-linecap="round" stroke-linejoin="round"/>
<path d="M319.695 82.5707C303.891 77.6671 292.812 69.6039 286.594 64.0903C284.609 62.3306 281.477 63.7462 281.477 66.4052V152.324C281.477 155.468 285.211 157.126 287.523 155.006C317 127.939 322.844 100.191 323.977 88.9993C324.273 86.1057 322.461 83.4388 319.688 82.5785L319.695 82.5707Z" fill="white" stroke="#263238" stroke-linecap="round" stroke-linejoin="round"/>
<path d="M304.078 98.103H288.781V82.79H274.172V98.103H258.867V112.728H274.172V128.049H288.781V112.728H304.078V98.103Z" fill="#78AEFF" stroke="#263238" stroke-linecap="round" stroke-linejoin="round"/>
<path d="M509.605 321.245L509.701 321.287C510.408 321.594 511.698 321.746 512.884 321.812C513.441 321.843 513.954 321.854 514.336 321.858C514.272 321.663 514.197 321.441 514.12 321.215C514.008 320.887 513.893 320.554 513.802 320.294C513.756 320.165 513.717 320.054 513.687 319.972C513.666 319.916 513.653 319.882 513.647 319.866L509.605 321.245ZM509.605 321.245H509.6M509.6 321.245C508.986 320.967 508.341 320.577 507.808 320.096C507.246 319.588 506.836 319.004 506.683 318.368M509.6 321.245L506.683 318.368M506.683 318.368L513.643 319.855C513.246 319.025 512.398 317.888 511.382 316.999C510.344 316.091 509.26 315.554 508.381 315.671C507.129 315.844 506.381 317.105 506.683 318.368Z" stroke="black"/>
<mask id="mask1_7_77" style="mask-type:luminance" maskUnits="userSpaceOnUse" x="506" y="303" width="57" height="67">
<path d="M510.845 333.085C512.501 333.328 515.993 332.311 516.267 332.233C516.821 334.188 517.54 336.151 518.384 338.091C518.861 339.201 519.384 340.312 519.915 341.407C519.595 340.937 519.306 340.523 519.259 340.468C517.954 338.959 514.556 336.816 512.509 337.692C511.032 338.317 510.603 340.093 511.337 341.438C512.095 342.814 513.907 343.503 515.376 343.714C516.868 343.933 519.86 343.127 520.65 342.908C520.86 343.33 521.064 343.753 521.275 344.167C522.282 346.185 523.298 348.187 524.236 350.181C524.564 350.885 524.868 351.589 525.165 352.293C524.884 351.879 524.642 351.534 524.595 351.48C523.29 349.978 519.892 347.827 517.845 348.703C516.368 349.329 515.939 351.104 516.673 352.449C517.431 353.826 519.243 354.514 520.712 354.725C522.134 354.936 524.907 354.217 525.845 353.959C526.134 354.686 526.423 355.421 526.665 356.141C526.821 356.634 527.009 357.103 527.134 357.611C527.275 358.112 527.407 358.604 527.548 359.097C527.775 360.051 528.017 361.029 528.22 361.967C528.361 362.616 528.486 363.234 528.618 363.86C528.298 363.156 527.642 361.787 527.571 361.686C526.517 359.996 523.478 357.369 521.321 357.916C519.767 358.315 519.071 359.996 519.603 361.443C520.142 362.921 521.829 363.868 523.251 364.306C524.814 364.783 528.275 364.345 528.712 364.29C528.923 365.322 529.11 366.339 529.275 367.293C529.4 367.997 529.509 368.677 529.618 369.334H531.009C530.876 368.607 530.736 367.848 530.579 367.051C530.376 365.995 530.134 364.877 529.868 363.727C530.126 363.625 531.603 363.023 532.915 362.296C534.056 363.531 536.978 364.978 537.353 365.158C536.954 366.136 536.556 367.082 536.173 367.974C535.97 368.443 535.767 368.889 535.571 369.327H537.04C537.157 369.045 537.275 368.771 537.392 368.482C537.798 367.489 538.212 366.425 538.634 365.322C539.056 365.408 542.478 366.104 544.079 365.745C545.525 365.416 547.282 364.595 547.931 363.164C548.564 361.764 548.001 360.028 546.478 359.519C544.368 358.808 541.142 361.209 539.962 362.812C539.892 362.906 539.251 364.016 538.86 364.72C539.025 364.267 539.196 363.836 539.361 363.367C539.696 362.444 540.009 361.522 540.345 360.52C540.493 360.036 540.634 359.543 540.782 359.042C540.939 358.55 541.048 358.018 541.181 357.502C541.47 356.297 541.696 355.062 541.907 353.81C542.712 354.1 545.587 355.101 547.071 354.999C548.556 354.897 550.415 354.35 551.267 353.028C552.111 351.738 551.806 349.939 550.384 349.204C548.407 348.179 544.853 350.064 543.446 351.472C543.36 351.558 542.462 352.684 541.978 353.31C542.095 352.559 542.22 351.808 542.314 351.042C542.587 348.828 542.798 346.584 543.017 344.347C543.079 343.659 543.157 342.979 543.228 342.29C543.517 342.4 546.9 343.659 548.571 343.542C550.056 343.44 551.915 342.893 552.767 341.571C553.61 340.28 553.306 338.482 551.884 337.746C549.907 336.722 546.353 338.607 544.946 340.014C544.837 340.124 543.548 341.735 543.243 342.165C543.4 340.656 543.571 339.162 543.806 337.692C544.118 335.658 544.54 333.688 545.087 331.803C545.22 331.85 548.751 333.187 550.462 333.07C551.946 332.968 553.806 332.421 554.657 331.099C555.501 329.808 555.196 328.01 553.775 327.275C551.798 326.25 548.243 328.135 546.837 329.543C546.728 329.652 545.337 331.388 545.11 331.725C545.142 331.615 545.165 331.49 545.196 331.38C545.806 329.378 546.65 327.517 547.525 325.812C548.032 324.819 548.571 323.896 549.118 323.02C549.751 323.333 552.657 324.748 554.204 324.811C555.689 324.874 557.595 324.529 558.595 323.317C559.571 322.128 559.47 320.306 558.134 319.415C556.275 318.179 552.548 319.665 550.986 320.908C550.9 320.979 550.118 321.761 549.556 322.332C549.806 321.933 550.064 321.526 550.306 321.151C551.236 319.743 552.181 318.515 553.017 317.436C553.501 316.826 553.946 316.279 554.376 315.778C555.157 315.762 558.314 315.669 559.689 315.019C561.032 314.386 562.571 313.205 562.9 311.664C563.22 310.155 562.29 308.591 560.696 308.419C558.486 308.176 555.853 311.219 555.04 313.033C554.97 313.189 554.157 315.778 554.196 315.77C554.196 315.77 554.235 315.77 554.243 315.77C553.821 316.247 553.384 316.763 552.907 317.334C552.04 318.398 551.071 319.61 550.103 321.002C549.134 322.387 548.118 323.919 547.196 325.632C546.267 327.345 545.384 329.198 544.712 331.224C544.712 331.247 544.696 331.271 544.689 331.294C544.696 330.637 544.673 328.815 544.65 328.674C544.392 326.704 542.743 323.036 540.548 322.629C538.97 322.34 537.634 323.575 537.509 325.108C537.384 326.68 538.517 328.244 539.626 329.238C540.876 330.356 544.345 331.435 544.618 331.521C544.001 333.453 543.525 335.494 543.15 337.574C542.939 338.771 542.759 339.975 542.595 341.188C542.587 340.625 542.579 340.116 542.564 340.046C542.306 338.067 540.657 334.407 538.462 334C536.884 333.711 535.548 334.947 535.423 336.48C535.298 338.051 536.431 339.616 537.54 340.609C538.665 341.618 541.603 342.595 542.384 342.846C542.329 343.315 542.267 343.776 542.212 344.246C541.946 346.482 541.689 348.719 541.368 350.901C541.259 351.667 541.118 352.426 540.986 353.177C540.978 352.676 540.97 352.254 540.962 352.191C540.704 350.213 539.056 346.553 536.86 346.146C535.282 345.857 533.946 347.092 533.821 348.625C533.696 350.197 534.829 351.761 535.939 352.754C537.009 353.716 539.712 354.647 540.642 354.944C540.478 355.711 540.321 356.485 540.126 357.22C539.985 357.721 539.884 358.213 539.712 358.706C539.556 359.199 539.392 359.691 539.243 360.169C538.907 361.091 538.571 362.038 538.22 362.929C537.985 363.547 537.743 364.134 537.509 364.728C537.626 363.962 537.837 362.46 537.837 362.335C537.868 361.013 537.4 358.862 536.462 357.353C536.462 357.158 536.462 356.962 536.423 356.766C536.181 355.241 534.751 354.115 533.196 354.53C531.048 355.101 529.681 358.886 529.579 360.872C529.579 360.99 529.65 362.272 529.712 363.078C529.603 362.609 529.501 362.155 529.384 361.67C529.157 360.716 528.907 359.77 528.634 358.753C528.486 358.268 528.337 357.775 528.189 357.275C528.048 356.782 527.845 356.274 527.665 355.765C527.243 354.6 526.751 353.443 526.236 352.285C527.071 352.082 530.017 351.331 531.204 350.424C532.384 349.517 533.634 348.039 533.618 346.467C533.611 344.926 532.368 343.589 530.775 343.768C528.564 344.011 526.642 347.538 526.236 349.493C526.212 349.618 526.079 351.05 526.025 351.832C525.712 351.136 525.4 350.447 525.056 349.751C524.064 347.757 523.001 345.771 521.946 343.776C521.626 343.166 521.306 342.556 520.993 341.946C521.29 341.876 524.814 341.062 526.142 340.038C527.321 339.131 528.571 337.653 528.556 336.081C528.548 334.54 527.306 333.203 525.712 333.382C523.501 333.625 521.579 337.152 521.173 339.107C521.142 339.256 520.954 341.313 520.939 341.837C520.243 340.492 519.556 339.146 518.939 337.793C518.079 335.924 517.345 334.047 516.767 332.17C516.907 332.139 520.587 331.302 521.946 330.254C523.126 329.347 524.376 327.869 524.36 326.297C524.353 324.756 523.11 323.419 521.517 323.599C519.306 323.841 517.384 327.368 516.978 329.324C516.946 329.48 516.751 331.693 516.743 332.1C516.712 331.99 516.657 331.881 516.626 331.764C516.032 329.754 515.712 327.736 515.501 325.828C515.376 324.717 515.321 323.653 515.29 322.621C515.993 322.535 519.196 322.105 520.517 321.307C521.79 320.533 523.196 319.204 523.353 317.639C523.509 316.106 522.423 314.644 520.821 314.644C518.595 314.644 516.298 317.937 515.681 319.829C515.65 319.931 515.423 321.018 515.275 321.808C515.275 321.339 515.251 320.854 515.251 320.408C515.251 318.719 515.36 317.178 515.47 315.809C515.532 315.035 515.611 314.331 515.689 313.674C516.329 313.228 518.907 311.406 519.704 310.108C520.478 308.841 521.111 307.003 520.532 305.541C519.97 304.109 518.329 303.312 516.907 304.047C514.931 305.071 514.407 309.06 514.735 311.023C514.767 311.195 515.509 313.799 515.548 313.776C515.548 313.776 515.579 313.752 515.587 313.752C515.501 314.378 515.415 315.059 515.337 315.794C515.204 317.162 515.064 318.703 515.025 320.4C514.978 322.089 514.978 323.927 515.157 325.867C515.329 327.806 515.611 329.84 516.173 331.897C516.173 331.92 516.189 331.943 516.196 331.967C515.845 331.419 514.814 329.91 514.72 329.801C513.415 328.291 510.017 326.148 507.97 327.024C506.493 327.65 506.064 329.425 506.806 330.77C507.564 332.147 509.376 332.835 510.845 333.046V333.085Z" fill="white"/>
</mask>
<g mask="url(#mask1_7_77)">
<path d="M510.845 333.085C512.501 333.328 515.993 332.311 516.267 332.233C516.821 334.188 517.54 336.151 518.384 338.091C518.861 339.201 519.384 340.312 519.915 341.407C519.595 340.937 519.306 340.523 519.259 340.468C517.954 338.959 514.556 336.816 512.509 337.692C511.032 338.317 510.603 340.093 511.337 341.438C512.095 342.814 513.907 343.503 515.376 343.714C516.868 343.933 519.86 343.127 520.65 342.908C520.86 343.33 521.064 343.753 521.275 344.167C522.282 346.185 523.298 348.187 524.236 350.181C524.564 350.885 524.868 351.589 525.165 352.293C524.884 351.879 524.642 351.534 524.595 351.48C523.29 349.978 519.892 347.827 517.845 348.703C516.368 349.329 515.939 351.104 516.673 352.449C517.431 353.826 519.243 354.514 520.712 354.725C522.134 354.936 524.907 354.217 525.845 353.959C526.134 354.686 526.423 355.421 526.665 356.141C526.821 356.634 527.009 357.103 527.134 357.611C527.275 358.112 527.407 358.604 527.548 359.097C527.775 360.051 528.017 361.029 528.22 361.967C528.361 362.616 528.486 363.234 528.618 363.86C528.298 363.156 527.642 361.787 527.571 361.686C526.517 359.996 523.478 357.369 521.321 357.916C519.767 358.315 519.071 359.996 519.603 361.443C520.142 362.921 521.829 363.868 523.251 364.306C524.814 364.783 528.275 364.345 528.712 364.29C528.923 365.322 529.11 366.339 529.275 367.293C529.4 367.997 529.509 368.677 529.618 369.334H531.009C530.876 368.607 530.736 367.848 530.579 367.051C530.376 365.995 530.134 364.877 529.868 363.727C530.126 363.625 531.603 363.023 532.915 362.296C534.056 363.531 536.978 364.978 537.353 365.158C536.954 366.136 536.556 367.082 536.173 367.974C535.97 368.443 535.767 368.889 535.571 369.327H537.04C537.157 369.045 537.275 368.771 537.392 368.482C537.798 367.489 538.212 366.425 538.634 365.322C539.056 365.408 542.478 366.104 544.079 365.745C545.525 365.416 547.282 364.595 547.931 363.164C548.564 361.764 548.001 360.028 546.478 359.519C544.368 358.808 541.142 361.209 539.962 362.812C539.892 362.906 539.251 364.016 538.86 364.72C539.025 364.267 539.196 363.836 539.361 363.367C539.696 362.444 540.009 361.522 540.345 360.52C540.493 360.036 540.634 359.543 540.782 359.042C540.939 358.55 541.048 358.018 541.181 357.502C541.47 356.297 541.696 355.062 541.907 353.81C542.712 354.1 545.587 355.101 547.071 354.999C548.556 354.897 550.415 354.35 551.267 353.028C552.111 351.738 551.806 349.939 550.384 349.204C548.407 348.179 544.853 350.064 543.446 351.472C543.36 351.558 542.462 352.684 541.978 353.31C542.095 352.559 542.22 351.808 542.314 351.042C542.587 348.828 542.798 346.584 543.017 344.347C543.079 343.659 543.157 342.979 543.228 342.29C543.517 342.4 546.9 343.659 548.571 343.542C550.056 343.44 551.915 342.893 552.767 341.571C553.61 340.28 553.306 338.482 551.884 337.746C549.907 336.722 546.353 338.607 544.946 340.014C544.837 340.124 543.548 341.735 543.243 342.165C543.4 340.656 543.571 339.162 543.806 337.692C544.118 335.658 544.54 333.688 545.087 331.803C545.22 331.85 548.751 333.187 550.462 333.07C551.946 332.968 553.806 332.421 554.657 331.099C555.501 329.808 555.196 328.01 553.775 327.275C551.798 326.25 548.243 328.135 546.837 329.543C546.728 329.652 545.337 331.388 545.11 331.725C545.142 331.615 545.165 331.49 545.196 331.38C545.806 329.378 546.65 327.517 547.525 325.812C548.032 324.819 548.571 323.896 549.118 323.02C549.751 323.333 552.657 324.748 554.204 324.811C555.689 324.874 557.595 324.529 558.595 323.317C559.571 322.128 559.47 320.306 558.134 319.415C556.275 318.179 552.548 319.665 550.986 320.908C550.9 320.979 550.118 321.761 549.556 322.332C549.806 321.933 550.064 321.526 550.306 321.151C551.236 319.743 552.181 318.515 553.017 317.436C553.501 316.826 553.946 316.279 554.376 315.778C555.157 315.762 558.314 315.669 559.689 315.019C561.032 314.386 562.571 313.205 562.9 311.664C563.22 310.155 562.29 308.591 560.696 308.419C558.486 308.176 555.853 311.219 555.04 313.033C554.97 313.189 554.157 315.778 554.196 315.77C554.196 315.77 554.235 315.77 554.243 315.77C553.821 316.247 553.384 316.763 552.907 317.334C552.04 318.398 551.071 319.61 550.103 321.002C549.134 322.387 548.118 323.919 547.196 325.632C546.267 327.345 545.384 329.198 544.712 331.224C544.712 331.247 544.696 331.271 544.689 331.294C544.696 330.637 544.673 328.815 544.65 328.674C544.392 326.704 542.743 323.036 540.548 322.629C538.97 322.34 537.634 323.575 537.509 325.108C537.384 326.68 538.517 328.244 539.626 329.238C540.876 330.356 544.345 331.435 544.618 331.521C544.001 333.453 543.525 335.494 543.15 337.574C542.939 338.771 542.759 339.975 542.595 341.188C542.587 340.625 542.579 340.116 542.564 340.046C542.306 338.067 540.657 334.407 538.462 334C536.884 333.711 535.548 334.947 535.423 336.48C535.298 338.051 536.431 339.616 537.54 340.609C538.665 341.618 541.603 342.595 542.384 342.846C542.329 343.315 542.267 343.776 542.212 344.246C541.946 346.482 541.689 348.719 541.368 350.901C541.259 351.667 541.118 352.426 540.986 353.177C540.978 352.676 540.97 352.254 540.962 352.191C540.704 350.213 539.056 346.553 536.86 346.146C535.282 345.857 533.946 347.092 533.821 348.625C533.696 350.197 534.829 351.761 535.939 352.754C537.009 353.716 539.712 354.647 540.642 354.944C540.478 355.711 540.321 356.485 540.126 357.22C539.985 357.721 539.884 358.213 539.712 358.706C539.556 359.199 539.392 359.691 539.243 360.169C538.907 361.091 538.571 362.038 538.22 362.929C537.985 363.547 537.743 364.134 537.509 364.728C537.626 363.962 537.837 362.46 537.837 362.335C537.868 361.013 537.4 358.862 536.462 357.353C536.462 357.158 536.462 356.962 536.423 356.766C536.181 355.241 534.751 354.115 533.196 354.53C531.048 355.101 529.681 358.886 529.579 360.872C529.579 360.99 529.65 362.272 529.712 363.078C529.603 362.609 529.501 362.155 529.384 361.67C529.157 360.716 528.907 359.77 528.634 358.753C528.486 358.268 528.337 357.775 528.189 357.275C528.048 356.782 527.845 356.274 527.665 355.765C527.243 354.6 526.751 353.443 526.236 352.285C527.071 352.082 530.017 351.331 531.204 350.424C532.384 349.517 533.634 348.039 533.618 346.467C533.611 344.926 532.368 343.589 530.775 343.768C528.564 344.011 526.642 347.538 526.236 349.493C526.212 349.618 526.079 351.05 526.025 351.832C525.712 351.136 525.4 350.447 525.056 349.751C524.064 347.757 523.001 345.771 521.946 343.776C521.626 343.166 521.306 342.556 520.993 341.946C521.29 341.876 524.814 341.062 526.142 340.038C527.321 339.131 528.571 337.653 528.556 336.081C528.548 334.54 527.306 333.203 525.712 333.382C523.501 333.625 521.579 337.152 521.173 339.107C521.142 339.256 520.954 341.313 520.939 341.837C520.243 340.492 519.556 339.146 518.939 337.793C518.079 335.924 517.345 334.047 516.767 332.17C516.907 332.139 520.587 331.302 521.946 330.254C523.126 329.347 524.376 327.869 524.36 326.297C524.353 324.756 523.11 323.419 521.517 323.599C519.306 323.841 517.384 327.368 516.978 329.324C516.946 329.48 516.751 331.693 516.743 332.1C516.712 331.99 516.657 331.881 516.626 331.764C516.032 329.754 515.712 327.736 515.501 325.828C515.376 324.717 515.321 323.653 515.29 322.621C515.993 322.535 519.196 322.105 520.517 321.307C521.79 320.533 523.196 319.204 523.353 317.639C523.509 316.106 522.423 314.644 520.821 314.644C518.595 314.644 516.298 317.937 515.681 319.829C515.65 319.931 515.423 321.018 515.275 321.808C515.275 321.339 515.251 320.854 515.251 320.408C515.251 318.719 515.36 317.178 515.47 315.809C515.532 315.035 515.611 314.331 515.689 313.674C516.329 313.228 518.907 311.406 519.704 310.108C520.478 308.841 521.111 307.003 520.532 305.541C519.97 304.109 518.329 303.312 516.907 304.047C514.931 305.071 514.407 309.06 514.735 311.023C514.767 311.195 515.509 313.799 515.548 313.776C515.548 313.776 515.579 313.752 515.587 313.752C515.501 314.378 515.415 315.059 515.337 315.794C515.204 317.162 515.064 318.703 515.025 320.4C514.978 322.089 514.978 323.927 515.157 325.867C515.329 327.806 515.611 329.84 516.173 331.897C516.173 331.92 516.189 331.943 516.196 331.967C515.845 331.419 514.814 329.91 514.72 329.801C513.415 328.291 510.017 326.148 507.97 327.024C506.493 327.65 506.064 329.425 506.806 330.77C507.564 332.147 509.376 332.835 510.845 333.046V333.085Z" stroke="black" stroke-width="2"/>
</g>
<path d="M548.739 321.809C548.423 321.597 548.007 321.307 547.565 320.978C547.099 320.631 546.61 320.243 546.182 319.856C545.749 319.464 545.403 319.094 545.203 318.784L545.202 318.783C544.819 318.193 544.471 317.476 544.283 316.744C544.095 316.01 544.075 315.297 544.299 314.683L544.3 314.682C544.739 313.467 546.062 312.828 547.198 313.374C547.996 313.76 548.603 314.806 548.968 316.137C549.325 317.44 549.406 318.855 549.28 319.765C549.28 319.762 549.279 319.766 549.277 319.779C549.273 319.796 549.265 319.828 549.251 319.883C549.23 319.967 549.201 320.08 549.166 320.213C549.097 320.478 549.006 320.818 548.916 321.153C548.854 321.383 548.793 321.61 548.739 321.809Z" stroke="black"/>
<path d="M22.4371 330.951C22.4371 330.951 22.246 330.955 21.9382 330.953C21.938 330.935 21.9388 330.912 21.942 330.887C21.9452 330.861 21.9566 330.78 22.0097 330.692C22.0603 330.608 22.1557 330.513 22.2931 330.472C22.3714 330.71 22.4278 330.89 22.4369 330.938M22.4371 330.951L22.287 330.453C22.2889 330.453 22.2909 330.453 22.2928 330.453C22.3365 330.452 22.3704 330.452 22.393 330.452L22.4184 330.451H22.4234C22.425 330.451 22.4267 330.451 22.4283 330.451M22.4371 330.951L22.4369 330.938M22.4371 330.951C22.4385 330.951 22.4384 330.947 22.4371 330.94C22.437 330.939 22.437 330.939 22.4369 330.938M22.4369 330.938L22.4262 330.451H22.4283M22.4283 330.451C22.4313 330.451 22.4342 330.451 22.4371 330.451H22.4283ZM18.1376 329.992L17.8516 329.867C17.4205 329.653 16.9847 329.374 16.6173 329.041C16.1669 328.634 15.8459 328.171 15.7283 327.676L15.7278 327.674C15.4883 326.683 16.0818 325.707 17.0341 325.581H17.0371C17.7116 325.487 18.5679 325.9 19.4114 326.638C20.2329 327.358 20.9172 328.279 21.2361 328.945L21.236 328.946L21.2397 328.953C21.2358 328.945 21.236 328.946 21.2416 328.96C21.2464 328.973 21.2555 328.996 21.2695 329.034C21.2939 329.1 21.3262 329.19 21.3637 329.296C21.4386 329.508 21.5326 329.78 21.6239 330.048C21.6711 330.187 21.7174 330.324 21.7597 330.451C21.4661 330.447 21.0989 330.438 20.7043 330.415C19.7331 330.361 18.6958 330.237 18.1376 329.992ZM18.4371 330.618C19.5011 330.898 21.1066 330.947 21.9222 330.953L18.4371 330.45V330.458V330.618Z" stroke="black"/>
<mask id="mask2_7_77" style="mask-type:luminance" maskUnits="userSpaceOnUse" x="15" y="315" width="47" height="55">
<path d="M19.0392 339.71C20.3908 339.905 23.2424 339.076 23.4689 339.014C23.9221 340.609 24.508 342.212 25.1955 343.8C25.5861 344.707 26.008 345.614 26.4455 346.514C26.1877 346.131 25.9533 345.794 25.9142 345.747C24.8517 344.519 22.0705 342.768 20.3986 343.479C19.1877 343.995 18.8361 345.442 19.4455 346.545C20.0627 347.671 21.5471 348.226 22.7502 348.406C23.9689 348.586 26.4142 347.929 27.0627 347.742C27.2346 348.086 27.3986 348.43 27.5705 348.774C28.3986 350.416 29.2267 352.059 29.9924 353.693C30.2658 354.272 30.508 354.843 30.758 355.422C30.5236 355.085 30.3283 354.804 30.297 354.757C29.2345 353.529 26.4533 351.777 24.7814 352.489C23.5705 353.005 23.2189 354.452 23.8283 355.555C24.4455 356.681 25.9299 357.236 27.133 357.416C28.2971 357.588 30.5549 357.001 31.3283 356.79C31.5627 357.385 31.7971 357.987 32.0002 358.573C32.1252 358.98 32.2814 359.363 32.383 359.778C32.5002 360.184 32.6096 360.591 32.7189 360.99C32.9064 361.772 33.1017 362.57 33.2658 363.336C33.383 363.868 33.4846 364.376 33.5861 364.885C33.3205 364.306 32.7892 363.195 32.7346 363.102C31.8674 361.725 29.3908 359.574 27.6252 360.02C26.3517 360.341 25.7892 361.717 26.2189 362.906C26.6564 364.11 28.0392 364.892 29.2033 365.244C30.4846 365.635 33.3127 365.276 33.6642 365.229C33.8361 366.073 33.9924 366.902 34.1252 367.684C34.2267 368.263 34.3205 368.818 34.4064 369.35H35.5392C35.4299 368.756 35.3127 368.138 35.1877 367.481C35.0158 366.621 34.8205 365.706 34.6096 364.767C34.8205 364.681 36.0314 364.196 37.1017 363.594C38.0314 364.603 40.4221 365.784 40.7267 365.933C40.3986 366.73 40.0783 367.505 39.758 368.232C39.5939 368.615 39.4299 368.983 39.2658 369.342H40.4611C40.5549 369.116 40.6486 368.889 40.7502 368.654C41.0861 367.841 41.4221 366.973 41.7658 366.073C42.1096 366.144 44.9064 366.715 46.2189 366.418C47.4064 366.152 48.8361 365.479 49.3674 364.306C49.883 363.156 49.4221 361.741 48.1799 361.326C46.4533 360.748 43.8205 362.711 42.8596 364.017C42.8049 364.095 42.2814 365.002 41.9611 365.581C42.1017 365.213 42.2346 364.853 42.3752 364.478C42.6486 363.727 42.9064 362.969 43.1799 362.155C43.2971 361.756 43.4221 361.358 43.5392 360.951C43.6642 360.552 43.7502 360.114 43.8596 359.692C44.0939 358.706 44.2814 357.697 44.4533 356.673C45.1096 356.915 47.4611 357.729 48.6799 357.643C49.8908 357.557 51.4064 357.111 52.1095 356.032C52.797 354.976 52.5549 353.505 51.383 352.903C49.7658 352.066 46.8674 353.607 45.7111 354.757C45.6408 354.827 44.9064 355.742 44.508 356.258C44.6017 355.641 44.7033 355.031 44.7814 354.405C45.008 352.598 45.1799 350.76 45.3517 348.93C45.4064 348.367 45.4689 347.812 45.5236 347.249C45.758 347.335 48.5236 348.367 49.8908 348.273C51.1017 348.187 52.6174 347.742 53.3205 346.662C54.008 345.607 53.7658 344.136 52.5939 343.534C50.9767 342.697 48.0783 344.238 46.9221 345.388C46.8361 345.474 45.7814 346.795 45.5314 347.147C45.6642 345.919 45.8049 344.692 45.9924 343.487C46.2502 341.829 46.5939 340.21 47.0392 338.677C47.1486 338.716 50.0314 339.811 51.4299 339.71C52.6408 339.624 54.1564 339.178 54.8596 338.099C55.5471 337.043 55.3049 335.573 54.133 334.97C52.5158 334.134 49.6174 335.674 48.4611 336.824C48.3674 336.918 47.2346 338.333 47.0471 338.607C47.0705 338.513 47.0939 338.419 47.1174 338.325C47.6174 336.691 48.3049 335.166 49.0236 333.774C49.4377 332.96 49.8752 332.21 50.3205 331.49C50.8361 331.748 53.2111 332.906 54.4767 332.953C55.6877 333 57.2502 332.726 58.0627 331.733C58.8596 330.763 58.7814 329.269 57.6877 328.55C56.172 327.541 53.1174 328.753 51.8517 329.77C51.7814 329.824 51.1408 330.466 50.6799 330.935C50.883 330.614 51.0939 330.278 51.2971 329.973C52.0549 328.823 52.8283 327.822 53.5158 326.938C53.9142 326.438 54.2736 325.992 54.6252 325.585C55.2658 325.578 57.8361 325.499 58.9689 324.968C60.0705 324.451 61.3283 323.49 61.5939 322.23C61.8517 320.995 61.0939 319.72 59.7892 319.579C57.9767 319.384 55.8283 321.863 55.1642 323.357C55.1096 323.482 54.4455 325.593 54.4767 325.593C54.4767 325.593 54.508 325.593 54.5158 325.593C54.1721 325.984 53.8127 326.407 53.422 326.876C52.7111 327.744 51.922 328.737 51.133 329.871C50.3439 331.005 49.5158 332.257 48.758 333.656C48.0002 335.056 47.2736 336.574 46.7267 338.224C46.7267 338.239 46.7189 338.263 46.7111 338.279C46.7189 337.747 46.6955 336.253 46.6799 336.136C46.4689 334.525 45.1174 331.529 43.3283 331.193C42.0392 330.958 40.9455 331.967 40.8439 333.219C40.7424 334.501 41.6642 335.784 42.5705 336.597C43.5939 337.512 46.4221 338.396 46.6486 338.466C46.1408 340.046 45.7502 341.712 45.4533 343.417C45.2814 344.394 45.133 345.38 45.0002 346.373C45.0002 345.912 44.9846 345.497 44.9767 345.442C44.7658 343.831 43.4142 340.836 41.6252 340.5C40.3361 340.257 39.2424 341.274 39.1408 342.525C39.0392 343.808 39.9611 345.09 40.8674 345.904C41.7892 346.725 44.1877 347.53 44.8283 347.734C44.7814 348.117 44.7267 348.492 44.6877 348.876C44.4689 350.706 44.258 352.528 44.0002 354.311C43.9064 354.937 43.7971 355.555 43.6877 356.172C43.6877 355.766 43.6721 355.414 43.6642 355.367C43.4533 353.756 42.1017 350.76 40.3127 350.424C39.0236 350.19 37.9299 351.198 37.8283 352.45C37.7267 353.732 38.6486 355.015 39.5549 355.82C40.4299 356.603 42.6408 357.369 43.3986 357.611C43.2658 358.237 43.133 358.871 42.9767 359.473C42.8596 359.879 42.7736 360.286 42.633 360.685C42.5002 361.092 42.3752 361.49 42.2502 361.882C41.9767 362.632 41.6955 363.414 41.4142 364.142C41.2189 364.65 41.0236 365.127 40.8283 365.612C40.9299 364.986 41.0939 363.758 41.0939 363.657C41.1174 362.578 40.7346 360.818 39.9689 359.582C39.9689 359.426 39.9689 359.262 39.9377 359.105C39.7345 357.862 38.5705 356.939 37.3049 357.275C35.5471 357.744 34.4299 360.834 34.3439 362.46C34.3439 362.554 34.3986 363.602 34.4533 364.259C34.3674 363.876 34.2814 363.5 34.1877 363.109C34.0002 362.327 33.7971 361.561 33.5783 360.724C33.4611 360.325 33.3361 359.926 33.2111 359.52C33.1017 359.113 32.9299 358.698 32.7892 358.292C32.4377 357.338 32.0392 356.391 31.6174 355.445C32.2971 355.281 34.7111 354.663 35.6721 353.92C36.633 353.177 37.6564 351.973 37.6486 350.682C37.6408 349.423 36.6252 348.336 35.3205 348.477C33.508 348.672 31.9377 351.558 31.6096 353.154C31.5861 353.255 31.4846 354.421 31.4377 355.07C31.1799 354.507 30.9221 353.936 30.6408 353.373C29.8361 351.738 28.9611 350.119 28.1017 348.492C27.8361 347.992 27.5783 347.499 27.3205 346.999C27.5627 346.944 30.4455 346.271 31.5236 345.442C32.4845 344.699 33.508 343.495 33.5002 342.205C33.4924 340.945 32.4767 339.858 31.1721 339.999C29.3596 340.195 27.7892 343.08 27.4611 344.676C27.4377 344.793 27.2814 346.482 27.2658 346.913C26.6955 345.818 26.1408 344.715 25.633 343.604C24.9299 342.079 24.3283 340.547 23.8596 339.014C23.9767 338.99 26.9846 338.302 28.0939 337.45C29.0549 336.707 30.0783 335.502 30.0705 334.212C30.0627 332.953 29.0471 331.866 27.7424 332.006C25.9299 332.202 24.3596 335.088 24.0314 336.683C24.008 336.808 23.8439 338.623 23.8361 338.951C23.8049 338.857 23.7658 338.771 23.7424 338.677C23.258 337.035 22.9924 335.385 22.8205 333.829C22.7189 332.921 22.6721 332.053 22.6486 331.209C23.2189 331.138 25.8361 330.786 26.9221 330.129C27.9611 329.504 29.1096 328.409 29.2424 327.126C29.3752 325.875 28.4846 324.678 27.1721 324.678C25.3517 324.678 23.4767 327.369 22.9767 328.917C22.9533 329.003 22.7658 329.887 22.6408 330.536C22.6408 330.153 22.6252 329.762 22.6252 329.394C22.6252 328.018 22.7111 326.751 22.7971 325.64C22.8517 325.007 22.9142 324.436 22.9767 323.896C23.5002 323.536 25.6096 322.043 26.258 320.979C26.8908 319.939 27.4064 318.445 26.9377 317.249C26.4767 316.075 25.1408 315.426 23.9689 316.029C22.3517 316.865 21.9299 320.127 22.1955 321.73C22.2189 321.871 22.8283 323.998 22.8596 323.974C22.8596 323.974 22.883 323.959 22.8908 323.951C22.8205 324.467 22.7502 325.015 22.6877 325.625C22.5783 326.743 22.4611 328.002 22.4299 329.386C22.3908 330.771 22.3908 332.272 22.5392 333.852C22.6799 335.44 22.9064 337.098 23.3674 338.779C23.3674 338.795 23.383 338.818 23.383 338.834C23.0939 338.38 22.2502 337.152 22.1799 337.066C21.1174 335.838 18.3361 334.087 16.6642 334.798C15.4533 335.314 15.1017 336.761 15.7111 337.864C16.3283 338.99 17.8127 339.545 19.0158 339.725L19.0392 339.71Z" fill="white"/>
</mask>
<g mask="url(#mask2_7_77)">
<path d="M19.0392 339.71C20.3908 339.905 23.2424 339.076 23.4689 339.014C23.9221 340.609 24.508 342.212 25.1955 343.8C25.5861 344.707 26.008 345.614 26.4455 346.514C26.1877 346.131 25.9533 345.794 25.9142 345.747C24.8517 344.519 22.0705 342.768 20.3986 343.479C19.1877 343.995 18.8361 345.442 19.4455 346.545C20.0627 347.671 21.5471 348.226 22.7502 348.406C23.9689 348.586 26.4142 347.929 27.0627 347.742C27.2346 348.086 27.3986 348.43 27.5705 348.774C28.3986 350.416 29.2267 352.059 29.9924 353.693C30.2658 354.272 30.508 354.843 30.758 355.422C30.5236 355.085 30.3283 354.804 30.297 354.757C29.2345 353.529 26.4533 351.777 24.7814 352.489C23.5705 353.005 23.2189 354.452 23.8283 355.555C24.4455 356.681 25.9299 357.236 27.133 357.416C28.2971 357.588 30.5549 357.001 31.3283 356.79C31.5627 357.385 31.7971 357.987 32.0002 358.573C32.1252 358.98 32.2814 359.363 32.383 359.778C32.5002 360.184 32.6096 360.591 32.7189 360.99C32.9064 361.772 33.1017 362.57 33.2658 363.336C33.383 363.868 33.4846 364.376 33.5861 364.885C33.3205 364.306 32.7892 363.195 32.7346 363.102C31.8674 361.725 29.3908 359.574 27.6252 360.02C26.3517 360.341 25.7892 361.717 26.2189 362.906C26.6564 364.11 28.0392 364.892 29.2033 365.244C30.4846 365.635 33.3127 365.276 33.6642 365.229C33.8361 366.073 33.9924 366.902 34.1252 367.684C34.2267 368.263 34.3205 368.818 34.4064 369.35H35.5392C35.4299 368.756 35.3127 368.138 35.1877 367.481C35.0158 366.621 34.8205 365.706 34.6096 364.767C34.8205 364.681 36.0314 364.196 37.1017 363.594C38.0314 364.603 40.4221 365.784 40.7267 365.933C40.3986 366.73 40.0783 367.505 39.758 368.232C39.5939 368.615 39.4299 368.983 39.2658 369.342H40.4611C40.5549 369.116 40.6486 368.889 40.7502 368.654C41.0861 367.841 41.4221 366.973 41.7658 366.073C42.1096 366.144 44.9064 366.715 46.2189 366.418C47.4064 366.152 48.8361 365.479 49.3674 364.306C49.883 363.156 49.4221 361.741 48.1799 361.326C46.4533 360.748 43.8205 362.711 42.8596 364.017C42.8049 364.095 42.2814 365.002 41.9611 365.581C42.1017 365.213 42.2346 364.853 42.3752 364.478C42.6486 363.727 42.9064 362.969 43.1799 362.155C43.2971 361.756 43.4221 361.358 43.5392 360.951C43.6642 360.552 43.7502 360.114 43.8596 359.692C44.0939 358.706 44.2814 357.697 44.4533 356.673C45.1096 356.915 47.4611 357.729 48.6799 357.643C49.8908 357.557 51.4064 357.111 52.1095 356.032C52.797 354.976 52.5549 353.505 51.383 352.903C49.7658 352.066 46.8674 353.607 45.7111 354.757C45.6408 354.827 44.9064 355.742 44.508 356.258C44.6017 355.641 44.7033 355.031 44.7814 354.405C45.008 352.598 45.1799 350.76 45.3517 348.93C45.4064 348.367 45.4689 347.812 45.5236 347.249C45.758 347.335 48.5236 348.367 49.8908 348.273C51.1017 348.187 52.6174 347.742 53.3205 346.662C54.008 345.607 53.7658 344.136 52.5939 343.534C50.9767 342.697 48.0783 344.238 46.9221 345.388C46.8361 345.474 45.7814 346.795 45.5314 347.147C45.6642 345.919 45.8049 344.692 45.9924 343.487C46.2502 341.829 46.5939 340.21 47.0392 338.677C47.1486 338.716 50.0314 339.811 51.4299 339.71C52.6408 339.624 54.1564 339.178 54.8596 338.099C55.5471 337.043 55.3049 335.573 54.133 334.97C52.5158 334.134 49.6174 335.674 48.4611 336.824C48.3674 336.918 47.2346 338.333 47.0471 338.607C47.0705 338.513 47.0939 338.419 47.1174 338.325C47.6174 336.691 48.3049 335.166 49.0236 333.774C49.4377 332.96 49.8752 332.21 50.3205 331.49C50.8361 331.748 53.2111 332.906 54.4767 332.953C55.6877 333 57.2502 332.726 58.0627 331.733C58.8596 330.763 58.7814 329.269 57.6877 328.55C56.172 327.541 53.1174 328.753 51.8517 329.77C51.7814 329.824 51.1408 330.466 50.6799 330.935C50.883 330.614 51.0939 330.278 51.2971 329.973C52.0549 328.823 52.8283 327.822 53.5158 326.938C53.9142 326.438 54.2736 325.992 54.6252 325.585C55.2658 325.578 57.8361 325.499 58.9689 324.968C60.0705 324.451 61.3283 323.49 61.5939 322.23C61.8517 320.995 61.0939 319.72 59.7892 319.579C57.9767 319.384 55.8283 321.863 55.1642 323.357C55.1096 323.482 54.4455 325.593 54.4767 325.593C54.4767 325.593 54.508 325.593 54.5158 325.593C54.1721 325.984 53.8127 326.407 53.422 326.876C52.7111 327.744 51.922 328.737 51.133 329.871C50.3439 331.005 49.5158 332.257 48.758 333.656C48.0002 335.056 47.2736 336.574 46.7267 338.224C46.7267 338.239 46.7189 338.263 46.7111 338.279C46.7189 337.747 46.6955 336.253 46.6799 336.136C46.4689 334.525 45.1174 331.529 43.3283 331.193C42.0392 330.958 40.9455 331.967 40.8439 333.219C40.7424 334.501 41.6642 335.784 42.5705 336.597C43.5939 337.512 46.4221 338.396 46.6486 338.466C46.1408 340.046 45.7502 341.712 45.4533 343.417C45.2814 344.394 45.133 345.38 45.0002 346.373C45.0002 345.912 44.9846 345.497 44.9767 345.442C44.7658 343.831 43.4142 340.836 41.6252 340.5C40.3361 340.257 39.2424 341.274 39.1408 342.525C39.0392 343.808 39.9611 345.09 40.8674 345.904C41.7892 346.725 44.1877 347.53 44.8283 347.734C44.7814 348.117 44.7267 348.492 44.6877 348.876C44.4689 350.706 44.258 352.528 44.0002 354.311C43.9064 354.937 43.7971 355.555 43.6877 356.172C43.6877 355.766 43.6721 355.414 43.6642 355.367C43.4533 353.756 42.1017 350.76 40.3127 350.424C39.0236 350.19 37.9299 351.198 37.8283 352.45C37.7267 353.732 38.6486 355.015 39.5549 355.82C40.4299 356.603 42.6408 357.369 43.3986 357.611C43.2658 358.237 43.133 358.871 42.9767 359.473C42.8596 359.879 42.7736 360.286 42.633 360.685C42.5002 361.092 42.3752 361.49 42.2502 361.882C41.9767 362.632 41.6955 363.414 41.4142 364.142C41.2189 364.65 41.0236 365.127 40.8283 365.612C40.9299 364.986 41.0939 363.758 41.0939 363.657C41.1174 362.578 40.7346 360.818 39.9689 359.582C39.9689 359.426 39.9689 359.262 39.9377 359.105C39.7345 357.862 38.5705 356.939 37.3049 357.275C35.5471 357.744 34.4299 360.834 34.3439 362.46C34.3439 362.554 34.3986 363.602 34.4533 364.259C34.3674 363.876 34.2814 363.5 34.1877 363.109C34.0002 362.327 33.7971 361.561 33.5783 360.724C33.4611 360.325 33.3361 359.926 33.2111 359.52C33.1017 359.113 32.9299 358.698 32.7892 358.292C32.4377 357.338 32.0392 356.391 31.6174 355.445C32.2971 355.281 34.7111 354.663 35.6721 353.92C36.633 353.177 37.6564 351.973 37.6486 350.682C37.6408 349.423 36.6252 348.336 35.3205 348.477C33.508 348.672 31.9377 351.558 31.6096 353.154C31.5861 353.255 31.4846 354.421 31.4377 355.07C31.1799 354.507 30.9221 353.936 30.6408 353.373C29.8361 351.738 28.9611 350.119 28.1017 348.492C27.8361 347.992 27.5783 347.499 27.3205 346.999C27.5627 346.944 30.4455 346.271 31.5236 345.442C32.4845 344.699 33.508 343.495 33.5002 342.205C33.4924 340.945 32.4767 339.858 31.1721 339.999C29.3596 340.195 27.7892 343.08 27.4611 344.676C27.4377 344.793 27.2814 346.482 27.2658 346.913C26.6955 345.818 26.1408 344.715 25.633 343.604C24.9299 342.079 24.3283 340.547 23.8596 339.014C23.9767 338.99 26.9846 338.302 28.0939 337.45C29.0549 336.707 30.0783 335.502 30.0705 334.212C30.0627 332.953 29.0471 331.866 27.7424 332.006C25.9299 332.202 24.3596 335.088 24.0314 336.683C24.008 336.808 23.8439 338.623 23.8361 338.951C23.8049 338.857 23.7658 338.771 23.7424 338.677C23.258 337.035 22.9924 335.385 22.8205 333.829C22.7189 332.921 22.6721 332.053 22.6486 331.209C23.2189 331.138 25.8361 330.786 26.9221 330.129C27.9611 329.504 29.1096 328.409 29.2424 327.126C29.3752 325.875 28.4846 324.678 27.1721 324.678C25.3517 324.678 23.4767 327.369 22.9767 328.917C22.9533 329.003 22.7658 329.887 22.6408 330.536C22.6408 330.153 22.6252 329.762 22.6252 329.394C22.6252 328.018 22.7111 326.751 22.7971 325.64C22.8517 325.007 22.9142 324.436 22.9767 323.896C23.5002 323.536 25.6096 322.043 26.258 320.979C26.8908 319.939 27.4064 318.445 26.9377 317.249C26.4767 316.075 25.1408 315.426 23.9689 316.029C22.3517 316.865 21.9299 320.127 22.1955 321.73C22.2189 321.871 22.8283 323.998 22.8596 323.974C22.8596 323.974 22.883 323.959 22.8908 323.951C22.8205 324.467 22.7502 325.015 22.6877 325.625C22.5783 326.743 22.4611 328.002 22.4299 329.386C22.3908 330.771 22.3908 332.272 22.5392 333.852C22.6799 335.44 22.9064 337.098 23.3674 338.779C23.3674 338.795 23.383 338.818 23.383 338.834C23.0939 338.38 22.2502 337.152 22.1799 337.066C21.1174 335.838 18.3361 334.087 16.6642 334.798C15.4533 335.314 15.1017 336.761 15.7111 337.864C16.3283 338.99 17.8127 339.545 19.0158 339.725L19.0392 339.71Z" stroke="black" stroke-width="2"/>
</g>
<path d="M50.0587 329.943C50.021 330.084 49.9834 330.223 49.9483 330.353C49.7077 330.19 49.412 329.982 49.101 329.751C48.3203 329.17 47.5239 328.493 47.193 327.981L47.1927 327.98C46.8833 327.503 46.6044 326.927 46.4536 326.341C46.3023 325.753 46.2884 325.189 46.4619 324.708C46.8085 323.756 47.836 323.269 48.7037 323.689L48.7046 323.69C49.3185 323.985 49.8067 324.805 50.1045 325.887C50.3928 326.936 50.4579 328.074 50.3578 328.804C50.3578 328.804 50.3567 328.808 50.3556 328.813C50.3524 328.826 50.3457 328.854 50.3338 328.902C50.3163 328.971 50.2923 329.064 50.2637 329.173C50.2066 329.391 50.1324 329.669 50.0587 329.943Z" stroke="black"/>
<path d="M470.091 258.804L468.248 250.686L467.076 251.272L466.982 249.168L461.482 250.764L451.904 243.835L451.552 244.382C450.763 243.608 450.255 243.084 450.255 243.084C450.255 243.084 450.513 242.466 450.974 241.183C451.099 240.832 451.107 240.425 451.052 240.026C451.13 238.642 451.208 236.452 450.982 235.881C450.646 235.036 450.138 233.848 450.138 232.151C450.138 230.453 448.779 230.453 448.443 232.323C448.107 234.192 448.974 236.264 448.974 236.264L447.232 236.46C447.279 235.49 447.24 234.669 447.068 234.426C446.615 233.809 444.24 233.425 442.685 234.614C442.685 234.614 442.419 237.383 442.443 239.158C442.451 239.909 442.513 240.487 442.662 240.597C443.068 240.902 445.029 241.309 446.052 240.996C446.248 242.138 446.427 243.068 446.505 243.092C446.709 243.146 448.099 244.687 449.482 246.275C449.591 246.4 449.755 246.603 449.958 246.869L448.357 249.348C448.357 249.348 460.419 263.559 461.662 263.559C462.904 263.559 467.513 260.72 467.513 260.72L467.474 259.93C468.935 259.32 470.099 258.811 470.099 258.811L470.091 258.804Z" fill="#263238" stroke="#263238" stroke-linecap="round" stroke-linejoin="round"/>
<path d="M348.431 271.614L332.486 210.784C330.892 204.7 330.868 198.263 332.423 192.171C336.306 176.913 349.439 165.721 365.095 164.329L365.509 169.006C351.829 170.226 340.361 180.002 336.97 193.336C335.611 198.662 335.634 204.285 337.025 209.596L352.97 270.425L348.439 271.614H348.431Z" fill="white" stroke="#263238" stroke-linecap="round" stroke-linejoin="round"/>
<path d="M376.29 169.936C376.251 169.936 376.204 169.936 376.165 169.936L369.634 169.686C368.283 169.631 366.915 169.67 365.579 169.788C363.868 169.936 362.345 168.669 362.189 166.949C362.033 165.228 363.306 163.711 365.025 163.554C366.626 163.414 368.259 163.375 369.876 163.437L376.407 163.687C378.134 163.758 379.478 165.205 379.408 166.933C379.345 168.614 377.954 169.936 376.29 169.936Z" fill="#78AEFF" stroke="#263238" stroke-linecap="round" stroke-linejoin="round"/>
<path d="M382.04 167.246C382.283 164.063 379.9 161.287 376.72 161.044C373.54 160.802 370.767 163.187 370.525 166.37C370.283 169.553 372.665 172.33 375.845 172.572C379.025 172.815 381.798 170.429 382.04 167.246Z" fill="#78AEFF" stroke="#263238" stroke-linecap="round" stroke-linejoin="round"/>
<path d="M440.18 271.614L435.648 270.425L451.594 209.596C452.984 204.277 453.008 198.662 451.648 193.336C448.25 180.002 436.781 170.226 423.109 169.006L423.523 164.329C439.18 165.721 452.305 176.913 456.195 192.171C457.75 198.263 457.727 204.7 456.133 210.784L440.187 271.614H440.18Z" fill="white" stroke="#263238" stroke-linecap="round" stroke-linejoin="round"/>
<path d="M412.331 169.936C410.659 169.936 409.276 168.614 409.214 166.933C409.143 165.205 410.487 163.75 412.214 163.687L418.745 163.437C420.354 163.375 421.987 163.414 423.596 163.554C425.315 163.711 426.589 165.228 426.432 166.949C426.276 168.669 424.753 169.936 423.042 169.788C421.698 169.67 420.339 169.631 418.987 169.686L412.456 169.936C412.417 169.936 412.37 169.936 412.331 169.936Z" fill="#78AEFF" stroke="#263238" stroke-linecap="round" stroke-linejoin="round"/>
<path d="M406.572 167.246C406.329 164.063 408.712 161.287 411.892 161.044C415.072 160.802 417.845 163.187 418.087 166.37C418.329 169.553 415.947 172.33 412.767 172.572C409.587 172.815 406.814 170.429 406.572 167.246Z" fill="#78AEFF" stroke="#263238" stroke-linecap="round" stroke-linejoin="round"/>
<path d="M136.235 330.675C147.819 322.277 150.41 306.067 142.021 294.47C133.632 282.873 117.44 280.28 105.855 288.678C94.2703 297.076 91.6796 313.285 100.069 324.882C108.458 336.479 124.65 339.072 136.235 330.675Z" fill="white" stroke="#263238" stroke-linecap="round" stroke-linejoin="round"/>
<path d="M140.688 321.068C146.97 310.21 143.27 296.31 132.424 290.021C121.578 283.732 107.693 287.436 101.41 298.294C95.128 309.151 98.8278 323.051 109.674 329.34C120.52 335.629 134.406 331.925 140.688 321.068Z" fill="white" stroke="#263238" stroke-linecap="round" stroke-linejoin="round"/>
<path d="M110.68 267.586L106.305 265.607L112.359 266.389C113.641 265.857 112.469 265.2 112.469 265.2L106.125 263.19L111.672 262.846C112.742 262.573 111.625 261.673 111.625 261.673L103.688 260.938C103.688 260.938 105.281 259.796 105.68 259.828C106.078 259.867 107.461 259.437 107.617 258.709C107.812 257.841 107.586 257.693 106.914 257.998C106.242 258.303 102.594 258.764 102.594 258.764L99.7656 261.736L84.7734 258.92L83.7422 264.997C91.6719 265.357 99.3047 265.631 99.3047 265.631L103.195 267.5C103.195 267.5 106.516 269.901 107.477 270.12C108.445 270.331 108.187 269.416 108.187 269.416L105.281 267.203C105.281 267.203 110.07 269.377 110.867 268.735C111.664 268.094 110.664 267.578 110.664 267.578L110.68 267.586Z" fill="#263238" stroke="#263238" stroke-linecap="round" stroke-linejoin="round"/>
<path d="M78.1484 236.279L86.7188 256.339L89.3203 257.411L86.5625 267.062L81.2109 265.834L78.1484 236.279Z" fill="#263238" stroke="#263238" stroke-linecap="round" stroke-linejoin="round"/>
<path d="M433.757 269.924L428.781 288.921C425.507 301.418 415.937 310.889 404.414 313.032L399.421 313.963H389.187L384.195 313.032C372.671 310.889 363.101 301.418 359.828 288.921L354.851 269.924L346.539 272.106L351.515 291.103C355.632 306.807 367.843 318.733 382.624 321.486L388.39 322.558H390.812C391.296 325.217 391.874 329.229 391.945 333.538C392.046 339.818 391.093 348.053 385.945 351.643C380.499 355.436 375.367 356.554 370.265 355.061C355.515 350.736 342.367 325.592 333.937 305.258C316.078 262.182 293.257 227.317 267.945 204.433C239.101 178.359 207.304 167.261 173.445 171.469C144.335 175.082 121.226 189.699 110.429 212.817C97.7416 239.986 99.601 274.851 115.531 308.473L123.296 304.789C108.468 273.498 106.617 241.3 118.218 216.469C127.89 195.752 148.023 183.302 174.507 180.017C205.781 176.138 235.281 186.5 262.187 210.831C286.562 232.87 308.632 266.663 326.007 308.574C339.507 341.124 353.195 359.041 367.859 363.335C370.124 364 372.39 364.328 374.664 364.328C380.07 364.328 385.499 362.451 390.851 358.721C397.515 354.083 400.773 345.512 400.539 333.241C400.46 329.19 399.999 325.436 399.539 322.573H400.21L405.976 321.502C420.757 318.749 432.968 306.822 437.085 291.118L442.062 272.122L433.749 269.94L433.757 269.924Z" fill="#78AEFF" stroke="#263238" stroke-linecap="round" stroke-linejoin="round"/>
<path d="M131.854 319.817C137.446 313.839 137.138 304.455 131.167 298.858C125.196 293.26 115.822 293.568 110.23 299.546C104.638 305.523 104.946 314.907 110.917 320.505C116.889 326.102 126.262 325.794 131.854 319.817Z" fill="#263238" stroke="#263238" stroke-linecap="round" stroke-linejoin="round"/>
<path d="M121.209 319.874C126.844 319.794 131.347 315.157 131.267 309.517C131.188 303.876 126.555 299.369 120.921 299.448C115.286 299.528 110.783 304.165 110.863 309.806C110.943 315.446 115.575 319.954 121.209 319.874Z" fill="white" stroke="#263238" stroke-linecap="round" stroke-linejoin="round"/>
<path d="M145.299 329.264C154.016 317.912 151.89 301.636 140.55 292.909C129.21 284.183 112.95 286.311 104.233 297.663C95.5159 309.015 97.6421 325.292 108.982 334.018C120.322 342.745 136.582 340.616 145.299 329.264Z" fill="white" stroke="#263238" stroke-linecap="round" stroke-linejoin="round"/>
<path d="M131.693 335.113C143.628 331.28 150.199 318.487 146.369 306.539C142.54 294.592 129.76 288.014 117.825 291.848C105.89 295.681 99.3193 308.474 103.149 320.422C106.979 332.369 119.758 338.947 131.693 335.113Z" fill="white" stroke="#263238" stroke-linecap="round" stroke-linejoin="round"/>
<path d="M433.757 269.924L428.781 288.921C425.507 301.418 415.937 310.889 404.414 313.032L399.421 313.963H389.187L384.195 313.032C372.671 310.889 363.101 301.418 359.828 288.921L354.851 269.924L346.539 272.106L351.515 291.103C355.632 306.807 367.843 318.733 382.624 321.486L388.39 322.558H390.812C391.296 325.217 391.874 329.229 391.945 333.538C392.046 339.818 391.093 348.053 385.945 351.643C380.499 355.436 375.367 356.554 370.265 355.061C355.515 350.736 342.367 325.592 333.937 305.258C316.078 262.182 293.257 227.317 267.945 204.433C239.101 178.359 207.304 167.261 173.445 171.469C144.335 175.082 121.226 189.699 110.429 212.817C97.7416 239.986 99.601 274.851 115.531 308.473L123.296 304.789C108.468 273.498 106.617 241.3 118.218 216.469C127.89 195.752 148.023 183.302 174.507 180.017C205.781 176.138 235.281 186.5 262.187 210.831C286.562 232.87 308.632 266.663 326.007 308.574C339.507 341.124 353.195 359.041 367.859 363.335C370.124 364 372.39 364.328 374.664 364.328C380.07 364.328 385.499 362.451 390.851 358.721C397.515 354.083 400.773 345.512 400.539 333.241C400.46 329.19 399.999 325.436 399.539 322.573H400.21L405.976 321.502C420.757 318.749 432.968 306.822 437.085 291.118L442.062 272.122L433.749 269.94L433.757 269.924Z" fill="#78AEFF" stroke="#263238" stroke-linecap="round" stroke-linejoin="round"/>
<path d="M437.094 291.103L442.071 272.107L438.016 271.043L431.969 293.176C428.696 305.673 419.125 315.144 407.602 317.287L402.61 318.218H392.375L387.383 317.287C379.243 315.77 372.094 310.592 367.43 303.28C363.922 299.323 361.266 294.411 359.829 288.913L354.852 269.917L348.266 271.645L354.704 295.35C355.946 300.081 357.922 304.469 360.477 308.364C366.251 315.144 374.001 319.876 382.618 321.479L388.383 322.55H390.805C391.016 323.723 391.25 325.17 391.446 326.781L391.571 326.805L390.805 322.55C391.29 325.209 395.055 333.476 395.133 337.793C395.235 344.073 394.282 352.308 389.133 355.898C383.688 359.691 378.555 360.809 373.454 359.316C366.727 357.345 360.344 351.041 354.579 342.845C346.36 332.631 339.219 317.999 333.938 305.259C322.891 278.606 309.938 255.104 295.672 235.638C287.836 225.401 279.625 216.368 271.133 208.696C242.29 182.622 210.493 171.524 176.633 175.732C147.524 179.345 123.321 193.485 112.532 216.603C100.422 242.536 103.188 275.509 117.172 307.699L123.297 304.789C108.469 273.499 106.618 241.301 118.219 216.47C127.891 195.753 148.024 183.302 174.508 180.017C205.782 176.138 235.282 186.501 262.188 210.831C271.454 219.207 280.391 229.296 288.86 240.878C303.922 260.532 317.602 284.878 329.196 312.829C335.274 327.485 341.391 339.162 347.618 347.976C354.204 356.211 360.922 361.302 367.86 363.328C370.125 363.992 372.391 364.321 374.665 364.321C380.071 364.321 385.501 362.444 390.852 358.713C397.516 354.076 400.774 345.504 400.54 333.233C400.461 329.182 400.001 325.428 399.54 322.566H400.211L405.977 321.495C420.758 318.742 432.969 306.815 437.086 291.111L437.094 291.103Z" fill="#263238"/>
<path d="M390.805 322.55H388.383L382.618 321.479C374.001 319.876 366.251 315.144 360.477 308.364C357.922 304.469 355.946 300.081 354.704 295.35L348.266 271.645L354.852 269.917L359.829 288.913C361.266 294.411 363.922 299.323 367.43 303.28C372.094 310.592 379.243 315.77 387.383 317.287L392.376 318.218H402.61L407.602 317.287C419.125 315.144 428.696 305.673 431.969 293.176L438.016 271.043L442.071 272.107L437.094 291.103L437.086 291.111C432.969 306.815 420.758 318.742 405.977 321.495L400.211 322.566H399.54C400.001 325.428 400.461 329.182 400.54 333.233C400.774 345.504 397.516 354.076 390.852 358.713C385.501 362.444 380.071 364.321 374.665 364.321C372.391 364.321 370.125 363.992 367.86 363.328C360.922 361.302 354.204 356.211 347.618 347.976C341.391 339.162 335.274 327.485 329.196 312.829C317.602 284.878 303.922 260.532 288.86 240.878C280.391 229.296 271.454 219.207 262.188 210.831C235.282 186.501 205.782 176.138 174.508 180.017C148.024 183.302 127.891 195.753 118.219 216.47C106.618 241.301 108.469 273.499 123.297 304.789L117.172 307.699C103.188 275.509 100.422 242.536 112.532 216.603C123.321 193.485 147.524 179.345 176.633 175.732C210.493 171.524 242.29 182.622 271.133 208.696C279.625 216.368 287.836 225.401 295.672 235.638C309.938 255.104 322.891 278.606 333.938 305.259C339.219 317.999 346.36 332.631 354.579 342.845C360.344 351.041 366.727 357.345 373.454 359.316C378.555 360.809 383.688 359.691 389.133 355.898C394.282 352.308 395.235 344.073 395.133 337.793C395.055 333.476 391.29 325.209 390.805 322.55ZM390.805 322.55C391.016 323.723 391.251 325.17 391.446 326.781L391.571 326.805L390.805 322.55Z" stroke="#263238" stroke-linecap="round" stroke-linejoin="round"/>
<path d="M139.592 313.583C139.632 305.393 133.032 298.722 124.852 298.682C116.671 298.642 110.007 305.248 109.967 313.438C109.927 321.627 116.526 328.298 124.707 328.338C132.887 328.378 139.552 321.772 139.592 313.583Z" fill="#263238" stroke="#263238" stroke-linecap="round" stroke-linejoin="round"/>
<path d="M134.883 312.148C134.149 306.557 129.032 302.615 123.438 303.342C117.852 304.07 113.914 309.2 114.641 314.8C115.368 320.399 120.493 324.333 126.086 323.606C131.672 322.871 135.61 317.748 134.883 312.148Z" fill="white" stroke="#263238" stroke-linecap="round" stroke-linejoin="round"/>
<path d="M64.8506 271.395C64.8506 271.395 64.3506 281.249 64.3506 283.923C64.3506 286.598 66.1866 293.113 66.1866 293.113L65.6866 327.188L63.0147 362.772C63.0147 362.772 61.3428 367.613 62.0147 368.121C62.6787 368.622 70.1944 369.122 72.3584 369.294C74.5303 369.459 79.2022 370.296 79.7022 369.294C80.2022 368.293 74.6944 365.783 73.5303 364.453C72.3584 363.116 71.3584 361.779 71.3584 361.779L73.0303 358.94C73.0303 358.94 72.8662 355.1 72.8662 354.427C72.8662 353.755 78.71 310.991 78.71 310.991L82.21 357.587L81.5459 361.427L83.0459 364.766C83.0459 364.766 82.21 369.107 82.8819 369.443C83.5459 369.779 88.0538 369.107 88.7256 369.279C89.3897 369.443 92.2334 370.616 93.5616 370.616C94.8897 370.616 99.2334 370.28 100.569 369.615C101.905 368.95 99.7334 368.278 98.5694 367.613C97.3975 366.948 92.0616 363.601 92.0616 363.601L92.2256 361.427C92.2256 361.427 91.5616 360.59 91.0538 357.751C90.5538 354.912 92.0616 342.227 91.8897 337.214C91.7256 332.201 91.7256 307.479 91.2256 296.452C90.7256 285.425 87.7178 271.559 87.7178 271.559L64.8584 271.395H64.8506Z" fill="#263238" stroke="#263238" stroke-linecap="round" stroke-linejoin="round"/>
<path d="M76.3414 228.255L80.0992 229.366L80.4273 234.121L77.8882 233.127C77.8882 233.127 83.5289 251.272 85.9585 257.364C88.3882 263.448 89.7163 272.301 89.271 272.747C88.8257 273.193 89.8257 274.186 83.521 274.186C77.2164 274.186 64.732 273.741 63.8414 273.193C62.9585 272.638 63.2867 262.463 63.5132 260.688C63.732 258.92 62.2945 246.743 61.4117 242.872C60.5289 239.001 64.2867 228.044 64.2867 228.044L76.3335 228.263L76.3414 228.255Z" fill="white" stroke="#263238" stroke-linecap="round" stroke-linejoin="round"/>
<path d="M68.9361 198.599C68.9361 198.599 61.2017 197.269 59.8736 198.708C58.5455 200.147 59.8736 203.463 59.8736 203.463C59.8736 203.463 58.5455 201.805 58.6548 203.463C58.7642 205.121 61.1939 212.536 61.1939 212.536C61.1939 212.536 64.0689 216.853 64.2877 217.181C64.5064 217.51 65.1705 225.369 65.1705 225.369L75.3423 228.247L74.3502 221.827C74.3502 221.827 79.5455 222.046 79.9908 221.381C80.4361 220.716 80.1002 214.96 80.1002 214.96C80.1002 214.96 81.4283 214.076 81.4283 213.63C81.4283 213.185 78.5533 209.094 78.4439 208.758C78.3345 208.43 78.772 207.648 78.9986 206.873C79.2252 206.099 77.5611 200.452 77.5611 200.452C77.5611 200.452 78.4439 199.788 78.2252 198.685C78.0064 197.582 73.358 194.704 73.6939 195.588C74.022 196.472 74.2486 197.246 74.2486 197.246C74.2486 197.246 69.3814 194.923 68.4986 196.143C67.6158 197.363 68.9439 198.576 68.9439 198.576L68.9361 198.599Z" fill="white" stroke="#263238" stroke-linecap="round" stroke-linejoin="round"/>
<path d="M74.3516 221.835L70.0469 221.217L74.7187 224.893L74.3516 221.835Z" fill="#263238" stroke="#263238" stroke-linecap="round" stroke-linejoin="round"/>
<path d="M78.2252 198.708C78.0064 197.606 73.358 194.728 73.6939 195.611C74.022 196.495 74.2486 197.269 74.2486 197.269C74.2486 197.269 69.3814 194.947 68.4986 196.167C67.6158 197.387 68.9439 198.599 68.9439 198.599C68.9439 198.599 61.2095 197.269 59.8814 198.708C58.5533 200.147 59.8814 203.463 59.8814 203.463C59.8814 203.463 58.5533 201.805 58.6627 203.463C58.772 205.121 61.2017 212.535 61.2017 212.535C61.2017 212.535 62.1627 213.974 63.0142 215.257L65.1861 212.872C65.1861 212.872 66.4048 212.426 66.6236 212.098C66.8423 211.769 65.4048 209.438 65.4048 209.438C65.4048 209.438 67.5064 208.664 68.9439 207.225C70.3814 205.786 66.9517 203.909 66.9517 203.909L72.9205 202.916L71.5923 201.477L75.6861 201.149L74.5845 200.484H77.5689C77.5689 200.484 78.4517 199.819 78.233 198.716L78.2252 198.708Z" fill="#263238" stroke="#263238" stroke-linecap="round" stroke-linejoin="round"/>
<path d="M66.1718 214.53C66.1718 214.53 61.7499 210.768 61.1952 212.536C60.6405 214.303 60.203 216.407 62.5233 217.518C64.8437 218.62 66.3905 217.627 66.6171 217.299" fill="white"/>
<path d="M66.1718 214.53C66.1718 214.53 61.7499 210.768 61.1952 212.536C60.6405 214.303 60.203 216.407 62.5233 217.518C64.8437 218.62 66.3905 217.627 66.6171 217.299" stroke="#263238" stroke-linecap="round" stroke-linejoin="round"/>
<path d="M77.2266 207.671C77.2266 207.671 75.0156 206.451 73.7969 208.555" stroke="#263238" stroke-linecap="round" stroke-linejoin="round"/>
<path d="M76.5625 210.104C76.5625 210.651 76.3125 211.097 76.0078 211.097C75.7031 211.097 75.4531 210.651 75.4531 210.104C75.4531 209.556 75.7031 209.11 76.0078 209.11C76.3125 209.11 76.5625 209.556 76.5625 210.104Z" fill="#263238"/>
<path d="M78.3359 216.524C78.3359 216.524 77.1172 217.408 75.2422 215.531" stroke="#263238" stroke-linecap="round" stroke-linejoin="round"/>
<path d="M63.1875 224.487L77.2266 227.811L77.8906 233.121L63.0781 228.585L63.1875 224.487Z" fill="white" stroke="#263238" stroke-linecap="round" stroke-linejoin="round"/>
<path d="M73.6836 237.327L82.1914 251.381L101.426 240.979L101.754 236.881C101.754 236.881 104.293 234.222 104.629 233.565C104.965 232.908 105.223 232.877 105.621 233.675C105.949 234.34 105.152 235.544 104.816 235.763C104.488 235.982 103.965 237.882 103.965 237.882L110.598 233.456C110.598 233.456 112.035 233.456 111.371 234.34L107.277 238.101L113.465 235.669C113.465 235.669 114.793 235.45 114.129 236.662L108.934 239.869L113.574 238.649C113.574 238.649 114.676 238.43 114.457 239.423C114.238 240.416 109.152 241.746 109.152 241.746L112.801 241.636C112.801 241.636 113.574 242.192 112.691 242.63C111.809 243.075 107.715 243.294 107.715 243.294L103.512 244.288C103.512 244.288 77.6445 263.761 76.6523 263.652C75.6602 263.542 64.8242 244.507 64.8242 244.507" fill="white"/>
<path d="M73.6836 237.327L82.1914 251.381L101.426 240.979L101.754 236.881C101.754 236.881 104.293 234.222 104.629 233.565C104.965 232.908 105.223 232.877 105.621 233.675C105.949 234.34 105.152 235.544 104.816 235.763C104.488 235.982 103.965 237.882 103.965 237.882L110.598 233.456C110.598 233.456 112.035 233.456 111.371 234.34L107.277 238.101L113.465 235.669C113.465 235.669 114.793 235.45 114.129 236.662L108.934 239.869L113.574 238.649C113.574 238.649 114.676 238.43 114.457 239.423C114.238 240.416 109.152 241.746 109.152 241.746L112.801 241.636C112.801 241.636 113.574 242.192 112.691 242.63C111.809 243.075 107.715 243.294 107.715 243.294L103.512 244.288C103.512 244.288 77.6445 263.761 76.6523 263.652C75.6602 263.542 64.8242 244.507 64.8242 244.507" stroke="#263238" stroke-linecap="round" stroke-linejoin="round"/>
<path d="M68.1367 246.086C68.1367 246.086 74.832 250.051 80.707 251.013" stroke="#263238" stroke-linecap="round" stroke-linejoin="round"/>
<path d="M73.4258 251.631C73.9336 251.936 74.3398 252.163 74.5586 252.249" stroke="#263238" stroke-linecap="round" stroke-linejoin="round"/>
<path d="M67.7305 247.869C67.7305 247.869 69.6445 249.191 71.4727 250.387" stroke="#263238" stroke-linecap="round" stroke-linejoin="round"/>
<path d="M113.59 238.657L108.949 239.877L114.145 236.67C114.809 235.45 113.48 235.677 113.48 235.677L107.293 238.109L111.387 234.348C112.051 233.464 110.613 233.464 110.613 233.464L103.98 237.89C103.98 237.89 104.504 235.998 104.832 235.771C105.16 235.552 105.965 234.348 105.637 233.683C105.238 232.885 104.973 232.909 104.645 233.573C104.316 234.238 101.77 236.889 101.77 236.889L101.441 240.987L88.0195 248.245L91.043 253.618C97.4336 248.902 103.543 244.303 103.543 244.303L107.746 243.31C107.746 243.31 111.84 243.091 112.723 242.645C113.605 242.2 112.832 241.652 112.832 241.652L109.184 241.762C109.184 241.762 114.27 240.432 114.488 239.439C114.707 238.446 113.605 238.665 113.605 238.665L113.59 238.657Z" fill="white" stroke="#263238" stroke-linecap="round" stroke-linejoin="round"/>
<path d="M85.0898 249.755L88.8398 256.152L92.1758 254.064L88.0117 248.237L85.0898 249.755Z" fill="white" stroke="#263238" stroke-linecap="round" stroke-linejoin="round"/>
<path d="M69.4375 252.531L65.2031 261.83" stroke="#263238" stroke-linecap="round" stroke-linejoin="round"/>
<path d="M67.9531 267.039C67.7813 267.704 67.6094 268.298 67.4375 268.775" stroke="#263238" stroke-linecap="round" stroke-linejoin="round"/>
<path d="M70.4922 254.299C70.4922 254.299 69.4766 260.477 68.4141 265.107" stroke="#263238" stroke-linecap="round" stroke-linejoin="round"/>
<path d="M465.711 301.935C465.711 301.935 460.953 319.727 460.953 322.731C460.953 325.734 459.203 353.302 459.203 355.054C459.203 356.806 458.453 361.568 458.453 361.568L466.211 362.069C466.211 362.069 471.719 340.773 472.719 336.761C473.719 332.749 475.977 321.479 475.977 321.479L478.977 313.213C478.977 313.213 479.727 327.243 480.227 328.244C480.727 329.245 486.484 361.568 486.484 361.568H494.492L492.992 327.493L492.742 295.671L466.461 296.922L465.711 301.935Z" fill="#263238" stroke="#263238" stroke-linecap="round" stroke-linejoin="round"/>
<path d="M469.882 208.454C469.882 208.454 464.859 212.043 464.499 214.077C464.14 216.11 464.257 218.269 463.78 219.106C463.304 219.942 461.273 220.779 461.507 221.139C461.749 221.499 463.421 222.938 463.421 222.938C463.421 222.938 463.421 229.523 464.499 229.64C465.577 229.757 470.241 229.28 470.241 229.28C470.241 229.28 470.718 232.87 470.718 234.903C470.718 236.937 470.601 239.455 470.601 239.455L478.968 234.192C478.968 234.192 477.054 227.489 477.171 226.887C477.288 226.285 482.429 222.218 482.788 217.792C483.148 213.365 480.757 209.893 478.124 208.814C475.491 207.734 471.546 206.663 469.874 208.454H469.882Z" fill="#969696" stroke="#263238" stroke-linecap="round" stroke-linejoin="round"/>
<path d="M468.562 209.173L477.172 226.887L478.969 225.214L471.797 206.897C471.797 206.897 468.93 207.852 468.57 209.173H468.562Z" fill="white" stroke="#263238" stroke-linecap="round" stroke-linejoin="round"/>
<path d="M471.797 206.897C471.797 206.897 472.273 204.747 473.109 204.981C473.945 205.224 474.187 206.655 474.187 206.655C474.187 206.655 479.687 201.149 480.766 201.869C481.844 202.588 481.367 204.262 481.367 204.262C481.367 204.262 488.18 199.952 490.219 203.065C492.25 206.178 489.977 208.931 489.977 208.931C489.977 208.931 495.953 213.717 495.117 216.83C494.281 219.942 490.094 220.662 490.094 220.662C490.094 220.662 491.766 223.172 490.094 224.494C488.422 225.808 485.43 224.736 485.43 224.736C485.43 224.736 486.031 227.012 483.992 227.489C481.953 227.966 478.969 225.213 478.969 225.213L471.797 206.897Z" fill="#263238" stroke="#263238" stroke-linecap="round" stroke-linejoin="round"/>
<path d="M472.633 220.787C472.633 220.787 475.5 216.837 476.336 219.113C477.172 221.389 476.695 224.016 475.5 224.619C474.305 225.221 472.391 224.259 472.391 224.259" fill="#969696"/>
<path d="M472.633 220.787C472.633 220.787 475.5 216.837 476.336 219.113C477.172 221.389 476.695 224.016 475.5 224.619C474.305 225.221 472.391 224.259 472.391 224.259" stroke="#263238" stroke-linecap="round" stroke-linejoin="round"/>
<path d="M465.875 220.31C466.173 220.31 466.414 219.827 466.414 219.231C466.414 218.635 466.173 218.151 465.875 218.151C465.577 218.151 465.336 218.635 465.336 219.231C465.336 219.827 465.577 220.31 465.875 220.31Z" fill="#263238"/>
<path d="M465.219 216.838C465.219 216.838 466.656 216.001 467.492 217.315" stroke="#263238" stroke-linecap="round" stroke-linejoin="round"/>
<path d="M464.53 253.587L464.499 253.345C464.413 253.548 464.436 253.611 464.53 253.587Z" fill="white" stroke="#263238" stroke-linecap="round" stroke-linejoin="round"/>
<path d="M489.18 273.702C487.766 268.392 484.359 253.157 482.359 244.101C481.57 236.812 479.414 232.988 478.258 232.753C478.258 232.753 471.805 235.866 468.93 240.652C466.062 245.438 463.547 251.781 464.508 253.337C464.547 253.392 464.586 253.47 464.625 253.54C464.594 253.556 464.562 253.572 464.539 253.58L465.969 271.864L461.711 311.132L481.703 311.39L484.539 303.906L485.828 311.648L496.758 311.39C496.758 311.39 491.242 281.453 489.18 273.71V273.702Z" fill="white" stroke="#263238" stroke-linecap="round" stroke-linejoin="round"/>
<path d="M464.703 224.846C464.703 224.846 467.078 225.183 467.922 223.321" stroke="#263238" stroke-linecap="round" stroke-linejoin="round"/>
<path d="M474.875 238.978C474.875 238.978 472.289 238.11 469.828 243.084C467.367 248.058 463.336 258.178 463.336 258.178C463.336 258.178 447.32 256.098 446.828 255.761C446.336 255.425 443.648 253.634 442.984 252.899C442.32 252.164 439.304 250.866 438.843 251.562C438.375 252.258 438.578 253.251 438.578 253.251C438.578 253.251 437.609 256.637 438.242 257.63C438.875 258.624 441.82 259.593 443.515 259.429C445.211 259.265 446.703 259.398 446.703 259.398C446.703 259.398 466.789 265.068 467.82 265.037C468.851 265.005 470.179 263.449 471.375 261.658C472.57 259.867 479.859 243.577 480.195 241.786C480.531 239.995 478.343 238.532 478.343 238.532" fill="#969696"/>
<path d="M474.875 238.978C474.875 238.978 472.289 238.11 469.828 243.084C467.367 248.058 463.336 258.178 463.336 258.178C463.336 258.178 447.32 256.098 446.828 255.761C446.336 255.425 443.648 253.634 442.984 252.899C442.32 252.164 439.304 250.866 438.843 251.562C438.375 252.258 438.578 253.251 438.578 253.251C438.578 253.251 437.609 256.637 438.242 257.63C438.875 258.624 441.82 259.593 443.515 259.429C445.211 259.265 446.703 259.398 446.703 259.398C446.703 259.398 466.789 265.068 467.82 265.037C468.851 265.005 470.179 263.449 471.375 261.658C472.57 259.867 479.859 243.577 480.195 241.786C480.531 239.995 478.343 238.532 478.343 238.532" stroke="#263238" stroke-linecap="round" stroke-linejoin="round"/>
<path d="M447.805 255.659L445.781 261.564C445.781 261.564 464.914 266.467 466.586 266.522C468.258 266.577 469.586 266.819 471.016 264.364C472.445 261.9 479.008 248.183 479.352 247.346C479.695 246.509 482.078 237.116 477.891 236.498C473.984 235.92 471.125 238.798 470.086 240.667C469.047 242.536 463.336 258.185 463.336 258.185L447.805 255.667V255.659Z" fill="white" stroke="#263238" stroke-linecap="round" stroke-linejoin="round"/>
<path d="M458.454 361.568C458.454 361.568 455.704 364.321 454.446 364.572C453.188 364.822 449.188 365.072 447.938 366.073C446.688 367.074 447.688 369.334 449.688 369.334H466.711C466.711 369.334 467.961 367.583 467.961 365.823C467.961 364.063 466.211 362.061 466.211 362.061L458.454 361.561V361.568Z" fill="white" stroke="#263238" stroke-linecap="round" stroke-linejoin="round"/>
<path d="M486.492 361.568L484.078 364.298C484.078 364.298 480.313 366.159 480.203 367.395C480.094 368.623 480.758 368.959 481.766 368.959H494.945C494.945 368.959 495.5 367.285 495.281 365.377C495.055 363.477 494.5 361.568 494.5 361.568H486.492Z" fill="white" stroke="#263238" stroke-linecap="round" stroke-linejoin="round"/>
<path d="M482.508 293.574H469.328V296.1H482.508V293.574Z" fill="white" stroke="#263238" stroke-linecap="round" stroke-linejoin="round"/>
<path d="M367.023 205.638C367.023 205.638 370.555 206.725 372.461 208.086C374.367 209.447 375.18 213.529 375.18 213.529L376.813 219.512L374.641 219.786L373.281 227.677C373.281 227.677 372.195 227.95 369.477 227.129C366.758 226.316 365.398 225.768 365.398 225.768L364.852 230.117L353.344 228.06L357.516 221.139C357.516 221.139 352.625 217.877 354.797 210.8C356.969 203.73 364.852 205.09 367.023 205.63V205.638Z" fill="white" stroke="#263238" stroke-linecap="round" stroke-linejoin="round"/>
<path d="M363.845 216.501C363.845 216.501 366.525 217.268 367.095 216.501C367.666 215.735 366.142 214.397 366.525 213.819C366.908 213.24 369.58 212.481 369.392 211.136C369.205 209.799 365.955 208.078 366.712 207.312C367.47 206.545 371.9 207.132 372.462 208.086C373.025 209.04 376.275 208.845 375.126 206.553C373.978 204.254 373.025 202.15 371.111 202.729L369.197 203.3C369.197 203.3 365.564 202.346 361.931 203.871C358.298 205.404 356.072 205.302 354.798 210.808C353.525 216.313 354.884 217.987 356.197 219.567L357.509 221.147C357.509 221.147 361.931 221.671 363.837 219.755C365.744 217.839 363.837 216.501 363.837 216.501H363.845Z" fill="#263238" stroke="#263238" stroke-linecap="round" stroke-linejoin="round"/>
<path d="M365.758 217.838C365.758 217.838 363.273 213.248 361.172 214.585C359.07 215.922 361.172 218.793 362.125 219.942C363.078 221.092 364.992 221.28 365.179 220.709" fill="white"/>
<path d="M365.758 217.838C365.758 217.838 363.273 213.248 361.172 214.585C359.07 215.922 361.172 218.793 362.125 219.942C363.078 221.092 364.992 221.28 365.179 220.709" stroke="#263238" stroke-linecap="round" stroke-linejoin="round"/>
<path d="M373.883 215.062C373.883 215.656 373.641 216.141 373.344 216.141C373.047 216.141 372.805 215.656 372.805 215.062C372.805 214.467 373.047 213.982 373.344 213.982C373.641 213.982 373.883 214.467 373.883 215.062Z" fill="#263238"/>
<path d="M371.453 220.615C371.453 220.615 372.133 221.562 373.617 221.835" stroke="#263238" stroke-linecap="round" stroke-linejoin="round"/>
<path d="M372.172 213.154C372.172 213.154 373.008 212.325 374.094 212.927" stroke="#263238" stroke-linecap="round" stroke-linejoin="round"/>
<path d="M373.609 275.281L376.484 289.89L382.82 315.261L385.703 361.388H377.641L367.492 315.394L360.445 298.29L357.734 316.747L347.398 359.659H341.641L344.172 311.319L344.523 275.188L373.609 275.281Z" fill="#263238" stroke="#263238" stroke-linecap="round" stroke-linejoin="round"/>
<path d="M376.086 233.222L389.094 261.877L402.664 277.026L399.531 280.686L382.828 268.407L374.734 256.754C374.734 256.754 374.82 233.972 376.078 233.222H376.086Z" fill="white" stroke="#263238" stroke-linecap="round" stroke-linejoin="round"/>
<path d="M402.664 277.025L405.828 277.276L409.508 280.052C409.508 280.052 410.469 280.115 410.469 280.357C410.469 280.599 410.227 281.139 409.625 281.264C409.023 281.382 408.297 281.202 408.297 281.202L407.148 280.537L410.164 283.431L410.828 285.362C410.828 285.362 410.586 286.207 410.227 286.207C409.867 286.207 408.898 284.823 408.898 284.823L407.211 283.133C407.211 283.133 407.875 284.823 408.234 285.308C408.594 285.792 409.742 287.114 409.617 287.419C409.5 287.724 408.891 287.724 408.594 287.482C408.289 287.239 406.727 285.73 406.359 285.37C405.992 285.01 405.336 284.525 405.336 284.525C405.336 284.525 406.539 286.52 406.664 286.817C406.781 287.122 406.547 287.599 406.18 287.544C405.82 287.482 405.031 286.817 405.031 286.817C405.031 286.817 404.008 286.575 402.5 285.245C400.992 283.915 399.523 280.685 399.523 280.685L402.656 277.025H402.664Z" fill="white" stroke="#263238" stroke-linecap="round" stroke-linejoin="round"/>
<path d="M404.922 286.394L403.477 284.885" stroke="#263238" stroke-linecap="round" stroke-linejoin="round"/>
<path d="M353.953 227.052L340.023 232.034L344.523 275.188L373.609 275.282L376.086 233.222L364.758 227.56L353.953 227.052Z" fill="white" stroke="#263238" stroke-linecap="round" stroke-linejoin="round"/>
<path d="M348.711 229.069C348.711 229.069 352.336 224.025 354.156 223.618C355.969 223.211 361.813 224.22 363.023 224.424C364.234 224.627 367.859 227.45 367.859 227.45L369.469 229.671L359.188 228.256L348.711 229.061V229.069Z" fill="white" stroke="#263238" stroke-linecap="round" stroke-linejoin="round"/>
<path d="M329.336 205.92C329.336 205.92 329.336 210.902 329.5 211.707C329.664 212.513 332.547 218.941 332.547 218.941L335.117 220.388L332.867 212.356L331.102 210.425C331.102 210.425 332.227 207.531 329.336 205.928V205.92Z" fill="white" stroke="#263238" stroke-linecap="round" stroke-linejoin="round"/>
<path d="M332.546 218.934C332.546 218.934 327.093 248.191 327.319 249.786C327.546 251.382 330.28 253.892 332.101 254.573C333.921 255.253 337.796 254.346 337.796 254.346L342.577 251.382L340.023 232.033L334.733 220.13L332.538 218.941L332.546 218.934Z" fill="white" stroke="#263238" stroke-linecap="round" stroke-linejoin="round"/>
<path d="M331.344 244.171L330.32 245.594" stroke="#263238" stroke-linecap="round" stroke-linejoin="round"/>
<path d="M340.023 232.033L332.547 242.49" stroke="#263238" stroke-linecap="round" stroke-linejoin="round"/>
<path d="M385.617 361.568C385.617 361.568 388.367 364.321 389.625 364.572C390.883 364.822 394.883 365.072 396.133 366.073C397.383 367.074 396.383 369.334 394.383 369.334H377.359C377.359 369.334 376.109 367.583 376.109 365.823C376.109 364.063 377.859 362.061 377.859 362.061L385.617 361.561V361.568Z" fill="white" stroke="#263238" stroke-linecap="round" stroke-linejoin="round"/>
<path d="M341.639 359.66L339.998 363.352C339.998 363.352 336.756 365.26 336.373 366.793C335.99 368.318 336.373 369.467 336.373 369.467H347.631C347.631 369.467 348.584 366.222 348.397 364.118L348.209 362.014L347.405 359.66H341.647H341.639Z" fill="white" stroke="#263238" stroke-linecap="round" stroke-linejoin="round"/>
<path d="M263.211 178.735H205.375V215.149H263.211V178.735Z" fill="white" stroke="#263238" stroke-linecap="round" stroke-linejoin="round"/>
<path d="M211.203 180.064V199.28" stroke="#263238" stroke-linecap="round" stroke-linejoin="round"/>
<path d="M223.297 180.064V199.28" stroke="#263238" stroke-linecap="round" stroke-linejoin="round"/>
<path d="M211.203 203.684V210.886" stroke="#263238" stroke-linecap="round" stroke-linejoin="round"/>
<path d="M217.477 182.067V189.27" stroke="#263238" stroke-linecap="round" stroke-linejoin="round"/>
<path d="M268.992 241.715C265.648 231.791 261.234 224.393 258.805 220.748C259.672 220.146 260.219 219.114 260.125 217.956C259.992 216.337 258.547 215.141 256.922 215.141H251.727V215.156L234.281 215.289L215.984 215.148H210.797C209.164 215.148 207.703 216.368 207.586 218.003C207.484 219.403 208.328 220.615 209.539 221.084C207.078 224.831 202.82 232.08 199.57 241.715C194.711 256.129 193.672 264.536 193.672 276.142V360.497C193.672 365.424 197.664 369.42 202.586 369.42H265.977C270.898 369.42 274.891 365.424 274.891 360.497V276.142C274.891 264.536 273.852 256.129 268.992 241.715Z" fill="#969696" stroke="#263238" stroke-linecap="round" stroke-linejoin="round"/>
<path d="M260.123 217.956C259.99 216.337 258.545 215.141 256.92 215.141H251.725V215.156L234.279 215.289L215.982 215.148H210.795C209.162 215.148 207.701 216.368 207.584 218.003C207.568 218.253 207.584 218.496 207.631 218.73H260.084C260.123 218.48 260.139 218.222 260.115 217.956H260.123Z" fill="#263238" stroke="#263238" stroke-linecap="round" stroke-linejoin="round"/>
<path d="M253.813 340.249V271.45H193.75C193.703 272.967 193.68 274.516 193.68 276.135V340.249H253.813Z" fill="white" stroke="#263238" stroke-linecap="round" stroke-linejoin="round"/>
<path d="M9.27344 369.342H563.109" stroke="#263238" stroke-linecap="round" stroke-linejoin="round"/>
</g>
</g>
<defs>
<clipPath id="clip0_7_77">
<rect width="566" height="371" fill="white"/>
</clipPath>
</defs>
</svg>
