<?xml version="1.0" encoding="UTF-8"?>
<svg width="139px" height="160px" viewBox="0 0 139 160" version="1.1" xmlns="http://www.w3.org/2000/svg" xmlns:xlink="http://www.w3.org/1999/xlink">
    <!-- Generator: Sketch 64 (93537) - https://sketch.com -->
    <title>companicon_dtx</title>
    <desc>Created with Sketch.</desc>
    <g id="Landing2020" stroke="none" stroke-width="1" fill="none" fill-rule="evenodd">
        <g id="1.2020_index_menu" transform="translate(-1029.000000, -1325.000000)" fill-rule="nonzero">
            <g id="first" transform="translate(0.000000, 1124.000000)">
                <g id="companicon_dtx" transform="translate(1029.000000, 201.000000)">
                    <rect id="Rectangle" fill="#DADEE1" x="2.66666667" y="24" width="96" height="112"></rect>
                    <polygon id="Path" fill="#A9A9A9" points="98.6666667 56 98.6666667 136 18.6666667 136"></polygon>
                    <path d="M136,40 L136,61.3333333 C135.991214,64.275205 133.608538,66.6578805 130.666667,66.6666667 L114.666667,66.6666667 L104,80 L104,66.6666667 L93.3333333,66.6666667 C90.3914617,66.6578805 88.0087861,64.275205 88,61.3333333 L88,40 C88.0087861,37.0581284 90.3914617,34.6754528 93.3333333,34.6666667 L130.666667,34.6666667 C133.608538,34.6754528 135.991214,37.0581284 136,40 L136,40 Z" id="Path" fill="#DADEE1"></path>
                    <circle id="Oval" fill="#E6E7E8" cx="50.6666667" cy="80" r="32"></circle>
                    <path d="M66.2129297,72.4533333 C66.2129297,74.5746436 65.36873,76.6087472 63.8666667,78.1066667 L56.32,85.6533333 L45.0133333,74.3466667 L52.56,66.8 C55.6833872,63.6804973 60.7432795,63.6804973 63.8666667,66.8 C65.36873,68.2979195 66.2129297,70.3320231 66.2129297,72.4533333 Z" id="Path" fill="#D8D8D8"></path>
                    <path d="M56.32,85.6533333 L48.7733333,93.2 C46.7789805,95.3403006 43.7754076,96.2213246 40.9409183,95.4974458 C38.1064291,94.773567 35.8930997,92.5602376 35.1692209,89.7257484 C34.4453421,86.8912591 35.3263661,83.8876862 37.4666667,81.8933333 L45.0133333,74.3466667 L56.32,85.6533333 Z" id="Path" fill="#6D7278"></path>
                    <path d="M98.6666667,136 L98.6666667,146.666667 C98.6666667,152.557704 93.8910373,157.333333 88,157.333333 L13.3333333,157.333333 C7.442296,157.333333 2.66666667,152.557704 2.66666667,146.666667 L2.66666667,136 L98.6666667,136 Z" id="Path" fill="#898890"></path>
                    <path d="M98.6666667,13.3333333 L98.6666667,24 L2.66666667,24 L2.66666667,13.3333333 C2.66666667,7.442296 7.442296,2.66666667 13.3333333,2.66666667 L88,2.66666667 C93.8910373,2.66666667 98.6666667,7.442296 98.6666667,13.3333333 Z" id="Path" fill="#898890"></path>
                    <path d="M16,80 C16,99.1458713 31.5207953,114.666667 50.6666667,114.666667 C69.812538,114.666667 85.3333333,99.1458713 85.3333333,80 C85.3333333,60.8541287 69.812538,45.3333333 50.6666667,45.3333333 C31.5299332,45.3553761 16.0220427,60.8632665 16,80 Z M80,80 C80,96.2003527 66.8670193,109.333333 50.6666667,109.333333 C34.466314,109.333333 21.3333333,96.2003527 21.3333333,80 C21.3333333,63.7996473 34.466314,50.6666667 50.6666667,50.6666667 C66.8591001,50.6857693 79.9808973,63.8075665 80,80 Z" id="Shape" fill="#000000"></path>
                    <path d="M35.5813333,80 C31.4156338,84.1656998 31.4156339,90.9196334 35.5813336,95.0853331 C39.7470332,99.2510328 46.5009669,99.2510329 50.6666667,95.0853333 L65.752,80 C69.9176997,75.8343002 69.9176996,69.0803665 65.7519999,64.9146668 C61.5863002,60.748967 54.8323665,60.748967 50.6666667,64.9146667 L35.5813333,80 Z M46.896,91.3146667 C45.5483942,92.6622726 43.5842159,93.1885727 41.7433521,92.6953147 C39.9024882,92.2020568 38.4646099,90.7641784 37.971352,88.9233146 C37.478094,87.0824508 38.0043941,85.1182724 39.352,83.7706667 L45.0106667,78.1146667 L52.552,85.656 L46.896,91.3146667 Z M58.2106667,67.1279956 C60.366274,67.1295365 62.3090156,68.428535 63.1340751,70.4199974 C63.9591345,72.4114598 63.5042709,74.703782 61.9813333,76.2293333 L56.3226667,81.8853333 L48.7813333,74.344 L54.4373333,68.6853333 C55.4388209,67.686372 56.7961357,67.1261799 58.2106667,67.1279956 L58.2106667,67.1279956 Z" id="Shape" fill="#000000"></path>
                    <path d="M96,133.333333 L5.33333333,133.333333 L5.33333333,26.6666667 L101.333333,26.6666667 L101.333333,13.3333333 C101.324517,5.9731916 95.3601417,0.00881631023 88,0 L13.3333333,0 C5.9731916,0.00881631023 0.00881631023,5.9731916 0,13.3333333 L0,146.666667 C0.00881631023,154.026808 5.9731916,159.991184 13.3333333,160 L88,160 C95.3601417,159.991184 101.324517,154.026808 101.333333,146.666667 L101.333333,88 L96,88 L96,133.333333 Z M13.3333333,5.33333333 L88,5.33333333 C92.418278,5.33333333 96,8.91505533 96,13.3333333 L96,21.3333333 L5.33333333,21.3333333 L5.33333333,13.3333333 C5.33333333,8.91505533 8.91505533,5.33333333 13.3333333,5.33333333 Z M88,154.666667 L13.3333333,154.666667 C8.91505533,154.666667 5.33333333,151.084945 5.33333333,146.666667 L5.33333333,138.666667 L96,138.666667 L96,146.666667 C96,151.084945 92.418278,154.666667 88,154.666667 Z" id="Shape" fill="#000000"></path>
                    <rect id="Rectangle" fill="#000000" x="16" y="10.6666667" width="5.33333333" height="5.33333333"></rect>
                    <rect id="Rectangle" fill="#000000" x="26.6666667" y="10.6666667" width="10.6666667" height="5.33333333"></rect>
                    <rect id="Rectangle" fill="#000000" x="42.6666667" y="144" width="16" height="5.33333333"></rect>
                    <path d="M130.666667,32 L93.3333333,32 C88.9150553,32 85.3333333,35.581722 85.3333333,40 L85.3333333,61.3333333 C85.3333333,65.7516113 88.9150553,69.3333333 93.3333333,69.3333333 L101.333333,69.3333333 L101.333333,80 C101.332915,81.132871 102.048321,82.1423531 103.117333,82.5173333 C103.401325,82.6153763 103.699562,82.6658333 104,82.6666669 C104.810076,82.6666669 105.576369,82.2990318 106.082667,81.6666667 L115.946667,69.3333333 L130.666667,69.3333333 C135.084945,69.3333333 138.666667,65.7516113 138.666667,61.3333333 L138.666667,40 C138.666667,35.581722 135.084945,32 130.666667,32 Z M133.333333,61.3333333 C133.333333,62.8060927 132.139426,64 130.666667,64 L114.666667,64 C113.856591,63.9996961 113.090297,64.3676349 112.584,65 L106.666667,72.3973333 L106.666667,66.6666667 C106.666667,65.1939073 105.472759,64 104,64 L93.3333333,64 C91.860574,64 90.6666667,62.8060927 90.6666667,61.3333333 L90.6666667,40 C90.6666667,38.5272407 91.860574,37.3333333 93.3333333,37.3333333 L130.666667,37.3333333 C132.139426,37.3333333 133.333333,38.5272407 133.333333,40 L133.333333,61.3333333 Z" id="Shape" fill="#000000"></path>
                    <rect id="Rectangle" fill="#000000" x="109.333333" y="48" width="5.33333333" height="5.33333333"></rect>
                    <rect id="Rectangle" fill="#000000" x="120" y="48" width="5.33333333" height="5.33333333"></rect>
                    <rect id="Rectangle" fill="#000000" x="98.6666667" y="48" width="5.33333333" height="5.33333333"></rect>
                </g>
            </g>
        </g>
    </g>
</svg>