<?xml version="1.0" encoding="UTF-8"?>
<svg width="160px" height="160px" viewBox="0 0 160 160" version="1.1" xmlns="http://www.w3.org/2000/svg" xmlns:xlink="http://www.w3.org/1999/xlink">
    <!-- Generator: Sketch 64 (93537) - https://sketch.com -->
    <title>patient management</title>
    <desc>Created with Sketch.</desc>
    <g id="Landing2020" stroke="none" stroke-width="1" fill="none" fill-rule="evenodd">
        <g id="1.2020_index_menu" transform="translate(-639.000000, -1325.000000)" fill-rule="nonzero">
            <g id="first" transform="translate(0.000000, 1124.000000)">
                <g id="patient-management" transform="translate(639.000000, 201.000000)">
                    <polyline id="Path" fill="#DADEE1" points="93.3333333 136 93.3333333 2.66666667 2.66666667 2.66666667 2.66666667 125.333333"></polyline>
                    <polygon id="Path" fill="#EBEDF2" points="74.6666667 13.3333333 2.66666667 13.3333333 2.66666667 136 93.3333333 136 93.3333333 32"></polygon>
                    <polygon id="Path" fill="#EBEDF2" points="74.6666667 32 93.3333333 32 74.6666667 13.3333333"></polygon>
                    <path d="M61.7578127,80.608073 C59.2877603,76.8958333 55.125,74.6653647 50.6666667,74.6666661 L50.6666667,88 L61.7578127,80.608073 Z" id="Path" fill="#6D7278"></path>
                    <path d="M50.6666667,88 L50.6666667,74.6666654 C44.5520833,74.6640627 39.21875,78.8203127 37.7291667,84.751302 C36.2395833,90.6822917 38.9739583,96.8658853 44.3645833,99.752604 C49.7539063,102.640625 56.4179687,101.492187 60.529948,96.966146 C64.640625,92.440104 65.1471353,85.6966147 61.7578127,80.608073 L50.6666667,88 Z" id="Path" fill="#9B9B9B"></path>
                    <g id="Group" transform="translate(10.666667, 21.333333)" fill="#3FB7C7">
                        <polygon id="Path" points="0 56 18.6666667 56 18.6666667 61.3333333 0 61.3333333"></polygon>
                        <polygon id="Path" points="0 45.3333333 24 45.3333333 24 50.6666667 0 50.6666667"></polygon>
                        <polygon id="Path" points="0 66.6666667 18.6666667 66.6666667 18.6666667 72 0 72"></polygon>
                        <polygon id="Path" points="0 77.3333333 18.6666667 77.3333333 18.6666667 82.6666667 0 82.6666667"></polygon>
                        <polygon id="Path" points="0 88 48 88 48 93.3333333 0 93.3333333"></polygon>
                        <polygon id="Path" points="0 98.6666667 24 98.6666667 24 104 0 104"></polygon>
                        <polygon id="Path" points="29.3333333 98.6666667 48 98.6666667 48 104 29.3333333 104"></polygon>
                        <polygon id="Path" points="0 0 5.33333333 0 5.33333333 5.33333333 0 5.33333333"></polygon>
                        <polygon id="Path" points="10.6666667 0 16 0 16 5.33333333 10.6666667 5.33333333"></polygon>
                        <polygon id="Path" points="21.3333333 0 26.6666667 0 26.6666667 5.33333333 21.3333333 5.33333333"></polygon>
                        <path d="M66.6666667,40 L2.66666667,40 C1.19401033,40 0,38.8059897 0,37.3333333 L0,10.6666667 L5.33333333,10.6666667 L5.33333333,34.6666667 L66.6666667,34.6666667 L66.6666667,40 Z" id="Path"></path>
                    </g>
                    <path d="M34.6666667,50.6666667 C34.252604,50.6666667 33.845052,50.5716147 33.4752603,50.3867187 L24,45.6484373 L14.5247397,50.3997397 L12.141927,45.626302 L22.8085937,40.2929687 C23.5585937,39.9179687 24.4414063,39.9179687 25.1914063,40.2929687 L33.7552083,44.5755207 L43.1145833,30.533854 C43.6380207,29.8346353 44.4596353,29.421875 45.3333333,29.421875 C46.2070313,29.421875 47.028646,29.8346353 47.5520833,30.533854 L56.4127603,43.829427 L64.78125,35.4609373 C65.8229167,34.420573 67.5104167,34.420573 68.5520833,35.4609373 L79.21875,46.127604 L75.4479167,49.8984373 L66.6666667,41.1041667 L57.8854167,49.8854167 C57.3203127,50.4505207 56.532552,50.7317707 55.7369793,50.653646 C54.9427083,50.5755207 54.2252603,50.1445313 53.78125,49.4804687 L45.3333333,36.7994793 L36.8854167,49.471354 C36.391927,50.216146 35.559896,50.6653647 34.6666667,50.6666667 Z" id="Path" fill="#F35244"></path>
                    <path d="M76.6927083,85.623698 L66.6666667,120 L80,120 L80,141.333333 C80,150.169271 87.1640627,157.333333 96,157.333333 L112,157.333333 L112,56.2369793 C95.3476563,57.934896 81.3854167,69.5559897 76.6927083,85.623698 Z" id="Path" fill="#D6D6D4"></path>
                    <path d="M116.188802,56 C114.790365,56.0078127 113.391927,56.0872397 112,56.2369793 L112,157.333333 L157.333333,157.333333 L157.333333,97.1445313 C157.333333,74.420573 138.91276,56 116.188802,56 L116.188802,56 Z" id="Path" fill="#9B9B9B"></path>
                    <path d="M120,56.1914063 C118.74349,56.076823 117.477865,56 116.188802,56 C114.790365,56.0078127 113.391927,56.0872397 112,56.2369793 L112,157.333333 L120,157.333333 L120,56.1914063 Z" id="Path" fill="#6D7278"></path>
                    <path d="M101.333333,100.989583 C101.333333,105.217448 97.90625,108.645833 93.6770833,108.645833 C89.4492187,108.645833 86.0208333,105.217448 86.0208333,100.989583 C86.0208333,96.7604167 89.4492187,93.3333333 93.6770833,93.3333333 C97.90625,93.3333333 101.333333,96.7604167 101.333333,100.989583 Z" id="Path" fill="#B0B0AE"></path>
                    <path d="M136,90.6666667 C131.582031,90.6666667 128,87.0846353 128,82.6666667 C128,78.248698 131.582031,74.6666667 136,74.6666667 C140.417969,74.6666667 144,78.248698 144,82.6666667 C144,87.0846353 140.417969,90.6666667 136,90.6666667 Z M136,80 C134.527344,80 133.333333,81.1940103 133.333333,82.6666667 C133.333333,84.139323 134.527344,85.3333333 136,85.3333333 C137.472656,85.3333333 138.666667,84.139323 138.666667,82.6666667 C138.666667,81.1940103 137.472656,80 136,80 Z" id="Shape" fill="#4DB7E5"></path>
                    <path d="M122.666667,96 L112,96 L112,90.6666667 L121.5625,90.6666667 L128.78125,83.4479167 L132.552083,87.21875 L124.552083,95.21875 C124.052083,95.71875 123.373698,96 122.666667,96 Z" id="Path" fill="#4DB7E5"></path>
                    <path d="M138.666667,114.666667 C134.248698,114.666667 130.666667,111.084635 130.666667,106.666667 C130.666667,102.248698 134.248698,98.6666667 138.666667,98.6666667 C143.084635,98.6666667 146.666667,102.248698 146.666667,106.666667 C146.666667,111.084635 143.084635,114.666667 138.666667,114.666667 Z M138.666667,104 C137.19401,104 136,105.19401 136,106.666667 C136,108.139323 137.19401,109.333333 138.666667,109.333333 C140.139323,109.333333 141.333333,108.139323 141.333333,106.666667 C141.333333,105.19401 140.139323,104 138.666667,104 Z" id="Shape" fill="#4DB7E5"></path>
                    <path d="M138.666667,136 C134.248698,136 130.666667,132.417969 130.666667,128 C130.666667,123.582031 134.248698,120 138.666667,120 C143.084635,120 146.666667,123.582031 146.666667,128 C146.666667,132.417969 143.084635,136 138.666667,136 Z M138.666667,125.333333 C137.19401,125.333333 136,126.527344 136,128 C136,129.472656 137.19401,130.666667 138.666667,130.666667 C140.139323,130.666667 141.333333,129.472656 141.333333,128 C141.333333,126.527344 140.139323,125.333333 138.666667,125.333333 Z" id="Shape" fill="#4DB7E5"></path>
                    <polygon id="Path" fill="#4DB7E5" points="112 104 120 104 120 109.333333 112 109.333333"></polygon>
                    <polygon id="Path" fill="#4DB7E5" points="120 69.3333333 125.333333 69.3333333 125.333333 74.6666667 120 74.6666667"></polygon>
                    <path d="M133.333333,130.666667 L128,130.666667 C127.292969,130.666667 126.614583,130.385417 126.114583,129.885417 L118.895833,122.666667 L112,122.666667 L112,117.333333 L120,117.333333 C120.707031,117.333333 121.385417,117.614583 121.885417,118.114583 L129.104167,125.333333 L133.333333,125.333333 L133.333333,130.666667 Z" id="Path" fill="#4DB7E5"></path>
                    <polygon id="Path" fill="#4DB7E5" points="125.333333 104 133.333333 104 133.333333 109.333333 125.333333 109.333333"></polygon>
                    <path d="M136,149.333333 L130.666667,149.333333 C129.959635,149.333333 129.28125,149.052083 128.78125,148.552083 L121.5625,141.333333 L112,141.333333 L112,136 L122.666667,136 C123.373698,136 124.052083,136.28125 124.552083,136.78125 L131.770833,144 L136,144 L136,149.333333 Z" id="Path" fill="#4DB7E5"></path>
                    <polygon id="Path" fill="#4DB7E5" points="141.333333 144 146.666667 144 146.666667 149.333333 141.333333 149.333333"></polygon>
                    <polygon id="Path" fill="#48ADD9" points="112 90.6666667 120 90.6666667 120 96 112 96"></polygon>
                    <polygon id="Path" fill="#48ADD9" points="112 104 120 104 120 109.333333 112 109.333333"></polygon>
                    <polygon id="Path" fill="#48ADD9" points="112 117.333333 120 117.333333 120 122.666667 112 122.666667"></polygon>
                    <polygon id="Path" fill="#48ADD9" points="112 136 120 136 120 141.333333 112 141.333333"></polygon>
                    <path d="M2.66666667,138.666667 L72,138.666667 L72,133.333333 L5.33333333,133.333333 L5.33333333,16 L72,16 L72,32 C72,33.4726563 73.1940103,34.6666667 74.6666667,34.6666667 L90.6666667,34.6666667 L90.6666667,53.3333333 L96,53.3333333 L96,2.66666667 C96,1.19401033 94.8059897,0 93.3333333,0 L2.66666667,0 C1.19401033,0 0,1.19401033 0,2.66666667 L0,136 C0,137.472656 1.19401033,138.666667 2.66666667,138.666667 Z M77.3333333,29.3333333 L77.3333333,19.7708333 L86.8958333,29.3333333 L77.3333333,29.3333333 Z M90.6666667,5.33333333 L90.6666667,25.5625 L76.5520833,11.4479167 C76.3255207,11.2239583 76.059896,11.0429687 75.7682293,10.9140627 C75.690104,10.8815103 75.609375,10.8515627 75.528646,10.826823 C75.3007813,10.748698 75.063802,10.701823 74.8242187,10.6875 C74.7708333,10.6927083 74.720052,10.6666667 74.6666667,10.6666667 L5.33333333,10.6666667 L5.33333333,5.33333333 L90.6666667,5.33333333 Z" id="Shape" fill="#000000"></path>
                    <path d="M24,45.6484373 L33.4752603,50.3997397 C34.6770833,51.001302 36.139323,50.6119793 36.8854167,49.4934897 L45.3333333,36.7994793 L53.78125,49.471354 C54.2252603,50.1367187 54.9427083,50.5677083 55.7369793,50.6458333 C56.532552,50.7239583 57.3203127,50.4427083 57.8854167,49.877604 L66.6666667,41.1041667 L75.4479167,49.8854167 L79.21875,46.1145833 L68.5520833,35.4479167 C67.5104167,34.407552 65.8229167,34.407552 64.78125,35.4479167 L56.4127603,43.8164063 L47.5520833,30.5195313 C47.028646,29.8203127 46.2070313,29.408854 45.3333333,29.408854 C44.4596353,29.408854 43.6380207,29.8203127 43.1145833,30.5195313 L33.752604,44.5625 L25.1914063,40.279948 C24.4414063,39.904948 23.5585937,39.904948 22.8085937,40.279948 L16,43.684896 L16,32 L10.6666667,32 L10.6666667,58.6666667 C10.6666667,60.139323 11.860677,61.3333333 13.3333333,61.3333333 L77.3333333,61.3333333 L77.3333333,56 L16,56 L16,49.6484373 L24,45.6484373 Z" id="Path" fill="#000000"></path>
                    <path d="M66.6666702,88 C66.6679687,84.8398437 65.7304687,81.751302 63.9739583,79.125 C59.5690103,72.528646 50.997396,70.154948 43.826823,73.545573 C36.657552,76.934896 33.0533853,85.0664063 35.3567707,92.65625 C37.6601563,100.246094 45.1757813,105.002604 53.0195313,103.835937 C60.8645833,102.669271 66.671875,95.9309897 66.6666702,88 Z M53.3333333,83.0182293 L53.3333333,77.684896 C54.984375,78.1132813 56.5078127,78.9309897 57.7760417,80.0690103 L53.3333333,83.0182293 Z M50.6666667,98.6666667 C45.295573,98.6666667 40.7617187,94.673177 40.0846353,89.34375 C39.407552,84.015625 42.7994793,79.014323 48,77.671875 L48,88 C48,88.983073 48.5403647,89.8880207 49.407552,90.3515627 C49.6119793,90.4583333 49.829427,90.5390627 50.0533853,90.592448 C50.1354167,90.610677 50.221354,90.610677 50.3033853,90.6210937 C50.423177,90.6458333 50.5442707,90.6614583 50.6666667,90.6666667 L50.7252603,90.6666667 C50.8932293,90.657552 51.0585937,90.6328127 51.221354,90.592448 C51.3020833,90.5820313 51.3815103,90.5677083 51.4609373,90.5494793 C51.703125,90.4739583 51.934896,90.3658853 52.1471353,90.2265627 L60.735677,84.498698 C61.1315103,85.623698 61.3333333,86.8072917 61.3333333,88 C61.3333333,93.890625 56.5572917,98.6666667 50.6666667,98.6666667 L50.6666667,98.6666667 Z" id="Shape" fill="#000000"></path>
                    <polygon id="Path" fill="#000000" points="10.6666667 77.3333333 29.3333333 77.3333333 29.3333333 82.6666667 10.6666667 82.6666667"></polygon>
                    <polygon id="Path" fill="#000000" points="10.6666667 66.6666667 34.6666667 66.6666667 34.6666667 72 10.6666667 72"></polygon>
                    <polygon id="Path" fill="#000000" points="10.6666667 88 29.3333333 88 29.3333333 93.3333333 10.6666667 93.3333333"></polygon>
                    <polygon id="Path" fill="#000000" points="10.6666667 98.6666667 29.3333333 98.6666667 29.3333333 104 10.6666667 104"></polygon>
                    <polygon id="Path" fill="#000000" points="10.6666667 109.333333 58.6666667 109.333333 58.6666667 114.666667 10.6666667 114.666667"></polygon>
                    <polygon id="Path" fill="#000000" points="10.6666667 120 34.6666667 120 34.6666667 125.333333 10.6666667 125.333333"></polygon>
                    <polygon id="Path" fill="#000000" points="40 120 58.6666667 120 58.6666667 125.333333 40 125.333333"></polygon>
                    <polygon id="Path" fill="#000000" points="10.6666667 21.3333333 16 21.3333333 16 26.6666667 10.6666667 26.6666667"></polygon>
                    <polygon id="Path" fill="#000000" points="21.3333333 21.3333333 26.6666667 21.3333333 26.6666667 26.6666667 21.3333333 26.6666667"></polygon>
                    <polygon id="Path" fill="#000000" points="32 21.3333333 37.3333333 21.3333333 37.3333333 26.6666667 32 26.6666667"></polygon>
                    <path d="M116.188802,53.3333333 C96.7552083,53.440104 79.6770833,66.247396 74.1328127,84.875 L64.1067707,119.253906 C63.8710937,120.058594 64.029948,120.928385 64.533854,121.60026 C65.0364583,122.270833 65.826823,122.666667 66.6666667,122.666667 L77.3333333,122.666667 L77.3333333,141.333333 C77.346354,151.636719 85.6966147,159.986979 96,160 L157.333333,160 C158.80599,160 160,158.80599 160,157.333333 L160,97.1445313 C159.972656,72.9596353 140.373698,53.360677 116.188802,53.3333333 L116.188802,53.3333333 Z M82.6666667,141.333333 L82.6666667,120 C82.6666667,118.527344 81.4726563,117.333333 80,117.333333 L70.221354,117.333333 L79.2539063,86.3710937 C83.3020833,72.3528647 94.967448,61.8541667 109.333333,59.3007813 L109.333333,154.666667 L96,154.666667 C88.639323,154.657552 82.6757813,148.69401 82.6666667,141.333333 L82.6666667,141.333333 Z M154.666667,154.666667 L114.666667,154.666667 L114.666667,141.333333 L121.5625,141.333333 L128.78125,148.552083 C129.28125,149.052083 129.959635,149.333333 130.666667,149.333333 L136,149.333333 L136,144 L131.770833,144 L124.552083,136.78125 C124.052083,136.28125 123.373698,136 122.666667,136 L114.666667,136 L114.666667,122.666667 L118.895833,122.666667 L126.114583,129.885417 C126.614583,130.385417 127.292969,130.666667 128,130.666667 L131.157552,130.666667 C132.455729,134.339844 136.21224,136.544271 140.052083,135.885417 C143.893229,135.226563 146.699219,131.895833 146.699219,128 C146.699219,124.104167 143.893229,120.773437 140.052083,120.114583 C136.21224,119.455729 132.455729,121.660156 131.157552,125.333333 L129.104167,125.333333 L121.885417,118.114583 C121.385417,117.614583 120.707031,117.333333 120,117.333333 L114.666667,117.333333 L114.666667,109.333333 L120,109.333333 L120,104 L114.666667,104 L114.666667,96 L122.666667,96 C123.373698,96 124.052083,95.71875 124.552083,95.21875 L130.951823,88.8190103 C132.36849,90.0039063 134.153646,90.657552 136,90.6666667 C139.428385,90.7109373 142.514323,88.595052 143.707031,85.3802083 C144.898437,82.1653647 143.940104,78.548177 141.3125,76.346354 C138.683594,74.1445313 134.954427,73.8346353 131.998698,75.5716147 C129.042969,77.3085937 127.498698,80.717448 128.144531,84.0859373 L121.5625,90.6666667 L114.666667,90.6666667 L114.666667,58.7070313 C115.200521,58.6796873 115.699219,58.6666667 116.188802,58.6666667 C137.429687,58.6914063 154.641927,75.903646 154.666667,97.1445313 L154.666667,154.666667 Z M136,128 C136,126.527344 137.19401,125.333333 138.666667,125.333333 C140.139323,125.333333 141.333333,126.527344 141.333333,128 C141.333333,129.472656 140.139323,130.666667 138.666667,130.666667 C137.19401,130.666667 136,129.472656 136,128 Z M133.333333,82.6666667 C133.333333,81.1940103 134.527344,80 136,80 C137.472656,80 138.666667,81.1940103 138.666667,82.6666667 C138.666667,84.139323 137.472656,85.3333333 136,85.3333333 C134.527344,85.3333333 133.333333,84.139323 133.333333,82.6666667 Z" id="Shape" fill="#000000"></path>
                    <path d="M93.6770833,90.6666667 C87.9765627,90.6666667 83.3541667,95.2877603 83.3541667,100.989583 C83.3541667,106.690104 87.9765627,111.3125 93.6770833,111.3125 C99.3789063,111.3125 104,106.690104 104,100.989583 C103.996094,95.2903647 99.376302,90.670573 93.6770833,90.6666667 Z M93.6770833,105.976563 C90.921875,105.976563 88.6875,103.742187 88.6875,100.985677 C88.688802,98.2304687 90.923177,95.9960937 93.6796873,95.9973954 C96.434896,95.998698 98.6679687,98.233073 98.6666672,100.989583 C98.6640627,103.74349 96.4309897,105.973958 93.6770833,105.976563 Z" id="Shape" fill="#000000"></path>
                    <path d="M131.157552,104 L125.333333,104 L125.333333,109.333333 L131.157552,109.333333 C132.455729,113.00651 136.21224,115.210937 140.052083,114.552083 C143.893229,113.893229 146.699219,110.5625 146.699219,106.666667 C146.699219,102.770833 143.893229,99.440104 140.052083,98.78125 C136.21224,98.122396 132.455729,100.326823 131.157552,104 L131.157552,104 Z M141.333333,106.666667 C141.333333,108.139323 140.139323,109.333333 138.666667,109.333333 C137.19401,109.333333 136,108.139323 136,106.666667 C136,105.19401 137.19401,104 138.666667,104 C140.139323,104 141.333333,105.19401 141.333333,106.666667 Z" id="Shape" fill="#000000"></path>
                    <polygon id="Path" fill="#000000" points="120 69.3333333 125.333333 69.3333333 125.333333 74.6666667 120 74.6666667"></polygon>
                    <polygon id="Path" fill="#000000" points="141.333333 144 146.666667 144 146.666667 149.333333 141.333333 149.333333"></polygon>
                </g>
            </g>
        </g>
    </g>
</svg>