<?xml version="1.0" encoding="UTF-8"?>
<svg width="160px" height="160px" viewBox="0 0 160 160" version="1.1" xmlns="http://www.w3.org/2000/svg" xmlns:xlink="http://www.w3.org/1999/xlink">
    <!-- Generator: Sketch 64 (93537) - https://sketch.com -->
    <title>prediction</title>
    <desc>Created with Sketch.</desc>
    <g id="Landing2020" stroke="none" stroke-width="1" fill="none" fill-rule="evenodd">
        <g id="1.2020_index_menu" transform="translate(-259.000000, -1325.000000)" fill-rule="nonzero">
            <g id="first" transform="translate(0.000000, 1124.000000)">
                <g id="prediction" transform="translate(259.000000, 201.000000)">
                    <path d="M115.942029,156.521739 C110.17564,156.521739 105.507246,151.955843 105.507246,146.318841 L105.507246,105.507246 L126.376812,105.507246 L126.376812,146.318841 C126.376812,149.124887 125.202389,151.675611 123.323568,153.537591 C121.419271,155.373415 118.810575,156.521739 115.942029,156.521739 L115.942029,156.521739 Z" id="Path" fill="#9B9B9B"></path>
                    <polygon id="Path" fill="#DADEE1" points="126.376812 95.0724638 126.376812 105.507246 105.507246 105.507246 105.507246 95.0724638"></polygon>
                    <path d="M120.57971,84.6883837 L120.57971,95.0724638 L110.144928,95.0724638 L110.144928,84.6376812 C111.865801,84.8404907 113.587947,84.9418952 115.362319,84.9418952 C117.135417,84.9418952 118.857563,84.8404907 120.57971,84.6376812 L120.57971,84.6883837 Z" id="Path" fill="#AAB2BD"></path>
                    <path d="M40.6889981,105.574356 L40.6889981,69.5652174 L40.9467835,69.5652174 C62.5312518,69.5652174 80,86.9518846 80,108.403897 C80,110.564044 79.7927605,112.699072 79.4300921,114.782609 L40.6889981,108.146438 L39.4202899,106.629312 L40.6889981,105.574356 Z" id="Path" fill="#D0D0D1"></path>
                    <path d="M21.0407609,75.0606304 C26.7537365,71.609616 33.4369338,69.6163897 40.5797101,69.5652174 L40.5797101,105.350927 L39.3292572,106.399336 L9.97101449,130.912148 L9.8178218,131.014493 C5.09873188,124.624187 2.31884058,116.72617 2.31884058,108.162911 C2.31884058,94.1042392 9.8178218,81.7829319 21.0407609,75.0606304 Z" id="Path" fill="#BBB0AA"></path>
                    <path d="M10.5917461,131.328161 L40.6726353,106.666667 L41.9538679,108.183524 L48.6956522,146.681322 C46.5798318,147.040446 44.4104145,147.246377 42.214198,147.246377 C29.1734458,147.246377 17.5951366,141.023242 10.4347826,131.431126 L10.5917461,131.328161 Z" id="Path" fill="#EEEEF0"></path>
                    <path d="M52.173913,118.26087 L90.4347826,124.637681 C87.7342368,140.965784 74.8780824,153.82236 58.5505152,156.521739 L52.173913,118.26087 Z" id="Path" fill="#AAA7A8"></path>
                    <path d="M81.1226756,20.6087062 C88.5046919,9.5727363 101.084391,2.31884058 115.362319,2.31884058 C138.102497,2.31884058 156.521739,20.7380831 156.521739,43.4782609 C156.521739,64.4699672 140.803081,81.7825982 120.507246,84.3286839 C118.809018,84.5346823 117.11079,84.6376812 115.362319,84.6376812 C113.612591,84.6376812 111.914363,84.5346823 110.217391,84.3286839 C89.9203004,81.7825982 74.2028986,64.4699672 74.2028986,43.4782609 C74.2028986,35.0147547 76.7489846,27.1428648 81.1226756,20.6087062 Z" id="Path" fill="#CCD1D9"></path>
                    <g id="Group" transform="translate(2.318841, 10.434783)" fill="#6D7278">
                        <path d="M7.46944568,36.6118158 C9.16870371,37.4622583 10.3275171,39.2147243 10.3275171,41.2238325 C10.3275171,43.1310386 9.29690201,44.779086 7.75349309,45.6811092 C7.00692574,46.1189111 6.10576574,46.3768116 5.1794691,46.3768116 C2.34779142,46.3768116 0.0314211109,44.0582225 0.0314211109,41.2238325 C0.0314211109,38.3894425 2.34779142,36.0708535 5.1794691,36.0708535 C6.00270439,36.0708535 6.77440901,36.2507549 7.46944568,36.6118158 Z" id="Path"></path>
                        <path d="M23.197637,0 C26.028058,0 28.345685,2.31858905 28.345685,5.15297907 C28.345685,6.46638486 27.8555146,7.67788857 27.0322793,8.57991143 C26.079589,9.63667472 24.715909,10.3059581 23.197637,10.3059581 C22.373145,10.3059581 21.6014407,10.1260567 20.9064037,9.76499581 C19.2071457,8.9145533 18.0495891,7.16208728 18.0495891,5.15297907 C18.0495891,2.31858905 20.3659594,0 23.197637,0 Z" id="Path"></path>
                        <path d="M48.937877,28.3413849 C48.937877,31.1757749 46.6202499,33.4943639 43.789829,33.4943639 C40.9581513,33.4943639 38.641781,31.1757749 38.641781,28.3413849 C38.641781,27.0279791 39.130695,25.8416364 39.95393,24.9408715 C40.8802269,23.8576892 42.2703003,23.1884058 43.789829,23.1884058 C45.4626933,23.1884058 46.9558283,24.0124296 47.9072619,25.2490944 C48.5507679,26.1259562 48.937877,27.1814615 48.937877,28.3413849 Z" id="Path"></path>
                        <path d="M61.8079969,0 C64.6384179,0 66.9560449,2.31858905 66.9560449,5.15297907 C66.9560449,5.74552142 66.8529836,6.31290242 66.6468606,6.85386473 C65.9518236,8.86297295 64.0464428,10.3059581 61.8079969,10.3059581 C60.1338759,10.3059581 58.6419976,9.4819343 57.7144442,8.24526957 C57.0458013,7.36840773 56.659949,6.31290242 56.659949,5.15297907 C56.659949,2.31858905 58.9763193,0 61.8079969,0 Z" id="Path"></path>
                    </g>
                    <path d="M146.086957,43.4782609 C146.086957,60.4470721 132.33113,74.2028986 115.362319,74.2028986 C98.3935076,74.2028986 84.6376812,60.4470721 84.6376812,43.4782609 C84.6376812,26.5094496 98.3935076,12.7536232 115.362319,12.7536232 C132.33113,12.7536232 146.086957,26.5094496 146.086957,43.4782609 Z" id="Path" fill="#F5FDFF"></path>
                    <path d="M123.478261,27.826087 C126.346807,27.826087 128.695652,30.1736584 128.695652,33.0434783 C128.695652,35.9132982 126.346807,38.2608696 123.478261,38.2608696 C122.042714,38.2608696 120.738366,37.686396 119.799592,36.7221467 C118.834069,35.7820993 118.26087,34.4777515 118.26087,33.0434783 C118.26087,32.5212298 118.33857,32.0257302 118.495245,31.5569802 C119.120669,29.391559 121.129416,27.826087 123.478261,27.826087 Z" id="Path" fill="#6D7278"></path>
                    <path d="M102.608696,48.6956522 C104.042969,48.6956522 105.347317,49.2701258 106.28609,50.234375 C107.251614,51.1744224 107.826087,52.4787702 107.826087,53.9130435 C107.826087,56.7828634 105.477242,59.1304348 102.608696,59.1304348 C99.7388758,59.1304348 97.3913043,56.7828634 97.3913043,53.9130435 C97.3913043,51.0432236 99.7388758,48.6956522 102.608696,48.6956522 Z" id="Path" fill="#6D7278"></path>
                    <path d="M160,43.5530622 C160,19.5373311 140.320061,0 116.129032,0 C101.648185,0 88.8256048,7.0303369 80.8303932,17.7972604 L72.2442038,15.2390685 C72.169859,11.0621476 68.7399193,7.6858345 64.516129,7.6858345 C60.2469757,7.6858345 56.7741935,11.1347025 56.7741935,15.371669 C56.7741935,16.4599953 57.0085686,17.4932796 57.4243951,18.4327428 L49.813508,31.5376911 C48.7915825,31.0435659 47.6612903,30.743338 46.4516128,30.743338 C45.2457157,30.743338 44.1204638,31.0410642 43.1035786,31.5301852 L32.8099799,18.596617 C33.2711693,17.6133707 33.548387,16.5275465 33.548387,15.371669 C33.548387,11.1347025 30.0743448,7.6858345 25.8064515,7.6858345 C21.5372983,7.6858345 18.0645161,11.1347025 18.0645161,15.371669 C18.0645161,17.4394887 18.8999496,19.3096584 20.2419354,20.6932089 L8.68069542,43.6481344 C8.36819542,43.6093548 8.06199606,43.5530622 7.74193542,43.5530622 C3.47278219,43.5530622 0,47.0019302 0,51.2388967 C0,55.4758631 3.47278219,58.9247312 7.74193542,58.9247312 C8.23714703,58.9247312 8.717238,58.8684385 9.18346768,58.7783702 L18.0506554,73.8685753 C7.16103832,81.3129766 0,93.7649293 0,107.853124 C0,130.592886 18.6340725,149.091929 41.5398186,149.091929 C43.6718751,149.091929 45.9009577,148.898032 48.3606351,148.492724 L50.9236393,148.072405 L44.4531251,110.745319 L82.0564515,117.170197 L82.482359,114.627016 C82.8868448,112.187664 83.0859374,109.973484 83.0859374,107.855626 C83.0834174,85.1133617 64.4480848,66.6105657 41.5398186,66.6105657 C34.669859,66.6105657 28.1980848,68.3018496 22.484879,71.245334 L13.6277722,56.1701403 C14.7681451,54.8328749 15.4838709,53.1265796 15.4838709,51.2388967 C15.4838709,49.171077 14.6471774,47.3009073 13.3051915,45.9173568 L24.8664315,22.9624313 C25.1789315,23.0012109 25.4863912,23.0575035 25.8064515,23.0575035 C27.0085686,23.0575035 28.1363406,22.7597773 29.1532257,22.2706563 L39.4468245,35.2042245 C38.9856351,36.1874708 38.7096774,37.2732951 38.7096774,38.4291725 C38.7096774,42.666139 42.1824596,46.115007 46.4516128,46.115007 C50.7195061,46.115007 54.1935483,42.666139 54.1935483,38.4291725 C54.1935483,37.3408462 53.9579135,36.3075619 53.545867,35.3680987 L61.1554941,22.2631504 C62.1774193,22.7572756 63.3077115,23.0575035 64.516129,23.0575035 C66.982107,23.0575035 69.1582661,21.8841129 70.577117,20.0927531 L77.8881048,22.273158 C74.3170364,28.5729403 72.2580645,35.8234444 72.2580645,43.5530622 C72.2580645,64.9430499 87.8805445,82.7403103 108.387097,86.3868282 L108.387097,92.230014 L103.225806,92.230014 L103.225806,146.030856 C103.225806,153.093717 109.013357,158.84058 116.129032,158.84058 C123.243448,158.84058 129.032258,153.093717 129.032258,146.030856 L129.032258,92.230014 L123.870968,92.230014 L123.870968,86.3868282 C144.37626,82.7403103 160,64.9430499 160,43.5530622 L160,43.5530622 Z M44.9445564,143.78415 C43.7563006,143.906743 42.6323083,143.965538 41.5423386,143.965538 C30.4170867,143.965538 20.4561493,138.970496 13.7802419,131.135798 L39.1192038,110.171134 L44.9445564,143.78415 Z M77.922127,107.853124 C77.922127,108.933944 77.8629032,110.051043 77.7394154,111.229437 L43.8709677,105.442544 L43.8709677,71.8520448 C62.8427419,73.0542073 77.922127,88.7173475 77.922127,107.853124 Z M38.7096774,71.8783146 L38.7096774,103.841328 L10.737147,126.977642 C7.22530252,121.423425 5.16129026,114.879708 5.16129026,107.853124 C5.16129026,95.6501105 11.3054435,84.8619209 20.6653225,78.3182033 L23.576109,83.2732147 L28.0355341,80.6912547 L25.0907257,75.6799503 C29.2376512,73.5821079 33.8369457,72.2523487 38.7096774,71.8783146 Z M5.16129026,51.2388967 C5.16129026,49.8253238 6.31930445,48.6769518 7.74193542,48.6769518 C9.16330639,48.6769518 10.3225806,49.8253238 10.3225806,51.2388967 C10.3225806,52.6524696 9.16330639,53.8008415 7.74193542,53.8008415 C6.31930445,53.8008415 5.16129026,52.6524696 5.16129026,51.2388967 Z M25.8064515,17.9336138 C24.3838206,17.9336138 23.2258064,16.7852419 23.2258064,15.371669 C23.2258064,13.9580961 24.3838206,12.8097242 25.8064515,12.8097242 C27.2278225,12.8097242 28.3870967,13.9580961 28.3870967,15.371669 C28.3870967,16.7852419 27.2278225,17.9336138 25.8064515,17.9336138 Z M46.4516128,40.9911173 C45.0289819,40.9911173 43.8709677,39.8427454 43.8709677,38.4291725 C43.8709677,37.0155996 45.0289819,35.8672277 46.4516128,35.8672277 C47.8729838,35.8672277 49.032258,37.0155996 49.032258,38.4291725 C49.032258,39.8427454 47.8729838,40.9911173 46.4516128,40.9911173 Z M64.516129,17.9336138 C63.093498,17.9336138 61.9354838,16.7852419 61.9354838,15.371669 C61.9354838,13.9580961 63.093498,12.8097242 64.516129,12.8097242 C65.9374999,12.8097242 67.0967741,13.9580961 67.0967741,15.371669 C67.0967741,16.7852419 65.9374999,17.9336138 64.516129,17.9336138 Z M77.4193548,43.5530622 C77.4193548,36.3238242 79.4783267,29.5749509 82.9901715,23.7930619 L88.092238,25.3142166 C84.6156754,30.5594483 82.5806451,36.8204511 82.5806451,43.5530622 C82.5806451,61.9170027 97.6310483,76.858345 116.129032,76.858345 C124.048639,76.858345 131.746472,74.0499632 137.801159,68.9548451 L134.464466,65.0481297 C129.338458,69.3601531 122.827621,71.7344554 116.129032,71.7344554 C100.476311,71.7344554 87.7419354,59.0911074 87.7419354,43.5530622 C87.7419354,37.3045687 89.8235886,31.5451966 93.3026715,26.8691471 L116.166835,33.6868224 C116.218498,34.7276125 116.474294,35.708357 116.905242,36.600284 L106.543599,46.885592 C105.531754,46.4039765 104.417843,46.115007 103.225806,46.115007 C98.9566532,46.115007 95.4838709,49.5638751 95.4838709,53.8008415 C95.4838709,58.037808 98.9566532,61.486676 103.225806,61.486676 C107.4937,61.486676 110.967742,58.037808 110.967742,53.8008415 C110.967742,52.6174433 110.675403,51.5103527 110.190272,50.5083421 L120.551915,40.2230341 C121.56376,40.7021479 122.677672,40.9911173 123.870968,40.9911173 C128.138861,40.9911173 131.612903,37.5422493 131.612903,33.3052828 C131.612903,29.0683164 128.138861,25.6194483 123.870968,25.6194483 C121.313004,25.6194483 119.05746,26.8716488 117.64869,28.7755943 L97.142137,22.6634543 C102.17994,18.1462751 108.825605,15.371669 116.129032,15.371669 C131.780494,15.371669 144.516129,28.015017 144.516129,43.5530622 C144.516129,50.2043613 142.123236,56.6680181 137.779738,61.7556303 L141.71497,65.0681449 C146.848538,59.0573317 149.677419,51.4152805 149.677419,43.5530622 C149.677419,25.1891217 134.627016,10.2477793 116.129032,10.2477793 C106.40247,10.2477793 97.6587703,14.4034338 91.5246977,20.9871818 L86.0849296,19.3659511 C93.1892641,10.6856119 104.012097,5.12388967 116.129032,5.12388967 C137.473538,5.12388967 154.83871,22.3632264 154.83871,43.5530622 C154.83871,64.742898 137.473538,81.9822347 116.129032,81.9822347 C94.7845264,81.9822347 77.4193548,64.742898 77.4193548,43.5530622 L77.4193548,43.5530622 Z M121.290323,33.3052828 C121.290323,31.8917099 122.448337,30.743338 123.870968,30.743338 C125.292339,30.743338 126.451613,31.8917099 126.451613,33.3052828 C126.451613,34.7188558 125.292339,35.8672277 123.870968,35.8672277 C122.448337,35.8672277 121.290323,34.7188558 121.290323,33.3052828 Z M105.806452,53.8008415 C105.806452,55.2144144 104.647177,56.3627863 103.225806,56.3627863 C101.803175,56.3627863 100.645161,55.2144144 100.645161,53.8008415 C100.645161,52.3872686 101.803175,51.2388967 103.225806,51.2388967 C104.647177,51.2388967 105.806452,52.3872686 105.806452,53.8008415 Z M123.870968,97.3539037 L123.870968,102.477793 L108.387097,102.477793 L108.387097,97.3539037 L123.870968,97.3539037 Z M116.129032,153.71669 C111.859879,153.71669 108.387097,150.267822 108.387097,146.030856 L108.387097,107.601683 L123.870968,107.601683 L123.870968,146.030856 C123.870968,150.267822 120.396925,153.71669 116.129032,153.71669 Z M118.709677,92.230014 L113.548387,92.230014 L113.548387,86.9760256 C114.407762,87.0273145 115.255796,87.1061244 116.129032,87.1061244 C117.001008,87.1061244 117.850303,87.0273145 118.709677,86.9760256 L118.709677,92.230014 Z" id="Shape" fill="#000000"></path>
                    <path d="M56.0390633,160 L58.5554853,159.5833 C75.8897282,156.713805 89.4649328,143.1386 92.3344275,125.80311 L92.7536232,123.28544 L48.6956522,115.942029 L56.0390633,160 Z M60.2247827,154.036442 L54.9124747,122.161347 L86.7875698,127.473654 C83.6448493,140.617188 73.3683155,150.893721 60.2247827,154.036442 L60.2247827,154.036442 Z" id="Shape" fill="#000000"></path>
                    <path d="M118.26087,146.086957 C118.26087,147.367527 117.2226,148.405797 115.942029,148.405797 C114.660326,148.405797 113.623188,147.367527 113.623188,146.086957 C113.623188,144.806386 114.660326,143.768116 115.942029,143.768116 C117.2226,143.768116 118.26087,144.806386 118.26087,146.086957 Z" id="Path" fill="#000000"></path>
                </g>
            </g>
        </g>
    </g>
</svg>