<?xml version="1.0" encoding="UTF-8"?>
<svg width="14px" height="14px" viewBox="0 0 14 14" version="1.1" xmlns="http://www.w3.org/2000/svg" xmlns:xlink="http://www.w3.org/1999/xlink">
    <!-- Generator: Sketch 64 (93537) - https://sketch.com -->
    <title>check-square</title>
    <desc>Created with Sketch.</desc>
    <g id="Landing2020" stroke="none" stroke-width="1" fill="none" fill-rule="evenodd">
        <g id="mobile-2" transform="translate(-39.000000, -221.000000)" fill="#4A4A4A" fill-rule="nonzero">
            <g id="content" transform="translate(-314.000000, -5.000000)">
                <g id="Group" transform="translate(353.000000, 226.000000)">
                    <path d="M12.5,14 L1.5,14 C0.6715625,14 0,13.3284375 0,12.5 L0,1.5 C0,0.6715625 0.6715625,0 1.5,0 L12.5,0 C13.3284375,0 14,0.6715625 14,1.5 L14,12.5 C14,13.3284375 13.3284375,14 12.5,14 Z M6.1035625,10.9356563 L11.8535625,5.18565625 C12.0488125,4.99040625 12.0488125,4.6738125 11.8535625,4.4785625 L11.1464688,3.77146875 C10.9512188,3.57621875 10.634625,3.5761875 10.4393438,3.77146875 L5.75,8.46078125 L3.56065625,6.2714375 C3.36540625,6.0761875 3.0488125,6.0761875 2.85353125,6.2714375 L2.1464375,6.97853125 C1.9511875,7.17378125 1.9511875,7.490375 2.1464375,7.685625 L5.3964375,10.935625 C5.59171875,11.1309375 5.90828125,11.1309375 6.1035625,10.9356563 L6.1035625,10.9356563 Z" id="check-square"></path>
                </g>
            </g>
        </g>
    </g>
</svg>