<?xml version="1.0" standalone="no"?>
<!DOCTYPE svg PUBLIC "-//W3C//DTD SVG 20010904//EN"
 "http://www.w3.org/TR/2001/REC-SVG-20010904/DTD/svg10.dtd">
<svg version="1.0" xmlns="http://www.w3.org/2000/svg"
 width="197.000000pt" height="197.000000pt" viewBox="0 0 197.000000 197.000000"
 preserveAspectRatio="xMidYMid meet">
<metadata>
Created by potrace 1.14, written by Peter Selinger 2001-2017
</metadata>
<g transform="translate(0.000000,197.000000) scale(0.100000,-0.100000)"
fill="#000000" stroke="none">
<path d="M819 1959 c-133 -15 -371 -108 -459 -180 l-25 -21 25 7 c68 17 91 20
170 20 99 0 152 -21 216 -84 31 -30 50 -40 89 -45 65 -10 176 -49 231 -81 116
-68 202 -204 202 -320 0 -35 -9 -83 -21 -115 -22 -61 -67 -134 -76 -125 -3 4
-6 33 -6 65 -1 33 -4 62 -7 66 -6 5 -29 9 -138 18 -61 6 -96 12 -155 28 -58
15 -86 18 -222 23 -111 4 -128 3 -200 -21 -68 -23 -117 -46 -221 -103 -46 -25
-157 -145 -180 -195 -24 -51 -49 -153 -39 -162 3 -3 18 1 34 9 133 72 225 108
358 143 64 16 213 13 274 -7 99 -30 154 -62 231 -132 28 -25 80 -92 80 -102 0
-4 8 -19 18 -33 26 -38 73 -148 77 -180 2 -15 4 -27 5 -27 6 0 11 -52 12 -115
0 -76 -33 -204 -68 -257 -8 -12 -14 -25 -14 -28 0 -6 118 3 129 9 3 2 23 7 45
10 204 33 464 201 601 391 80 112 163 312 168 410 1 19 5 35 8 35 9 0 3 247
-6 285 -4 17 -8 35 -9 40 -36 165 -130 345 -245 468 -59 63 -200 167 -286 210
-72 36 -183 74 -245 83 -19 3 -39 8 -43 11 -14 8 -239 10 -308 2z"/>
</g>
</svg>
