<?xml version="1.0" encoding="UTF-8"?>
<svg width="40px" height="32px" viewBox="0 0 40 32" version="1.1" xmlns="http://www.w3.org/2000/svg" xmlns:xlink="http://www.w3.org/1999/xlink">
    <!-- Generator: Sketch 64 (93537) - https://sketch.com -->
    <title>cogs</title>
    <desc>Created with Sketch.</desc>
    <g id="Temp" stroke="none" stroke-width="1" fill="none" fill-rule="evenodd">
        <g id="Desktop-HD" transform="translate(-7852.000000, -4428.000000)" fill="#000000" fill-rule="nonzero">
            <path d="M7883.49694,4440.82529 C7883.30942,4441.15656 7882.90939,4441.29407 7882.55311,4441.16281 C7881.81555,4440.88779 7881.14049,4440.49401 7880.5467,4440.00022 C7880.25917,4439.7627 7880.18417,4439.34391 7880.37168,4439.01889 L7880.88422,4438.12506 C7880.45294,4437.62502 7880.11541,4437.04372 7879.89039,4436.41242 L7878.85906,4436.41242 C7878.48403,4436.41242 7878.159,4436.14365 7878.09649,4435.76862 C7877.97148,4435.01856 7877.96523,4434.23099 7878.09649,4433.44968 C7878.159,4433.07465 7878.48403,4432.79962 7878.85906,4432.79962 L7879.89039,4432.79962 C7880.11541,4432.16832 7880.45294,4431.58702 7880.88422,4431.08698 L7880.37168,4430.19316 C7880.18417,4429.86813 7880.25292,4429.44935 7880.5467,4429.21183 C7881.14049,4428.71804 7881.8218,4428.32425 7882.55311,4428.04923 C7882.90939,4427.91797 7883.30942,4428.05548 7883.49694,4428.38676 L7884.00948,4429.28058 C7884.66579,4429.16182 7885.33459,4429.16182 7885.9909,4429.28058 L7886.50344,4428.38676 C7886.69095,4428.05548 7887.09099,4427.91797 7887.44727,4428.04923 C7888.18483,4428.32425 7888.85988,4428.71804 7889.45368,4429.21183 C7889.74121,4429.44935 7889.81621,4429.86813 7889.6287,4430.19316 L7889.11615,4431.08698 C7889.54744,4431.58702 7889.88497,4432.16832 7890.10999,4432.79962 L7891.14132,4432.79962 C7891.51635,4432.79962 7891.84138,4433.06839 7891.90388,4433.44343 C7892.02889,4434.19349 7892.03514,4434.98105 7891.90388,4435.76237 C7891.84138,4436.1374 7891.51635,4436.41242 7891.14132,4436.41242 L7890.10999,4436.41242 C7889.88497,4437.04372 7889.54744,4437.62502 7889.11615,4438.12506 L7889.6287,4439.01889 C7889.81621,4439.34391 7889.74746,4439.7627 7889.45368,4440.00022 C7888.85988,4440.49401 7888.17858,4440.88779 7887.44727,4441.16281 C7887.09099,4441.29407 7886.69095,4441.15656 7886.50344,4440.82529 L7885.9909,4439.93146 C7885.34084,4440.05022 7884.66579,4440.05022 7884.00948,4439.93146 L7883.49694,4440.82529 Z M7883.35318,4436.25616 C7885.75963,4438.10631 7888.5036,4435.36233 7886.65345,4432.95589 C7884.247,4431.09948 7881.50302,4433.84971 7883.35318,4436.25616 L7883.35318,4436.25616 Z M7876.14633,4445.8757 L7878.25276,4446.92579 C7878.88406,4447.28832 7879.15908,4448.05713 7878.90906,4448.74469 C7878.35276,4450.25732 7877.25892,4451.64493 7876.24634,4452.85753 C7875.7838,4453.41383 7874.98374,4453.55134 7874.35243,4453.18881 L7872.53353,4452.13872 C7871.53345,4452.99504 7870.37085,4453.67635 7869.102,4454.12013 L7869.102,4456.22031 C7869.102,4456.94537 7868.58321,4457.57042 7867.87065,4457.69543 C7866.33302,4457.95795 7864.72039,4457.97045 7863.12651,4457.69543 C7862.4077,4457.57042 7861.8764,4456.95162 7861.8764,4456.22031 L7861.8764,4454.12013 C7860.60755,4453.6701 7859.44495,4452.99504 7858.44487,4452.13872 L7856.62597,4453.18256 C7856.00092,4453.54509 7855.1946,4453.40758 7854.73206,4452.85128 C7853.71948,4451.63868 7852.65064,4450.25106 7852.09434,4448.74469 C7851.84432,4448.06338 7852.11935,4447.29457 7852.75065,4446.92579 L7854.83207,4445.8757 C7854.5883,4444.56935 7854.5883,4443.22548 7854.83207,4441.91288 L7852.75065,4440.85654 C7852.11935,4440.49401 7851.83807,4439.72519 7852.09434,4439.04389 C7852.65064,4437.53126 7853.71948,4436.14365 7854.73206,4434.93105 C7855.1946,4434.37475 7855.99467,4434.23724 7856.62597,4434.59977 L7858.44487,4435.64986 C7859.44495,4434.79354 7860.60755,4434.11223 7861.8764,4433.66844 L7861.8764,4431.56202 C7861.8764,4430.84321 7862.38895,4430.21816 7863.1015,4430.09315 C7864.63913,4429.83063 7866.25801,4429.81813 7867.8519,4430.0869 C7868.57071,4430.21191 7869.102,4430.83071 7869.102,4431.56202 L7869.102,4433.66219 C7870.37085,4434.11223 7871.53345,4434.78729 7872.53353,4435.64361 L7874.35243,4434.59352 C7874.97749,4434.23099 7875.7838,4434.3685 7876.24634,4434.9248 C7877.25892,4436.1374 7878.32151,4437.52501 7878.87781,4439.03764 C7879.12783,4439.71894 7878.88406,4440.48776 7878.25276,4440.85654 L7876.14633,4441.90663 C7876.3901,4443.21923 7876.3901,4444.56309 7876.14633,4445.8757 Z M7868.79572,4447.19456 C7872.49603,4442.38166 7867.00183,4436.88746 7862.18893,4440.58777 C7858.48862,4445.40066 7863.98283,4450.89487 7868.79572,4447.19456 Z M7884.00948,4458.61426 L7883.49694,4459.50808 C7883.30942,4459.83936 7882.90939,4459.97687 7882.55311,4459.84561 C7881.81555,4459.57058 7881.14049,4459.1768 7880.5467,4458.68301 C7880.25917,4458.44549 7880.18417,4458.02671 7880.37168,4457.70168 L7880.88422,4456.80786 C7880.45294,4456.30782 7880.11541,4455.72652 7879.89039,4455.09521 L7878.85906,4455.09521 C7878.48403,4455.09521 7878.159,4454.82644 7878.09649,4454.45141 C7877.97148,4453.70135 7877.96523,4452.91378 7878.09649,4452.13247 C7878.159,4451.75744 7878.48403,4451.48242 7878.85906,4451.48242 L7879.89039,4451.48242 C7880.11541,4450.85111 7880.45294,4450.26982 7880.88422,4449.76977 L7880.37168,4448.87595 C7880.18417,4448.55092 7880.25292,4448.13214 7880.5467,4447.89462 C7881.14049,4447.40083 7881.8218,4447.00705 7882.55311,4446.73202 C7882.90939,4446.60076 7883.30942,4446.73827 7883.49694,4447.06955 L7884.00948,4447.96338 C7884.66579,4447.84462 7885.33459,4447.84462 7885.9909,4447.96338 L7886.50344,4447.06955 C7886.69095,4446.73827 7887.09099,4446.60076 7887.44727,4446.73202 C7888.18483,4447.00705 7888.85988,4447.40083 7889.45368,4447.89462 C7889.74121,4448.13214 7889.81621,4448.55092 7889.6287,4448.87595 L7889.11615,4449.76977 C7889.54744,4450.26982 7889.88497,4450.85111 7890.10999,4451.48242 L7891.14132,4451.48242 C7891.51635,4451.48242 7891.84138,4451.75119 7891.90388,4452.12622 C7892.02889,4452.87628 7892.03514,4453.66385 7891.90388,4454.44516 C7891.84138,4454.82019 7891.51635,4455.09521 7891.14132,4455.09521 L7890.10999,4455.09521 C7889.88497,4455.72652 7889.54744,4456.30782 7889.11615,4456.80786 L7889.6287,4457.70168 C7889.81621,4458.02671 7889.74746,4458.44549 7889.45368,4458.68301 C7888.85988,4459.1768 7888.17858,4459.57058 7887.44727,4459.84561 C7887.09099,4459.97687 7886.69095,4459.83936 7886.50344,4459.50808 L7885.9909,4458.61426 C7885.34084,4458.73302 7884.66579,4458.73302 7884.00948,4458.61426 Z M7883.35318,4454.9327 C7885.75963,4456.78285 7888.5036,4454.03888 7886.65345,4451.63243 C7884.247,4449.78228 7881.50302,4452.52625 7883.35318,4454.9327 L7883.35318,4454.9327 Z" id="cogs"></path>
        </g>
    </g>
</svg>