<?xml version="1.0" encoding="UTF-8"?>
<svg width="40px" height="32px" viewBox="0 0 40 32" version="1.1" xmlns="http://www.w3.org/2000/svg" xmlns:xlink="http://www.w3.org/1999/xlink">
    <!-- Generator: Sketch 64 (93537) - https://sketch.com -->
    <title>user-shield</title>
    <desc>Created with Sketch.</desc>
    <g id="Temp" stroke="none" stroke-width="1" fill="none" fill-rule="evenodd">
        <g id="Desktop-HD" transform="translate(-7852.000000, -4326.000000)" fill="#000000" fill-rule="nonzero">
            <path d="M7890.89375,4342.94375 L7883.69375,4340.13125 C7883.4375,4340.03125 7882.90625,4339.9 7882.30625,4340.13125 L7875.10625,4342.94375 C7874.4375,4343.20625 7874,4343.81875 7874,4344.5 C7874,4351.475 7878.29375,4356.3 7882.30625,4357.86875 C7882.90625,4358.1 7883.43125,4357.96875 7883.69375,4357.86875 C7886.9,4356.61875 7892,4352.28125 7892,4344.5 C7892,4343.81875 7891.5625,4343.20625 7890.89375,4342.94375 Z M7883,4354.9 L7883,4343.08125 L7888.96875,4345.4125 C7888.61875,4350.85625 7885.1625,4353.875 7883,4354.9 L7883,4354.9 Z M7866,4342 C7870.41875,4342 7874,4338.41875 7874,4334 C7874,4329.58125 7870.41875,4326 7866,4326 C7861.58125,4326 7858,4329.58125 7858,4334 C7858,4338.41875 7861.58125,4342 7866,4342 Z M7872,4344.5 C7872,4344.34375 7872.05,4344.2 7872.06875,4344.05 C7871.9125,4344.04375 7871.7625,4344 7871.6,4344 L7870.55625,4344 C7869.16875,4344.6375 7867.625,4345 7866,4345 C7864.375,4345 7862.8375,4344.6375 7861.44375,4344 L7860.4,4344 C7855.7625,4344 7852,4347.7625 7852,4352.4 L7852,4355 C7852,4356.65625 7853.34375,4358 7855,4358 L7877,4358 C7877.425,4358 7877.83125,4357.90625 7878.2,4357.75 C7874.825,4355.06875 7872,4350.45625 7872,4344.5 Z" id="user-shield"></path>
        </g>
    </g>
</svg>