<?xml version="1.0" encoding="UTF-8"?>
<svg width="35px" height="40px" viewBox="0 0 35 40" version="1.1" xmlns="http://www.w3.org/2000/svg" xmlns:xlink="http://www.w3.org/1999/xlink">
    <!-- Generator: Sketch 64 (93537) - https://sketch.com -->
    <title>user-md</title>
    <desc>Created with Sketch.</desc>
    <g id="Temp" stroke="none" stroke-width="1" fill="none" fill-rule="evenodd">
        <g id="Desktop-HD" transform="translate(-7855.000000, -4534.000000)" fill="#000000" fill-rule="nonzero">
            <path d="M7872.5,4554 C7878.02344,4554 7882.5,4549.52344 7882.5,4544 C7882.5,4538.47656 7878.02344,4534 7872.5,4534 C7866.97656,4534 7862.5,4538.47656 7862.5,4544 C7862.5,4549.52344 7866.97656,4554 7872.5,4554 Z M7863.125,4567.125 C7863.125,4568.16406 7863.96094,4569 7865,4569 C7866.03906,4569 7866.875,4568.16406 7866.875,4567.125 C7866.875,4566.08594 7866.03906,4565.25 7865,4565.25 C7863.96094,4565.25 7863.125,4566.08594 7863.125,4567.125 Z M7880,4556.54688 L7880,4560.375 C7882.85156,4560.95312 7885,4563.48438 7885,4566.5 L7885,4569.75781 C7885,4570.35156 7884.57812,4570.86719 7883.99219,4570.98438 L7881.47656,4571.48438 C7881.14062,4571.55469 7880.8125,4571.33594 7880.74219,4570.99219 L7880.5,4569.76562 C7880.42969,4569.42969 7880.64844,4569.09375 7880.99219,4569.03125 L7882.5,4568.72656 L7882.5,4566.5 C7882.5,4561.59375 7875,4561.41406 7875,4566.64844 L7875,4568.73438 L7876.50781,4569.03906 C7876.84375,4569.10938 7877.0625,4569.4375 7877,4569.77344 L7876.75781,4571 C7876.6875,4571.33594 7876.35938,4571.55469 7876.02344,4571.49219 L7873.58594,4571.16406 C7872.96875,4571.07812 7872.50781,4570.55469 7872.50781,4569.92188 L7872.50781,4566.5 C7872.50781,4563.48438 7874.65625,4560.96094 7877.50781,4560.375 L7877.50781,4556.84375 C7877.33594,4556.89844 7877.16406,4556.92969 7876.99219,4556.99219 C7875.58594,4557.48438 7874.07812,4557.75781 7872.50781,4557.75781 C7870.9375,4557.75781 7869.42969,4557.48438 7868.02344,4556.99219 C7867.44531,4556.78906 7866.85938,4556.66406 7866.25781,4556.58594 L7866.25781,4562.96094 C7868.0625,4563.5 7869.38281,4565.15625 7869.38281,4567.13281 C7869.38281,4569.54688 7867.42188,4571.50781 7865.00781,4571.50781 C7862.59375,4571.50781 7860.63281,4569.54688 7860.63281,4567.13281 C7860.63281,4565.15625 7861.95312,4563.5 7863.75781,4562.96094 L7863.75781,4556.67969 C7858.78906,4557.51562 7855,4561.79688 7855,4567 L7855,4570.5 C7855,4572.42969 7856.57031,4574 7858.5,4574 L7886.5,4574 C7888.42969,4574 7890,4572.42969 7890,4570.5 L7890,4567 C7890,4561.375 7885.5625,4556.82031 7880,4556.54688 L7880,4556.54688 Z" id="user-md"></path>
        </g>
    </g>
</svg>