<?xml version="1.0" encoding="UTF-8"?>
<svg width="40px" height="40px" viewBox="0 0 40 40" version="1.1" xmlns="http://www.w3.org/2000/svg" xmlns:xlink="http://www.w3.org/1999/xlink">
    <!-- Generator: Sketch 64 (93537) - https://sketch.com -->
    <title>crosshairs</title>
    <desc>Created with Sketch.</desc>
    <defs>
        <path d="M7891.0625,4243.5 L7888.69031,4243.5 C7887.60344,4236.18164 7881.81836,4230.39656 7874.5,4229.30969 L7874.5,4226.9375 C7874.5,4226.41977 7874.08023,4226 7873.5625,4226 L7870.4375,4226 C7869.91977,4226 7869.5,4226.41977 7869.5,4226.9375 L7869.5,4229.30969 C7862.18164,4230.39656 7856.39656,4236.18164 7855.30969,4243.5 L7852.9375,4243.5 C7852.41977,4243.5 7852,4243.91977 7852,4244.4375 L7852,4247.5625 C7852,4248.08023 7852.41977,4248.5 7852.9375,4248.5 L7855.30969,4248.5 C7856.39656,4255.81836 7862.18164,4261.60344 7869.5,4262.69031 L7869.5,4265.0625 C7869.5,4265.58023 7869.91977,4266 7870.4375,4266 L7873.5625,4266 C7874.08023,4266 7874.5,4265.58023 7874.5,4265.0625 L7874.5,4262.69031 C7881.81836,4261.60344 7887.60344,4255.81836 7888.69031,4248.5 L7891.0625,4248.5 C7891.58023,4248.5 7892,4248.08023 7892,4247.5625 L7892,4244.4375 C7892,4243.91977 7891.58023,4243.5 7891.0625,4243.5 Z M7874.5,4257.61203 L7874.5,4254.4375 C7874.5,4253.91977 7874.08023,4253.5 7873.5625,4253.5 L7870.4375,4253.5 C7869.91977,4253.5 7869.5,4253.91977 7869.5,4254.4375 L7869.5,4257.61203 C7864.95516,4256.64312 7861.35805,4253.05023 7860.38797,4248.5 L7863.5625,4248.5 C7864.08023,4248.5 7864.5,4248.08023 7864.5,4247.5625 L7864.5,4244.4375 C7864.5,4243.91977 7864.08023,4243.5 7863.5625,4243.5 L7860.38797,4243.5 C7861.35688,4238.95516 7864.94977,4235.35805 7869.5,4234.38797 L7869.5,4237.5625 C7869.5,4238.08023 7869.91977,4238.5 7870.4375,4238.5 L7873.5625,4238.5 C7874.08023,4238.5 7874.5,4238.08023 7874.5,4237.5625 L7874.5,4234.38797 C7879.04484,4235.35688 7882.64195,4238.94977 7883.61203,4243.5 L7880.4375,4243.5 C7879.91977,4243.5 7879.5,4243.91977 7879.5,4244.4375 L7879.5,4247.5625 C7879.5,4248.08023 7879.91977,4248.5 7880.4375,4248.5 L7883.61203,4248.5 C7882.64312,4253.04484 7879.05023,4256.64195 7874.5,4257.61203 Z M7874.5,4246 C7874.5,4247.3807 7873.3807,4248.5 7872,4248.5 C7870.6193,4248.5 7869.5,4247.3807 7869.5,4246 C7869.5,4244.6193 7870.6193,4243.5 7872,4243.5 C7873.3807,4243.5 7874.5,4244.6193 7874.5,4246 Z" id="path-1"></path>
    </defs>
    <g id="Temp" stroke="none" stroke-width="1" fill="none" fill-rule="evenodd">
        <g id="Desktop-HD" transform="translate(-7852.000000, -4226.000000)">
            <mask id="mask-2" fill="white">
                <use xlink:href="#path-1"></use>
            </mask>
            <use id="crosshairs" fill="#000000" fill-rule="nonzero" xlink:href="#path-1"></use>
        </g>
    </g>
</svg>