<?xml version="1.0" encoding="UTF-8"?>
<svg width="22px" height="40px" viewBox="0 0 22 40" version="1.1" xmlns="http://www.w3.org/2000/svg" xmlns:xlink="http://www.w3.org/1999/xlink">
    <!-- Generator: Sketch 64 (93537) - https://sketch.com -->
    <title>child</title>
    <desc>Created with Sketch.</desc>
    <g id="Temp" stroke="none" stroke-width="1" fill="none" fill-rule="evenodd">
        <g id="Desktop-HD" transform="translate(-7860.000000, -4591.000000)" fill="#000000" fill-rule="nonzero">
            <path d="M7866.69641,4606.44643 C7866.69641,4604.2274 7868.49524,4602.42857 7870.71427,4602.42857 C7872.9333,4602.42857 7874.73213,4604.2274 7874.73213,4606.44643 C7874.73213,4608.6654 7872.9333,4610.46429 7870.71427,4610.46429 C7868.49524,4610.46429 7866.69641,4608.6654 7866.69641,4606.44643 Z M7878.38018,4606.52305 C7879.0775,4605.82567 7880.20819,4605.82567 7880.90551,4606.52305 C7881.60289,4607.22042 7881.60289,4608.351 7880.90551,4609.04838 L7880.90551,4609.04838 L7875.62499,4614.32891 L7875.62499,4629.21429 C7875.62499,4630.2005 7874.82549,4631 7873.83927,4631 L7873.83927,4631 L7872.94641,4631 C7871.9602,4631 7871.1607,4630.2005 7871.1607,4629.21429 L7871.1607,4629.21429 L7871.1607,4622.96429 L7870.26784,4622.96429 L7870.26784,4629.21429 C7870.26784,4630.2005 7869.46835,4631 7868.48213,4631 L7868.48213,4631 L7867.58927,4631 C7866.60306,4631 7865.80356,4630.2005 7865.80356,4629.21429 L7865.80356,4629.21429 L7865.80356,4614.32891 L7860.52303,4609.04844 C7859.82566,4608.35106 7859.82566,4607.22042 7860.52303,4606.52305 C7861.22035,4605.82567 7862.35105,4605.82567 7863.04837,4606.52305 L7863.04837,4606.52305 L7867.88246,4611.35714 L7873.54602,4611.35714 Z M7871.15417,4591.98733 C7872.27692,4590.82887 7874.09608,4590.64137 7875.31927,4591.68376 C7876.72103,4592.88017 7876.79469,4595.02745 7875.53802,4596.3243 L7875.53802,4596.3243 L7871.2189,4600.78403 C7870.93989,4601.07198 7870.48678,4601.07198 7870.20776,4600.78403 L7870.20776,4600.78403 L7865.88865,4596.3243 C7864.63421,4595.02745 7864.70787,4592.88017 7866.10963,4591.68376 C7867.33282,4590.64137 7869.15421,4590.82887 7870.27473,4591.98733 L7870.27473,4591.98733 L7870.71445,4592.44045 Z" id="child"></path>
        </g>
    </g>
</svg>