<?xml version="1.0" encoding="UTF-8"?>
<svg width="40px" height="36px" viewBox="0 0 40 36" version="1.1" xmlns="http://www.w3.org/2000/svg" xmlns:xlink="http://www.w3.org/1999/xlink">
    <!-- Generator: Sketch 64 (93537) - https://sketch.com -->
    <title>hand-holding-heart</title>
    <desc>Created with Sketch.</desc>
    <g id="Temp" stroke="none" stroke-width="1" fill="none" fill-rule="evenodd">
        <g id="Desktop-HD" transform="translate(-7852.000000, -4375.000000)" fill="#000000" fill-rule="nonzero">
            <path d="M7871.117,4392.39637 C7871.60308,4392.91023 7872.39471,4392.91023 7872.88774,4392.39637 L7880.44982,4384.46625 C7882.64414,4382.16082 7882.51915,4378.34159 7880.06095,4376.21671 C7877.92218,4374.36264 7874.73486,4374.69596 7872.77663,4376.7514 L7871.9989,4377.56385 L7871.2281,4376.75834 C7869.26988,4374.69596 7866.08256,4374.36264 7863.94378,4376.21671 C7861.49253,4378.34159 7861.36059,4382.16082 7863.55492,4384.46625 L7871.117,4392.39637 Z M7891.25478,4397.78496 C7890.43538,4397.04195 7889.15767,4397.09055 7888.29661,4397.78496 L7881.88029,4402.91662 C7881.09562,4403.54853 7880.1165,4403.88879 7879.10267,4403.88879 L7870.88785,4403.88879 C7870.27677,4403.88879 7869.7768,4403.38882 7869.7768,4402.77774 C7869.7768,4402.16666 7870.27677,4401.66669 7870.88785,4401.66669 L7876.32505,4401.66669 C7877.42915,4401.66669 7878.45687,4400.90979 7878.63742,4399.81957 C7878.86657,4398.43076 7877.79719,4397.22249 7876.44309,4397.22249 L7865.3326,4397.22249 C7863.4577,4397.22249 7861.6453,4397.86829 7860.18705,4399.04878 L7856.95806,4401.66669 L7853.11105,4401.66669 C7852.49997,4401.66669 7852,4402.16666 7852,4402.77774 L7852,4409.44404 C7852,4410.05512 7852.49997,4410.55509 7853.11105,4410.55509 L7877.88746,4410.55509 C7878.89435,4410.55509 7879.87346,4410.21483 7880.66508,4409.58292 L7891.1645,4401.18061 C7892.22,4400.34037 7892.30333,4398.72935 7891.25478,4397.78496 Z" id="hand-holding-heart"></path>
        </g>
    </g>
</svg>