<?xml version="1.0" encoding="UTF-8"?>
<svg width="40px" height="26px" viewBox="0 0 40 26" version="1.1" xmlns="http://www.w3.org/2000/svg" xmlns:xlink="http://www.w3.org/1999/xlink">
    <!-- Generator: Sketch 64 (93537) - https://sketch.com -->
    <title>eye</title>
    <desc>Created with Sketch.</desc>
    <g id="Temp" stroke="none" stroke-width="1" fill="none" fill-rule="evenodd">
        <g id="Desktop-HD" transform="translate(-7852.000000, -4283.000000)" fill="#000000" fill-rule="nonzero">
            <path d="M7891.53844,4294.08547 C7887.62282,4287.4409 7880.32012,4283 7872,4283 C7863.6764,4283 7856.3753,4287.44402 7852.46156,4294.08547 C7851.84615,4295.12976 7851.84615,4296.42582 7852.46156,4297.47011 C7856.37718,4304.11462 7863.67987,4308.55551 7872,4308.55551 C7880.3236,4308.55551 7887.62469,4304.11149 7891.53844,4297.47004 C7892.15385,4296.42578 7892.15385,4295.12973 7891.53844,4294.08547 Z M7872,4305.22218 C7866.78042,4305.22218 7862.55557,4300.99809 7862.55557,4295.77776 C7862.55557,4290.55818 7866.77959,4286.33333 7872,4286.33333 C7877.21957,4286.33333 7881.44443,4290.55735 7881.44443,4295.77776 C7881.44443,4300.99733 7877.22041,4305.22218 7872,4305.22218 Z M7879.22221,4295.77776 C7879.22221,4299.7665 7875.98874,4302.99997 7872,4302.99997 C7868.01126,4302.99997 7864.77779,4299.7665 7864.77779,4295.77776 C7864.77779,4294.54804 7865.0855,4293.39033 7865.62751,4292.37686 L7865.62744,4292.37908 C7865.62744,4294.02151 7866.9589,4295.3529 7868.60132,4295.3529 C7870.24375,4295.3529 7871.57521,4294.02144 7871.57521,4292.37908 C7871.57521,4290.73665 7870.24375,4289.4052 7868.60132,4289.4052 L7868.5991,4289.40527 C7869.61257,4288.86325 7870.77028,4288.55555 7872,4288.55555 C7875.98874,4288.55555 7879.22221,4291.78901 7879.22221,4295.77776 Z" id="eye"></path>
        </g>
    </g>
</svg>