<?xml version="1.0" encoding="UTF-8"?>
<svg width="25px" height="40px" viewBox="0 0 25 40" version="1.1" xmlns="http://www.w3.org/2000/svg" xmlns:xlink="http://www.w3.org/1999/xlink">
    <!-- Generator: Sketch 64 (93537) - https://sketch.com -->
    <title>mobile-alt</title>
    <desc>Created with Sketch.</desc>
    <g id="Temp" stroke="none" stroke-width="1" fill="none" fill-rule="evenodd">
        <g id="Desktop-HD" transform="translate(-7860.000000, -4477.000000)" fill="#000000" fill-rule="nonzero">
            <path d="M7881.25,4477 L7863.75,4477 C7861.67969,4477 7860,4478.67969 7860,4480.75 L7860,4513.25 C7860,4515.32031 7861.67969,4517 7863.75,4517 L7881.25,4517 C7883.32031,4517 7885,4515.32031 7885,4513.25 L7885,4480.75 C7885,4478.67969 7883.32031,4477 7881.25,4477 Z M7872.5,4514.5 C7871.11719,4514.5 7870,4513.38281 7870,4512 C7870,4510.61719 7871.11719,4509.5 7872.5,4509.5 C7873.88281,4509.5 7875,4510.61719 7875,4512 C7875,4513.38281 7873.88281,4514.5 7872.5,4514.5 Z M7881.25,4506.0625 C7881.25,4506.57812 7880.82812,4507 7880.3125,4507 L7864.6875,4507 C7864.17188,4507 7863.75,4506.57812 7863.75,4506.0625 L7863.75,4481.6875 C7863.75,4481.17188 7864.17188,4480.75 7864.6875,4480.75 L7880.3125,4480.75 C7880.82812,4480.75 7881.25,4481.17188 7881.25,4481.6875 L7881.25,4506.0625 Z" id="mobile-alt"></path>
        </g>
    </g>
</svg>