<?xml version="1.0" encoding="UTF-8"?>
<svg width="428px" height="100px" viewBox="0 0 428 100" version="1.1" xmlns="http://www.w3.org/2000/svg" xmlns:xlink="http://www.w3.org/1999/xlink">
    <!-- Generator: Sketch 64 (93537) - https://sketch.com -->
    <title>벤처스퀘어</title>
    <desc>Created with Sketch.</desc>
    <defs>
        <linearGradient x1="47.6760563%" y1="46.9596823%" x2="-155.774648%" y2="-194.616409%" id="linearGradient-1">
            <stop stop-color="#2A9CFF" offset="0%"></stop>
            <stop stop-color="#0071E9" offset="100%"></stop>
        </linearGradient>
        <linearGradient x1="53.6226806%" y1="12.0502629%" x2="43.6794306%" y2="80.7535697%" id="linearGradient-2">
            <stop stop-color="#2A9CFF" offset="0%"></stop>
            <stop stop-color="#0071E9" offset="100%"></stop>
        </linearGradient>
    </defs>
    <g id="Landing2020" stroke="none" stroke-width="1" fill="none" fill-rule="evenodd">
        <g id="5.2020_investors" transform="translate(-491.000000, -863.000000)" fill-rule="nonzero">
            <g id="body" transform="translate(-56.000000, 160.000000)">
                <g id="investors" transform="translate(183.000000, 286.000000)">
                    <g id="벤처스퀘어" transform="translate(305.000000, 363.000000)">
                        <g id="벤처스퀘어" transform="translate(59.000000, 54.000000)">
                            <path d="M106.618983,77.5319346 C106.567245,77.6996859 106.474319,77.8522783 106.348434,77.9761982 C106.230347,78.0079339 106.105789,78.0079339 105.987702,77.9761982 L102.885403,77.9761982 C102.779148,78.0049346 102.666998,78.0049346 102.560744,77.9761982 C102.434259,77.852741 102.341236,77.6999896 102.290194,77.5319346 L94.1015685,52.8486493 C93.9753121,52.4576973 93.9572755,52.2444508 94.1015685,52.155598 C94.3115683,52.0455519 94.5509448,52.0021068 94.7869601,52.0312042 L97.7810392,52.0312042 C97.9345046,51.9895986 98.0965259,51.9895986 98.2499913,52.0312042 C98.3760982,52.1591091 98.4635388,52.3191032 98.502504,52.4932384 L104.490662,71.792049 L110.58704,52.4932384 C110.625945,52.3151342 110.720569,52.1535384 110.857589,52.0312042 C111.011574,51.9935741 111.172557,51.9935741 111.326542,52.0312042 L114.356694,52.0312042 C114.705402,52.0312042 114.909817,52.0785924 114.969939,52.1733686 C115.030061,52.2681448 115,52.4932384 114.879756,52.8486493 L106.618983,77.5319346 Z" id="Path" fill="#221E1F"></path>
                            <path d="M124.998342,78 C124.540324,78 124.261045,77.9348816 124.160504,77.8046448 C124.028473,77.474198 123.976626,77.113969 124.009693,76.7568306 L124.009693,53.1721311 C123.981639,52.8399071 124.027555,52.5053424 124.143747,52.1953552 C124.233117,52.0651184 124.495639,52 124.931315,52 L135.136188,52 C135.454567,52 135.638891,52 135.672405,52.1953552 C135.69774,52.3957347 135.69774,52.5988008 135.672405,52.7991803 L135.672405,55.4275956 C135.689143,55.6388382 135.660498,55.8513546 135.588621,56.0491803 C135.588621,56.1557377 135.354026,56.2090164 135.069161,56.2090164 L127.930777,56.2090164 L127.930777,62.6202186 L134.784296,62.6202186 C135.085918,62.6202186 135.270242,62.6202186 135.320513,62.8155738 C135.353034,63.0153732 135.353034,63.2195995 135.320513,63.4193989 L135.320513,66.0478142 C135.33874,66.2607572 135.304079,66.4750488 135.219972,66.6693989 C135.152945,66.7759563 134.985377,66.829235 134.717269,66.829235 L127.930777,66.829235 L127.930777,73.773224 L135.43781,73.773224 C135.739432,73.773224 135.918171,73.8265027 135.974027,73.9330601 C136.008658,74.1326619 136.008658,74.3372835 135.974027,74.5368852 L135.974027,77.1653005 C136.008505,77.3708843 136.008505,77.5813014 135.974027,77.7868852 C135.974027,77.9112022 135.756189,77.9644809 135.43781,77.9644809 L124.998342,78 Z" id="Path" fill="#221E1F"></path>
                            <path d="M160.378919,77.8881237 C160.225257,77.9292521 160.063733,77.9292521 159.910071,77.8881237 C159.780836,77.7581469 159.680219,77.6017795 159.614871,77.4293561 L151.036687,59.7844516 L151.036687,77.1823275 C151.058983,77.409642 151.029268,77.639117 150.949863,77.8528338 C150.949863,77.9410584 150.706757,77.9939931 150.394191,77.9939931 L147.685291,77.9939931 C147.489263,78.018358 147.291302,77.9680692 147.12962,77.8528338 C147.023151,77.647019 146.98076,77.4131826 147.008066,77.1823275 L147.008066,52.9205838 C146.985501,52.6686806 147.021179,52.4149046 147.112255,52.1794978 C147.181714,52.0618651 147.395879,52.0030487 147.75475,52.0030487 L150.689392,52.0030487 C150.852662,51.98863 151.016346,52.025591 151.15824,52.1089182 C151.296465,52.2654625 151.407977,52.4443748 151.48817,52.6382653 L159.944801,70.1596555 L159.944801,52.8323593 C159.923815,52.6092593 159.959696,52.3844261 160.048989,52.1794978 C160.118448,52.0736284 160.303672,52.0206936 160.604661,52.0206936 L163.278832,52.0206936 C163.637703,52.0206936 163.84608,52.07951 163.903962,52.1971427 C163.977637,52.4000441 164.007255,52.616736 163.990786,52.8323593 L163.990786,76.9529437 C164.02037,77.2238893 163.978415,77.4979528 163.869233,77.7469644 C163.869233,77.8528338 163.574032,77.9057686 163.209373,77.9057686 L160.378919,77.8881237 Z" id="Path" fill="#221E1F"></path>
                            <path d="M182.084722,56.2499713 L182.084722,77.3220049 C182.103502,77.5112066 182.053466,77.7008453 181.943967,77.8554741 C181.821158,77.9587693 181.663434,78.0097799 181.504106,77.9977325 L178.548246,77.9977325 C178.388696,78.0117324 178.230253,77.9604895 178.108386,77.8554741 C177.998887,77.7008453 177.948851,77.5112066 177.96763,77.3220049 L177.96763,56.2499713 L172.61893,56.2499713 C172.448218,56.2676886 172.277489,56.2165619 172.143881,56.1077129 C172.036731,55.9655139 171.98648,55.7877554 172.003126,55.6098083 L172.003126,52.6757277 C172.003126,52.2252426 172.202529,52 172.601336,52 L187.398233,52 C187.656284,52 187.820499,52.0533469 187.890876,52.1600408 C187.973832,52.3183067 188.010451,52.4971861 187.996443,52.6757277 L187.996443,55.6098083 C188.012198,55.7827663 187.97537,55.956466 187.890876,56.1077129 C187.820499,56.2025518 187.656284,56.2499713 187.398233,56.2499713 L182.084722,56.2499713 Z" id="Path" fill="#221E1F"></path>
                            <path d="M211.074388,76.9740756 C210.329888,77.6511666 209.462916,78.1733281 208.522185,78.51122 C206.57034,79.1629267 204.465721,79.1629267 202.513876,78.51122 C201.581487,78.1782589 200.725212,77.6552767 199.997121,76.9740756 C198.953436,76.0453207 198.165355,74.8547437 197.710773,73.5200217 C197.216189,72.0234685 196.976409,70.4515537 197.001828,68.8724204 L197.001828,52.7595302 C196.998494,52.5788127 197.034829,52.3996236 197.10817,52.2350927 C197.179065,52.0904203 197.344485,52.0180841 197.604432,52.0180841 L200.511106,52.0180841 C200.912842,52.0180841 201.11371,52.2471487 201.11371,52.705278 L201.11371,69.2341014 C201.042385,70.6583273 201.441838,72.065739 202.248022,73.2306769 C203.084248,74.1664797 204.268023,74.69974 205.509169,74.69974 C206.750314,74.69974 207.93409,74.1664797 208.770316,73.2306769 C209.556457,72.0583243 209.936913,70.6519228 209.851457,69.2341014 L209.851457,52.687194 C209.851457,52.2290647 210.052325,52 210.454061,52 L213.396183,52 C213.662037,52 213.82155,52 213.892444,52.2170086 C213.965785,52.3815396 214.00212,52.5607287 213.998786,52.7414461 L213.998786,68.8543363 C214.019554,70.434592 213.773747,72.0067165 213.272117,73.5019376 C212.836115,74.8288631 212.080414,76.0227772 211.074388,76.9740756 Z" id="Path" fill="#221E1F"></path>
                            <path d="M238.089368,77.9074768 C237.936953,77.9498619 237.775661,77.9498619 237.623246,77.9074768 C237.501412,77.7746 237.409725,77.6175153 237.354329,77.4467528 L232.997881,67.8601499 L230.219076,67.8601499 L230.219076,77.2872714 C230.245565,77.4906203 230.201312,77.6968286 230.093582,77.8720364 C229.959483,77.9697793 229.79308,78.0140611 229.62746,77.9960775 L226.633522,77.9960775 C226.46845,78.0077758 226.304215,77.9640708 226.167399,77.8720364 C226.059833,77.8720364 226.00605,77.6062342 226.00605,77.2872714 L226.00605,52.6739787 C225.980013,52.48209 226.038798,52.2884085 226.167399,52.1423741 C226.284013,52.0492117 226.429805,51.9990887 226.579738,52.0006128 L232.746892,52.0006128 C233.8063,51.9887061 234.860385,52.1503767 235.866324,52.479057 C236.764748,52.7732889 237.581231,53.2708546 238.250718,53.9321095 C238.934334,54.6266259 239.454635,55.4615676 239.774579,56.3774907 C240.163181,57.5184125 240.345245,58.7181163 240.312412,59.9215213 C240.35681,61.3553305 240.029737,62.7765656 239.36224,64.050317 C238.770825,65.1396695 237.906675,66.0609238 236.852352,66.7260601 L241.818345,77.12779 C241.950597,77.3335917 242.013369,77.5755654 241.997622,77.818876 C241.997622,77.9429171 241.782489,77.9960775 241.477717,77.9960775 L238.089368,77.9074768 Z M230.219076,56.1294085 L230.219076,63.6604736 L232.28077,63.6604736 C233.315442,63.7268503 234.336241,63.3968705 235.131286,62.7390256 C235.869299,61.941539 236.233694,60.8738804 236.135241,59.7974802 C236.210823,58.8156737 235.924249,57.8400152 235.328491,57.0508565 C234.806853,56.4452024 234.035318,56.1062688 233.230942,56.1294085 L230.219076,56.1294085 Z" id="Shape" fill="#221E1F"></path>
                            <path d="M251.00396,78 C250.543364,78 250.262513,77.9348816 250.161407,77.8046448 C250.028633,77.474198 249.976494,77.113969 250.009748,76.7568306 L250.009748,53.1721311 C249.981536,52.8399071 250.02771,52.5053424 250.144556,52.1953552 C250.234428,52.0651184 250.498428,52 250.936556,52 L261.198848,52 C261.519018,52 261.704379,52 261.738081,52.1953552 C261.763967,52.3957058 261.763967,52.5988297 261.738081,52.7991803 L261.738081,55.4275956 C261.756122,55.6388733 261.727276,55.8516774 261.653826,56.0491803 C261.653826,56.1557377 261.417911,56.2090164 261.131443,56.2090164 L253.88549,56.2090164 L253.88549,62.6202186 L260.777571,62.6202186 C261.08089,62.6202186 261.266252,62.6202186 261.316805,62.8155738 C261.349509,63.0153732 261.349509,63.2195995 261.316805,63.4193989 L261.316805,66.0478142 C261.335135,66.2607572 261.300279,66.4750488 261.215699,66.6693989 C261.148295,66.7759563 260.979784,66.829235 260.710167,66.829235 L253.88549,66.829235 L253.88549,73.773224 L261.434762,73.773224 C261.738081,73.773224 261.923443,73.773224 261.973996,73.9330601 C262.006701,74.1328595 262.006701,74.3370858 261.973996,74.5368852 L261.973996,77.1653005 C262.008668,77.3708843 262.008668,77.5813014 261.973996,77.7868852 C261.973996,77.9112022 261.754932,77.9644809 261.434762,77.9644809 L251.00396,78 Z" id="Path" fill="#221E1F"></path>
                            <path d="M283.538551,77.3039809 C283.236521,77.1851838 283.113472,76.9832287 283.169403,76.6981156 L283.286859,75.1478131 C283.304117,75.0035994 283.369627,74.8707832 283.471433,74.7736022 C283.558769,74.6957617 283.686127,74.6957617 283.773463,74.7736022 C284.40008,75.1818813 285.077989,75.4938519 285.786994,75.7002197 C286.549609,75.9016785 287.333563,75.9975116 288.119334,75.9853328 C289.437492,76.0759882 290.726518,75.5465824 291.644252,74.5376415 C292.561986,73.5287006 293.015602,72.1422752 292.884692,70.7463797 C292.868223,70.0386758 292.645447,69.3538219 292.247073,68.7862271 C291.744474,68.0918919 291.137941,67.4898999 290.451675,67.0042703 C289.780498,66.5053224 289.025423,65.9885549 288.186452,65.4539678 C287.322389,64.899469 286.492884,64.2863926 285.703097,63.6185522 C284.95976,63.0020455 284.3091,62.2689907 283.773463,61.4445649 C283.250935,60.618719 282.981364,59.6416256 283.001609,58.6468926 C282.980052,57.6565658 283.175349,56.6744525 283.57211,55.7779421 C283.938386,54.9774806 284.4653,54.2719267 285.115817,53.7108721 C285.770644,53.1517622 286.515346,52.7231248 287.313922,52.4456828 C288.124487,52.1527674 288.974631,52.0022935 289.830836,52 C290.493836,51.9963421 291.156027,52.049979 291.810808,52.1605697 C292.444314,52.2764654 293.067396,52.4493436 293.673325,52.6773371 C293.796317,52.7069375 293.902941,52.7878062 293.969211,52.9017526 C294.035482,53.0156991 294.055835,53.1531554 294.025693,53.2832025 L293.790781,54.6018506 C293.734849,54.9820013 293.572648,55.0829789 293.304177,54.9047832 C292.813519,54.6296834 292.287886,54.4316067 291.74369,54.3167375 C291.106347,54.2016072 290.460505,54.1479299 289.814056,54.1563613 C289.206466,54.1511636 288.601481,54.241232 288.018658,54.4236549 C287.485207,54.5901319 286.988751,54.8688975 286.558848,55.243355 C286.140379,55.6133031 285.802593,56.07539 285.568861,56.5976422 C285.309772,57.2010451 285.183529,57.8592022 285.199714,58.5221556 C285.202887,59.1164193 285.378681,59.6951625 285.703097,60.1793755 C286.05122,60.7197834 286.462842,61.2108158 286.927995,61.6405801 C287.421857,62.0946791 287.949313,62.5058551 288.505261,62.8701304 L290.032189,63.9036653 C290.658621,64.331335 291.268273,64.7708843 291.861146,65.2223134 C292.441158,65.6595757 292.970572,66.1679768 293.438413,66.7369767 C293.890503,67.2716077 294.269004,67.8715529 294.562634,68.5189336 C294.862504,69.2553235 295.011226,70.0511034 294.998899,70.8532971 C295.0168,71.8910569 294.816153,72.9199541 294.411619,73.8648042 C294.040656,74.7129879 293.509506,75.4711543 292.851133,76.0922502 C292.19214,76.7081579 291.429194,77.1858368 290.602689,77.5 C289.753233,77.8296222 288.855927,77.9984958 287.95154,77.9989441 C287.197908,78.009285 286.445052,77.9436524 285.703097,77.8029288 C284.970979,77.6935513 284.247487,77.5267798 283.538551,77.3039809 Z" id="Path" fill="#221E1F"></path>
                            <path d="M323.399726,81.535633 C323.489988,81.6128128 323.530714,81.7304352 323.506606,81.8443168 C323.480509,81.94437 323.381495,82.0103615 323.275032,81.9986587 L321.493689,81.9986587 C321.094761,82.0005591 320.715823,81.8307355 320.46051,81.535633 L316.897825,77.7628315 L316.042781,77.8828752 C315.698643,77.9009278 315.35374,77.9009278 315.009602,77.8828752 C312.07859,78.0315584 309.268938,76.7404511 307.545777,74.4530556 C305.751046,71.7844004 304.866722,68.6428191 305.016271,65.4669283 C304.878171,62.405141 305.703963,59.374595 307.385457,56.7723357 C308.252537,55.6191147 309.379083,54.6694154 310.68094,53.9941819 C313.383634,52.668606 316.582131,52.668606 319.284824,53.9941819 C320.596686,54.6617209 321.735297,55.6054635 322.615935,56.7551866 C324.297429,59.3574459 325.123221,62.3879919 324.98512,65.4497792 C324.973605,66.7982249 324.824443,68.1423161 324.539785,69.4626681 C324.300107,70.6074342 323.929713,71.7231852 323.435352,72.7895931 C322.991229,73.7503236 322.389798,74.6361957 321.65401,75.4134051 C320.936913,76.1481299 320.069615,76.7320137 319.10669,77.1283149 L323.399726,81.535633 Z M322.758442,65.4497792 C322.868885,62.958233 322.251766,60.4867591 320.9771,58.3157545 C319.767298,56.2850516 317.521441,55.0326298 315.089763,55.0326298 C312.658085,55.0326298 310.412228,56.2850516 309.202426,58.3157545 C307.92776,60.4867591 307.310641,62.958233 307.421083,65.4497792 C307.310641,67.9413255 307.92776,70.4127994 309.202426,72.583804 C310.429811,74.5485047 312.637043,75.7501479 315.018509,75.7501479 C317.399975,75.7501479 319.607207,74.5485047 320.834592,72.583804 C322.158976,70.4268797 322.825703,67.9545218 322.758442,65.4497792 L322.758442,65.4497792 Z" id="Shape" fill="#221E1F"></path>
                            <path d="M381.955446,76.5173633 C382.064356,76.8357665 381.973597,76.9949681 381.683168,76.9949681 L380.194719,76.9949681 C380.049152,77.0149792 379.90163,76.9747593 379.787852,76.8840412 C379.674074,76.7933231 379.604407,76.660373 379.59571,76.5173633 L377.308581,70.3438786 L365.636964,70.3438786 L364.493399,73.4394655 C364.118262,74.441846 363.743124,75.4737083 363.367987,76.5350524 C363.327912,76.6971351 363.231757,76.8408138 363.09571,76.9419009 C362.988213,76.9660913 362.876473,76.9660913 362.768977,76.9419009 L361.316832,76.9419009 C361.026403,76.9419009 360.935644,76.7826993 361.044554,76.4642961 L370.120462,52.4071636 C370.187938,52.1604074 370.42127,51.9917039 370.683168,52.0003151 L372.49835,52.0003151 C372.760249,51.9917039 372.99358,52.1604074 373.061056,52.4071636 L381.955446,76.5173633 Z M376.509901,68.1858123 C375.638614,65.8272699 374.80363,63.527691 374.00495,61.2870758 C373.206271,59.0464605 372.371287,56.7468817 371.5,54.3883393 L368.99505,61.3047648 L366.435644,68.2035014 L376.509901,68.1858123 Z" id="Shape" fill="#221E1F"></path>
                            <path d="M337.361002,68.6508438 C337.257627,70.4800517 337.801141,72.2882071 338.899782,73.7700353 C340.012422,75.1336197 341.718019,75.8998508 343.497803,75.835674 C345.30383,75.9070477 347.03725,75.1338668 348.1691,73.7520732 C348.702493,73.1092379 349.089718,72.362117 349.304866,71.5607 C349.558523,70.6110588 349.681737,69.6324613 349.671242,68.6508438 L349.671242,52.484976 C349.671242,52.1616587 349.817792,52 350.110893,52 L351.558079,52 C351.85118,52 351.997731,52.1616587 351.997731,52.484976 L351.997731,68.6508438 C352.027034,70.1448101 351.772335,71.6310627 351.246659,73.0335902 C350.797669,74.222796 350.054971,75.2842911 349.08504,76.1230672 C345.817906,78.6256443 341.232657,78.6256443 337.965523,76.1230672 C335.869162,74.2064397 334.788297,71.450917 335.034514,68.6508438 L335.034514,52.484976 C335.034514,52.1616587 335.181064,52 335.474165,52 L336.921351,52 C337.214452,52 337.361002,52.1616587 337.361002,52.484976 L337.361002,68.6508438 Z" id="Path" fill="#221E1F"></path>
                            <path d="M404.970556,76.5178831 C405.009815,76.6205844 405.009815,76.7354127 404.970556,76.8381141 C404.938898,76.9446014 404.839881,77.011962 404.735191,76.9982295 L403.238947,76.9982295 C402.949053,77.0052225 402.689247,76.8098751 402.600101,76.5178831 C401.737098,74.4067306 401.019797,72.6751112 400.448198,71.3230248 C399.876599,69.9709385 399.428286,68.909432 399.103259,68.1385056 L398.178613,66.0036323 C397.775974,66.1080724 397.365199,66.173574 396.951356,66.1993291 L395.522358,66.1993291 L393.101467,66.1993291 L393.101467,76.5178831 C393.101467,76.8381141 392.966974,76.9982295 392.697986,76.9982295 L391.403482,76.9982295 C391.134494,76.9982295 391,76.8381141 391,76.5178831 L391,52.9986962 C391,52.7496276 391,52.5539309 391,52.4293966 C391.001197,52.3195723 391.036659,52.2132453 391.10087,52.1269563 C391.167411,52.0537647 391.257296,52.0093761 391.353047,52.002422 L397.253967,52.002422 C398.21827,51.9769743 399.177903,52.1522702 400.07834,52.5183497 C400.837769,52.8432296 401.516495,53.3484362 402.062125,53.9949704 C402.605842,54.6614735 403.00725,55.4442842 403.238947,56.2899591 C403.506901,57.2665776 403.637195,58.2796958 403.625617,59.2965722 C403.628153,59.9505354 403.525831,60.6002148 403.323005,61.2179582 C403.123812,61.81903 402.846563,62.3878521 402.49923,62.9080661 C401.823775,63.9193862 400.938048,64.7532172 399.910222,65.3453798 L404.970556,76.5178831 Z M401.608208,59.2787816 C401.625344,58.4629592 401.534808,57.6485975 401.33922,56.8592586 C401.180331,56.2386368 400.859956,55.677698 400.414574,55.2403131 C399.933833,54.7988418 399.35559,54.4928862 398.7334,54.3507826 C397.883417,54.15373 397.014333,54.0641501 396.144392,54.0839234 L393.185526,54.0839234 L393.185526,64.1534089 L396.194828,64.1534089 C396.929972,64.1611871 397.661735,64.0471325 398.363542,63.8153873 C398.977937,63.6060695 399.548654,63.2738988 400.044716,62.8369037 C400.519631,62.4184036 400.903803,61.8965753 401.171103,61.3069112 C401.437275,60.6690123 401.563713,59.9756844 401.540961,59.2787816 L401.608208,59.2787816 Z" id="Shape" fill="#221E1F"></path>
                            <path d="M416.85616,77 C416.433644,77 416.187177,77 416.116758,76.8759745 C416.015772,76.6109179 415.979546,76.3253208 416.011129,76.0432318 L416.011129,52.8858965 C415.979392,52.6270116 416.015818,52.3642785 416.116758,52.1240255 C416.116758,52.1240255 416.41604,52 416.785741,52 L427.225389,52 C427.507066,52 427.647904,52.1594614 427.647904,52.4783841 L427.647904,53.6477675 C427.647904,53.9666903 427.507066,54.1261517 427.225389,54.1261517 L418.194125,54.1261517 L418.194125,62.9851169 L426.767664,62.9851169 C427.049341,62.9851169 427.190179,63.1445783 427.190179,63.4635011 L427.190179,64.6683203 C427.190179,64.9872431 427.049341,65.1467045 426.767664,65.1467045 L418.194125,65.1467045 L418.194125,74.8384125 L427.577485,74.8384125 C427.859162,74.8384125 428,74.9978738 428,75.3167966 L428,76.5216159 C428,76.8405386 427.859162,77 427.577485,77 L416.85616,77 Z" id="Path" fill="#221E1F"></path>
                            <path d="M16.6197183,0 L0,0 C1.4084507,4.20477722 3.96126761,11.8449246 5.28169014,15.6739445 C5.75591474,17.069554 7.05072468,18.0043579 8.50352113,18 L25,18 C25,17.8031659 21.4788732,7.26441468 19.8591549,2.34394508 C19.384331,0.938474764 18.0818851,-0.00392540833 16.6197183,0 Z" id="Path" fill="url(#linearGradient-1)"></path>
                            <path d="M7,23 L7,80.2076212 C7.00987796,91.1345865 15.9319581,99.9901956 26.9409423,100 L34,100 L7.12541473,23 L7,23 Z" id="Path" fill="#212121"></path>
                            <path d="M85,42.7923788 C84.9613103,31.8706386 76.1985856,23.0292635 65.3836886,23 L28,23 C30.5885079,30.7177829 53.849861,100 53.849861,100 L85,100 L85,42.7923788 Z M61.3336423,95.3942263 L57.1251158,82.9461894 L69.4513438,44.8907621 C69.8258073,43.7395596 70.8928288,42.9637122 72.0926784,42.9701674 L78.9601483,42.9701674 L61.3336423,95.3942263 Z" id="Shape" fill="#212121"></path>
                            <path d="M68.4293785,45.9070073 L56,84.4066567 L60.243745,97 L78,44 L71.0750605,44 C69.8811042,43.9960546 68.8172199,44.7628962 68.4293785,45.9070073 L68.4293785,45.9070073 Z" id="Path" fill="#212121"></path>
                            <path d="M68.4293785,45.9070073 L56,84.4066567 L60.243745,97 L78,44 L71.0750605,44 C69.8811042,43.9960546 68.8172199,44.7628962 68.4293785,45.9070073 L68.4293785,45.9070073 Z" id="Path" fill="url(#linearGradient-2)"></path>
                            <path d="M26.5184314,23 L7,23 L34.0588235,100 L53,100 C53,100 29.1701961,30.7177829 26.5184314,23 Z" id="Path" fill="#FFFFFF"></path>
                        </g>
                    </g>
                </g>
            </g>
        </g>
    </g>
</svg>