<svg width="150" height="150" viewBox="0 0 150 150" fill="none" xmlns="http://www.w3.org/2000/svg">
<circle cx="75" cy="75" r="61" fill="#FFFCF3" stroke="#F8C10B" stroke-width="6"/>
<path d="M78 74L82 74" stroke="black" stroke-width="2" stroke-linecap="round"/>
<path d="M82 50H79C78.4477 50 78 50.4477 78 51V97C78 97.5523 78.4477 98 79 98H82" stroke="black" stroke-width="2" stroke-linecap="round"/>
<path d="M86 56V45C86 44.4477 86.4477 44 87 44H93.0921C93.3536 44 93.6046 44.1024 93.7915 44.2852L96.2085 46.6502C96.3954 46.8331 96.6464 46.9355 96.9079 46.9355H103C103.552 46.9355 104 47.3832 104 47.9355V56C104 56.5523 103.552 57 103 57H87C86.4477 57 86 56.5523 86 56Z" stroke="black" stroke-width="2" stroke-linecap="round"/>
<path d="M86 80V69C86 68.4477 86.4477 68 87 68H93.0921C93.3536 68 93.6046 68.1024 93.7915 68.2852L96.2085 70.6502C96.3954 70.8331 96.6464 70.9355 96.9079 70.9355H103C103.552 70.9355 104 71.3832 104 71.9355V80C104 80.5523 103.552 81 103 81H87C86.4477 81 86 80.5523 86 80Z" stroke="black" stroke-width="2" stroke-linecap="round"/>
<path d="M86 104V93C86 92.4477 86.4477 92 87 92H93.0921C93.3536 92 93.6046 92.1024 93.7915 92.2852L96.2085 94.6502C96.3954 94.8331 96.6464 94.9355 96.9079 94.9355H103C103.552 94.9355 104 95.3832 104 95.9355V104C104 104.552 103.552 105 103 105H87C86.4477 105 86 104.552 86 104Z" stroke="black" stroke-width="2" stroke-linecap="round"/>
<path d="M70 64C70 64.2672 69.8449 64.6687 69.2286 65.1712C68.6201 65.6673 67.6787 66.1586 66.4271 66.5902C63.9333 67.4501 60.4236 68 56.5 68C52.5764 68 49.0667 67.4501 46.5729 66.5902C45.3213 66.1586 44.3799 65.6673 43.7714 65.1712C43.1551 64.6687 43 64.2672 43 64C43 63.7328 43.1551 63.3313 43.7714 62.8288C44.3799 62.3327 45.3213 61.8414 46.5729 61.4098C49.0667 60.5499 52.5764 60 56.5 60C60.4236 60 63.9333 60.5499 66.4271 61.4098C67.6787 61.8414 68.6201 62.3327 69.2286 62.8288C69.8449 63.3313 70 63.7328 70 64Z" stroke="black" stroke-width="2"/>
<path d="M43 64V84" stroke="black" stroke-width="2" stroke-linecap="round"/>
<path d="M70 64V84" stroke="black" stroke-width="2" stroke-linecap="round"/>
<path fill-rule="evenodd" clip-rule="evenodd" d="M42 74C42 76.7614 48.4919 79 56.5 79C64.5081 79 71 76.7614 71 74L68.9778 74C68.9343 74.0716 68.8312 74.205 68.5968 74.3961C68.1134 74.7902 67.2924 75.234 66.1011 75.6448C63.7376 76.4598 60.3431 77 56.5 77C52.6569 77 49.2624 76.4598 46.8989 75.6448C45.7076 75.234 44.8866 74.7902 44.4032 74.3961C44.1688 74.205 44.0657 74.0716 44.0222 74H42ZM43.9927 74.0613C43.9925 74.0613 43.9931 74.0582 43.9955 74.052C43.9941 74.0582 43.993 74.0613 43.9927 74.0613ZM69.0045 74.052C69.0069 74.0582 69.0075 74.0613 69.0073 74.0613C69.007 74.0613 69.0059 74.0582 69.0045 74.052Z" fill="black"/>
<path fill-rule="evenodd" clip-rule="evenodd" d="M42 84C42 86.7614 48.4919 89 56.5 89C64.5081 89 71 86.7614 71 84L68.9778 84C68.9343 84.0716 68.8312 84.205 68.5968 84.3961C68.1134 84.7902 67.2924 85.234 66.1011 85.6448C63.7376 86.4598 60.3431 87 56.5 87C52.6569 87 49.2624 86.4598 46.8989 85.6448C45.7076 85.234 44.8866 84.7902 44.4032 84.3961C44.1688 84.205 44.0657 84.0716 44.0222 84H42ZM43.9927 84.0613C43.9925 84.0613 43.9931 84.0582 43.9955 84.052C43.9941 84.0582 43.993 84.0613 43.9927 84.0613ZM69.0045 84.052C69.0069 84.0582 69.0075 84.0613 69.0073 84.0613C69.007 84.0613 69.0059 84.0582 69.0045 84.052Z" fill="black"/>
</svg>
