<svg width="1920" height="2707" viewBox="0 0 1920 2707" fill="none" xmlns="http://www.w3.org/2000/svg">
<g clip-path="url(#clip0_4_59)">
<path d="M1892.8 1417.61C1863.99 1384.73 1819.1 1359.41 1761.82 1341.24C1704.6 1323.08 1635.35 1312.16 1558.26 1307.83C1404.08 1299.18 1219.06 1316.92 1037.23 1355.31C855.385 1393.7 676.968 1452.7 535.945 1526.4C394.674 1600.23 291.936 1688.3 259.796 1784.33C227.619 1880.47 251.589 2008.51 312.992 2146.02C374.309 2283.34 472.575 2429.25 587.641 2560.61C702.707 2691.96 834.406 2808.58 962.457 2887.44C1090.69 2966.42 1214.46 3007.03 1314 2987.79C1413.43 2968.57 1514.27 2878.34 1606.08 2748.05C1697.74 2617.99 1779.74 2448.93 1841.77 2273.77C1903.81 2098.61 1945.79 1917.58 1957.54 1763.64C1963.41 1686.66 1961.71 1616.6 1951.25 1557.48C1940.78 1498.32 1921.6 1450.49 1892.8 1417.61Z" stroke="#F5EED5" stroke-width="9"/>
<path d="M573.596 24.4219C550.026 10.8136 518.476 4.61463 480.922 5.00753C443.412 5.39996 400.253 12.3654 353.763 24.7477C260.785 49.5119 154.989 95.805 55.3303 153.672C-44.3311 211.541 -137.634 280.855 -205.718 351.535C-273.998 422.418 -316.111 493.841 -315.187 555.975C-314.26 618.262 -273.784 688.737 -208.862 757.846C-144.091 826.794 -55.6421 893.684 39.7668 948.769C135.176 1003.85 237.329 1047.01 329.424 1068.63C421.736 1090.3 503.006 1090.11 557.411 1059.77C611.683 1029.5 652.495 957.328 679.764 862.767C706.954 768.478 720.361 653.034 720.675 537.808C720.99 422.585 708.213 307.834 683.193 214.943C670.682 168.497 655.144 127.644 636.736 94.9667C618.306 62.2512 597.166 38.0301 573.596 24.4219Z" stroke="#F3E9C2" stroke-width="9"/>
<path d="M1679.23 1034.6C1662.46 1044.28 1647.27 1061.5 1633.93 1084.88C1620.61 1108.22 1609.29 1137.42 1600.11 1170.64C1581.75 1237.08 1572.09 1319.14 1571.84 1401.52C1571.6 1483.9 1580.77 1566.34 1599.93 1633.57C1619.16 1701.07 1648.13 1752.11 1686.6 1773.29C1725.23 1794.55 1783.36 1794.46 1849.85 1778.61C1916.11 1762.81 1989.73 1731.58 2058.57 1691.84C2127.42 1652.09 2191.27 1603.95 2238.08 1554.46C2285.05 1504.81 2314.19 1454.51 2315.09 1410.43C2315.99 1366.51 2286.29 1315.9 2237.46 1265.49C2188.84 1215.28 2122.05 1166.1 2050.6 1125.11C1979.16 1084.12 1903.29 1051.44 1836.58 1034.11C1803.22 1025.45 1772.29 1020.65 1745.42 1020.51C1718.5 1020.37 1696 1024.92 1679.23 1034.6Z" stroke="#F4ECCE" stroke-width="9"/>
<path d="M2071.78 2361.59C2170.84 1927.06 1539.43 1563.89 633.065 1746.19C-273.3 1928.49 -742.244 2697.36 -63.3905 2697.36C615.462 2697.36 1972.72 2796.11 2071.78 2361.59Z" fill="url(#paint0_linear_4_59)"/>
</g>
<defs>
<linearGradient id="paint0_linear_4_59" x1="2896.45" y1="2332.07" x2="188.01" y2="2332.07" gradientUnits="userSpaceOnUse">
<stop stop-color="#FFDEC3"/>
<stop offset="1" stop-color="#FFECC1"/>
</linearGradient>
<clipPath id="clip0_4_59">
<rect width="1920" height="2707" fill="white"/>
</clipPath>
</defs>
</svg>
