<svg width="150" height="150" viewBox="0 0 150 150" fill="none" xmlns="http://www.w3.org/2000/svg">
<circle cx="75" cy="75" r="61" fill="#FFFCF3" stroke="#F8C10B" stroke-width="6"/>
<path d="M79.4504 50.1257C87.3326 51.9246 93.9289 58.1764 95.1036 66.3996C95.9745 72.4959 93.5948 76.6961 91.3347 80.6852C89.9616 83.1086 88.6327 85.4541 88.1036 88.0996C87.4036 91.5996 87.0008 94.3996 87.0008 95.0996H63.0938C63.0938 94.3996 62.6849 91.5996 61.9849 88.0996C61.4558 85.4541 60.1268 83.1086 58.7538 80.6852C56.4937 76.6961 54.114 72.4959 54.9849 66.3996C56.1596 58.1764 62.7559 51.9246 70.6381 50.1257C71.9605 49.7841 73.3512 49.5996 74.8036 49.5996C74.8839 49.5996 74.9641 49.6001 75.0442 49.601C75.1244 49.6001 75.2046 49.5996 75.2849 49.5996C76.7372 49.5996 78.128 49.7841 79.4504 50.1257Z" fill="#FFFCF3" stroke="black" stroke-width="2"/>
<path fill-rule="evenodd" clip-rule="evenodd" d="M67.6972 64.9551C66.2469 64.9551 65.0502 65.6817 64.2139 66.6661C63.3835 67.6436 62.8607 68.9219 62.7236 70.1951C62.5868 71.4658 62.8264 72.833 63.66 73.9048C64.5172 75.0069 65.8875 75.6493 67.6972 75.6493H67.7264H67.7556H67.7848H67.8139H67.843H67.8721H67.9011H67.9301H67.959H67.9879H68.0167H68.0456H68.0743H68.1031H68.1318H68.1605H68.1891H68.2177H68.2462H68.2747H68.3032H68.3316H68.36H68.3884H68.4167H68.445H68.4732H68.5014H68.5296H68.5577H68.5858H68.6138H68.6419H68.6698H68.6977H68.7256H68.7535H68.7813H68.8091H68.8368H68.8645H68.8922H68.9198H68.9473H68.9749H69.0024H69.0298H69.0573H69.0846H69.112H69.1393H69.1665H69.1937H69.2209H69.2481H69.2752H69.3022H69.3293H69.3562H69.3832H69.4101H69.4369H69.4638H69.4906H69.5173H69.544H69.5707H69.5973H69.6239H69.6504H69.6769H69.7034H69.7298H69.7562H69.7825H69.8088H69.8351H69.8613H69.8875H69.9136H69.9397H69.9658H69.9918H70.0178H70.0437H70.0696H70.0955H70.1213H70.1471H70.1728H70.1985H70.2242H70.2498H70.2754H70.3009H70.3264H70.3519H70.3773H70.4026H70.428H70.4532H70.4785H70.5037H70.5289H70.554H70.5791H70.6041H70.6291H70.6541H70.679H70.7039H70.7287H70.7535H70.7783H70.803H70.8276H70.8523H70.8769H70.9014H70.9259H70.9504H70.9748H70.9992H71.0235H71.0478H71.0667V94.0443C71.0667 94.5965 71.5144 95.0443 72.0667 95.0443C72.619 95.0443 73.0667 94.5965 73.0667 94.0443V75.6493H73.0814H73.1017H73.122H73.1423H73.1625H73.1827H73.2028H73.2229H73.243H73.263H73.2829H73.3028H73.3155H73.3217H73.3227H73.3278H73.334H73.3403H73.3425H73.3467H73.353H73.3595H73.3623H73.366H73.3725H73.3791H73.382H73.3857H73.3924H73.3992H73.4017H73.406H73.4128H73.4197H73.4214H73.4267H73.4337H73.4407H73.441H73.4478H73.455H73.4605H73.4622H73.4695H73.4768H73.48H73.4842H73.4916H73.4991H73.4995H73.5066H73.5142H73.5189H73.5218H73.5295H73.5372H73.5383H73.545H73.5528H73.5576H73.5607H73.5686H73.5766H73.5769H73.5846H73.5927H73.5962H73.6009H73.6091H73.6153H73.6173H73.6256H73.6339H73.6345H73.6423H73.6508H73.6536H73.6593H73.6678H73.6727H73.6764H73.6851H73.6917H73.6938H73.7025H73.7107H73.7114H73.7202H73.7291H73.7296H73.7381H73.7471H73.7485H73.7561H73.7653H73.7673H73.7744H73.7836H73.7861H73.7929H73.8022H73.8049H73.8116H73.821H73.8236H73.8304H73.84H73.8422H73.8495H73.8591H73.8608H73.8688H73.8785H73.8794H73.8883H73.8979H73.8981H73.908H73.9164H73.9179H73.9279H73.9348H73.9379H73.9479H73.9532H73.9581H73.9682H73.9715H73.9785H73.9887H73.9898H73.999H74.0081H74.0094H74.0198H74.0263H74.0303H74.0408H74.0444H74.0514H74.062H74.0626H74.0727H74.0806H74.0834H74.0942H74.0986H74.105H74.1159H74.1166H74.1268H74.1346H74.1377H74.1488H74.1524H74.1598H74.1703H74.1709H74.1821H74.1881H74.1933H74.2046H74.2058H74.2159H74.2235H74.2273H74.2387H74.2412H74.2502H74.2588H74.2617H74.2732H74.2764H74.2848H74.2939H74.2965H74.3082H74.3113H74.32H74.3288H74.3318H74.3436H74.3461H74.3556H74.3635H74.3675H74.3795H74.3808H74.3916H74.398H74.4037H74.4152H74.4158H74.428H74.4324H74.4403H74.4495H74.4526H74.4649H74.4665H74.4773H74.4835H74.4898H74.5005H74.5023H74.5148H74.5174H74.5274H74.5343H74.5401H74.5511H74.5527H74.5655H74.5679H74.5783H74.5846H74.5911H74.6013H74.604H74.6169H74.618H74.6299H74.6346H74.6429H74.6511H74.656H74.6676H74.6692H74.6823H74.6841H74.6956H74.7005H74.7088H74.7168H74.7222H74.7331H74.7355H74.7489H74.7494H74.7624H74.7656H74.7759H74.7818H74.7895H74.7979H74.8031H74.814H74.8168H74.8301H74.8305H74.8442H74.846H74.858H74.862H74.8719H74.8779H74.8858H74.8937H74.8997H74.9095H74.9137H74.9253H74.9278H74.941H74.9419H74.956H74.9566H74.9702H74.9723H74.9844H74.9878H74.9987H75.0033H75.0131H75.0188H75.0274H75.0342H75.0419H75.0496H75.0563H75.0649H75.0709H75.0802H75.0854H75.0955H75.1001H75.1107H75.1147H75.1258H75.1294H75.1409H75.1442H75.1559H75.159H75.1709H75.1739H75.1859H75.1888H75.2008H75.2037H75.2156H75.2187H75.2305H75.2338H75.2452H75.2489H75.2599H75.264H75.2746H75.2792H75.2892H75.2944H75.3038H75.3097H75.3183H75.325H75.3328H75.3404H75.3472H75.3558H75.3616H75.3713H75.3759H75.3868H75.3902H75.4024H75.4045H75.418H75.4186H75.4328H75.4337H75.4469H75.4494H75.4609H75.4651H75.4749H75.4809H75.4889H75.4968H75.5028H75.5127H75.5166H75.5286H75.5304H75.5442H75.5446H75.5579H75.5606H75.5716H75.5767H75.5852H75.5928H75.5987H75.609H75.6122H75.6252H75.6257H75.6391H75.6415H75.6525H75.6578H75.6658H75.6742H75.6791H75.6906H75.6923H75.7055H75.7071H75.7186H75.7236H75.7317H75.7401H75.7447H75.7567H75.7577H75.7707H75.7733H75.7835H75.79H75.7964H75.8068H75.8092H75.8219H75.8235H75.8346H75.8404H75.8472H75.8572H75.8598H75.8724H75.8742H75.8849H75.8911H75.8973H75.9081H75.9097H75.9221H75.9252H75.9344H75.9423H75.9466H75.9588H75.9595H75.971H75.9766H75.9831H75.9939H75.9951H76.0072H76.0112H76.0191H76.0285H76.031H76.0429H76.0459H76.0547H76.0633H76.0664H76.0782H76.0808H76.0898H76.0983H76.1014H76.113H76.1159H76.1245H76.1335H76.136H76.1474H76.1511H76.1588H76.1688H76.1701H76.1813H76.1866H76.1925H76.2037H76.2044H76.2148H76.2222H76.2259H76.2369H76.2401H76.2479H76.258H76.2588H76.2697H76.276H76.2805H76.2913H76.294H76.302H76.3121H76.3127H76.3233H76.3302H76.3338H76.3444H76.3484H76.3548H76.3653H76.3666H76.3756H76.3848H76.3859H76.3962H76.4031H76.4064H76.4166H76.4215H76.4267H76.4368H76.4398H76.4468H76.4568H76.4583H76.4667H76.4766H76.4767H76.4864H76.4953H76.4961H76.5059H76.5138H76.5155H76.5251H76.5324H76.5347H76.5442H76.5511H76.5537H76.5631H76.5698H76.5725H76.5818H76.5886H76.591H76.6002H76.6073H76.6094H76.6185H76.6262H76.6276H76.6366H76.6451H76.6455H76.6545H76.6633H76.664H76.6721H76.6809H76.683H76.6896H76.6982H76.702H76.7068H76.7154H76.721H76.7239H76.7323H76.7402H76.7407H76.7491H76.7574H76.7593H76.7656H76.7738H76.7785H76.7819H76.79H76.7977H76.7981H76.806H76.814H76.817H76.8219H76.8297H76.8364H76.8375H76.8452H76.8529H76.8557H76.8605H76.8681H76.8752H76.8756H76.8831H76.8905H76.8946H76.8979H76.9052H76.9124H76.9141H76.9197H76.9268H76.9337H76.9339H76.941H76.948H76.9533H76.9549H76.9618H76.9687H76.9729H76.9755H76.9822H76.9889H76.9926H76.9956H77.0022H77.0087H77.0124H77.0152H77.0216H77.028H77.0321H77.0343H77.0406H77.0468H77.052H77.053H77.0591H77.0718H77.0917H77.1117H77.1317H77.1518H77.1718H77.192H77.2122H77.2324H77.2526H77.273H77.2933H77.308V94.0443C77.308 94.5965 77.7557 95.0443 78.308 95.0443C78.8603 95.0443 79.308 94.5965 79.308 94.0443V75.6493H79.3268H79.3511H79.3755H79.3999H79.4243H79.4487H79.4732H79.4978H79.5224H79.547H79.5717H79.5964H79.6211H79.6459H79.6708H79.6957H79.7206H79.7455H79.7705H79.7956H79.8207H79.8458H79.871H79.8962H79.9214H79.9467H79.972H79.9974H80.0228H80.0483H80.0738H80.0993H80.1249H80.1505H80.1761H80.2018H80.2276H80.2533H80.2792H80.305H80.3309H80.3569H80.3828H80.4089H80.4349H80.461H80.4872H80.5133H80.5396H80.5658H80.5921H80.6185H80.6449H80.6713H80.6977H80.7242H80.7508H80.7774H80.804H80.8307H80.8574H80.8841H80.9109H80.9377H80.9646H80.9915H81.0184H81.0454H81.0724H81.0995H81.1266H81.1537H81.1809H81.2081H81.2354H81.2627H81.29H81.3174H81.3448H81.3723H81.3998H81.4273H81.4549H81.4825H81.5102H81.5379H81.5656H81.5934H81.6212H81.649H81.6769H81.7048H81.7328H81.7608H81.7889H81.8169H81.8451H81.8732H81.9014H81.9297H81.9579H81.9863H82.0146H82.043H82.0715H82.0999H82.1284H82.157H82.1856H82.2142H82.2429H82.2716H82.3003H82.3291H82.3579H82.3868H82.4157H82.4446H82.4736H82.5026H82.5316H82.5607H82.5899H82.619H82.6482H82.6775C84.4871 75.6493 85.8575 75.0069 86.7147 73.9048C87.5483 72.833 87.7879 71.4658 87.6511 70.1951C87.5139 68.9219 86.9912 67.6436 86.1607 66.6661C85.3244 65.6817 84.1278 64.9551 82.6775 64.9551C80.5106 64.9551 79.1196 66.0945 78.3199 67.4546C77.5502 68.7635 77.308 70.2893 77.308 71.3054V73.6493H77.2933H77.273H77.2526H77.2324H77.2122H77.192H77.1718H77.1518H77.1317H77.1117H77.0917H77.0718H77.0591H77.053H77.052H77.0468H77.0406H77.0343H77.0321H77.028H77.0216H77.0152H77.0124H77.0087H77.0022H76.9956H76.9926H76.9889H76.9822H76.9755H76.9729H76.9687H76.9618H76.9549H76.9533H76.948H76.941H76.9339H76.9337H76.9268H76.9197H76.9141H76.9124H76.9052H76.8979H76.8946H76.8905H76.8831H76.8756H76.8752H76.8681H76.8605H76.8557H76.8529H76.8452H76.8375H76.8364H76.8297H76.8219H76.817H76.814H76.806H76.7981H76.7977H76.79H76.7819H76.7785H76.7738H76.7656H76.7593H76.7574H76.7491H76.7407H76.7402H76.7323H76.7239H76.721H76.7154H76.7068H76.702H76.6982H76.6896H76.683H76.6809H76.6721H76.664H76.6633H76.6545H76.6455H76.6451H76.6366H76.6276H76.6262H76.6185H76.6094H76.6073H76.6002H76.591H76.5886H76.5818H76.5725H76.5698H76.5631H76.5537H76.5511H76.5442H76.5347H76.5324H76.5251H76.5155H76.5138H76.5059H76.4961H76.4953H76.4864H76.4767H76.4766H76.4667H76.4583H76.4568H76.4468H76.4398H76.4368H76.4267H76.4215H76.4166H76.4064H76.4031H76.3962H76.3859H76.3848H76.3756H76.3666H76.3653H76.3548H76.3484H76.3444H76.3338H76.3302H76.3233H76.3127H76.3121H76.302H76.294H76.2913H76.2805H76.276H76.2697H76.2588H76.258H76.2479H76.2401H76.2369H76.2259H76.2222H76.2148H76.2044H76.2037H76.1925H76.1866H76.1813H76.1701H76.1688H76.1588H76.1511H76.1474H76.136H76.1335H76.1245H76.1159H76.113H76.1014H76.0983H76.0898H76.0808H76.0782H76.0664H76.0633H76.0547H76.0459H76.0429H76.031H76.0285H76.0191H76.0112H76.0072H75.9951H75.9939H75.9831H75.9766H75.971H75.9595H75.9588H75.9466H75.9423H75.9344H75.9252H75.9221H75.9097H75.9081H75.8973H75.8911H75.8849H75.8742H75.8724H75.8598H75.8572H75.8472H75.8404H75.8346H75.8235H75.8219H75.8092H75.8068H75.7964H75.79H75.7835H75.7733H75.7707H75.7577H75.7567H75.7447H75.7401H75.7317H75.7236H75.7186H75.7071H75.7055H75.6923H75.6906H75.6791H75.6742H75.6658H75.6578H75.6525H75.6415H75.6391H75.6257H75.6252H75.6122H75.609H75.5987H75.5928H75.5852H75.5767H75.5716H75.5606H75.5579H75.5446H75.5442H75.5304H75.5286H75.5166H75.5127H75.5028H75.4968H75.4889H75.4809H75.4749H75.4651H75.4609H75.4494H75.4469H75.4337H75.4328H75.4186H75.418H75.4045H75.4024H75.3902H75.3868H75.3759H75.3713H75.3616H75.3558H75.3472H75.3404H75.3328H75.325H75.3183H75.3097H75.3038H75.2944H75.2892H75.2792H75.2746H75.264H75.2599H75.2489H75.2452H75.2338H75.2305H75.2187H75.2156H75.2037H75.2008H75.1888H75.1859H75.1739H75.1709H75.159H75.1559H75.1442H75.1409H75.1294H75.1258H75.1147H75.1107H75.1001H75.0955H75.0854H75.0802H75.0709H75.0649H75.0563H75.0496H75.0419H75.0342H75.0274H75.0188H75.0131H75.0033H74.9987H74.9878H74.9844H74.9723H74.9702H74.9566H74.956H74.9419H74.941H74.9278H74.9253H74.9137H74.9095H74.8997H74.8937H74.8858H74.8779H74.8719H74.862H74.858H74.846H74.8442H74.8305H74.8301H74.8168H74.814H74.8031H74.7979H74.7895H74.7818H74.7759H74.7656H74.7624H74.7494H74.7489H74.7355H74.7331H74.7222H74.7168H74.7088H74.7005H74.6956H74.6841H74.6823H74.6692H74.6676H74.656H74.6511H74.6429H74.6346H74.6299H74.618H74.6169H74.604H74.6013H74.5911H74.5846H74.5783H74.5679H74.5655H74.5527H74.5511H74.5401H74.5343H74.5274H74.5174H74.5148H74.5023H74.5005H74.4898H74.4835H74.4773H74.4665H74.4649H74.4526H74.4495H74.4403H74.4324H74.428H74.4158H74.4152H74.4037H74.398H74.3916H74.3808H74.3795H74.3675H74.3635H74.3556H74.3461H74.3436H74.3318H74.3288H74.32H74.3113H74.3082H74.2965H74.2939H74.2848H74.2764H74.2732H74.2617H74.2588H74.2502H74.2412H74.2387H74.2273H74.2235H74.2159H74.2058H74.2046H74.1933H74.1881H74.1821H74.1709H74.1703H74.1598H74.1524H74.1488H74.1377H74.1346H74.1268H74.1166H74.1159H74.105H74.0986H74.0942H74.0834H74.0806H74.0727H74.0626H74.062H74.0514H74.0444H74.0408H74.0303H74.0263H74.0198H74.0094H74.0081H73.999H73.9898H73.9887H73.9785H73.9715H73.9682H73.9581H73.9532H73.9479H73.9379H73.9348H73.9279H73.9179H73.9164H73.908H73.8981H73.8979H73.8883H73.8794H73.8785H73.8688H73.8608H73.8591H73.8495H73.8422H73.84H73.8304H73.8236H73.821H73.8116H73.8049H73.8022H73.7929H73.7861H73.7836H73.7744H73.7673H73.7653H73.7561H73.7485H73.7471H73.7381H73.7296H73.7291H73.7202H73.7114H73.7107H73.7025H73.6938H73.6917H73.6851H73.6764H73.6727H73.6678H73.6593H73.6536H73.6508H73.6423H73.6345H73.6339H73.6256H73.6173H73.6153H73.6091H73.6009H73.5962H73.5927H73.5846H73.5769H73.5766H73.5686H73.5607H73.5576H73.5528H73.545H73.5383H73.5372H73.5295H73.5218H73.5189H73.5142H73.5066H73.4995H73.4991H73.4916H73.4842H73.48H73.4768H73.4695H73.4622H73.4605H73.455H73.4478H73.441H73.4407H73.4337H73.4267H73.4214H73.4197H73.4128H73.406H73.4017H73.3992H73.3924H73.3857H73.382H73.3791H73.3725H73.366H73.3623H73.3595H73.353H73.3467H73.3425H73.3403H73.334H73.3278H73.3227H73.3217H73.3155H73.3028H73.2829H73.263H73.243H73.2229H73.2028H73.1827H73.1625H73.1423H73.122H73.1017H73.0814H73.0667V71.3054C73.0667 70.2893 72.8244 68.7635 72.0548 67.4546C71.2551 66.0945 69.864 64.9551 67.6972 64.9551ZM71.0667 71.3054V73.6493H71.0478H71.0235H70.9992H70.9748H70.9504H70.9259H70.9014H70.8769H70.8523H70.8276H70.803H70.7783H70.7535H70.7287H70.7039H70.679H70.6541H70.6291H70.6041H70.5791H70.554H70.5289H70.5037H70.4785H70.4532H70.428H70.4026H70.3773H70.3519H70.3264H70.3009H70.2754H70.2498H70.2242H70.1985H70.1728H70.1471H70.1213H70.0955H70.0696H70.0437H70.0178H69.9918H69.9658H69.9397H69.9136H69.8875H69.8613H69.8351H69.8088H69.7825H69.7562H69.7298H69.7034H69.6769H69.6504H69.6239H69.5973H69.5707H69.544H69.5173H69.4906H69.4638H69.4369H69.4101H69.3832H69.3562H69.3293H69.3022H69.2752H69.2481H69.2209H69.1937H69.1665H69.1393H69.112H69.0846H69.0573H69.0298H69.0024H68.9749H68.9473H68.9198H68.8922H68.8645H68.8368H68.8091H68.7813H68.7535H68.7256H68.6977H68.6698H68.6419H68.6138H68.5858H68.5577H68.5296H68.5014H68.4732H68.445H68.4167H68.3884H68.36H68.3316H68.3032H68.2747H68.2462H68.2177H68.1891H68.1605H68.1318H68.1031H68.0743H68.0456H68.0167H67.9879H67.959H67.9301H67.9011H67.8721H67.843H67.8139H67.7848H67.7556H67.7264H67.6972C66.3858 73.6493 65.6495 73.2051 65.2387 72.6769C64.8044 72.1185 64.6149 71.3122 64.7121 70.4093C64.8091 69.509 65.1836 68.6137 65.7381 67.961C66.2868 67.3152 66.9628 66.9551 67.6972 66.9551C69.0259 66.9551 69.8196 67.599 70.3308 68.4683C70.872 69.3887 71.0667 70.538 71.0667 71.3054ZM79.308 71.3054V73.6493H79.3268H79.3511H79.3755H79.3999H79.4243H79.4487H79.4732H79.4978H79.5224H79.547H79.5717H79.5964H79.6211H79.6459H79.6708H79.6957H79.7206H79.7455H79.7705H79.7956H79.8207H79.8458H79.871H79.8962H79.9214H79.9467H79.972H79.9974H80.0228H80.0483H80.0738H80.0993H80.1249H80.1505H80.1761H80.2018H80.2276H80.2533H80.2792H80.305H80.3309H80.3569H80.3828H80.4089H80.4349H80.461H80.4872H80.5133H80.5396H80.5658H80.5921H80.6185H80.6449H80.6713H80.6977H80.7242H80.7508H80.7774H80.804H80.8307H80.8574H80.8841H80.9109H80.9377H80.9646H80.9915H81.0184H81.0454H81.0724H81.0995H81.1266H81.1537H81.1809H81.2081H81.2354H81.2627H81.29H81.3174H81.3448H81.3723H81.3998H81.4273H81.4549H81.4825H81.5102H81.5379H81.5656H81.5934H81.6212H81.649H81.6769H81.7048H81.7328H81.7608H81.7889H81.8169H81.8451H81.8732H81.9014H81.9297H81.9579H81.9863H82.0146H82.043H82.0715H82.0999H82.1284H82.157H82.1856H82.2142H82.2429H82.2716H82.3003H82.3291H82.3579H82.3868H82.4157H82.4446H82.4736H82.5026H82.5316H82.5607H82.5899H82.619H82.6482H82.6775C83.9889 73.6493 84.7252 73.2051 85.136 72.6769C85.5703 72.1185 85.7598 71.3122 85.6626 70.4093C85.5656 69.509 85.1911 68.6137 84.6365 67.961C84.0879 67.3152 83.4119 66.9551 82.6775 66.9551C81.3487 66.9551 80.555 67.599 80.0439 68.4683C79.5027 69.3887 79.308 70.538 79.308 71.3054Z" fill="black"/>
<path d="M63 95H87V97.8C87 99.5673 85.5673 101 83.8 101H66.2C64.4327 101 63 99.5673 63 97.8V95Z" fill="#FFFCF3" stroke="black" stroke-width="2"/>
<path d="M65 101H85V102.8C85 104.567 83.5673 106 81.8 106H68.2C66.4327 106 65 104.567 65 102.8V101Z" fill="#FFFCF3" stroke="black" stroke-width="2"/>
<path d="M68 106H82V106.8C82 108.567 80.5673 110 78.8 110H71.2C69.4327 110 68 108.567 68 106.8V106Z" fill="#FFFCF3" stroke="black" stroke-width="2"/>
<path d="M75.1016 37V42.6" stroke="black" stroke-width="2" stroke-linecap="round"/>
<path d="M92.7578 41.2002L89.7993 45.9549" stroke="black" stroke-width="2" stroke-linecap="round"/>
<path d="M105.715 53.7998L101.001 56.8227" stroke="black" stroke-width="2" stroke-linecap="round"/>
<path d="M45 53.7998L49.714 56.8227" stroke="black" stroke-width="2" stroke-linecap="round"/>
<path d="M57.6016 41.2002L60.5601 45.9549" stroke="black" stroke-width="2" stroke-linecap="round"/>
</svg>
