<svg width="40" height="40" viewBox="0 0 40 40" fill="none" xmlns="http://www.w3.org/2000/svg">
<rect width="40" height="40" rx="20" fill="#464646" fill-opacity="0.5"/>
<g clip-path="url(#clip0_1148_12841)">
<path d="M27.1685 12H12.8269C10.7111 12 9 13.7529 9 15.91V23.4996C9 25.6567 10.7111 27.4096 12.8269 27.4096H18.2176L19.9977 30.9953L22.0123 27.4096H27.1685C29.2843 27.4096 30.9954 25.6567 30.9954 23.4996V15.91C30.9954 13.7482 29.2797 12 27.1685 12Z" fill="white"/>
<path d="M13.7512 18.0718C13.3603 18.0718 12.9969 18.1799 12.6841 18.3726V16.4082H11.249V22.3577H12.6841V22.0852C12.9969 22.2732 13.3603 22.3859 13.7512 22.3859C14.9149 22.3859 15.8624 21.4225 15.8624 20.2289C15.8624 19.0352 14.9195 18.0718 13.7512 18.0718ZM13.5948 21.103C13.1211 21.103 12.7347 20.7082 12.7347 20.2242C12.7347 19.7401 13.1211 19.3454 13.5948 19.3454C14.0686 19.3454 14.455 19.7401 14.455 20.2242C14.455 20.7082 14.0732 21.103 13.5948 21.103Z" fill="#464646"/>
<path d="M18.1484 17.8417C18.0013 17.2401 17.5735 16.3848 16.3086 16.4036V17.555C16.3086 17.555 16.8421 17.555 16.8421 18.4197V22.3861H18.222V18.4103C18.222 18.368 18.222 18.133 18.1484 17.8417Z" fill="#464646"/>
<path d="M21.3456 18.0059C20.1129 18.0059 19.1147 19.0256 19.1147 20.2851C19.1147 21.5446 20.1129 22.5597 21.3456 22.5597C22.5783 22.5597 23.5764 21.5399 23.5764 20.2851C23.5764 19.0303 22.5783 18.0059 21.3456 18.0059ZM21.3456 21.2203C20.8396 21.2203 20.4302 20.802 20.4302 20.2851C20.4302 19.7682 20.8396 19.3499 21.3456 19.3499C21.8515 19.3499 22.2609 19.7682 22.2609 20.2851C22.2609 20.802 21.8515 21.2203 21.3456 21.2203Z" fill="#464646"/>
<path d="M28.7417 22.7103V18.2834H27.4078V18.4667C27.0996 18.2834 26.7454 18.1753 26.3682 18.1753C25.2321 18.1753 24.3076 19.1199 24.3076 20.2807C24.3076 21.4414 25.2321 22.386 26.3682 22.386C26.75 22.386 27.1042 22.2779 27.4078 22.0947V22.7056C27.4078 23.4293 26.1567 23.2789 26.1567 23.2789V24.4303C29.0314 24.4303 28.7417 22.7056 28.7417 22.7056V22.7103ZM26.3682 21.1501C25.8991 21.1501 25.5219 20.76 25.5219 20.2854C25.5219 19.8107 25.9037 19.4207 26.3682 19.4207C26.8328 19.4207 27.2146 19.8107 27.2146 20.2854C27.2146 20.76 26.8328 21.1501 26.3682 21.1501Z" fill="#464646"/>
</g>
<defs>
<clipPath id="clip0_1148_12841">
<rect width="22" height="19" fill="white" transform="translate(9 12)"/>
</clipPath>
</defs>
</svg>
