<svg width="20" height="20" viewBox="0 0 20 20" fill="none" xmlns="http://www.w3.org/2000/svg">
<path d="M17.1237 11.5835C16.9137 11.5835 16.7124 11.6669 16.5639 11.8154C16.4154 11.9638 16.332 12.1652 16.332 12.3752V15.5418C16.332 15.7518 16.2486 15.9532 16.1002 16.1016C15.9517 16.2501 15.7503 16.3335 15.5404 16.3335H4.45703C4.24707 16.3335 4.0457 16.2501 3.89724 16.1016C3.74877 15.9532 3.66536 15.7518 3.66536 15.5418V12.3752C3.66536 12.1652 3.58196 11.9638 3.43349 11.8154C3.28502 11.6669 3.08366 11.5835 2.8737 11.5835C2.66373 11.5835 2.46237 11.6669 2.31391 11.8154C2.16544 11.9638 2.08203 12.1652 2.08203 12.3752V15.5418C2.08203 16.1717 2.33225 16.7758 2.77765 17.2212C3.22305 17.6666 3.82714 17.9168 4.45703 17.9168H15.5404C16.1703 17.9168 16.7743 17.6666 17.2197 17.2212C17.6651 16.7758 17.9154 16.1717 17.9154 15.5418V12.3752C17.9154 12.1652 17.832 11.9638 17.6835 11.8154C17.535 11.6669 17.3337 11.5835 17.1237 11.5835ZM9.43661 12.9372C9.5119 13.0093 9.60069 13.0658 9.69786 13.1035C9.79263 13.1454 9.89509 13.167 9.9987 13.167C10.1023 13.167 10.2048 13.1454 10.2995 13.1035C10.3967 13.0658 10.4855 13.0093 10.5608 12.9372L13.7274 9.77058C13.8765 9.62151 13.9603 9.41932 13.9603 9.2085C13.9603 8.99767 13.8765 8.79549 13.7274 8.64641C13.5784 8.49734 13.3762 8.41359 13.1654 8.41359C12.9545 8.41359 12.7524 8.49734 12.6033 8.64641L10.7904 10.4672V2.87516C10.7904 2.6652 10.707 2.46384 10.5585 2.31537C10.41 2.1669 10.2087 2.0835 9.9987 2.0835C9.78873 2.0835 9.58737 2.1669 9.4389 2.31537C9.29044 2.46384 9.20703 2.6652 9.20703 2.87516V10.4672L7.39411 8.64641C7.3203 8.5726 7.23267 8.51405 7.13623 8.4741C7.03979 8.43415 6.93642 8.41359 6.83203 8.41359C6.72764 8.41359 6.62428 8.43415 6.52783 8.4741C6.43139 8.51405 6.34376 8.5726 6.26995 8.64641C6.19613 8.72023 6.13758 8.80786 6.09763 8.9043C6.05769 9.00074 6.03713 9.10411 6.03713 9.2085C6.03713 9.31288 6.05769 9.41625 6.09763 9.51269C6.13758 9.60914 6.19613 9.69677 6.26995 9.77058L9.43661 12.9372Z" fill="#282828"/>
</svg>
