<svg width="178" height="40" viewBox="0 0 178 40" fill="none" xmlns="http://www.w3.org/2000/svg">
<g clip-path="url(#clip0_549_4834)">
<path d="M64.4463 11.1494H64.0132C63.9819 11.1508 63.9508 11.146 63.9214 11.1352C63.8921 11.1244 63.8652 11.1078 63.8424 11.0865C63.8195 11.0652 63.8012 11.0395 63.7884 11.011C63.7755 10.9825 63.7685 10.9518 63.7677 10.9205V10.2296L63.8275 10.1719C63.8275 10.1719 66.8098 10.2296 68.0101 10.2296C69.1155 10.2296 72.2194 10.1719 72.2194 10.1719L72.2813 10.2296V10.9205C72.283 10.9525 72.2777 10.9844 72.2658 11.0141C72.2538 11.0438 72.2355 11.0706 72.2121 11.0924C72.1887 11.1142 72.1608 11.1307 72.1303 11.1405C72.0999 11.1504 72.0676 11.1534 72.0358 11.1494H71.6048C70.3447 11.1494 69.9157 11.6094 69.9157 12.4158V26.5947C69.9157 27.399 70.3447 27.8589 71.6048 27.8589H72.0358C72.0701 27.8557 72.1047 27.8603 72.137 27.8725C72.1692 27.8846 72.1982 27.904 72.2219 27.929C72.2455 27.9541 72.2632 27.9842 72.2735 28.017C72.2838 28.0499 72.2864 28.0847 72.2813 28.1188V28.7787L72.2194 28.8365C72.2194 28.8365 69.1155 28.7787 68.0101 28.7787C66.8098 28.7787 63.8275 28.8365 63.8275 28.8365L63.7677 28.7787V28.1188C63.7651 28.0852 63.7696 28.0515 63.7808 28.0197C63.792 27.988 63.8098 27.9589 63.8329 27.9345C63.856 27.91 63.884 27.8906 63.915 27.8776C63.9461 27.8646 63.9795 27.8582 64.0132 27.8589H64.4442C65.6816 27.8589 66.1333 27.5145 66.1333 26.5947V19.5475H57.529V26.5947C57.529 27.399 57.9601 27.8589 59.2202 27.8589H59.6491C59.6835 27.8558 59.7181 27.8604 59.7505 27.8726C59.7828 27.8847 59.8119 27.904 59.8357 27.929C59.8595 27.954 59.8774 27.9841 59.8879 28.0169C59.8985 28.0498 59.9014 28.0846 59.8966 28.1188V28.7787L59.8348 28.8365C59.8348 28.8365 56.7288 28.7787 55.6234 28.7787C54.4251 28.7787 51.4429 28.8365 51.4429 28.8365L51.381 28.7787V28.1188C51.3788 28.0853 51.3834 28.0517 51.3948 28.0201C51.4061 27.9885 51.4239 27.9596 51.4469 27.9352C51.47 27.9107 51.4978 27.8914 51.5287 27.8783C51.5596 27.8651 51.5929 27.8585 51.6265 27.8589H52.0513C53.2887 27.8589 53.7425 27.5145 53.7425 26.5947V12.4158C53.7425 11.4939 53.2805 11.1494 52.0513 11.1494H51.6203C51.5891 11.1508 51.5579 11.146 51.5286 11.1352C51.4992 11.1244 51.4724 11.1078 51.4495 11.0865C51.4267 11.0652 51.4083 11.0395 51.3955 11.011C51.3827 10.9825 51.3756 10.9518 51.3748 10.9205V10.2296L51.4367 10.1719C51.4367 10.1719 54.4189 10.2296 55.6172 10.2296C56.7226 10.2296 59.8286 10.1719 59.8286 10.1719L59.8904 10.2296V10.9205C59.8919 10.9526 59.8863 10.9846 59.8741 11.0143C59.8619 11.044 59.8434 11.0706 59.8198 11.0924C59.7963 11.1142 59.7682 11.1306 59.7377 11.1405C59.7071 11.1503 59.6748 11.1534 59.643 11.1494H59.214C57.9539 11.1494 57.5228 11.6094 57.5228 12.4158V18.2255H66.1292V12.4158C66.1354 11.4939 65.6754 11.1494 64.4463 11.1494Z" fill="white"/>
<path d="M74.4035 28.723V28.0898C74.4012 28.0563 74.4059 28.0227 74.4172 27.9911C74.4286 27.9595 74.4463 27.9306 74.4694 27.9062C74.4924 27.8818 74.5203 27.8624 74.5512 27.8493C74.5821 27.8362 74.6153 27.8296 74.6489 27.83H75.0799C76.3174 27.83 76.7711 27.4855 76.7711 26.5657V12.4157C76.7711 11.4938 76.3091 11.1494 75.0799 11.1494H74.6489C74.6177 11.1508 74.5865 11.1459 74.5572 11.1351C74.5279 11.1243 74.501 11.1077 74.4781 11.0864C74.4553 11.0651 74.4369 11.0395 74.4241 11.011C74.4113 10.9825 74.4043 10.9517 74.4035 10.9205V10.2584L74.4963 10.2007H88.8196C88.9306 11.7663 89.1463 13.3228 89.4651 14.8596L88.2277 15.1195C87.7966 13.6511 87.0294 11.5227 84.9691 11.5227H80.9825C80.7041 11.5227 80.5515 11.7537 80.5515 12.3476V18.2708H84.0183C84.7876 18.2708 84.9093 17.3799 85.0949 16.229C85.0949 16.1156 85.2784 15.9135 85.5857 15.9135H86.2313L86.4169 16.2002C86.2915 17.0886 86.2226 17.9841 86.2107 18.8813C86.2252 19.7783 86.294 20.6737 86.4169 21.5624L86.2313 21.8222H85.5857C85.2784 21.8222 85.0949 21.649 85.0949 21.5335C84.9093 20.3559 84.7876 19.4917 84.0183 19.4917H80.5515V26.6214C80.5515 27.2834 80.7041 27.4567 80.9825 27.4567H85.6847C87.3759 27.4567 88.4813 25.7593 89.0052 23.6309L90.3272 23.9197C90.0199 25.4438 89.7085 27.2195 89.5022 28.7787H74.4963L74.4035 28.723Z" fill="white"/>
<path d="M103.788 20.3248L106.956 25.9613C107.633 27.2256 108.585 27.7721 109.815 27.6298L109.936 28.6362C109.112 28.8434 108.266 28.9493 107.416 28.9518C105.603 28.9518 104.219 27.8587 103.421 26.5079L100.654 21.6757C100.225 20.9559 99.3315 20.8507 97.7332 20.8507V26.5738C97.7332 27.4648 98.1952 27.8381 99.4244 27.8381H99.8554C99.889 27.8377 99.9222 27.8443 99.9531 27.8574C99.984 27.8706 100.012 27.8899 100.035 27.9143C100.058 27.9387 100.076 27.9677 100.087 27.9993C100.098 28.0309 100.103 28.0645 100.101 28.0979V28.7579L100.039 28.8157C100.039 28.8157 97.7703 28.7579 96.5659 28.7579C95.4584 28.7579 91.678 28.8157 91.678 28.8157L91.6162 28.7579V28.0979C91.6114 28.064 91.6143 28.0293 91.6248 27.9966C91.6352 27.9639 91.6529 27.934 91.6764 27.9091C91.7 27.8841 91.7289 27.8648 91.7609 27.8525C91.793 27.8402 91.8274 27.8353 91.8616 27.8381H92.2926C93.5527 27.8381 93.9838 27.3782 93.9838 26.5738V12.7022C93.9838 11.8979 93.86 11.4091 93.0619 11.4091H92.8453L91.9235 11.4937C91.7708 11.4937 91.678 11.4091 91.678 11.2874V10.3099C92.3236 10.1655 96.4731 9.96338 100.07 9.96338C103.759 9.96338 107.288 11.4071 107.288 14.9131C107.294 17.8211 105.972 19.2317 103.788 20.3248ZM100.225 11.1493C99.3882 11.1365 98.5529 11.2139 97.7332 11.3802V19.5184H99.2408C102.221 19.5184 103.605 18.1964 103.605 15.3194C103.605 12.4424 102.068 11.1493 100.225 11.1493Z" fill="white"/>
<path d="M118.145 27.8589H118.574C118.608 27.8557 118.642 27.8603 118.675 27.8725C118.707 27.8846 118.736 27.904 118.76 27.929C118.783 27.9541 118.801 27.9842 118.811 28.017C118.822 28.0499 118.824 28.0847 118.819 28.1188V28.7787L118.759 28.8365C118.759 28.8365 115.684 28.7787 114.579 28.7787C113.378 28.7787 110.398 28.8365 110.398 28.8365L110.336 28.7787V28.1188C110.334 28.0852 110.338 28.0515 110.35 28.0197C110.361 27.988 110.378 27.9589 110.402 27.9345C110.425 27.91 110.453 27.8906 110.484 27.8776C110.515 27.8646 110.548 27.8582 110.582 27.8589H111.013C112.25 27.8589 112.702 27.5145 112.702 26.5947V12.4158C112.702 11.4939 112.242 11.1494 111.013 11.1494H110.582C110.551 11.1508 110.519 11.146 110.49 11.1352C110.461 11.1244 110.434 11.1078 110.411 11.0865C110.388 11.0652 110.37 11.0395 110.357 11.011C110.344 10.9825 110.337 10.9518 110.336 10.9205V10.2296L110.398 10.1719C110.398 10.1719 113.378 10.2296 114.579 10.2296C115.684 10.2296 118.759 10.1719 118.759 10.1719L118.819 10.2296V10.9205C118.821 10.9525 118.816 10.9844 118.804 11.0141C118.792 11.0438 118.773 11.0706 118.75 11.0924C118.726 11.1142 118.699 11.1307 118.668 11.1405C118.638 11.1504 118.605 11.1534 118.574 11.1494H118.145C116.885 11.1494 116.453 11.6094 116.453 12.4158V26.5947C116.453 27.4052 116.885 27.8589 118.145 27.8589Z" fill="white"/>
<path d="M135.326 11.1494H134.895C134.741 11.1494 134.619 11.0628 134.619 10.9205V10.2296L134.681 10.2007C134.681 10.2007 136.77 10.2296 137.968 10.2296C139.045 10.2296 141.258 10.2007 141.258 10.2007L141.32 10.2296V10.9205C141.321 10.9524 141.316 10.9844 141.304 11.0141C141.292 11.0438 141.274 11.0705 141.251 11.0923C141.227 11.1142 141.199 11.1306 141.169 11.1404C141.138 11.1503 141.106 11.1534 141.074 11.1494H140.643C139.383 11.1494 138.952 11.6093 138.952 12.4157V28.061C138.952 28.6941 138.676 29.1251 137.785 29.1251C137.015 29.1251 136.648 28.723 136.341 28.3476L125.584 15.2618V26.5946C125.584 27.3989 126.013 27.8588 127.275 27.8588H127.704C127.738 27.8556 127.773 27.8603 127.805 27.8724C127.837 27.8846 127.866 27.9039 127.89 27.929C127.914 27.954 127.931 27.9841 127.941 28.017C127.952 28.0499 127.954 28.0846 127.949 28.1187V28.7787L127.889 28.8364C127.889 28.8364 125.646 28.7787 124.569 28.7787C123.371 28.7787 121.096 28.8364 121.096 28.8364L121.034 28.7787V28.1187C121.032 28.0852 121.036 28.0516 121.048 28.02C121.059 27.9884 121.077 27.9595 121.1 27.9351C121.123 27.9107 121.151 27.8913 121.182 27.8782C121.213 27.8651 121.246 27.8585 121.279 27.8588H121.711C122.948 27.8588 123.647 27.5144 123.647 26.5946V12.6735C123.094 11.9558 122.478 11.1494 121.494 11.1494C120.972 11.1494 120.875 11.0339 120.875 10.8338V10.2873L120.968 10.2007H125.425L136.974 23.9486V12.4157C136.985 11.4938 136.525 11.1494 135.326 11.1494Z" fill="white"/>
<path d="M161.977 25.5012C161.962 25.6586 161.988 25.817 162.053 25.9614C162.117 26.1058 162.217 26.2314 162.344 26.3261C160.193 28.0235 157.765 29.0588 153.888 29.0588C147.34 29.0588 142.914 24.9175 142.914 19.9121C142.914 13.5847 148.324 9.84766 153.795 9.84766C157.945 9.84766 158.951 11.1119 160.527 11.1119C160.641 12.7458 160.867 14.37 161.203 15.9729L160.005 16.2019C159.143 13.5001 157.668 11.0253 153.764 11.0253C150.052 11.0253 146.909 14.4488 146.909 19.3656C146.909 23.709 149.491 27.7925 154.441 27.7925C155.763 27.7925 157.328 27.4481 158.376 26.6417V22.1931C158.376 21.3022 157.392 20.9557 156.161 20.9557H155.732C155.698 20.9566 155.665 20.9505 155.634 20.9378C155.603 20.925 155.575 20.9058 155.551 20.8815C155.528 20.8572 155.511 20.8283 155.499 20.7966C155.488 20.765 155.484 20.7313 155.486 20.6979V20.0359L155.546 19.9781C155.546 19.9781 158.528 20.0359 159.726 20.0359C160.834 20.0359 163.723 19.9781 163.723 19.9781L163.785 20.0359V20.6979C163.79 20.7318 163.787 20.7663 163.777 20.7989C163.766 20.8316 163.749 20.8614 163.725 20.8862C163.701 20.911 163.672 20.9301 163.64 20.9422C163.608 20.9542 163.574 20.9588 163.54 20.9557H163.354C162.094 20.9557 161.972 21.4156 161.972 22.1931L161.977 25.5012Z" fill="white"/>
<path d="M176.76 15.0041L175.522 15.1464C174.97 13.249 173.955 10.9762 171.342 10.9762C169.312 10.9762 168.574 12.3003 168.574 13.911C168.574 15.7506 171.004 17.1902 172.286 17.6233C174.869 18.4854 177.913 20.0095 177.913 23.4908C177.913 27.3144 175.269 29.0695 171.765 29.0695C168.751 29.0695 168.137 28.6385 167.399 28.6385C166.78 28.6385 166.508 28.7808 165.984 28.7808C165.924 27.3144 165.707 25.9347 165.4 23.7486L166.638 23.662C167.256 26.2791 169.067 27.8899 171.125 27.8899C173.462 27.8899 174.631 26.739 174.631 24.6107C174.631 22.9442 173.709 21.4758 171.833 20.787C169.62 19.9806 165.646 18.1987 165.646 14.8329C165.646 11.3825 168.721 9.8584 171.365 9.8584C174.223 9.8584 174.407 10.4049 176.098 10.6339C176.235 12.102 176.456 13.5611 176.76 15.0041Z" fill="white"/>
<path d="M39.2645 20.0054C39.2639 16.144 38.1458 12.3653 36.0451 9.12526C33.9444 5.88527 30.9509 3.32248 27.4258 1.74619C23.9008 0.169889 19.9949 -0.352549 16.1795 0.241927C12.3641 0.836402 8.80235 2.52238 5.92398 5.09639C6.2519 4.89016 8.55558 3.54548 11.412 3.81153C12.2927 3.8764 13.1458 4.14745 13.9024 4.60279C14.6591 5.05814 15.298 5.68502 15.7678 6.43282C15.7678 6.43282 22.419 6.68856 24.8258 11.925C26.6819 15.9528 23.3821 19.5744 23.3821 19.5744C23.5445 18.8127 23.5571 18.0268 23.4192 17.2604C23.1655 15.9136 22.5716 16.5488 21.2207 16.3199C20.9485 16.2745 17.9209 16.2271 16.4566 15.3815C16.3102 15.297 13.0908 14.9505 10.8675 15.2207C8.17404 15.5506 0.761826 18.0317 0.0812378 25.7017C0.0936121 25.7388 0.103923 25.7759 0.114235 25.8131C0.85257 25.2645 10.1086 18.5947 17.2527 24.0435C20.3091 26.3761 22.122 30.8123 21.7899 35.1165C21.6408 36.9083 20.9487 38.6121 19.8059 40.0002C25.0145 39.8579 29.9621 37.6889 33.5961 33.9548C37.2301 30.2206 39.2638 25.216 39.2645 20.0054Z" fill="#F68C29"/>
</g>
<defs>
<clipPath id="clip0_549_4834">
<rect width="177.858" height="40" fill="white" transform="translate(0.0709229)"/>
</clipPath>
</defs>
</svg>
