<?xml version="1.0" encoding="UTF-8"?>
<svg width="21px" height="24px" viewBox="0 0 21 24" version="1.1" xmlns="http://www.w3.org/2000/svg" xmlns:xlink="http://www.w3.org/1999/xlink">
    <!-- Generator: Sketch 52.5 (67469) - http://www.bohemiancoding.com/sketch -->
    <title>building</title>
    <desc>Created with Sketch.</desc>
    <defs>
        <path d="M20.4375,22.5 L19.5,22.5 L19.5,1.125 C19.5,0.503671875 18.9963281,0 18.375,0 L2.625,0 C2.00367187,0 1.5,0.503671875 1.5,1.125 L1.5,22.5 L0.5625,22.5 C0.251859375,22.5 0,22.7518594 0,23.0625 L0,24 L21,24 L21,23.0625 C21,22.7518594 20.7481406,22.5 20.4375,22.5 Z M6,3.5625 C6,3.25185938 6.25185937,3 6.5625,3 L8.4375,3 C8.74814063,3 9,3.25185938 9,3.5625 L9,5.4375 C9,5.74814062 8.74814063,6 8.4375,6 L6.5625,6 C6.25185937,6 6,5.74814062 6,5.4375 L6,3.5625 Z M6,8.0625 C6,7.75185937 6.25185937,7.5 6.5625,7.5 L8.4375,7.5 C8.74814063,7.5 9,7.75185937 9,8.0625 L9,9.9375 C9,10.2481406 8.74814063,10.5 8.4375,10.5 L6.5625,10.5 C6.25185937,10.5 6,10.2481406 6,9.9375 L6,8.0625 Z M8.4375,15 L6.5625,15 C6.25185937,15 6,14.7481406 6,14.4375 L6,12.5625 C6,12.2518594 6.25185937,12 6.5625,12 L8.4375,12 C8.74814063,12 9,12.2518594 9,12.5625 L9,14.4375 C9,14.7481406 8.74814063,15 8.4375,15 Z M12,22.5 L9,22.5 L9,18.5625 C9,18.2518594 9.25185937,18 9.5625,18 L11.4375,18 C11.7481406,18 12,18.2518594 12,18.5625 L12,22.5 Z M15,14.4375 C15,14.7481406 14.7481406,15 14.4375,15 L12.5625,15 C12.2518594,15 12,14.7481406 12,14.4375 L12,12.5625 C12,12.2518594 12.2518594,12 12.5625,12 L14.4375,12 C14.7481406,12 15,12.2518594 15,12.5625 L15,14.4375 Z M15,9.9375 C15,10.2481406 14.7481406,10.5 14.4375,10.5 L12.5625,10.5 C12.2518594,10.5 12,10.2481406 12,9.9375 L12,8.0625 C12,7.75185937 12.2518594,7.5 12.5625,7.5 L14.4375,7.5 C14.7481406,7.5 15,7.75185937 15,8.0625 L15,9.9375 Z M15,5.4375 C15,5.74814062 14.7481406,6 14.4375,6 L12.5625,6 C12.2518594,6 12,5.74814062 12,5.4375 L12,3.5625 C12,3.25185938 12.2518594,3 12.5625,3 L14.4375,3 C14.7481406,3 15,3.25185938 15,3.5625 L15,5.4375 Z" id="path-1"></path>
    </defs>
    <g id="Page-1" stroke="none" stroke-width="1" fill="none" fill-rule="evenodd">
        <g id="1.main" transform="translate(-1076.000000, -8337.000000)">
            <g id="footer" transform="translate(-78.000000, 8099.000000)">
                <g id="company_info">
                    <g id="메뉴" transform="translate(1151.000000, 154.000000)">
                        <g id="location" transform="translate(3.000000, 84.000000)">
                            <mask id="mask-2" fill="white">
                                <use xlink:href="#path-1"></use>
                            </mask>
                            <use id="building" fill="#E39650" fill-rule="nonzero" xlink:href="#path-1"></use>
                        </g>
                    </g>
                </g>
            </g>
        </g>
    </g>
</svg>