<?xml version="1.0" encoding="UTF-8"?>
<svg width="24px" height="24px" viewBox="0 0 24 24" version="1.1" xmlns="http://www.w3.org/2000/svg" xmlns:xlink="http://www.w3.org/1999/xlink">
    <!-- Generator: Sketch 52.5 (67469) - http://www.bohemiancoding.com/sketch -->
    <title>instagram</title>
    <desc>Created with Sketch.</desc>
    <g id="Page-1" stroke="none" stroke-width="1" fill="none" fill-rule="evenodd">
        <g id="1.main" transform="translate(-1118.000000, -8427.000000)" fill="#4A4A4A" fill-rule="nonzero">
            <g id="footer" transform="translate(-78.000000, 8099.000000)">
                <g id="last" transform="translate(328.000000, 327.000000)">
                    <g id="social" transform="translate(785.000000, 0.000000)">
                        <path d="M95.0026771,6.84539877 C91.5974345,6.84539877 88.8507529,9.59208031 88.8507529,12.9973229 C88.8507529,16.4025655 91.5974345,19.1492471 95.0026771,19.1492471 C98.4079197,19.1492471 101.154601,16.4025655 101.154601,12.9973229 C101.154601,9.59208031 98.4079197,6.84539877 95.0026771,6.84539877 Z M95.0026771,16.9968767 C92.8021194,16.9968767 91.0031233,15.2032348 91.0031233,12.9973229 C91.0031233,10.791411 92.7967652,8.9977691 95.0026771,8.9977691 C97.208589,8.9977691 99.0022309,10.791411 99.0022309,12.9973229 C99.0022309,15.2032348 97.2032348,16.9968767 95.0026771,16.9968767 Z M102.84116,6.59375349 C102.84116,7.39152259 102.198661,8.02866704 101.406247,8.02866704 C100.608477,8.02866704 99.971333,7.38616843 99.971333,6.59375349 C99.971333,5.80133854 100.613832,5.15883993 101.406247,5.15883993 C102.198661,5.15883993 102.84116,5.80133854 102.84116,6.59375349 Z M106.915672,8.05008366 C106.824651,6.127942 106.385611,4.42532069 104.977468,3.02253207 C103.574679,1.61974345 101.872058,1.18070273 99.9499163,1.08432794 C97.968879,0.971890686 92.031121,0.971890686 90.0500837,1.08432794 C88.1332962,1.17534858 86.4306748,1.61438929 85.0225321,3.01717791 C83.6143893,4.41996654 83.1807027,6.12258784 83.0843279,8.0447295 C82.9718907,10.0257669 82.9718907,15.9635248 83.0843279,17.9445622 C83.1753486,19.8667038 83.6143893,21.5693252 85.0225321,22.9721138 C86.4306748,24.3749024 88.127942,24.8139431 90.0500837,24.9103179 C92.031121,25.0227552 97.968879,25.0227552 99.9499163,24.9103179 C101.872058,24.8192973 103.574679,24.3802566 104.977468,22.9721138 C106.380257,21.5693252 106.819297,19.8667038 106.915672,17.9445622 C107.028109,15.9635248 107.028109,10.031121 106.915672,8.05008366 Z M104.356386,20.0701617 C103.938762,21.1195761 103.130284,21.9280535 102.075516,22.3510318 C100.49604,22.9774679 96.7481316,22.8329057 95.0026771,22.8329057 C93.2572225,22.8329057 89.5039598,22.9721138 87.9298383,22.3510318 C86.8804239,21.9334077 86.0719465,21.1249303 85.6489682,20.0701617 C85.0225321,18.490686 85.1670943,14.7427775 85.1670943,12.9973229 C85.1670943,11.2518684 85.0278862,7.49860569 85.6489682,5.9244841 C86.0665923,4.87506972 86.8750697,4.0665923 87.9298383,3.64361405 C89.509314,3.01717791 93.2572225,3.1617401 95.0026771,3.1617401 C96.7481316,3.1617401 100.501394,3.02253207 102.075516,3.64361405 C103.12493,4.06123815 103.933408,4.86971556 104.356386,5.9244841 C104.982822,7.50395984 104.83826,11.2518684 104.83826,12.9973229 C104.83826,14.7427775 104.982822,18.4960402 104.356386,20.0701617 Z" id="instagram"></path>
                    </g>
                </g>
            </g>
        </g>
    </g>
</svg>