<?xml version="1.0" encoding="UTF-8"?>
<svg width="24px" height="24px" viewBox="0 0 24 24" version="1.1" xmlns="http://www.w3.org/2000/svg" xmlns:xlink="http://www.w3.org/1999/xlink">
    <!-- Generator: Sketch 52.5 (67469) - http://www.bohemiancoding.com/sketch -->
    <title>facebook-square</title>
    <desc>Created with Sketch.</desc>
    <g id="Page-1" stroke="none" stroke-width="1" fill="none" fill-rule="evenodd">
        <g id="1.main" transform="translate(-1077.000000, -8427.000000)" fill="#4A4A4A">
            <g id="footer" transform="translate(-78.000000, 8099.000000)">
                <g id="last" transform="translate(328.000000, 327.000000)">
                    <g id="social" transform="translate(785.000000, 0.000000)">
                        <path d="M66,3.57142857 L66,22.4285714 C66,23.8482143 64.8482143,25 63.4285714,25 L58.8589286,25 L58.8589286,15.5071429 L62.1053571,15.5071429 L62.5714286,11.8857143 L58.8589286,11.8857143 L58.8589286,9.57142857 C58.8589286,8.52142857 59.1482143,7.80892857 60.6535714,7.80892857 L62.5714286,7.80892857 L62.5714286,4.57321429 C62.2392857,4.53035714 61.1035714,4.42857143 59.775,4.42857143 C57.0107143,4.42857143 55.1142857,6.11607143 55.1142857,9.21785714 L55.1142857,11.8910714 L51.8571429,11.8910714 L51.8571429,15.5125 L55.1196429,15.5125 L55.1196429,25 L44.5714286,25 C43.1517857,25 42,23.8482143 42,22.4285714 L42,3.57142857 C42,2.15178571 43.1517857,1 44.5714286,1 L63.4285714,1 C64.8482143,1 66,2.15178571 66,3.57142857 Z" id="facebook-square"></path>
                    </g>
                </g>
            </g>
        </g>
    </g>
</svg>