<?xml version="1.0" encoding="UTF-8"?>
<svg width="28px" height="24px" viewBox="0 0 28 24" version="1.1" xmlns="http://www.w3.org/2000/svg" xmlns:xlink="http://www.w3.org/1999/xlink">
    <!-- Generator: Sketch 52.5 (67469) - http://www.bohemiancoding.com/sketch -->
    <title>cubes</title>
    <desc>Created with Sketch.</desc>
    <g id="Page-1" stroke="none" stroke-width="1" fill="none" fill-rule="evenodd">
        <g id="1.main" transform="translate(-1073.000000, -8295.000000)" fill="#E39650" fill-rule="nonzero">
            <g id="footer" transform="translate(-78.000000, 8099.000000)">
                <g id="company_info">
                    <g id="메뉴" transform="translate(1151.000000, 154.000000)">
                        <g id="career" transform="translate(0.000000, 42.000000)">
                            <path d="M26.172079,11.6893204 L20.9976565,9.75025109 L20.9976565,3.93839973 C20.9976565,3.13491798 20.4994978,2.41714094 19.744225,2.13324406 L14.3876799,0.124539672 C13.9537998,-0.041513224 13.4717107,-0.041513224 13.0324741,0.124539672 L7.67592903,2.13324406 C6.92065618,2.41714094 6.42249749,3.13491798 6.42249749,3.93839973 L6.42249749,9.75025109 L1.24807499,11.6893204 C0.498158688,11.9732173 0,12.6909943 0,13.4944761 L0,19.3920321 C0,20.1205223 0.412453967,20.7900904 1.06595246,21.1168396 L6.42249749,23.7951122 C6.96350854,24.0682959 7.60629394,24.0682959 8.14730499,23.7951122 L13.7127553,21.0097087 L19.2782056,23.7951122 C19.8192166,24.0682959 20.462002,24.0682959 21.0030131,23.7951122 L26.3595581,21.1168396 C27.0130566,20.7900904 27.4255105,20.1205223 27.4255105,19.3920321 L27.4255105,13.4944761 C27.4255105,12.6909943 26.9273519,11.9732173 26.172079,11.6893204 Z M19.1764312,9.79310345 L14.6233679,11.5018413 L14.6233679,7.8486776 L19.1764312,5.86675594 L19.1764312,9.79310345 Z M8.24907934,3.8634081 L13.7127553,1.8172079 L19.1764312,3.8634081 L19.1764312,3.89554737 L13.7127553,6.11315701 L8.24907934,3.89554737 L8.24907934,3.8634081 Z M12.7485772,19.4563107 L8.19551389,21.7328423 L8.19551389,17.4958152 L12.7485772,15.4174757 L12.7485772,19.4563107 Z M12.7485772,13.4569802 L7.28490124,15.6745899 L1.82122531,13.4569802 L1.82122531,13.424841 L7.28490124,11.3786408 L12.7485772,13.424841 L12.7485772,13.4569802 Z M25.6042852,19.4563107 L21.051222,21.7328423 L21.051222,17.4958152 L25.6042852,15.4174757 L25.6042852,19.4563107 Z M25.6042852,13.4569802 L20.1406093,15.6745899 L14.6769334,13.4569802 L14.6769334,13.424841 L20.1406093,11.3786408 L25.6042852,13.424841 L25.6042852,13.4569802 Z" id="cubes"></path>
                        </g>
                    </g>
                </g>
            </g>
        </g>
    </g>
</svg>