<?xml version="1.0" encoding="UTF-8"?>
<svg width="20px" height="20px" viewBox="0 0 20 20" version="1.1" xmlns="http://www.w3.org/2000/svg" xmlns:xlink="http://www.w3.org/1999/xlink">
    <!-- Generator: Sketch 52.5 (67469) - http://www.bohemiancoding.com/sketch -->
    <title>registered</title>
    <desc>Created with Sketch.</desc>
    <defs>
        <path d="M11.1839919,8.04334677 C11.1839919,8.79334677 10.7875806,9.18975806 10.0375806,9.18975806 L8.83290323,9.18975806 L8.83290323,6.92604839 L9.77556452,6.92604839 C10.9315323,6.92604839 11.1839919,7.27979839 11.1839919,8.04334677 Z M20,10 C20,15.5228629 15.5228629,20 10,20 C4.4771371,20 0,15.5228629 0,10 C0,4.4771371 4.4771371,0 10,0 C15.5228629,0 20,4.4771371 20,10 Z M14.3310887,14.2102419 C12.4468548,10.789879 12.5851613,11.0394355 12.5285887,10.9449194 C13.4734274,10.3331452 14.058629,9.21189516 14.058629,7.94145161 C14.058629,5.75419355 12.7884677,4.34258065 9.80467742,4.34258065 L6.95520161,4.34258065 C6.42072581,4.34258065 5.98745968,4.77584677 5.98745968,5.31032258 L5.98745968,14.6774194 C5.98745968,15.2118952 6.42072581,15.6451613 6.95520161,15.6451613 L7.86516129,15.6451613 C8.3996371,15.6451613 8.83290323,15.2118952 8.83290323,14.6774194 L8.83290323,11.7877823 L9.8633871,11.7877823 L11.6427823,15.1320161 C11.8108267,15.4478383 12.1393906,15.6451968 12.4971371,15.6452016 L13.4835887,15.6452016 C14.2199194,15.6451613 14.686371,14.8552419 14.3310887,14.2102419 Z" id="path-1"></path>
    </defs>
    <g id="Page-1" stroke="none" stroke-width="1" fill="none" fill-rule="evenodd">
        <g id="1.main" transform="translate(-196.000000, -8344.000000)">
            <g id="footer" transform="translate(-78.000000, 8099.000000)">
                <g id="company_info">
                    <g id="사업자등록번호" transform="translate(274.000000, 245.000000)">
                        <mask id="mask-2" fill="white">
                            <use xlink:href="#path-1"></use>
                        </mask>
                        <use id="registered" fill="#E39650" fill-rule="nonzero" xlink:href="#path-1"></use>
                    </g>
                </g>
            </g>
        </g>
    </g>
</svg>