<?xml version="1.0" encoding="UTF-8"?>
<svg width="20px" height="20px" viewBox="0 0 20 20" version="1.1" xmlns="http://www.w3.org/2000/svg" xmlns:xlink="http://www.w3.org/1999/xlink">
    <!-- Generator: Sketch 52.5 (67469) - http://www.bohemiancoding.com/sketch -->
    <title>fax</title>
    <desc>Created with Sketch.</desc>
    <defs>
        <path d="M2.50000001,5.00000002 L1.25000001,5.00000002 C0.559765628,5.00000002 3.90798505e-14,5.55976565 3.90798505e-14,6.25000003 L3.90798505e-14,18.7500001 C3.90798505e-14,19.4402345 0.559765628,20.0000001 1.25000001,20.0000001 L2.50000001,20.0000001 C3.19023439,20.0000001 3.75000002,19.4402345 3.75000002,18.7500001 L3.75000002,6.25000003 C3.75000002,5.55976565 3.19023439,5.00000002 2.50000001,5.00000002 Z M18.7500001,6.25000003 L18.7500001,3.01757814 C18.7500001,2.68593751 18.6183595,2.36835939 18.3839845,2.13359376 L16.6160157,0.366015627 C16.3816407,0.131640626 16.063672,-7.46069873e-14 15.7320313,-7.46069873e-14 L6.25000003,-7.46069873e-14 C5.55976565,-7.46069873e-14 5.00000003,0.559765628 5.00000003,1.25000001 L5.00000003,18.7500001 C5.00000003,19.4402345 5.55976565,20.0000001 6.25000003,20.0000001 L18.7500001,20.0000001 C19.4402345,20.0000001 20.0000001,19.4402345 20.0000001,18.7500001 L20.0000001,7.50000004 C20.0000001,6.80976566 19.4402345,6.25000003 18.7500001,6.25000003 Z M11.2500001,16.8750001 C11.2500001,17.2203126 10.9703126,17.5000001 10.6250001,17.5000001 L9.37500005,17.5000001 C9.02968755,17.5000001 8.75000004,17.2203126 8.75000004,16.8750001 L8.75000004,15.6250001 C8.75000004,15.2796876 9.02968755,15.0000001 9.37500005,15.0000001 L10.6250001,15.0000001 C10.9703126,15.0000001 11.2500001,15.2796876 11.2500001,15.6250001 L11.2500001,16.8750001 Z M11.2500001,11.8750001 C11.2500001,12.2203126 10.9703126,12.5000001 10.6250001,12.5000001 L9.37500005,12.5000001 C9.02968755,12.5000001 8.75000004,12.2203126 8.75000004,11.8750001 L8.75000004,10.6250001 C8.75000004,10.2796876 9.02968755,10 9.37500005,10 L10.6250001,10 C10.9703126,10 11.2500001,10.2796876 11.2500001,10.6250001 L11.2500001,11.8750001 Z M16.2500001,16.8750001 C16.2500001,17.2203126 15.9703126,17.5000001 15.6250001,17.5000001 L14.3750001,17.5000001 C14.0296876,17.5000001 13.7500001,17.2203126 13.7500001,16.8750001 L13.7500001,15.6250001 C13.7500001,15.2796876 14.0296876,15.0000001 14.3750001,15.0000001 L15.6250001,15.0000001 C15.9703126,15.0000001 16.2500001,15.2796876 16.2500001,15.6250001 L16.2500001,16.8750001 Z M16.2500001,11.8750001 C16.2500001,12.2203126 15.9703126,12.5000001 15.6250001,12.5000001 L14.3750001,12.5000001 C14.0296876,12.5000001 13.7500001,12.2203126 13.7500001,11.8750001 L13.7500001,10.6250001 C13.7500001,10.2796876 14.0296876,10 14.3750001,10 L15.6250001,10 C15.9703126,10 16.2500001,10.2796876 16.2500001,10.6250001 L16.2500001,11.8750001 Z M16.8750001,7.50000004 L6.87500003,7.50000004 L6.87500003,1.87500001 L15.0000001,1.87500001 L15.0000001,3.12500002 C15.0000001,3.47031252 15.2796876,3.75000002 15.6250001,3.75000002 L16.8750001,3.75000002 L16.8750001,7.50000004 Z" id="path-1"></path>
    </defs>
    <g id="Page-1" stroke="none" stroke-width="1" fill="none" fill-rule="evenodd">
        <g id="1.main" transform="translate(-404.000000, -8312.000000)">
            <g id="footer" transform="translate(-78.000000, 8099.000000)">
                <g id="company_info">
                    <g id="팩스" transform="translate(482.000000, 213.000000)">
                        <mask id="mask-2" fill="white">
                            <use xlink:href="#path-1"></use>
                        </mask>
                        <use id="fax" fill="#E39650" fill-rule="nonzero" xlink:href="#path-1"></use>
                    </g>
                </g>
            </g>
        </g>
    </g>
</svg>