<?xml version="1.0" encoding="UTF-8"?>
<svg width="25px" height="25px" viewBox="0 0 25 25" version="1.1" xmlns="http://www.w3.org/2000/svg" xmlns:xlink="http://www.w3.org/1999/xlink">
    <!-- Generator: Sketch 52.5 (67469) - http://www.bohemiancoding.com/sketch -->
    <title>twitter-square</title>
    <desc>Created with Sketch.</desc>
    <defs>
        <path d="M146.321429,1 L126.678571,1 C125.199777,1 124,2.19977679 124,3.67857143 L124,23.3214286 C124,24.8002232 125.199777,26 126.678571,26 L146.321429,26 C147.800223,26 149,24.8002232 149,23.3214286 L149,3.67857143 C149,2.19977679 147.800223,1 146.321429,1 Z M143.592634,9.86160714 C143.603795,10.0178571 143.603795,10.1796875 143.603795,10.3359375 C143.603795,15.1741071 139.920759,20.7488839 133.190848,20.7488839 C131.114955,20.7488839 129.189732,20.1462054 127.571429,19.1082589 C127.867188,19.1417411 128.151786,19.1529018 128.453125,19.1529018 C130.166295,19.1529018 131.739955,18.5725446 132.995536,17.5904018 C131.388393,17.5569196 130.037946,16.5022321 129.574777,15.0513393 C130.138393,15.1350446 130.646205,15.1350446 131.226562,14.984375 C129.552455,14.6439732 128.296875,13.1707589 128.296875,11.390625 L128.296875,11.3459821 C128.782366,11.6194196 129.351562,11.7868304 129.948661,11.8091518 C128.929045,11.1309357 128.317192,9.98685419 128.319196,8.76227679 C128.319196,8.08147321 128.497768,7.45647321 128.815848,6.91517857 C130.618304,9.13616071 133.324777,10.5870536 136.360491,10.7433036 C135.841518,8.26004464 137.699777,6.24553571 139.93192,6.24553571 C140.986607,6.24553571 141.935268,6.68638393 142.604911,7.40066964 C143.430804,7.24441964 144.223214,6.9375 144.926339,6.51897321 C144.652902,7.3671875 144.078125,8.08147321 143.319196,8.53348214 C144.055804,8.45535714 144.770089,8.24888393 145.428571,7.96428571 C144.93192,8.6953125 144.30692,9.34263393 143.592634,9.86160714 Z" id="path-1"></path>
    </defs>
    <g id="Page-1" stroke="none" stroke-width="1" fill="none" fill-rule="evenodd">
        <g id="1.main" transform="translate(-1159.000000, -8427.000000)">
            <g id="footer" transform="translate(-78.000000, 8099.000000)">
                <g id="last" transform="translate(328.000000, 327.000000)">
                    <g id="social" transform="translate(785.000000, 0.000000)">
                        <mask id="mask-2" fill="white">
                            <use xlink:href="#path-1"></use>
                        </mask>
                        <use id="twitter-square" fill="#4A4A4A" fill-rule="nonzero" xlink:href="#path-1"></use>
                    </g>
                </g>
            </g>
        </g>
    </g>
</svg>