<?xml version="1.0" encoding="UTF-8"?>
<svg width="25px" height="25px" viewBox="0 0 25 25" version="1.1" xmlns="http://www.w3.org/2000/svg" xmlns:xlink="http://www.w3.org/1999/xlink">
    <!-- Generator: Sketch 52.5 (67469) - http://www.bohemiancoding.com/sketch -->
    <title>naver_blog</title>
    <desc>Created with Sketch.</desc>
    <defs>
        <polygon id="path-1" points="0 0.163377193 24.8497787 0.163377193 24.8497787 25 0 25"></polygon>
    </defs>
    <g id="Page-1" stroke="none" stroke-width="1" fill="none" fill-rule="evenodd">
        <g id="1.main" transform="translate(-1035.000000, -8426.000000)">
            <g id="footer" transform="translate(-78.000000, 8099.000000)">
                <g id="last" transform="translate(328.000000, 327.000000)">
                    <g id="social" transform="translate(785.000000, 0.000000)">
                        <g id="naver_blog">
                            <g id="Group-3" transform="translate(0.000000, 0.055921)">
                                <mask id="mask-2" fill="white">
                                    <use xlink:href="#path-1"></use>
                                </mask>
                                <g id="Clip-2"></g>
                                <path d="M1.71660088,5.87778509 C1.70629386,8.10848684 1.71155702,10.3407237 1.71660088,12.5733991 C1.76550439,14.6337061 3.54883772,16.4622149 5.60651316,16.5753728 C7.31572368,16.6163816 9.02625,16.5690132 10.7369956,16.599057 C11.1323904,17.4420395 11.5560746,18.2727412 11.9626535,19.1119956 C12.0753728,19.321864 12.1569518,19.5898465 12.4207675,19.6505921 C12.6896272,19.5992763 12.7714254,19.3273465 12.8837061,19.1183553 C13.2959868,18.2764693 13.7130921,17.4385307 14.1214254,16.5937939 C15.8293202,16.5753728 17.53875,16.6126535 19.2479605,16.5753728 C21.3027851,16.4608991 23.0810746,14.6361184 23.1339254,12.5775658 C23.1426974,10.7981798 23.1350219,9.01769737 23.1402851,7.23721491 C23.1249342,6.45344298 23.2144079,5.64686404 22.9532237,4.89072368 C22.4442325,3.20256579 20.7821711,1.92866228 19.0098026,1.92756579 C14.6214254,1.92361842 10.2317325,1.92361842 5.84291667,1.92756579 C3.71901316,1.91660088 1.80125,3.75826754 1.71660088,5.87778509 M3.4389693,0.273837719 C4.22712719,0.11375 5.04335526,0.176469298 5.84401316,0.170767544 C10.7701096,0.176469298 15.6962061,0.164188596 20.6220833,0.176469298 C22.8622149,0.22625 24.8391886,2.25760965 24.8301974,4.49839912 C24.855636,9.87800439 24.8494956,15.259364 24.8481798,20.6400658 C24.8481798,22.9407237 22.7946711,25.0038816 20.4889693,24.9986184 C15.0690132,24.9962061 9.64927632,25.0054167 4.22932018,24.9951096 C1.97778509,24.9277851 0.00739035088,22.8999342 0.00212719298,20.6475219 C-0.000285087719,15.6380921 -0.00532894737,10.6277851 0.0174780702,5.61791667 C0.00739035088,5.03480263 -0.00291666667,4.44730263 0.0687938596,3.86769737 C0.355197368,2.14225877 1.73875,0.677346491 3.4389693,0.273837719" id="Fill-1" fill="#4A4A4A" mask="url(#mask-2)"></path>
                            </g>
                            <path d="M8.91232456,6.26769737 C9.30399123,6.27997807 9.70333333,6.36572368 10.017807,6.60673246 C10.5770175,7.01484649 10.8123246,7.73962719 10.7985088,8.41002193 C10.7934649,9.57120614 10.8009211,10.7323904 10.7956579,11.8916009 C10.3708772,11.8955482 9.94653509,11.8955482 9.52285088,11.8929167 C9.50355263,10.7323904 9.54719298,9.56989035 9.49828947,8.41002193 C9.50114035,8.02690789 9.29894737,7.64423246 8.91232456,7.53239035 C8.90486842,7.11089912 8.90991228,6.69006579 8.91232456,6.26769737" id="Fill-4" fill="#4A4A4A"></path>
                            <path d="M6.02578947,9.22703947 C5.38105263,9.45554825 5.35035088,10.4974342 5.97732456,10.7713377 C6.4979386,11.0485307 7.21723684,10.6241886 7.16723684,10.0184868 C7.22359649,9.42989035 6.55714912,8.97769737 6.02578947,9.22703947 M4.28061404,11.8825219 C4.29991228,10.0529167 4.25890351,8.22155702 4.30385965,6.39304825 C4.72864035,6.40576754 5.15210526,6.40072368 5.57578947,6.40576754 C5.5602193,7.08844298 5.58324561,7.7735307 5.55912281,8.45664474 C6.18083333,7.83186404 7.27864035,7.85817982 7.89267544,8.47857456 C8.74092105,9.29546053 8.71175439,10.8500658 7.80320175,11.6108114 C7.18149123,12.1494079 6.10539474,12.1807675 5.56789474,11.5037939 C5.57052632,11.6011623 5.5729386,11.7948026 5.57578947,11.8915132 C5.14442982,11.8954605 4.71175439,11.8998465 4.28061404,11.8825219" id="Fill-6" fill="#4A4A4A"></path>
                            <path d="M13.5864474,9.20464912 C12.9145175,9.39149123 12.8250439,10.4465351 13.4456579,10.7533333 C13.9612281,11.0638596 14.7340351,10.6452193 14.6647368,10.0235088 C14.7340351,9.45925439 14.1070614,9.00508772 13.5864474,9.20464912 M13.0939035,8.10508772 C13.8945614,7.87921053 14.8441228,8.00201754 15.4634211,8.59302632 C16.2897368,9.36517544 16.2285526,10.878114 15.3099123,11.5550877 C14.2311842,12.3719737 12.3197807,12.1057456 11.7963158,10.761886 C11.3522368,9.70881579 11.9651754,8.37548246 13.0939035,8.10508772" id="Fill-8" fill="#4A4A4A"></path>
                            <path d="M18.5313596,9.19116228 C17.8967105,9.41024123 17.8381579,10.4227412 18.4328947,10.7220833 C18.9460526,11.0126535 19.6932018,10.6363377 19.6649123,10.0183553 C19.7342105,9.43129386 19.0688596,8.9391886 18.5313596,9.19116228 M17.5285088,8.30717105 C18.1475877,7.86747807 19.1122807,7.86747807 19.6217105,8.48370614 C19.6190789,8.39554825 19.6190789,8.21945175 19.6190789,8.13129386 C20.0462719,8.12734649 20.4752193,8.12734649 20.9035088,8.13129386 C20.9035088,9.34028509 20.9063596,10.5492763 20.9035088,11.7584868 C20.8984649,12.4117763 20.6682018,13.1122149 20.1245614,13.5130921 C19.652193,13.8714254 19.0302632,13.9111184 18.4596491,13.8856798 C18.4614035,13.490943 18.4596491,13.096864 18.4585526,12.7021272 C18.7605263,12.68875 19.1100877,12.703443 19.3464912,12.4801974 C19.6089912,12.2253728 19.6089912,11.8352412 19.6344298,11.4955482 C18.9945175,12.1025658 17.9173246,12.1198904 17.2739035,11.5104605 C16.379386,10.6652851 16.5151316,9.00629386 17.5285088,8.30717105" id="Fill-10" fill="#4A4A4A"></path>
                        </g>
                    </g>
                </g>
            </g>
        </g>
    </g>
</svg>