<?xml version="1.0" encoding="UTF-8"?>
<svg width="27px" height="24px" viewBox="0 0 27 24" version="1.1" xmlns="http://www.w3.org/2000/svg" xmlns:xlink="http://www.w3.org/1999/xlink">
    <!-- Generator: Sketch 52.5 (67469) - http://www.bohemiancoding.com/sketch -->
    <title>bullhorn</title>
    <desc>Created with Sketch.</desc>
    <g id="Page-1" stroke="none" stroke-width="1" fill="none" fill-rule="evenodd">
        <g id="1.main" transform="translate(-1073.000000, -8253.000000)" fill="#E39650" fill-rule="nonzero">
            <g id="footer" transform="translate(-78.000000, 8099.000000)">
                <g id="company_info">
                    <g id="메뉴" transform="translate(1151.000000, 154.000000)">
                        <g id="news">
                            <path d="M27,11.25 C27,10.1423438 26.3929687,9.185625 25.5,8.66625 L25.5,1.50046875 C25.5,1.0903125 25.1728125,0 24,0 C23.66625,0 23.3348437,0.1115625 23.0634375,0.3290625 L19.0776562,3.51796875 C17.075625,5.11828125 14.5621875,6 12,6 L3,6 C1.34296875,6 0,7.34296875 0,9 L0,13.5 C0,15.1570313 1.34296875,16.5 3,16.5 L4.5796875,16.5 C4.51453125,16.99125 4.4775,17.4909375 4.4775,18 C4.4775,19.8642187 4.9115625,21.6257813 5.675625,23.2003125 C5.91890625,23.7014062 6.45,24 7.006875,24 L10.48875,24 C11.7098437,24 12.4429687,22.60125 11.7028125,21.63 C10.9340625,20.62125 10.4770312,19.363125 10.4770312,18 C10.4770312,17.4792188 10.5529687,16.9785937 10.68375,16.5 L12,16.5 C14.5621875,16.5 17.075625,17.3817188 19.0771875,18.9820312 L23.0629687,22.1709375 C23.3288032,22.3836656 23.6590593,22.4997015 23.9995312,22.5 C25.1676562,22.5 25.4995312,21.4321875 25.4995312,21 L25.4995312,13.8342187 C26.3929687,13.314375 27,12.3576562 27,11.25 Z M22.5,17.8790625 L20.9507812,16.6396875 C18.4195312,14.6146875 15.24,13.5 12,13.5 L12,9 C15.24,9 18.4195312,7.8853125 20.9507812,5.8603125 L22.5,4.6209375 L22.5,17.8790625 Z" id="bullhorn"></path>
                        </g>
                    </g>
                </g>
            </g>
        </g>
    </g>
</svg>