<svg width="40" height="40" viewBox="0 0 40 40" fill="none" xmlns="http://www.w3.org/2000/svg">
<rect width="40" height="40" rx="20" fill="#464646" fill-opacity="0.5"/>
<path d="M20.0007 10C17.2849 10 16.944 10.0119 15.8774 10.0604C14.8128 10.1092 14.0861 10.2777 13.4502 10.525C12.7925 10.7804 12.2346 11.1221 11.6788 11.6781C11.1225 12.234 10.7808 12.7919 10.5246 13.4494C10.2767 14.0854 10.1079 14.8123 10.06 15.8765C10.0125 16.9431 10 17.2842 10 20C10 22.7158 10.0121 23.0556 10.0604 24.1223C10.1094 25.1869 10.2779 25.9135 10.525 26.5494C10.7806 27.2071 11.1223 27.765 11.6784 28.3208C12.234 28.8771 12.7919 29.2196 13.4492 29.475C14.0855 29.7223 14.8123 29.8908 15.8767 29.9396C16.9434 29.9881 17.284 30 19.9997 30C22.7158 30 23.0556 29.9881 24.1222 29.9396C25.1868 29.8908 25.9143 29.7223 26.5506 29.475C27.2081 29.2196 27.7652 28.8771 28.3208 28.3208C28.8771 27.765 29.2187 27.2071 29.475 26.5496C29.7208 25.9135 29.8896 25.1867 29.9396 24.1225C29.9875 23.0558 30 22.7158 30 20C30 17.2842 29.9875 16.9433 29.9396 15.8767C29.8896 14.8121 29.7208 14.0854 29.475 13.4496C29.2187 12.7919 28.8771 12.234 28.3208 11.6781C27.7646 11.1219 27.2083 10.7802 26.55 10.525C25.9125 10.2777 25.1854 10.1092 24.1208 10.0604C23.0541 10.0119 22.7145 10 19.9978 10H20.0007ZM19.1036 11.8021C19.3699 11.8017 19.667 11.8021 20.0007 11.8021C22.6708 11.8021 22.9872 11.8117 24.0416 11.8596C25.0166 11.9042 25.5458 12.0671 25.8983 12.204C26.365 12.3852 26.6977 12.6019 27.0475 12.9519C27.3975 13.3019 27.6141 13.6352 27.7958 14.1019C27.9327 14.454 28.0958 14.9831 28.1402 15.9581C28.1881 17.0123 28.1985 17.329 28.1985 19.9977C28.1985 22.6665 28.1881 22.9831 28.1402 24.0373C28.0956 25.0123 27.9327 25.5415 27.7958 25.8935C27.6146 26.3602 27.3975 26.6925 27.0475 27.0423C26.6975 27.3923 26.3652 27.609 25.8983 27.7902C25.5462 27.9277 25.0166 28.0902 24.0416 28.1348C22.9874 28.1827 22.6708 28.1931 20.0007 28.1931C17.3305 28.1931 17.014 28.1827 15.9599 28.1348C14.9848 28.0898 14.4557 27.9269 14.103 27.79C13.6363 27.6087 13.303 27.3921 12.9529 27.0421C12.6029 26.6921 12.3863 26.3596 12.2046 25.8927C12.0677 25.5406 11.9046 25.0115 11.8602 24.0365C11.8123 22.9823 11.8027 22.6656 11.8027 19.9952C11.8027 17.3248 11.8123 17.0098 11.8602 15.9556C11.9048 14.9806 12.0677 14.4515 12.2046 14.099C12.3859 13.6323 12.6029 13.299 12.9529 12.949C13.303 12.599 13.6363 12.3823 14.103 12.2006C14.4555 12.0631 14.9848 11.9006 15.9599 11.8558C16.8824 11.8142 17.2399 11.8017 19.1036 11.7996V11.8021ZM25.3387 13.4625C25.1013 13.4625 24.8693 13.5329 24.672 13.6648C24.4746 13.7966 24.3208 13.9841 24.23 14.2034C24.1392 14.4227 24.1154 14.664 24.1618 14.8968C24.2081 15.1295 24.3224 15.3434 24.4903 15.5112C24.6582 15.679 24.872 15.7932 25.1048 15.8395C25.3377 15.8857 25.5789 15.8619 25.7982 15.771C26.0175 15.6801 26.2049 15.5263 26.3367 15.3289C26.4685 15.1315 26.5388 14.8994 26.5387 14.6621C26.5387 13.9996 26.0012 13.4621 25.3387 13.4621V13.4625ZM20.0007 14.8646C17.1647 14.8646 14.8653 17.164 14.8653 20C14.8653 22.836 17.1647 25.1344 20.0007 25.1344C22.8368 25.1344 25.1356 22.836 25.1356 20C25.1356 17.164 22.8366 14.8646 20.0005 14.8646H20.0007ZM20.0007 16.6667C21.8416 16.6667 23.3341 18.159 23.3341 20C23.3341 21.8408 21.8416 23.3333 20.0007 23.3333C18.1597 23.3333 16.6674 21.8408 16.6674 20C16.6674 18.159 18.1597 16.6667 20.0007 16.6667Z" fill="white"/>
</svg>
