<svg width="40" height="40" viewBox="0 0 40 40" fill="none" xmlns="http://www.w3.org/2000/svg">
<rect width="40" height="40" rx="20" fill="#464646" fill-opacity="0.5"/>
<g clip-path="url(#clip0_1148_12861)">
<path d="M20 11C14.4763 11 10 14.4752 10 18.7711C10 21.3187 11.5863 23.5799 14.0287 24.9991C14.5415 25.2983 14.0939 26.0378 14.0939 26.0378L12.086 28.6238C12.0513 28.7307 12.0817 28.8418 12.1599 28.9188C12.2121 28.9701 12.286 29 12.3642 29C12.425 29 12.4859 28.9786 12.538 28.9359C12.538 28.9359 13.7679 28.6922 15.4933 27.863C16.9013 27.2389 18.2008 26.4096 18.2008 26.4096C18.7875 26.4909 19.3916 26.5379 20 26.5379C25.5237 26.5379 30 23.0584 30 18.7668C30 14.4752 25.5237 11 20 11Z" fill="white"/>
<path fill-rule="evenodd" clip-rule="evenodd" d="M12.59 16.4585H15.7278C16.0842 16.4585 16.371 16.7406 16.371 17.0911C16.371 17.4416 16.0842 17.7238 15.7278 17.7238H14.9412V20.998V21.028C14.9412 21.4084 14.6239 21.7204 14.2371 21.7204C13.8503 21.7204 13.5331 21.4127 13.5331 21.028V20.998V17.7195H12.59C12.2554 17.6981 11.9946 17.4245 11.9946 17.0911C11.9946 16.7577 12.2554 16.4841 12.59 16.4585ZM20.0652 21.3614C20.0783 21.3366 20.0904 21.311 20.101 21.2846C20.2013 21.512 20.4221 21.6773 20.6822 21.6991V21.7162H23.3115V21.7034C23.5957 21.7034 23.8348 21.5071 23.896 21.2454C23.994 21.5134 24.2549 21.7033 24.5588 21.7033C24.9455 21.7033 25.2628 21.3955 25.2628 21.0108V20.0362L25.5192 19.784L26.7448 21.4126C26.8751 21.5793 27.0751 21.6862 27.3054 21.6862C27.6922 21.6862 28.0094 21.3784 28.0094 20.9937C28.0094 20.827 27.9529 20.6774 27.853 20.5577V20.562L26.5231 18.7923L27.6183 17.7109L27.6531 17.6767L27.6661 17.6681C27.7791 17.5442 27.8443 17.3817 27.8443 17.2065C27.8443 16.8261 27.5314 16.514 27.1402 16.514C26.9316 16.514 26.7404 16.6038 26.6144 16.7491L25.2628 18.0785V17.2065C25.2628 16.8261 24.9455 16.514 24.5588 16.514C24.172 16.514 23.8547 16.8261 23.8547 17.2065V20.864C23.7588 20.6632 23.5512 20.5236 23.3115 20.5236H21.4514V17.2835H21.4471C21.4471 17.2707 21.4481 17.2568 21.4492 17.2429C21.4503 17.229 21.4514 17.2151 21.4514 17.2023C21.4514 16.8219 21.1341 16.5098 20.7474 16.5098C20.3606 16.5098 20.0433 16.8219 20.0433 17.2023C20.0433 17.2322 20.0433 17.2579 20.0477 17.2835H20.0433V20.6363L18.3703 17.027C18.3094 16.7021 18.0226 16.4585 17.6793 16.4585H17.6575C17.3099 16.4585 17.023 16.7064 16.9665 17.027L15.2586 20.7116C15.2586 20.7116 15.2412 20.7501 15.2325 20.7715C15.2021 20.8527 15.1847 20.9382 15.1847 21.028C15.1847 21.4127 15.5019 21.7204 15.8887 21.7204C16.219 21.7204 16.4972 21.4939 16.571 21.1947L16.8014 20.7074H18.5484L18.7744 21.1947C18.8005 21.3058 18.857 21.4084 18.9352 21.4896H18.9396C18.9591 21.5153 18.9787 21.5337 18.9982 21.5521L18.9983 21.5522C19.0048 21.5583 19.0113 21.5644 19.0178 21.5708C19.0482 21.5965 19.0743 21.6178 19.1091 21.6349C19.1395 21.652 19.1699 21.6691 19.2047 21.682C19.209 21.682 19.2177 21.682 19.2221 21.6862C19.2525 21.6991 19.2873 21.7076 19.322 21.7119H19.3394C19.3742 21.7204 19.4133 21.7247 19.4481 21.7247C19.7175 21.7247 19.9478 21.5794 20.0652 21.3614ZM17.6662 18.8309L17.362 19.4849H17.9704L17.6662 18.8309Z" fill="#464646"/>
</g>
<defs>
<clipPath id="clip0_1148_12861">
<rect width="20" height="18" fill="white" transform="translate(10 11)"/>
</clipPath>
</defs>
</svg>
