<svg xmlns="http://www.w3.org/2000/svg" xmlns:xlink="http://www.w3.org/1999/xlink" width="48" height="48" viewBox="0 0 48 48">
  <defs>
    <circle id="team_left-b" cx="15" cy="15" r="15"/>
    <filter id="team_left-a" width="200%" height="200%" x="-50%" y="-50%" filterUnits="objectBoundingBox">
      <feMorphology in="SourceAlpha" radius="3.5" result="shadowSpreadOuter1"/>
      <feOffset in="shadowSpreadOuter1" result="shadowOffsetOuter1"/>
      <feGaussianBlur in="shadowOffsetOuter1" result="shadowBlurOuter1" stdDeviation="8.5"/>
      <feColorMatrix in="shadowBlurOuter1" values="0 0 0 0 0.42745098   0 0 0 0 0.447058824   0 0 0 0 0.470588235  0 0 0 1 0"/>
    </filter>
  </defs>
  <g fill="none" fill-rule="evenodd" transform="translate(9 9)">
    <use fill="#000" filter="url(#team_left-a)" xlink:href="#team_left-b"/>
    <use fill="#FFF" xlink:href="#team_left-b"/>
    <path fill="#000" d="M20.4371927,15.6740744 C20.4185777,15.7066507 20.3999627,15.7336425 20.3813477,15.7671495 C20.3493298,15.8322273 20.3086256,15.8926574 20.26035,15.9467845 C20.2288938,15.9758967 20.1945943,16.0017773 20.1579674,16.0240368 L17.7752449,19.5534446 C17.4475011,19.988255 16.8548034,20.1248503 16.3698109,19.8773459 C16.1396979,19.7882305 15.962551,19.5993725 15.8883286,19.3640332 C15.8141062,19.128694 15.850852,18.8723776 15.988203,18.6673696 L17.6077097,16.2632398 L10.2640843,16.2632398 C9.75004475,16.2632398 9.33333333,15.8465284 9.33333333,15.3324888 C9.33333333,14.8184492 9.75004475,14.4017378 10.2640843,14.4017378 L17.6077097,14.4017378 L15.988203,11.9985387 C15.8512142,11.7934385 15.8146753,11.5372632 15.8888602,11.3020428 C15.9630451,11.0668224 16.1399416,10.8779613 16.3698109,10.7885624 C16.8549504,10.5422555 17.4468448,10.6786656 17.7752449,11.1124638 L20.1393524,14.613949 C20.1545871,14.6258692 20.1672514,14.6407498 20.1765824,14.6576943 C20.2567964,14.7256464 20.3258867,14.8057283 20.3813477,14.8950358 C20.4423332,15.0014214 20.4774075,15.1206739 20.4837303,15.2431367 C20.4909817,15.2665203 20.4943559,15.2776551 20.4930378,15.2887435 C20.4930378,15.3036355 20.5023453,15.316666 20.5023453,15.3315581 C20.5023453,15.3464501 20.4930378,15.3604113 20.4930378,15.3743726 C20.4943326,15.3860322 20.4909895,15.3977333 20.4837303,15.4069489 C20.4777626,15.5142903 20.4621428,15.5955138 20.4371927,15.6740744 Z" transform="matrix(-1 0 0 1 29.836 0)"/>
  </g>
</svg>
