<svg width="40" height="40" viewBox="0 0 40 40" fill="none" xmlns="http://www.w3.org/2000/svg">
<rect width="40" height="40" rx="20" fill="#464646" fill-opacity="0.5"/>
<g clip-path="url(#clip0_1148_12851)">
<path d="M13.8584 9H15.1549L16.0079 11.7324L16.7358 9H18.0703L16.5311 13.5259L16.5349 17.0711H15.3142L15.318 13.5641L13.8584 9Z" fill="white"/>
<path d="M19.7385 11.1182C18.8173 11.1182 18.0742 11.8699 18.0742 12.7934V15.6975C18.0742 16.6248 18.8211 17.3728 19.7385 17.3728C20.6559 17.3728 21.4028 16.621 21.4028 15.6975V12.7934C21.4028 11.8661 20.6559 11.1182 19.7385 11.1182ZM20.2617 15.8273C20.2617 16.1287 20.0152 16.3768 19.7158 16.3768C19.4163 16.3768 19.1698 16.1287 19.1698 15.8273V12.6904C19.1698 12.3851 19.4163 12.1409 19.7158 12.1409C20.0152 12.1409 20.2617 12.3851 20.2617 12.6904V15.8311V15.8273Z" fill="white"/>
<path d="M24.3484 11.1182V15.9456C24.0565 16.1287 23.4234 16.5256 23.3058 16.5714C23.3058 16.5714 23.2983 16.5714 23.2945 16.5714V11.1182H22.2026V16.7431C22.2026 16.7431 22.2064 17.3766 23.0026 17.3766C23.0026 17.3766 23.5902 17.3575 24.3484 16.6439V17.0713H25.4819V11.1182H24.3484Z" fill="white"/>
<path d="M29 28.3289C29 29.8058 28.1243 31.0002 26.6609 31.0002H13.6537C12.1866 31.0002 11 29.8058 11 28.3289V21.2538C11 19.777 12.1866 18.5825 13.6537 18.5825H26.6571C28.1243 18.5825 28.9962 19.777 28.9962 21.2538V28.3289H29Z" fill="white"/>
<path d="M18.4227 22.5815V27.4089C18.1308 27.592 17.4977 27.9889 17.3802 28.0347H17.3726V22.5776H16.2808V28.2026C16.2808 28.2026 16.2846 28.8361 17.0807 28.8361C17.0807 28.8361 17.6683 28.817 18.4265 28.1034V28.5308H19.56V22.5776H18.4265L18.4227 22.5815Z" fill="#464646"/>
<path d="M15.9664 20.4028H14.7381H13.5894H12.2739V21.5973H13.5894V28.5694H14.7381V21.5973H15.9664V20.4028Z" fill="#464646"/>
<path d="M22.5967 22.5818C22.1077 22.5818 21.6983 22.9061 21.5618 23.3526V20.3989H20.4131V28.5693H21.5618V27.7984C21.702 28.2449 22.1077 28.5693 22.5967 28.5693C23.1995 28.5693 23.6848 28.077 23.6848 27.474V23.6808C23.6848 23.074 23.1957 22.5856 22.5967 22.5856V22.5818ZM22.5967 27.2909C22.5967 27.5771 22.3655 27.8137 22.0774 27.8137C21.7892 27.8137 21.5618 27.5809 21.5618 27.2909V24.0433C21.5618 23.7571 21.793 23.5243 22.0774 23.5243C22.3617 23.5243 22.5967 23.7571 22.5967 24.0433V27.2909Z" fill="#464646"/>
<path d="M26.5927 27.0731C26.5927 27.6723 26.0203 27.6723 26.0203 27.6723C25.4061 27.6723 25.4478 27.1151 25.4478 27.1151V25.7108H27.6997V24.2721C27.6997 23.3371 26.9491 22.5815 26.0203 22.5815C25.0915 22.5815 24.3408 23.3371 24.3408 24.2721V26.8823C24.3408 27.8173 25.0915 28.5729 26.0203 28.5729C26.9491 28.5729 27.6997 27.8173 27.6997 26.8823V26.4206L26.5965 26.39V27.0731H26.5927ZM25.444 24.0164C25.444 23.6997 25.7018 23.4402 26.0165 23.4402C26.3311 23.4402 26.5889 23.6997 26.5889 24.0164V24.7873C26.5889 24.8254 26.5851 24.8598 26.5776 24.8941H25.4516C25.444 24.8598 25.4402 24.8254 25.4402 24.7873V24.0164H25.444Z" fill="#464646"/>
</g>
<defs>
<clipPath id="clip0_1148_12851">
<rect width="18" height="22" fill="white" transform="translate(11 9)"/>
</clipPath>
</defs>
</svg>
